G04 #@! TF.FileFunction,Profile,NP*
%FSLAX46Y46*%
G04 Gerber Fmt 4.6, Leading zero omitted, Abs format (unit mm)*
G04 Created by KiCad (PCBNEW 4.0.6) date 06/28/18 12:37:24*
%MOMM*%
%LPD*%
G01*
G04 APERTURE LIST*
%ADD10C,0.150000*%
%ADD11C,0.010000*%
G04 APERTURE END LIST*
D10*
D11*
X188054117Y-125290277D02*
X187801454Y-125229579D01*
X188345342Y-125344379D02*
X188054117Y-125290277D01*
X188902606Y-125418477D02*
X188345342Y-125344379D01*
X189468768Y-125462824D02*
X188902606Y-125418477D01*
X186909352Y-124946728D02*
X186875617Y-124935246D01*
X186941429Y-124957648D02*
X186909352Y-124946728D01*
X186975189Y-124969075D02*
X186941429Y-124957648D01*
X187007257Y-124979934D02*
X186975189Y-124969075D01*
X187152939Y-125028816D02*
X187007257Y-124979934D01*
X187270563Y-125067696D02*
X187152939Y-125028816D01*
X187593519Y-125169848D02*
X187270563Y-125067696D01*
X187801454Y-125229579D02*
X187593519Y-125169848D01*
X184345152Y-123987688D02*
X183796583Y-123923163D01*
X185041930Y-124210872D02*
X184345152Y-123987688D01*
X185626252Y-124468154D02*
X185041930Y-124210872D01*
X186218856Y-124708491D02*
X185626252Y-124468154D01*
X186531894Y-124817112D02*
X186218856Y-124708491D01*
X186744029Y-124890220D02*
X186531894Y-124817112D01*
X186813089Y-124913900D02*
X186744029Y-124890220D01*
X186875617Y-124935246D02*
X186813089Y-124913900D01*
X189468739Y-125462827D02*
X189468768Y-125462824D01*
X189468739Y-125462819D02*
X189468739Y-125462827D01*
X190264027Y-125482112D02*
X189468739Y-125462819D01*
X191052030Y-125458342D02*
X190264027Y-125482112D01*
X191968830Y-125371702D02*
X191052030Y-125458342D01*
X198727650Y-124046149D02*
X198317371Y-123982194D01*
X199102782Y-124140852D02*
X198727650Y-124046149D01*
X199626615Y-124314504D02*
X199102782Y-124140852D01*
X200683579Y-124698517D02*
X199626615Y-124314504D01*
X201164849Y-124870422D02*
X200683579Y-124698517D01*
X202224701Y-125209343D02*
X201164849Y-124870422D01*
X202736882Y-125322064D02*
X202224701Y-125209343D01*
X203613617Y-125420556D02*
X202736882Y-125322064D01*
X192615601Y-125252314D02*
X191968830Y-125371702D01*
X193107977Y-125112186D02*
X192615601Y-125252314D01*
X194484741Y-124631947D02*
X193107977Y-125112186D01*
X195861279Y-124151891D02*
X194484741Y-124631947D01*
X196241469Y-124049144D02*
X195861279Y-124151891D01*
X196845804Y-123966118D02*
X196241469Y-124049144D01*
X197790962Y-123947657D02*
X196845804Y-123966118D01*
X198317371Y-123982194D02*
X197790962Y-123947657D01*
X204665169Y-125457415D02*
X203613617Y-125420556D01*
X206683959Y-125218401D02*
X207180382Y-125078774D01*
X205694916Y-125402031D02*
X206683959Y-125218401D01*
X204665169Y-125457415D02*
X205694916Y-125402031D01*
X209699943Y-124118861D02*
X210099943Y-124018861D01*
X209199943Y-124318861D02*
X209699943Y-124118861D01*
X208399943Y-124618861D02*
X209199943Y-124318861D01*
X208399943Y-124618861D02*
X208399943Y-124618861D01*
X207180382Y-125078774D02*
X208399943Y-124618861D01*
X185952757Y-145091834D02*
X185794665Y-145163607D01*
X186085799Y-145031146D02*
X185952757Y-145091834D01*
X186218859Y-144970488D02*
X186085799Y-145031146D01*
X186939174Y-144722174D02*
X186218859Y-144970488D01*
X187270566Y-144611284D02*
X186939174Y-144722174D01*
X187593521Y-144509141D02*
X187270566Y-144611284D01*
X187801457Y-144449397D02*
X187593521Y-144509141D01*
X188054119Y-144388707D02*
X187801457Y-144449397D01*
X184407217Y-145687057D02*
X184014225Y-145737606D01*
X185148365Y-145443061D02*
X184407217Y-145687057D01*
X185371295Y-145350460D02*
X185148365Y-145443061D01*
X185686279Y-145212397D02*
X185371295Y-145350460D01*
X185794665Y-145163607D02*
X185686279Y-145212397D01*
X188345345Y-144334600D02*
X188054119Y-144388707D01*
X188902606Y-144260500D02*
X188345345Y-144334600D01*
X189468771Y-144216155D02*
X188902606Y-144260500D01*
X189468742Y-144216158D02*
X189468742Y-144216152D01*
X189860013Y-144201363D02*
X189468742Y-144216158D01*
X190260488Y-144197126D02*
X189860013Y-144201363D01*
X190662829Y-144203682D02*
X190260488Y-144197126D01*
X191052033Y-144220635D02*
X190662829Y-144203682D01*
X191968836Y-144307277D02*
X191052033Y-144220635D01*
X192615604Y-144426665D02*
X191968836Y-144307277D01*
X193107980Y-144566794D02*
X192615604Y-144426665D01*
X189468742Y-144216152D02*
X189468771Y-144216155D01*
X197790974Y-145731322D02*
X197580466Y-145735446D01*
X198317371Y-145696785D02*
X197790974Y-145731322D01*
X198727661Y-145632831D02*
X198317371Y-145696785D01*
X199102782Y-145538127D02*
X198727661Y-145632831D01*
X199626615Y-145364476D02*
X199102782Y-145538127D01*
X200683579Y-144980462D02*
X199626615Y-145364476D01*
X201164857Y-144808557D02*
X200683579Y-144980462D01*
X202224701Y-144469633D02*
X201164857Y-144808557D01*
X194484744Y-145047032D02*
X193107980Y-144566794D01*
X195861267Y-145527086D02*
X194484744Y-145047032D01*
X196241469Y-145629841D02*
X195861267Y-145527086D01*
X196600309Y-145689997D02*
X196241469Y-145629841D01*
X197012316Y-145726259D02*
X196600309Y-145689997D01*
X197192245Y-145733137D02*
X197012316Y-145726259D01*
X197401233Y-145736212D02*
X197192245Y-145733137D01*
X197580466Y-145735446D02*
X197401233Y-145736212D01*
X202736882Y-144356915D02*
X202224701Y-144469633D01*
X203613629Y-144258423D02*
X202736882Y-144356915D01*
X204665180Y-144221565D02*
X203613629Y-144258423D01*
X209252763Y-145563017D02*
X210277347Y-145737606D01*
X208421730Y-145208435D02*
X209252763Y-145563017D01*
X207748832Y-144931796D02*
X208421730Y-145208435D01*
X206809245Y-144660974D02*
X207748832Y-144931796D01*
X206361566Y-144559347D02*
X206809245Y-144660974D01*
X205740660Y-144430643D02*
X206361566Y-144559347D01*
X205437527Y-144371015D02*
X205740660Y-144430643D01*
X204665180Y-144221565D02*
X205437527Y-144371015D01*
X182170694Y-124703208D02*
X181935891Y-124954737D01*
X182440885Y-124475317D02*
X182170694Y-124703208D01*
X182731131Y-124285300D02*
X182440885Y-124475317D01*
X182975464Y-124159728D02*
X182731131Y-124285300D01*
X183243937Y-124049728D02*
X182975464Y-124159728D01*
X183618205Y-123939648D02*
X183243937Y-124049728D01*
X183796583Y-123923166D02*
X183618205Y-123939648D01*
X181299943Y-125848861D02*
X181300010Y-142749242D01*
X212981808Y-126415510D02*
X212979899Y-143719935D01*
X181732142Y-125232535D02*
X181299943Y-125848861D01*
X181935891Y-124954737D02*
X181732142Y-125232535D01*
X212842768Y-126028687D02*
X212981808Y-126415510D01*
X212563022Y-125459235D02*
X212842768Y-126028687D01*
X212115121Y-124920546D02*
X212563022Y-125459235D01*
X211564028Y-124511996D02*
X212115121Y-124920546D01*
X210853977Y-124130567D02*
X211564028Y-124511996D01*
X210099943Y-124018861D02*
X210853977Y-124130567D01*
X181331636Y-143529036D02*
X181300010Y-142749242D01*
X181430477Y-143839543D02*
X181331636Y-143529036D01*
X181569165Y-144160164D02*
X181430477Y-143839543D01*
X181732142Y-144446492D02*
X181569165Y-144160164D01*
X182180037Y-144985177D02*
X181732142Y-144446492D01*
X182731131Y-145393727D02*
X182180037Y-144985177D01*
X183037617Y-145545547D02*
X182731131Y-145393727D01*
X183346206Y-145654641D02*
X183037617Y-145545547D01*
X183708780Y-145728520D02*
X183346206Y-145654641D01*
X184014225Y-145737606D02*
X183708780Y-145728520D01*
X212688311Y-144345298D02*
X212979899Y-143719935D01*
X212240410Y-144883986D02*
X212688311Y-144345298D01*
X211689317Y-145292533D02*
X212240410Y-144883986D01*
X211095297Y-145551836D02*
X211689317Y-145292533D01*
X210277347Y-145737606D02*
X211095297Y-145551836D01*
M02*
