G04 #@! TF.FileFunction,Legend,Bot*
%FSLAX46Y46*%
G04 Gerber Fmt 4.6, Leading zero omitted, Abs format (unit mm)*
G04 Created by KiCad (PCBNEW 4.0.6) date 06/28/18 12:37:23*
%MOMM*%
%LPD*%
G01*
G04 APERTURE LIST*
%ADD10C,0.150000*%
%ADD11C,0.050000*%
%ADD12C,0.010000*%
G04 APERTURE END LIST*
D10*
D11*
X210134142Y-140797000D02*
X210191285Y-140768429D01*
X210276999Y-140768429D01*
X210362714Y-140797000D01*
X210419856Y-140854143D01*
X210448428Y-140911286D01*
X210476999Y-141025571D01*
X210476999Y-141111286D01*
X210448428Y-141225571D01*
X210419856Y-141282714D01*
X210362714Y-141339857D01*
X210276999Y-141368429D01*
X210219856Y-141368429D01*
X210134142Y-141339857D01*
X210105571Y-141311286D01*
X210105571Y-141111286D01*
X210219856Y-141111286D01*
X209848428Y-141368429D02*
X209848428Y-140768429D01*
X209505571Y-141368429D01*
X209505571Y-140768429D01*
X209219857Y-141368429D02*
X209219857Y-140768429D01*
X209077000Y-140768429D01*
X208991285Y-140797000D01*
X208934143Y-140854143D01*
X208905571Y-140911286D01*
X208877000Y-141025571D01*
X208877000Y-141111286D01*
X208905571Y-141225571D01*
X208934143Y-141282714D01*
X208991285Y-141339857D01*
X209077000Y-141368429D01*
X209219857Y-141368429D01*
X210132572Y-138828429D02*
X210332572Y-138542714D01*
X210475429Y-138828429D02*
X210475429Y-138228429D01*
X210246857Y-138228429D01*
X210189715Y-138257000D01*
X210161143Y-138285571D01*
X210132572Y-138342714D01*
X210132572Y-138428429D01*
X210161143Y-138485571D01*
X210189715Y-138514143D01*
X210246857Y-138542714D01*
X210475429Y-138542714D01*
X209904000Y-138799857D02*
X209818286Y-138828429D01*
X209675429Y-138828429D01*
X209618286Y-138799857D01*
X209589715Y-138771286D01*
X209561143Y-138714143D01*
X209561143Y-138657000D01*
X209589715Y-138599857D01*
X209618286Y-138571286D01*
X209675429Y-138542714D01*
X209789715Y-138514143D01*
X209846857Y-138485571D01*
X209875429Y-138457000D01*
X209904000Y-138399857D01*
X209904000Y-138342714D01*
X209875429Y-138285571D01*
X209846857Y-138257000D01*
X209789715Y-138228429D01*
X209646857Y-138228429D01*
X209561143Y-138257000D01*
X209389714Y-138228429D02*
X209046857Y-138228429D01*
X209218286Y-138828429D02*
X209218286Y-138228429D01*
X210505571Y-136259857D02*
X210419857Y-136288429D01*
X210277000Y-136288429D01*
X210219857Y-136259857D01*
X210191286Y-136231286D01*
X210162714Y-136174143D01*
X210162714Y-136117000D01*
X210191286Y-136059857D01*
X210219857Y-136031286D01*
X210277000Y-136002714D01*
X210391286Y-135974143D01*
X210448428Y-135945571D01*
X210477000Y-135917000D01*
X210505571Y-135859857D01*
X210505571Y-135802714D01*
X210477000Y-135745571D01*
X210448428Y-135717000D01*
X210391286Y-135688429D01*
X210248428Y-135688429D01*
X210162714Y-135717000D01*
X209962714Y-135688429D02*
X209819857Y-136288429D01*
X209705571Y-135859857D01*
X209591285Y-136288429D01*
X209448428Y-135688429D01*
X209105571Y-135688429D02*
X208991285Y-135688429D01*
X208934143Y-135717000D01*
X208877000Y-135774143D01*
X208848428Y-135888429D01*
X208848428Y-136088429D01*
X208877000Y-136202714D01*
X208934143Y-136259857D01*
X208991285Y-136288429D01*
X209105571Y-136288429D01*
X209162714Y-136259857D01*
X209219857Y-136202714D01*
X209248428Y-136088429D01*
X209248428Y-135888429D01*
X209219857Y-135774143D01*
X209162714Y-135717000D01*
X209105571Y-135688429D01*
X210158000Y-133875429D02*
X210358000Y-133589714D01*
X210500857Y-133875429D02*
X210500857Y-133275429D01*
X210272285Y-133275429D01*
X210215143Y-133304000D01*
X210186571Y-133332571D01*
X210158000Y-133389714D01*
X210158000Y-133475429D01*
X210186571Y-133532571D01*
X210215143Y-133561143D01*
X210272285Y-133589714D01*
X210500857Y-133589714D01*
X209958000Y-133275429D02*
X209558000Y-133875429D01*
X209558000Y-133275429D02*
X209958000Y-133875429D01*
X210515143Y-130608429D02*
X210172286Y-130608429D01*
X210343715Y-131208429D02*
X210343715Y-130608429D01*
X210029429Y-130608429D02*
X209629429Y-131208429D01*
X209629429Y-130608429D02*
X210029429Y-131208429D01*
D12*
G36*
X195963369Y-132789084D02*
X195967989Y-132981700D01*
X196107370Y-133147032D01*
X196150974Y-133198676D01*
X196201594Y-133258497D01*
X196256141Y-133322856D01*
X196311526Y-133388109D01*
X196364662Y-133450615D01*
X196407416Y-133500817D01*
X196568081Y-133689270D01*
X196566166Y-133851769D01*
X196564250Y-134014267D01*
X196514862Y-134046613D01*
X196466817Y-134082880D01*
X196430031Y-134122358D01*
X196401654Y-134168388D01*
X196391067Y-134191648D01*
X196380457Y-134219320D01*
X196374171Y-134243533D01*
X196371125Y-134270701D01*
X196370237Y-134307238D01*
X196370223Y-134315044D01*
X196372706Y-134374466D01*
X196381031Y-134423215D01*
X196396511Y-134466659D01*
X196416383Y-134503597D01*
X196456081Y-134554811D01*
X196504137Y-134593782D01*
X196558273Y-134619397D01*
X196616212Y-134630542D01*
X196669418Y-134627336D01*
X196721167Y-134609950D01*
X196771015Y-134578488D01*
X196815842Y-134535744D01*
X196852531Y-134484514D01*
X196871081Y-134446646D01*
X196885355Y-134394401D01*
X196889432Y-134348130D01*
X196755818Y-134348130D01*
X196744449Y-134389133D01*
X196722676Y-134423702D01*
X196691733Y-134449623D01*
X196652856Y-134464684D01*
X196624156Y-134467600D01*
X196593763Y-134464981D01*
X196570937Y-134455922D01*
X196560651Y-134448550D01*
X196532705Y-134420663D01*
X196515787Y-134389511D01*
X196507527Y-134349947D01*
X196506086Y-134329926D01*
X196508921Y-134277605D01*
X196522503Y-134236213D01*
X196546646Y-134205971D01*
X196581166Y-134187099D01*
X196625878Y-134179818D01*
X196631889Y-134179734D01*
X196672665Y-134184482D01*
X196703921Y-134199859D01*
X196728127Y-134227560D01*
X196742403Y-134255679D01*
X196755548Y-134302908D01*
X196755818Y-134348130D01*
X196889432Y-134348130D01*
X196890615Y-134334717D01*
X196887087Y-134272954D01*
X196874997Y-134214475D01*
X196859668Y-134174388D01*
X196835277Y-134134728D01*
X196802212Y-134094895D01*
X196765183Y-134060071D01*
X196738049Y-134040603D01*
X196701834Y-134018582D01*
X196701115Y-133817641D01*
X196700395Y-133616700D01*
X196103129Y-132922434D01*
X196102621Y-132759450D01*
X196102112Y-132596467D01*
X195958750Y-132596467D01*
X195963369Y-132789084D01*
X195963369Y-132789084D01*
G37*
X195963369Y-132789084D02*
X195967989Y-132981700D01*
X196107370Y-133147032D01*
X196150974Y-133198676D01*
X196201594Y-133258497D01*
X196256141Y-133322856D01*
X196311526Y-133388109D01*
X196364662Y-133450615D01*
X196407416Y-133500817D01*
X196568081Y-133689270D01*
X196566166Y-133851769D01*
X196564250Y-134014267D01*
X196514862Y-134046613D01*
X196466817Y-134082880D01*
X196430031Y-134122358D01*
X196401654Y-134168388D01*
X196391067Y-134191648D01*
X196380457Y-134219320D01*
X196374171Y-134243533D01*
X196371125Y-134270701D01*
X196370237Y-134307238D01*
X196370223Y-134315044D01*
X196372706Y-134374466D01*
X196381031Y-134423215D01*
X196396511Y-134466659D01*
X196416383Y-134503597D01*
X196456081Y-134554811D01*
X196504137Y-134593782D01*
X196558273Y-134619397D01*
X196616212Y-134630542D01*
X196669418Y-134627336D01*
X196721167Y-134609950D01*
X196771015Y-134578488D01*
X196815842Y-134535744D01*
X196852531Y-134484514D01*
X196871081Y-134446646D01*
X196885355Y-134394401D01*
X196889432Y-134348130D01*
X196755818Y-134348130D01*
X196744449Y-134389133D01*
X196722676Y-134423702D01*
X196691733Y-134449623D01*
X196652856Y-134464684D01*
X196624156Y-134467600D01*
X196593763Y-134464981D01*
X196570937Y-134455922D01*
X196560651Y-134448550D01*
X196532705Y-134420663D01*
X196515787Y-134389511D01*
X196507527Y-134349947D01*
X196506086Y-134329926D01*
X196508921Y-134277605D01*
X196522503Y-134236213D01*
X196546646Y-134205971D01*
X196581166Y-134187099D01*
X196625878Y-134179818D01*
X196631889Y-134179734D01*
X196672665Y-134184482D01*
X196703921Y-134199859D01*
X196728127Y-134227560D01*
X196742403Y-134255679D01*
X196755548Y-134302908D01*
X196755818Y-134348130D01*
X196889432Y-134348130D01*
X196890615Y-134334717D01*
X196887087Y-134272954D01*
X196874997Y-134214475D01*
X196859668Y-134174388D01*
X196835277Y-134134728D01*
X196802212Y-134094895D01*
X196765183Y-134060071D01*
X196738049Y-134040603D01*
X196701834Y-134018582D01*
X196701115Y-133817641D01*
X196700395Y-133616700D01*
X196103129Y-132922434D01*
X196102621Y-132759450D01*
X196102112Y-132596467D01*
X195958750Y-132596467D01*
X195963369Y-132789084D01*
G36*
X195387777Y-133313827D02*
X195385973Y-134014253D01*
X195336584Y-134046183D01*
X195284120Y-134088021D01*
X195243223Y-134138649D01*
X195213859Y-134196667D01*
X195204488Y-134223187D01*
X195198906Y-134248167D01*
X195196205Y-134277674D01*
X195195478Y-134317774D01*
X195195477Y-134319560D01*
X195195984Y-134358428D01*
X195198248Y-134386733D01*
X195203378Y-134410828D01*
X195212482Y-134437064D01*
X195218663Y-134452465D01*
X195250215Y-134511648D01*
X195290949Y-134560179D01*
X195338785Y-134596794D01*
X195391641Y-134620228D01*
X195447438Y-134629218D01*
X195500200Y-134623495D01*
X195559048Y-134600885D01*
X195611439Y-134564224D01*
X195655618Y-134515105D01*
X195689834Y-134455123D01*
X195692761Y-134448300D01*
X195703214Y-134421357D01*
X195709575Y-134398156D01*
X195712831Y-134372718D01*
X195713970Y-134339063D01*
X195713988Y-134334888D01*
X195579478Y-134334888D01*
X195571711Y-134377163D01*
X195554303Y-134415033D01*
X195527245Y-134445131D01*
X195515233Y-134453361D01*
X195489197Y-134462990D01*
X195457286Y-134466885D01*
X195425606Y-134464926D01*
X195400261Y-134456994D01*
X195397970Y-134455656D01*
X195372391Y-134433770D01*
X195349349Y-134404101D01*
X195334021Y-134373384D01*
X195333505Y-134371799D01*
X195325457Y-134325636D01*
X195329655Y-134282305D01*
X195344259Y-134243669D01*
X195367427Y-134211586D01*
X195397320Y-134187919D01*
X195432094Y-134174526D01*
X195469910Y-134173270D01*
X195508926Y-134186011D01*
X195514373Y-134189013D01*
X195545054Y-134215269D01*
X195566139Y-134250576D01*
X195577618Y-134291570D01*
X195579478Y-134334888D01*
X195713988Y-134334888D01*
X195714056Y-134319434D01*
X195713552Y-134280068D01*
X195711380Y-134251636D01*
X195706553Y-134228159D01*
X195698083Y-134203658D01*
X195692761Y-134190567D01*
X195664038Y-134137339D01*
X195625866Y-134089548D01*
X195582306Y-134051888D01*
X195562148Y-134039561D01*
X195523556Y-134019080D01*
X195523556Y-132613400D01*
X195389582Y-132613400D01*
X195387777Y-133313827D01*
X195387777Y-133313827D01*
G37*
X195387777Y-133313827D02*
X195385973Y-134014253D01*
X195336584Y-134046183D01*
X195284120Y-134088021D01*
X195243223Y-134138649D01*
X195213859Y-134196667D01*
X195204488Y-134223187D01*
X195198906Y-134248167D01*
X195196205Y-134277674D01*
X195195478Y-134317774D01*
X195195477Y-134319560D01*
X195195984Y-134358428D01*
X195198248Y-134386733D01*
X195203378Y-134410828D01*
X195212482Y-134437064D01*
X195218663Y-134452465D01*
X195250215Y-134511648D01*
X195290949Y-134560179D01*
X195338785Y-134596794D01*
X195391641Y-134620228D01*
X195447438Y-134629218D01*
X195500200Y-134623495D01*
X195559048Y-134600885D01*
X195611439Y-134564224D01*
X195655618Y-134515105D01*
X195689834Y-134455123D01*
X195692761Y-134448300D01*
X195703214Y-134421357D01*
X195709575Y-134398156D01*
X195712831Y-134372718D01*
X195713970Y-134339063D01*
X195713988Y-134334888D01*
X195579478Y-134334888D01*
X195571711Y-134377163D01*
X195554303Y-134415033D01*
X195527245Y-134445131D01*
X195515233Y-134453361D01*
X195489197Y-134462990D01*
X195457286Y-134466885D01*
X195425606Y-134464926D01*
X195400261Y-134456994D01*
X195397970Y-134455656D01*
X195372391Y-134433770D01*
X195349349Y-134404101D01*
X195334021Y-134373384D01*
X195333505Y-134371799D01*
X195325457Y-134325636D01*
X195329655Y-134282305D01*
X195344259Y-134243669D01*
X195367427Y-134211586D01*
X195397320Y-134187919D01*
X195432094Y-134174526D01*
X195469910Y-134173270D01*
X195508926Y-134186011D01*
X195514373Y-134189013D01*
X195545054Y-134215269D01*
X195566139Y-134250576D01*
X195577618Y-134291570D01*
X195579478Y-134334888D01*
X195713988Y-134334888D01*
X195714056Y-134319434D01*
X195713552Y-134280068D01*
X195711380Y-134251636D01*
X195706553Y-134228159D01*
X195698083Y-134203658D01*
X195692761Y-134190567D01*
X195664038Y-134137339D01*
X195625866Y-134089548D01*
X195582306Y-134051888D01*
X195562148Y-134039561D01*
X195523556Y-134019080D01*
X195523556Y-132613400D01*
X195389582Y-132613400D01*
X195387777Y-133313827D01*
G36*
X194803889Y-132918103D02*
X194643375Y-133106270D01*
X194595116Y-133162919D01*
X194542125Y-133225250D01*
X194487431Y-133289693D01*
X194434061Y-133352677D01*
X194385045Y-133410632D01*
X194347132Y-133455569D01*
X194211402Y-133616700D01*
X194206655Y-133818328D01*
X194201909Y-134019955D01*
X194166580Y-134041438D01*
X194125438Y-134073193D01*
X194086281Y-134115494D01*
X194053563Y-134163048D01*
X194037797Y-134194418D01*
X194027889Y-134219625D01*
X194021793Y-134241601D01*
X194018627Y-134265949D01*
X194017511Y-134298268D01*
X194017458Y-134323667D01*
X194020168Y-134382133D01*
X194029037Y-134429659D01*
X194045821Y-134471390D01*
X194072273Y-134512473D01*
X194089037Y-134533615D01*
X194137547Y-134580847D01*
X194191319Y-134612449D01*
X194249683Y-134628140D01*
X194311494Y-134627701D01*
X194363729Y-134612613D01*
X194414443Y-134582469D01*
X194460675Y-134539060D01*
X194463526Y-134535738D01*
X194493357Y-134496114D01*
X194513774Y-134456931D01*
X194526455Y-134413349D01*
X194533077Y-134360532D01*
X194534586Y-134330748D01*
X194535204Y-134304881D01*
X194400245Y-134304881D01*
X194398514Y-134357165D01*
X194386051Y-134399538D01*
X194362344Y-134432693D01*
X194326884Y-134457325D01*
X194279158Y-134474126D01*
X194274723Y-134475169D01*
X194266316Y-134473649D01*
X194249566Y-134468876D01*
X194242973Y-134466782D01*
X194209921Y-134448430D01*
X194182866Y-134418916D01*
X194162972Y-134381713D01*
X194151402Y-134340292D01*
X194149322Y-134298127D01*
X194157894Y-134258690D01*
X194167045Y-134240256D01*
X194189253Y-134210898D01*
X194214139Y-134192820D01*
X194246000Y-134183481D01*
X194266821Y-134181229D01*
X194303680Y-134181479D01*
X194331996Y-134189433D01*
X194356546Y-134207201D01*
X194376578Y-134229769D01*
X194389564Y-134249622D01*
X194396678Y-134271845D01*
X194400164Y-134303564D01*
X194400245Y-134304881D01*
X194535204Y-134304881D01*
X194535542Y-134290773D01*
X194534751Y-134262291D01*
X194531581Y-134239910D01*
X194525398Y-134218242D01*
X194519429Y-134201902D01*
X194490320Y-134144062D01*
X194450965Y-134092977D01*
X194404906Y-134052981D01*
X194390004Y-134043617D01*
X194345278Y-134018002D01*
X194345278Y-133682462D01*
X194530482Y-133463315D01*
X194578859Y-133406086D01*
X194629443Y-133346269D01*
X194680034Y-133286467D01*
X194728431Y-133229280D01*
X194772431Y-133177309D01*
X194809835Y-133133157D01*
X194827255Y-133112608D01*
X194938823Y-132981049D01*
X194943008Y-132792991D01*
X194947192Y-132604934D01*
X194803889Y-132604934D01*
X194803889Y-132918103D01*
X194803889Y-132918103D01*
G37*
X194803889Y-132918103D02*
X194643375Y-133106270D01*
X194595116Y-133162919D01*
X194542125Y-133225250D01*
X194487431Y-133289693D01*
X194434061Y-133352677D01*
X194385045Y-133410632D01*
X194347132Y-133455569D01*
X194211402Y-133616700D01*
X194206655Y-133818328D01*
X194201909Y-134019955D01*
X194166580Y-134041438D01*
X194125438Y-134073193D01*
X194086281Y-134115494D01*
X194053563Y-134163048D01*
X194037797Y-134194418D01*
X194027889Y-134219625D01*
X194021793Y-134241601D01*
X194018627Y-134265949D01*
X194017511Y-134298268D01*
X194017458Y-134323667D01*
X194020168Y-134382133D01*
X194029037Y-134429659D01*
X194045821Y-134471390D01*
X194072273Y-134512473D01*
X194089037Y-134533615D01*
X194137547Y-134580847D01*
X194191319Y-134612449D01*
X194249683Y-134628140D01*
X194311494Y-134627701D01*
X194363729Y-134612613D01*
X194414443Y-134582469D01*
X194460675Y-134539060D01*
X194463526Y-134535738D01*
X194493357Y-134496114D01*
X194513774Y-134456931D01*
X194526455Y-134413349D01*
X194533077Y-134360532D01*
X194534586Y-134330748D01*
X194535204Y-134304881D01*
X194400245Y-134304881D01*
X194398514Y-134357165D01*
X194386051Y-134399538D01*
X194362344Y-134432693D01*
X194326884Y-134457325D01*
X194279158Y-134474126D01*
X194274723Y-134475169D01*
X194266316Y-134473649D01*
X194249566Y-134468876D01*
X194242973Y-134466782D01*
X194209921Y-134448430D01*
X194182866Y-134418916D01*
X194162972Y-134381713D01*
X194151402Y-134340292D01*
X194149322Y-134298127D01*
X194157894Y-134258690D01*
X194167045Y-134240256D01*
X194189253Y-134210898D01*
X194214139Y-134192820D01*
X194246000Y-134183481D01*
X194266821Y-134181229D01*
X194303680Y-134181479D01*
X194331996Y-134189433D01*
X194356546Y-134207201D01*
X194376578Y-134229769D01*
X194389564Y-134249622D01*
X194396678Y-134271845D01*
X194400164Y-134303564D01*
X194400245Y-134304881D01*
X194535204Y-134304881D01*
X194535542Y-134290773D01*
X194534751Y-134262291D01*
X194531581Y-134239910D01*
X194525398Y-134218242D01*
X194519429Y-134201902D01*
X194490320Y-134144062D01*
X194450965Y-134092977D01*
X194404906Y-134052981D01*
X194390004Y-134043617D01*
X194345278Y-134018002D01*
X194345278Y-133682462D01*
X194530482Y-133463315D01*
X194578859Y-133406086D01*
X194629443Y-133346269D01*
X194680034Y-133286467D01*
X194728431Y-133229280D01*
X194772431Y-133177309D01*
X194809835Y-133133157D01*
X194827255Y-133112608D01*
X194938823Y-132981049D01*
X194943008Y-132792991D01*
X194947192Y-132604934D01*
X194803889Y-132604934D01*
X194803889Y-132918103D01*
G36*
X189797907Y-133140174D02*
X189777258Y-133140892D01*
X189715618Y-133143966D01*
X189664018Y-133148666D01*
X189618405Y-133155775D01*
X189574727Y-133166081D01*
X189528930Y-133180367D01*
X189478709Y-133198749D01*
X189413445Y-133223795D01*
X189413445Y-133453263D01*
X189436375Y-133434921D01*
X189474856Y-133407717D01*
X189522185Y-133379673D01*
X189573392Y-133353388D01*
X189623510Y-133331460D01*
X189656862Y-133319602D01*
X189708616Y-133306934D01*
X189764932Y-133298854D01*
X189821593Y-133295564D01*
X189874382Y-133297263D01*
X189919079Y-133304151D01*
X189928500Y-133306709D01*
X189985248Y-133329635D01*
X190032854Y-133360775D01*
X190069990Y-133398934D01*
X190095326Y-133442916D01*
X190102114Y-133462784D01*
X190110287Y-133515597D01*
X190107297Y-133569615D01*
X190094045Y-133620538D01*
X190071434Y-133664066D01*
X190056045Y-133682584D01*
X190038751Y-133696779D01*
X190015073Y-133710245D01*
X189983519Y-133723529D01*
X189942596Y-133737180D01*
X189890811Y-133751746D01*
X189826670Y-133767775D01*
X189819139Y-133769570D01*
X189740577Y-133788866D01*
X189674453Y-133806699D01*
X189619206Y-133823730D01*
X189573277Y-133840621D01*
X189535105Y-133858033D01*
X189503128Y-133876630D01*
X189475786Y-133897073D01*
X189451519Y-133920024D01*
X189443280Y-133928976D01*
X189405720Y-133982322D01*
X189379180Y-134044359D01*
X189363911Y-134112834D01*
X189360164Y-134185497D01*
X189368188Y-134260096D01*
X189388235Y-134334379D01*
X189395919Y-134354525D01*
X189430401Y-134420034D01*
X189477569Y-134478497D01*
X189537189Y-134529685D01*
X189609030Y-134573371D01*
X189629373Y-134583329D01*
X189645543Y-134590649D01*
X189660188Y-134596245D01*
X189675550Y-134600386D01*
X189693867Y-134603341D01*
X189717380Y-134605378D01*
X189748330Y-134606767D01*
X189788955Y-134607777D01*
X189840306Y-134608658D01*
X189895849Y-134609330D01*
X189939761Y-134609282D01*
X189974511Y-134608370D01*
X190002572Y-134606448D01*
X190026413Y-134603368D01*
X190048507Y-134598984D01*
X190062556Y-134595510D01*
X190095226Y-134585929D01*
X190135234Y-134572692D01*
X190176624Y-134557828D01*
X190201903Y-134548071D01*
X190281278Y-134516344D01*
X190282801Y-134439055D01*
X190283417Y-134385651D01*
X190283057Y-134341124D01*
X190281790Y-134307732D01*
X190279682Y-134287738D01*
X190278174Y-134283253D01*
X190271279Y-134285684D01*
X190256551Y-134295666D01*
X190242595Y-134306632D01*
X190169260Y-134358542D01*
X190088425Y-134400436D01*
X190003175Y-134431369D01*
X189916599Y-134450391D01*
X189831784Y-134456556D01*
X189769373Y-134451908D01*
X189700192Y-134436827D01*
X189643264Y-134413641D01*
X189598331Y-134382079D01*
X189565138Y-134341868D01*
X189543426Y-134292738D01*
X189532938Y-134234416D01*
X189531828Y-134201126D01*
X189534360Y-134154266D01*
X189542168Y-134118699D01*
X189556969Y-134089328D01*
X189578312Y-134063325D01*
X189594576Y-134048397D01*
X189614334Y-134034955D01*
X189639255Y-134022370D01*
X189671009Y-134010012D01*
X189711264Y-133997253D01*
X189761688Y-133983461D01*
X189823951Y-133968009D01*
X189843151Y-133963437D01*
X189891104Y-133951856D01*
X189936507Y-133940443D01*
X189976807Y-133929875D01*
X190009446Y-133920829D01*
X190031872Y-133913981D01*
X190037718Y-133911890D01*
X190107384Y-133877524D01*
X190165492Y-133833904D01*
X190211816Y-133781436D01*
X190246131Y-133720523D01*
X190268212Y-133651569D01*
X190277834Y-133574981D01*
X190274771Y-133491162D01*
X190274315Y-133487082D01*
X190261391Y-133418748D01*
X190238547Y-133359467D01*
X190204072Y-133305325D01*
X190184558Y-133281877D01*
X190131409Y-133232371D01*
X190068966Y-133191403D01*
X190001044Y-133161250D01*
X189964230Y-133150457D01*
X189938118Y-133144980D01*
X189911542Y-133141373D01*
X189881388Y-133139475D01*
X189844548Y-133139128D01*
X189797907Y-133140174D01*
X189797907Y-133140174D01*
G37*
X189797907Y-133140174D02*
X189777258Y-133140892D01*
X189715618Y-133143966D01*
X189664018Y-133148666D01*
X189618405Y-133155775D01*
X189574727Y-133166081D01*
X189528930Y-133180367D01*
X189478709Y-133198749D01*
X189413445Y-133223795D01*
X189413445Y-133453263D01*
X189436375Y-133434921D01*
X189474856Y-133407717D01*
X189522185Y-133379673D01*
X189573392Y-133353388D01*
X189623510Y-133331460D01*
X189656862Y-133319602D01*
X189708616Y-133306934D01*
X189764932Y-133298854D01*
X189821593Y-133295564D01*
X189874382Y-133297263D01*
X189919079Y-133304151D01*
X189928500Y-133306709D01*
X189985248Y-133329635D01*
X190032854Y-133360775D01*
X190069990Y-133398934D01*
X190095326Y-133442916D01*
X190102114Y-133462784D01*
X190110287Y-133515597D01*
X190107297Y-133569615D01*
X190094045Y-133620538D01*
X190071434Y-133664066D01*
X190056045Y-133682584D01*
X190038751Y-133696779D01*
X190015073Y-133710245D01*
X189983519Y-133723529D01*
X189942596Y-133737180D01*
X189890811Y-133751746D01*
X189826670Y-133767775D01*
X189819139Y-133769570D01*
X189740577Y-133788866D01*
X189674453Y-133806699D01*
X189619206Y-133823730D01*
X189573277Y-133840621D01*
X189535105Y-133858033D01*
X189503128Y-133876630D01*
X189475786Y-133897073D01*
X189451519Y-133920024D01*
X189443280Y-133928976D01*
X189405720Y-133982322D01*
X189379180Y-134044359D01*
X189363911Y-134112834D01*
X189360164Y-134185497D01*
X189368188Y-134260096D01*
X189388235Y-134334379D01*
X189395919Y-134354525D01*
X189430401Y-134420034D01*
X189477569Y-134478497D01*
X189537189Y-134529685D01*
X189609030Y-134573371D01*
X189629373Y-134583329D01*
X189645543Y-134590649D01*
X189660188Y-134596245D01*
X189675550Y-134600386D01*
X189693867Y-134603341D01*
X189717380Y-134605378D01*
X189748330Y-134606767D01*
X189788955Y-134607777D01*
X189840306Y-134608658D01*
X189895849Y-134609330D01*
X189939761Y-134609282D01*
X189974511Y-134608370D01*
X190002572Y-134606448D01*
X190026413Y-134603368D01*
X190048507Y-134598984D01*
X190062556Y-134595510D01*
X190095226Y-134585929D01*
X190135234Y-134572692D01*
X190176624Y-134557828D01*
X190201903Y-134548071D01*
X190281278Y-134516344D01*
X190282801Y-134439055D01*
X190283417Y-134385651D01*
X190283057Y-134341124D01*
X190281790Y-134307732D01*
X190279682Y-134287738D01*
X190278174Y-134283253D01*
X190271279Y-134285684D01*
X190256551Y-134295666D01*
X190242595Y-134306632D01*
X190169260Y-134358542D01*
X190088425Y-134400436D01*
X190003175Y-134431369D01*
X189916599Y-134450391D01*
X189831784Y-134456556D01*
X189769373Y-134451908D01*
X189700192Y-134436827D01*
X189643264Y-134413641D01*
X189598331Y-134382079D01*
X189565138Y-134341868D01*
X189543426Y-134292738D01*
X189532938Y-134234416D01*
X189531828Y-134201126D01*
X189534360Y-134154266D01*
X189542168Y-134118699D01*
X189556969Y-134089328D01*
X189578312Y-134063325D01*
X189594576Y-134048397D01*
X189614334Y-134034955D01*
X189639255Y-134022370D01*
X189671009Y-134010012D01*
X189711264Y-133997253D01*
X189761688Y-133983461D01*
X189823951Y-133968009D01*
X189843151Y-133963437D01*
X189891104Y-133951856D01*
X189936507Y-133940443D01*
X189976807Y-133929875D01*
X190009446Y-133920829D01*
X190031872Y-133913981D01*
X190037718Y-133911890D01*
X190107384Y-133877524D01*
X190165492Y-133833904D01*
X190211816Y-133781436D01*
X190246131Y-133720523D01*
X190268212Y-133651569D01*
X190277834Y-133574981D01*
X190274771Y-133491162D01*
X190274315Y-133487082D01*
X190261391Y-133418748D01*
X190238547Y-133359467D01*
X190204072Y-133305325D01*
X190184558Y-133281877D01*
X190131409Y-133232371D01*
X190068966Y-133191403D01*
X190001044Y-133161250D01*
X189964230Y-133150457D01*
X189938118Y-133144980D01*
X189911542Y-133141373D01*
X189881388Y-133139475D01*
X189844548Y-133139128D01*
X189797907Y-133140174D01*
G36*
X192060049Y-133282206D02*
X192039942Y-133282267D01*
X191918167Y-133282267D01*
X191918167Y-133567002D01*
X191873369Y-133651118D01*
X191860257Y-133675520D01*
X191840382Y-133712219D01*
X191814746Y-133759372D01*
X191784355Y-133815140D01*
X191750213Y-133877681D01*
X191713322Y-133945154D01*
X191674688Y-134015720D01*
X191640536Y-134078018D01*
X191452500Y-134420803D01*
X191452500Y-134594600D01*
X192644889Y-134594600D01*
X192644889Y-134534144D01*
X192603527Y-134534144D01*
X192603354Y-134545776D01*
X192603339Y-134545917D01*
X192596336Y-134546912D01*
X192576286Y-134547859D01*
X192544255Y-134548746D01*
X192501307Y-134549561D01*
X192448507Y-134550291D01*
X192386920Y-134550926D01*
X192317610Y-134551452D01*
X192241642Y-134551857D01*
X192160081Y-134552130D01*
X192073992Y-134552258D01*
X192045167Y-134552267D01*
X191487778Y-134552267D01*
X191487778Y-134434720D01*
X191720612Y-134010655D01*
X191953445Y-133586591D01*
X191953445Y-133324122D01*
X192147473Y-133328834D01*
X192151000Y-133468534D01*
X192154528Y-133608234D01*
X192601128Y-134421084D01*
X192602625Y-134480325D01*
X192603266Y-134510689D01*
X192603527Y-134534144D01*
X192644889Y-134534144D01*
X192644889Y-134422565D01*
X192187549Y-133589111D01*
X192185126Y-133454739D01*
X192184230Y-133396594D01*
X192182726Y-133353182D01*
X192178813Y-133322361D01*
X192170690Y-133301990D01*
X192156554Y-133289930D01*
X192134603Y-133284040D01*
X192103035Y-133282179D01*
X192060049Y-133282206D01*
X192060049Y-133282206D01*
G37*
X192060049Y-133282206D02*
X192039942Y-133282267D01*
X191918167Y-133282267D01*
X191918167Y-133567002D01*
X191873369Y-133651118D01*
X191860257Y-133675520D01*
X191840382Y-133712219D01*
X191814746Y-133759372D01*
X191784355Y-133815140D01*
X191750213Y-133877681D01*
X191713322Y-133945154D01*
X191674688Y-134015720D01*
X191640536Y-134078018D01*
X191452500Y-134420803D01*
X191452500Y-134594600D01*
X192644889Y-134594600D01*
X192644889Y-134534144D01*
X192603527Y-134534144D01*
X192603354Y-134545776D01*
X192603339Y-134545917D01*
X192596336Y-134546912D01*
X192576286Y-134547859D01*
X192544255Y-134548746D01*
X192501307Y-134549561D01*
X192448507Y-134550291D01*
X192386920Y-134550926D01*
X192317610Y-134551452D01*
X192241642Y-134551857D01*
X192160081Y-134552130D01*
X192073992Y-134552258D01*
X192045167Y-134552267D01*
X191487778Y-134552267D01*
X191487778Y-134434720D01*
X191720612Y-134010655D01*
X191953445Y-133586591D01*
X191953445Y-133324122D01*
X192147473Y-133328834D01*
X192151000Y-133468534D01*
X192154528Y-133608234D01*
X192601128Y-134421084D01*
X192602625Y-134480325D01*
X192603266Y-134510689D01*
X192603527Y-134534144D01*
X192644889Y-134534144D01*
X192644889Y-134422565D01*
X192187549Y-133589111D01*
X192185126Y-133454739D01*
X192184230Y-133396594D01*
X192182726Y-133353182D01*
X192178813Y-133322361D01*
X192170690Y-133301990D01*
X192156554Y-133289930D01*
X192134603Y-133284040D01*
X192103035Y-133282179D01*
X192060049Y-133282206D01*
G36*
X193320504Y-133796617D02*
X193318695Y-134421034D01*
X193020598Y-134423242D01*
X192722500Y-134425451D01*
X192722500Y-134586133D01*
X193477445Y-134586133D01*
X193477445Y-133172200D01*
X193322314Y-133172200D01*
X193320504Y-133796617D01*
X193320504Y-133796617D01*
G37*
X193320504Y-133796617D02*
X193318695Y-134421034D01*
X193020598Y-134423242D01*
X192722500Y-134425451D01*
X192722500Y-134586133D01*
X193477445Y-134586133D01*
X193477445Y-133172200D01*
X193322314Y-133172200D01*
X193320504Y-133796617D01*
G36*
X191094431Y-133170337D02*
X191023515Y-133171008D01*
X190965190Y-133171716D01*
X190917938Y-133172554D01*
X190880239Y-133173616D01*
X190850574Y-133174996D01*
X190827424Y-133176788D01*
X190809269Y-133179087D01*
X190794590Y-133181986D01*
X190781867Y-133185579D01*
X190769583Y-133189960D01*
X190768112Y-133190525D01*
X190707821Y-133218183D01*
X190660069Y-133250226D01*
X190623526Y-133287922D01*
X190596863Y-133332536D01*
X190584321Y-133365458D01*
X190577043Y-133391782D01*
X190572855Y-133417104D01*
X190571248Y-133446943D01*
X190571711Y-133486818D01*
X190572062Y-133498167D01*
X190576189Y-133554883D01*
X190585491Y-133602299D01*
X190601580Y-133643744D01*
X190626068Y-133682548D01*
X190660565Y-133722042D01*
X190697432Y-133757259D01*
X190721761Y-133779284D01*
X190693783Y-133790172D01*
X190629984Y-133822109D01*
X190574604Y-133864402D01*
X190529191Y-133915575D01*
X190495289Y-133974155D01*
X190491397Y-133983234D01*
X190482077Y-134006564D01*
X190475668Y-134025838D01*
X190471627Y-134045082D01*
X190469407Y-134068319D01*
X190468464Y-134099576D01*
X190468253Y-134142876D01*
X190468250Y-134154132D01*
X190468400Y-134200811D01*
X190469195Y-134234597D01*
X190471154Y-134259528D01*
X190474796Y-134279644D01*
X190480640Y-134298984D01*
X190489204Y-134321587D01*
X190490026Y-134323667D01*
X190525416Y-134393608D01*
X190572333Y-134454127D01*
X190630332Y-134504765D01*
X190698967Y-134545064D01*
X190709963Y-134550105D01*
X190724951Y-134556425D01*
X190739449Y-134561450D01*
X190755430Y-134565410D01*
X190774865Y-134568533D01*
X190799726Y-134571047D01*
X190831985Y-134573182D01*
X190873614Y-134575166D01*
X190926584Y-134577229D01*
X190951556Y-134578133D01*
X191010318Y-134580093D01*
X191071529Y-134581883D01*
X191131653Y-134583416D01*
X191187153Y-134584608D01*
X191234493Y-134585373D01*
X191260237Y-134585605D01*
X191374889Y-134586133D01*
X191374889Y-134281751D01*
X191218476Y-134281751D01*
X191218345Y-134333323D01*
X191217992Y-134375262D01*
X191217428Y-134405379D01*
X191216667Y-134421483D01*
X191216373Y-134423356D01*
X191212314Y-134427245D01*
X191201956Y-134429834D01*
X191183648Y-134431195D01*
X191155742Y-134431398D01*
X191116587Y-134430516D01*
X191080446Y-134429247D01*
X191031728Y-134427097D01*
X190981426Y-134424392D01*
X190933784Y-134421394D01*
X190893045Y-134418364D01*
X190870975Y-134416369D01*
X190806819Y-134405416D01*
X190753772Y-134386290D01*
X190710278Y-134358281D01*
X190682373Y-134330283D01*
X190658964Y-134297842D01*
X190643663Y-134264419D01*
X190635092Y-134225344D01*
X190631876Y-134175946D01*
X190631749Y-134158567D01*
X190635111Y-134095608D01*
X190645734Y-134045070D01*
X190664851Y-134004062D01*
X190693698Y-133969693D01*
X190722250Y-133946683D01*
X190741796Y-133934968D01*
X190764778Y-133925543D01*
X190792810Y-133918191D01*
X190827507Y-133912694D01*
X190870483Y-133908836D01*
X190923352Y-133906399D01*
X190987728Y-133905166D01*
X191032695Y-133904913D01*
X191216139Y-133904567D01*
X191218011Y-134158474D01*
X191218369Y-134222738D01*
X191218476Y-134281751D01*
X191374889Y-134281751D01*
X191374889Y-133635888D01*
X191218479Y-133635888D01*
X191218223Y-133679483D01*
X191217678Y-133712690D01*
X191216864Y-133732987D01*
X191216263Y-133737900D01*
X191212637Y-133741893D01*
X191203593Y-133744590D01*
X191187411Y-133746064D01*
X191162368Y-133746387D01*
X191126743Y-133745631D01*
X191078814Y-133743871D01*
X191076782Y-133743787D01*
X191031069Y-133741547D01*
X190987144Y-133738748D01*
X190948150Y-133735637D01*
X190917231Y-133732463D01*
X190898639Y-133729706D01*
X190843148Y-133712628D01*
X190799177Y-133685896D01*
X190766594Y-133649407D01*
X190748400Y-133612467D01*
X190740727Y-133578318D01*
X190737422Y-133535141D01*
X190738399Y-133489539D01*
X190743570Y-133448111D01*
X190750937Y-133421740D01*
X190766950Y-133394236D01*
X190791048Y-133371746D01*
X190824133Y-133354021D01*
X190867104Y-133340813D01*
X190920862Y-133331872D01*
X190986309Y-133326950D01*
X191064344Y-133325796D01*
X191096195Y-133326266D01*
X191216139Y-133328834D01*
X191218037Y-133527625D01*
X191218424Y-133584428D01*
X191218479Y-133635888D01*
X191374889Y-133635888D01*
X191374889Y-133167866D01*
X191094431Y-133170337D01*
X191094431Y-133170337D01*
G37*
X191094431Y-133170337D02*
X191023515Y-133171008D01*
X190965190Y-133171716D01*
X190917938Y-133172554D01*
X190880239Y-133173616D01*
X190850574Y-133174996D01*
X190827424Y-133176788D01*
X190809269Y-133179087D01*
X190794590Y-133181986D01*
X190781867Y-133185579D01*
X190769583Y-133189960D01*
X190768112Y-133190525D01*
X190707821Y-133218183D01*
X190660069Y-133250226D01*
X190623526Y-133287922D01*
X190596863Y-133332536D01*
X190584321Y-133365458D01*
X190577043Y-133391782D01*
X190572855Y-133417104D01*
X190571248Y-133446943D01*
X190571711Y-133486818D01*
X190572062Y-133498167D01*
X190576189Y-133554883D01*
X190585491Y-133602299D01*
X190601580Y-133643744D01*
X190626068Y-133682548D01*
X190660565Y-133722042D01*
X190697432Y-133757259D01*
X190721761Y-133779284D01*
X190693783Y-133790172D01*
X190629984Y-133822109D01*
X190574604Y-133864402D01*
X190529191Y-133915575D01*
X190495289Y-133974155D01*
X190491397Y-133983234D01*
X190482077Y-134006564D01*
X190475668Y-134025838D01*
X190471627Y-134045082D01*
X190469407Y-134068319D01*
X190468464Y-134099576D01*
X190468253Y-134142876D01*
X190468250Y-134154132D01*
X190468400Y-134200811D01*
X190469195Y-134234597D01*
X190471154Y-134259528D01*
X190474796Y-134279644D01*
X190480640Y-134298984D01*
X190489204Y-134321587D01*
X190490026Y-134323667D01*
X190525416Y-134393608D01*
X190572333Y-134454127D01*
X190630332Y-134504765D01*
X190698967Y-134545064D01*
X190709963Y-134550105D01*
X190724951Y-134556425D01*
X190739449Y-134561450D01*
X190755430Y-134565410D01*
X190774865Y-134568533D01*
X190799726Y-134571047D01*
X190831985Y-134573182D01*
X190873614Y-134575166D01*
X190926584Y-134577229D01*
X190951556Y-134578133D01*
X191010318Y-134580093D01*
X191071529Y-134581883D01*
X191131653Y-134583416D01*
X191187153Y-134584608D01*
X191234493Y-134585373D01*
X191260237Y-134585605D01*
X191374889Y-134586133D01*
X191374889Y-134281751D01*
X191218476Y-134281751D01*
X191218345Y-134333323D01*
X191217992Y-134375262D01*
X191217428Y-134405379D01*
X191216667Y-134421483D01*
X191216373Y-134423356D01*
X191212314Y-134427245D01*
X191201956Y-134429834D01*
X191183648Y-134431195D01*
X191155742Y-134431398D01*
X191116587Y-134430516D01*
X191080446Y-134429247D01*
X191031728Y-134427097D01*
X190981426Y-134424392D01*
X190933784Y-134421394D01*
X190893045Y-134418364D01*
X190870975Y-134416369D01*
X190806819Y-134405416D01*
X190753772Y-134386290D01*
X190710278Y-134358281D01*
X190682373Y-134330283D01*
X190658964Y-134297842D01*
X190643663Y-134264419D01*
X190635092Y-134225344D01*
X190631876Y-134175946D01*
X190631749Y-134158567D01*
X190635111Y-134095608D01*
X190645734Y-134045070D01*
X190664851Y-134004062D01*
X190693698Y-133969693D01*
X190722250Y-133946683D01*
X190741796Y-133934968D01*
X190764778Y-133925543D01*
X190792810Y-133918191D01*
X190827507Y-133912694D01*
X190870483Y-133908836D01*
X190923352Y-133906399D01*
X190987728Y-133905166D01*
X191032695Y-133904913D01*
X191216139Y-133904567D01*
X191218011Y-134158474D01*
X191218369Y-134222738D01*
X191218476Y-134281751D01*
X191374889Y-134281751D01*
X191374889Y-133635888D01*
X191218479Y-133635888D01*
X191218223Y-133679483D01*
X191217678Y-133712690D01*
X191216864Y-133732987D01*
X191216263Y-133737900D01*
X191212637Y-133741893D01*
X191203593Y-133744590D01*
X191187411Y-133746064D01*
X191162368Y-133746387D01*
X191126743Y-133745631D01*
X191078814Y-133743871D01*
X191076782Y-133743787D01*
X191031069Y-133741547D01*
X190987144Y-133738748D01*
X190948150Y-133735637D01*
X190917231Y-133732463D01*
X190898639Y-133729706D01*
X190843148Y-133712628D01*
X190799177Y-133685896D01*
X190766594Y-133649407D01*
X190748400Y-133612467D01*
X190740727Y-133578318D01*
X190737422Y-133535141D01*
X190738399Y-133489539D01*
X190743570Y-133448111D01*
X190750937Y-133421740D01*
X190766950Y-133394236D01*
X190791048Y-133371746D01*
X190824133Y-133354021D01*
X190867104Y-133340813D01*
X190920862Y-133331872D01*
X190986309Y-133326950D01*
X191064344Y-133325796D01*
X191096195Y-133326266D01*
X191216139Y-133328834D01*
X191218037Y-133527625D01*
X191218424Y-133584428D01*
X191218479Y-133635888D01*
X191374889Y-133635888D01*
X191374889Y-133167866D01*
X191094431Y-133170337D01*
G36*
X194195348Y-131923179D02*
X194144867Y-131924847D01*
X194099281Y-131926435D01*
X194060409Y-131927873D01*
X194030070Y-131929090D01*
X194010083Y-131930016D01*
X194002268Y-131930581D01*
X194002225Y-131930603D01*
X193998591Y-131937918D01*
X193988482Y-131958453D01*
X193972575Y-131990830D01*
X193951544Y-132033673D01*
X193926067Y-132085602D01*
X193896820Y-132145240D01*
X193864478Y-132211209D01*
X193829718Y-132282132D01*
X193819852Y-132302265D01*
X193638338Y-132672697D01*
X191700685Y-132670565D01*
X189763032Y-132668434D01*
X189743270Y-132618970D01*
X189719225Y-132571980D01*
X189686557Y-132526254D01*
X189649450Y-132486938D01*
X189614528Y-132460581D01*
X189596774Y-132451130D01*
X189579597Y-132445040D01*
X189559137Y-132441603D01*
X189531532Y-132440108D01*
X189501639Y-132439834D01*
X189465495Y-132440286D01*
X189439589Y-132442117D01*
X189420057Y-132446034D01*
X189403037Y-132452745D01*
X189388750Y-132460533D01*
X189349817Y-132489983D01*
X189312899Y-132529754D01*
X189281731Y-132575105D01*
X189260044Y-132621290D01*
X189258416Y-132626163D01*
X189244641Y-132691074D01*
X189242205Y-132760199D01*
X189251107Y-132827675D01*
X189258415Y-132854700D01*
X189280660Y-132904991D01*
X189312877Y-132952394D01*
X189351454Y-132992617D01*
X189392776Y-133021374D01*
X189402862Y-133026162D01*
X189462098Y-133044988D01*
X189517402Y-133048650D01*
X189554556Y-133042379D01*
X189612723Y-133018868D01*
X189663864Y-132982014D01*
X189706296Y-132933369D01*
X189738332Y-132874487D01*
X189739292Y-132872143D01*
X189754923Y-132833534D01*
X190594893Y-132832304D01*
X190704137Y-132832119D01*
X190825809Y-132831868D01*
X190958227Y-132831556D01*
X191099707Y-132831189D01*
X191248568Y-132830772D01*
X191403126Y-132830310D01*
X191561698Y-132829809D01*
X191722602Y-132829274D01*
X191884155Y-132828711D01*
X192044675Y-132828125D01*
X192202477Y-132827521D01*
X192355881Y-132826905D01*
X192503203Y-132826282D01*
X192577620Y-132825954D01*
X193720378Y-132820834D01*
X193755312Y-132749899D01*
X189628991Y-132749899D01*
X189622435Y-132792001D01*
X189605269Y-132830527D01*
X189577397Y-132862559D01*
X189559917Y-132874935D01*
X189519213Y-132890475D01*
X189478110Y-132889104D01*
X189443795Y-132875054D01*
X189415196Y-132850075D01*
X189391599Y-132813526D01*
X189376160Y-132770624D01*
X189373963Y-132759627D01*
X189374187Y-132720690D01*
X189385894Y-132680859D01*
X189407068Y-132644161D01*
X189435691Y-132614626D01*
X189451959Y-132603915D01*
X189487852Y-132590400D01*
X189521668Y-132591800D01*
X189551028Y-132604052D01*
X189585956Y-132631297D01*
X189610656Y-132666630D01*
X189625033Y-132707136D01*
X189628991Y-132749899D01*
X193755312Y-132749899D01*
X193901763Y-132452534D01*
X194083148Y-132084233D01*
X194387622Y-132084233D01*
X194387617Y-132000609D01*
X194387612Y-131916984D01*
X194195348Y-131923179D01*
X194195348Y-131923179D01*
G37*
X194195348Y-131923179D02*
X194144867Y-131924847D01*
X194099281Y-131926435D01*
X194060409Y-131927873D01*
X194030070Y-131929090D01*
X194010083Y-131930016D01*
X194002268Y-131930581D01*
X194002225Y-131930603D01*
X193998591Y-131937918D01*
X193988482Y-131958453D01*
X193972575Y-131990830D01*
X193951544Y-132033673D01*
X193926067Y-132085602D01*
X193896820Y-132145240D01*
X193864478Y-132211209D01*
X193829718Y-132282132D01*
X193819852Y-132302265D01*
X193638338Y-132672697D01*
X191700685Y-132670565D01*
X189763032Y-132668434D01*
X189743270Y-132618970D01*
X189719225Y-132571980D01*
X189686557Y-132526254D01*
X189649450Y-132486938D01*
X189614528Y-132460581D01*
X189596774Y-132451130D01*
X189579597Y-132445040D01*
X189559137Y-132441603D01*
X189531532Y-132440108D01*
X189501639Y-132439834D01*
X189465495Y-132440286D01*
X189439589Y-132442117D01*
X189420057Y-132446034D01*
X189403037Y-132452745D01*
X189388750Y-132460533D01*
X189349817Y-132489983D01*
X189312899Y-132529754D01*
X189281731Y-132575105D01*
X189260044Y-132621290D01*
X189258416Y-132626163D01*
X189244641Y-132691074D01*
X189242205Y-132760199D01*
X189251107Y-132827675D01*
X189258415Y-132854700D01*
X189280660Y-132904991D01*
X189312877Y-132952394D01*
X189351454Y-132992617D01*
X189392776Y-133021374D01*
X189402862Y-133026162D01*
X189462098Y-133044988D01*
X189517402Y-133048650D01*
X189554556Y-133042379D01*
X189612723Y-133018868D01*
X189663864Y-132982014D01*
X189706296Y-132933369D01*
X189738332Y-132874487D01*
X189739292Y-132872143D01*
X189754923Y-132833534D01*
X190594893Y-132832304D01*
X190704137Y-132832119D01*
X190825809Y-132831868D01*
X190958227Y-132831556D01*
X191099707Y-132831189D01*
X191248568Y-132830772D01*
X191403126Y-132830310D01*
X191561698Y-132829809D01*
X191722602Y-132829274D01*
X191884155Y-132828711D01*
X192044675Y-132828125D01*
X192202477Y-132827521D01*
X192355881Y-132826905D01*
X192503203Y-132826282D01*
X192577620Y-132825954D01*
X193720378Y-132820834D01*
X193755312Y-132749899D01*
X189628991Y-132749899D01*
X189622435Y-132792001D01*
X189605269Y-132830527D01*
X189577397Y-132862559D01*
X189559917Y-132874935D01*
X189519213Y-132890475D01*
X189478110Y-132889104D01*
X189443795Y-132875054D01*
X189415196Y-132850075D01*
X189391599Y-132813526D01*
X189376160Y-132770624D01*
X189373963Y-132759627D01*
X189374187Y-132720690D01*
X189385894Y-132680859D01*
X189407068Y-132644161D01*
X189435691Y-132614626D01*
X189451959Y-132603915D01*
X189487852Y-132590400D01*
X189521668Y-132591800D01*
X189551028Y-132604052D01*
X189585956Y-132631297D01*
X189610656Y-132666630D01*
X189625033Y-132707136D01*
X189628991Y-132749899D01*
X193755312Y-132749899D01*
X193901763Y-132452534D01*
X194083148Y-132084233D01*
X194387622Y-132084233D01*
X194387617Y-132000609D01*
X194387612Y-131916984D01*
X194195348Y-131923179D01*
G36*
X196580591Y-131995151D02*
X196582821Y-132079673D01*
X196886829Y-132084233D01*
X197248639Y-132824313D01*
X205470549Y-132825067D01*
X205488264Y-132861341D01*
X205513073Y-132901784D01*
X205546431Y-132942136D01*
X205583460Y-132977096D01*
X205614853Y-132998990D01*
X205634972Y-133009002D01*
X205654608Y-133015217D01*
X205678163Y-133018481D01*
X205710033Y-133019644D01*
X205722362Y-133019711D01*
X205756650Y-133019230D01*
X205781394Y-133017054D01*
X205801148Y-133012211D01*
X205820467Y-133003729D01*
X205835250Y-132995632D01*
X205878223Y-132963253D01*
X205918088Y-132918532D01*
X205951049Y-132866042D01*
X205961657Y-132843406D01*
X205970399Y-132820568D01*
X205975835Y-132799000D01*
X205978716Y-132773493D01*
X205979793Y-132738834D01*
X205979871Y-132721024D01*
X205847850Y-132721024D01*
X205841219Y-132769339D01*
X205822357Y-132811417D01*
X205792808Y-132844126D01*
X205784115Y-132850353D01*
X205751177Y-132863670D01*
X205713805Y-132866177D01*
X205677309Y-132858281D01*
X205646997Y-132840390D01*
X205646320Y-132839777D01*
X205619387Y-132806383D01*
X205601354Y-132765798D01*
X205594057Y-132722930D01*
X205594956Y-132702595D01*
X205607229Y-132654176D01*
X205629700Y-132615010D01*
X205660476Y-132587157D01*
X205697665Y-132572674D01*
X205715890Y-132571067D01*
X205761596Y-132577607D01*
X205798341Y-132596699D01*
X205825430Y-132627552D01*
X205842165Y-132669374D01*
X205847850Y-132721024D01*
X205979871Y-132721024D01*
X205979889Y-132716944D01*
X205979435Y-132676047D01*
X205977546Y-132646723D01*
X205973432Y-132623628D01*
X205966305Y-132601421D01*
X205960772Y-132587546D01*
X205930443Y-132531637D01*
X205889768Y-132482277D01*
X205842388Y-132443762D01*
X205835160Y-132439322D01*
X205813990Y-132427638D01*
X205795663Y-132420317D01*
X205775687Y-132416377D01*
X205749571Y-132414835D01*
X205722362Y-132414665D01*
X205685654Y-132415573D01*
X205658807Y-132418512D01*
X205637607Y-132424234D01*
X205618410Y-132433177D01*
X205563779Y-132471784D01*
X205519315Y-132522075D01*
X205485345Y-132583622D01*
X205470542Y-132624436D01*
X205455050Y-132675425D01*
X204911372Y-132669818D01*
X204869231Y-132669458D01*
X204813493Y-132669104D01*
X204744673Y-132668756D01*
X204663285Y-132668415D01*
X204569843Y-132668082D01*
X204464862Y-132667757D01*
X204348857Y-132667441D01*
X204222342Y-132667136D01*
X204085830Y-132666841D01*
X203939838Y-132666558D01*
X203784878Y-132666286D01*
X203621466Y-132666028D01*
X203450115Y-132665783D01*
X203271341Y-132665552D01*
X203085657Y-132665336D01*
X202893579Y-132665136D01*
X202695620Y-132664952D01*
X202492295Y-132664786D01*
X202284118Y-132664637D01*
X202071604Y-132664507D01*
X201855268Y-132664396D01*
X201635622Y-132664305D01*
X201413183Y-132664234D01*
X201188464Y-132664185D01*
X200961980Y-132664159D01*
X200846973Y-132664154D01*
X197326250Y-132664096D01*
X197143965Y-132292924D01*
X196961680Y-131921753D01*
X196834154Y-131916210D01*
X196787411Y-131914341D01*
X196740197Y-131912739D01*
X196696495Y-131911518D01*
X196660290Y-131910796D01*
X196642494Y-131910648D01*
X196578362Y-131910630D01*
X196580591Y-131995151D01*
X196580591Y-131995151D01*
G37*
X196580591Y-131995151D02*
X196582821Y-132079673D01*
X196886829Y-132084233D01*
X197248639Y-132824313D01*
X205470549Y-132825067D01*
X205488264Y-132861341D01*
X205513073Y-132901784D01*
X205546431Y-132942136D01*
X205583460Y-132977096D01*
X205614853Y-132998990D01*
X205634972Y-133009002D01*
X205654608Y-133015217D01*
X205678163Y-133018481D01*
X205710033Y-133019644D01*
X205722362Y-133019711D01*
X205756650Y-133019230D01*
X205781394Y-133017054D01*
X205801148Y-133012211D01*
X205820467Y-133003729D01*
X205835250Y-132995632D01*
X205878223Y-132963253D01*
X205918088Y-132918532D01*
X205951049Y-132866042D01*
X205961657Y-132843406D01*
X205970399Y-132820568D01*
X205975835Y-132799000D01*
X205978716Y-132773493D01*
X205979793Y-132738834D01*
X205979871Y-132721024D01*
X205847850Y-132721024D01*
X205841219Y-132769339D01*
X205822357Y-132811417D01*
X205792808Y-132844126D01*
X205784115Y-132850353D01*
X205751177Y-132863670D01*
X205713805Y-132866177D01*
X205677309Y-132858281D01*
X205646997Y-132840390D01*
X205646320Y-132839777D01*
X205619387Y-132806383D01*
X205601354Y-132765798D01*
X205594057Y-132722930D01*
X205594956Y-132702595D01*
X205607229Y-132654176D01*
X205629700Y-132615010D01*
X205660476Y-132587157D01*
X205697665Y-132572674D01*
X205715890Y-132571067D01*
X205761596Y-132577607D01*
X205798341Y-132596699D01*
X205825430Y-132627552D01*
X205842165Y-132669374D01*
X205847850Y-132721024D01*
X205979871Y-132721024D01*
X205979889Y-132716944D01*
X205979435Y-132676047D01*
X205977546Y-132646723D01*
X205973432Y-132623628D01*
X205966305Y-132601421D01*
X205960772Y-132587546D01*
X205930443Y-132531637D01*
X205889768Y-132482277D01*
X205842388Y-132443762D01*
X205835160Y-132439322D01*
X205813990Y-132427638D01*
X205795663Y-132420317D01*
X205775687Y-132416377D01*
X205749571Y-132414835D01*
X205722362Y-132414665D01*
X205685654Y-132415573D01*
X205658807Y-132418512D01*
X205637607Y-132424234D01*
X205618410Y-132433177D01*
X205563779Y-132471784D01*
X205519315Y-132522075D01*
X205485345Y-132583622D01*
X205470542Y-132624436D01*
X205455050Y-132675425D01*
X204911372Y-132669818D01*
X204869231Y-132669458D01*
X204813493Y-132669104D01*
X204744673Y-132668756D01*
X204663285Y-132668415D01*
X204569843Y-132668082D01*
X204464862Y-132667757D01*
X204348857Y-132667441D01*
X204222342Y-132667136D01*
X204085830Y-132666841D01*
X203939838Y-132666558D01*
X203784878Y-132666286D01*
X203621466Y-132666028D01*
X203450115Y-132665783D01*
X203271341Y-132665552D01*
X203085657Y-132665336D01*
X202893579Y-132665136D01*
X202695620Y-132664952D01*
X202492295Y-132664786D01*
X202284118Y-132664637D01*
X202071604Y-132664507D01*
X201855268Y-132664396D01*
X201635622Y-132664305D01*
X201413183Y-132664234D01*
X201188464Y-132664185D01*
X200961980Y-132664159D01*
X200846973Y-132664154D01*
X197326250Y-132664096D01*
X197143965Y-132292924D01*
X196961680Y-131921753D01*
X196834154Y-131916210D01*
X196787411Y-131914341D01*
X196740197Y-131912739D01*
X196696495Y-131911518D01*
X196660290Y-131910796D01*
X196642494Y-131910648D01*
X196578362Y-131910630D01*
X196580591Y-131995151D01*
G36*
X195530612Y-132592234D02*
X195534139Y-132596467D01*
X195537667Y-132592234D01*
X195534139Y-132588000D01*
X195530612Y-132592234D01*
X195530612Y-132592234D01*
G37*
X195530612Y-132592234D02*
X195534139Y-132596467D01*
X195537667Y-132592234D01*
X195534139Y-132588000D01*
X195530612Y-132592234D01*
G36*
X195390860Y-130257772D02*
X195389500Y-130310910D01*
X195098459Y-130310027D01*
X195035259Y-130309978D01*
X194976104Y-130310203D01*
X194922562Y-130310677D01*
X194876200Y-130311374D01*
X194838586Y-130312268D01*
X194811286Y-130313333D01*
X194795868Y-130314543D01*
X194793306Y-130315091D01*
X194738746Y-130342820D01*
X194695308Y-130376448D01*
X194660239Y-130418789D01*
X194630787Y-130472656D01*
X194624063Y-130488052D01*
X194599101Y-130547534D01*
X194551565Y-130549029D01*
X194504028Y-130550524D01*
X194602806Y-130560234D01*
X194602806Y-131906433D01*
X194564000Y-131911144D01*
X194525195Y-131915855D01*
X194564000Y-131919611D01*
X194602806Y-131923367D01*
X194603687Y-132021775D01*
X194604311Y-132065061D01*
X194605764Y-132096152D01*
X194608783Y-132119786D01*
X194614104Y-132140700D01*
X194622465Y-132163633D01*
X194627806Y-132176827D01*
X194659398Y-132236443D01*
X194700227Y-132283340D01*
X194750814Y-132318118D01*
X194750858Y-132318140D01*
X194789537Y-132338234D01*
X194791060Y-132401734D01*
X194792582Y-132465234D01*
X194795036Y-132402718D01*
X194797490Y-132340203D01*
X194849470Y-132345855D01*
X194864964Y-132346772D01*
X194893326Y-132347637D01*
X194933313Y-132348437D01*
X194983683Y-132349161D01*
X195043191Y-132349797D01*
X195110595Y-132350334D01*
X195184652Y-132350759D01*
X195264119Y-132351062D01*
X195347754Y-132351231D01*
X195427330Y-132351257D01*
X195953210Y-132351007D01*
X195955800Y-132395420D01*
X195958390Y-132439834D01*
X195961000Y-132350934D01*
X196008625Y-132350840D01*
X196037885Y-132349997D01*
X196065549Y-132347900D01*
X196082382Y-132345563D01*
X196108514Y-132340378D01*
X196110966Y-132402806D01*
X196113419Y-132465234D01*
X196114821Y-132404855D01*
X196116223Y-132344477D01*
X196149039Y-132334561D01*
X196183503Y-132321633D01*
X196212648Y-132303950D01*
X196241590Y-132277963D01*
X196260912Y-132256995D01*
X196295874Y-132208398D01*
X196320584Y-132152701D01*
X196335679Y-132087830D01*
X196341796Y-132011713D01*
X196342000Y-131993038D01*
X196342000Y-131911512D01*
X196382570Y-131908457D01*
X196423139Y-131905402D01*
X196382570Y-131903801D01*
X196342000Y-131902200D01*
X196341007Y-131464017D01*
X196201173Y-131464017D01*
X196201171Y-131581428D01*
X196201100Y-131684016D01*
X196200903Y-131772835D01*
X196200521Y-131848942D01*
X196199897Y-131913390D01*
X196198974Y-131967235D01*
X196197694Y-132011531D01*
X196195998Y-132047335D01*
X196193831Y-132075700D01*
X196191133Y-132097681D01*
X196187847Y-132114335D01*
X196183915Y-132126715D01*
X196179281Y-132135877D01*
X196173885Y-132142875D01*
X196167672Y-132148765D01*
X196160581Y-132154602D01*
X196155922Y-132158484D01*
X196150489Y-132162912D01*
X196144604Y-132166606D01*
X196136985Y-132169651D01*
X196126346Y-132172134D01*
X196111404Y-132174139D01*
X196090876Y-132175753D01*
X196063478Y-132177060D01*
X196027926Y-132178147D01*
X195982936Y-132179099D01*
X195927224Y-132180002D01*
X195859507Y-132180941D01*
X195809306Y-132181600D01*
X195714657Y-132182675D01*
X195619155Y-132183457D01*
X195523919Y-132183957D01*
X195430065Y-132184184D01*
X195338711Y-132184149D01*
X195250974Y-132183860D01*
X195167973Y-132183328D01*
X195090825Y-132182563D01*
X195020647Y-132181574D01*
X194958557Y-132180372D01*
X194905672Y-132178965D01*
X194863110Y-132177365D01*
X194831988Y-132175580D01*
X194813425Y-132173621D01*
X194809835Y-132172814D01*
X194787333Y-132160004D01*
X194765474Y-132138844D01*
X194762067Y-132134439D01*
X194740103Y-132104419D01*
X194742010Y-131327717D01*
X194742349Y-131195044D01*
X194742685Y-131078260D01*
X194743038Y-130976318D01*
X194743426Y-130888172D01*
X194743869Y-130812778D01*
X194744384Y-130749089D01*
X194744990Y-130696061D01*
X194745707Y-130652647D01*
X194746554Y-130617803D01*
X194747548Y-130590482D01*
X194748708Y-130569639D01*
X194750054Y-130554229D01*
X194751605Y-130543206D01*
X194753378Y-130535525D01*
X194755393Y-130530140D01*
X194756363Y-130528225D01*
X194771968Y-130506277D01*
X194787802Y-130490501D01*
X194791651Y-130487982D01*
X194796966Y-130485762D01*
X194804607Y-130483822D01*
X194815434Y-130482144D01*
X194830308Y-130480709D01*
X194850089Y-130479497D01*
X194875637Y-130478491D01*
X194907812Y-130477672D01*
X194947475Y-130477020D01*
X194995486Y-130476516D01*
X195052706Y-130476143D01*
X195119993Y-130475881D01*
X195198210Y-130475711D01*
X195288215Y-130475615D01*
X195390869Y-130475573D01*
X195470639Y-130475567D01*
X195584948Y-130475530D01*
X195685989Y-130475474D01*
X195774602Y-130475478D01*
X195851632Y-130475622D01*
X195917919Y-130475986D01*
X195974307Y-130476650D01*
X196021637Y-130477693D01*
X196060752Y-130479195D01*
X196092493Y-130481236D01*
X196117703Y-130483896D01*
X196137225Y-130487256D01*
X196151900Y-130491393D01*
X196162570Y-130496389D01*
X196170079Y-130502324D01*
X196175267Y-130509276D01*
X196178977Y-130517327D01*
X196182052Y-130526555D01*
X196185334Y-130537040D01*
X196187587Y-130543522D01*
X196189943Y-130550425D01*
X196192010Y-130558263D01*
X196193807Y-130568126D01*
X196195353Y-130581103D01*
X196196667Y-130598285D01*
X196197767Y-130620762D01*
X196198673Y-130649625D01*
X196199402Y-130685964D01*
X196199975Y-130730869D01*
X196200409Y-130785430D01*
X196200723Y-130850737D01*
X196200937Y-130927882D01*
X196201069Y-131017954D01*
X196201138Y-131122043D01*
X196201163Y-131241239D01*
X196201164Y-131330727D01*
X196201173Y-131464017D01*
X196341007Y-131464017D01*
X196340526Y-131252384D01*
X196340279Y-131148238D01*
X196340022Y-131048477D01*
X196339759Y-130954476D01*
X196339496Y-130867610D01*
X196339237Y-130789254D01*
X196338987Y-130720782D01*
X196338750Y-130663570D01*
X196338532Y-130618992D01*
X196338337Y-130588424D01*
X196338171Y-130573240D01*
X196338152Y-130572485D01*
X196332705Y-130538092D01*
X196319619Y-130497324D01*
X196301147Y-130455878D01*
X196279542Y-130419457D01*
X196275411Y-130413763D01*
X196248699Y-130383287D01*
X196217619Y-130355442D01*
X196186675Y-130333852D01*
X196162084Y-130322596D01*
X196145392Y-130317232D01*
X196135543Y-130312969D01*
X196127649Y-130312282D01*
X196106981Y-130311661D01*
X196074875Y-130311116D01*
X196032667Y-130310657D01*
X195981693Y-130310297D01*
X195923291Y-130310045D01*
X195858796Y-130309912D01*
X195789545Y-130309909D01*
X195763700Y-130309943D01*
X195397231Y-130310540D01*
X195392219Y-130204634D01*
X195390860Y-130257772D01*
X195390860Y-130257772D01*
G37*
X195390860Y-130257772D02*
X195389500Y-130310910D01*
X195098459Y-130310027D01*
X195035259Y-130309978D01*
X194976104Y-130310203D01*
X194922562Y-130310677D01*
X194876200Y-130311374D01*
X194838586Y-130312268D01*
X194811286Y-130313333D01*
X194795868Y-130314543D01*
X194793306Y-130315091D01*
X194738746Y-130342820D01*
X194695308Y-130376448D01*
X194660239Y-130418789D01*
X194630787Y-130472656D01*
X194624063Y-130488052D01*
X194599101Y-130547534D01*
X194551565Y-130549029D01*
X194504028Y-130550524D01*
X194602806Y-130560234D01*
X194602806Y-131906433D01*
X194564000Y-131911144D01*
X194525195Y-131915855D01*
X194564000Y-131919611D01*
X194602806Y-131923367D01*
X194603687Y-132021775D01*
X194604311Y-132065061D01*
X194605764Y-132096152D01*
X194608783Y-132119786D01*
X194614104Y-132140700D01*
X194622465Y-132163633D01*
X194627806Y-132176827D01*
X194659398Y-132236443D01*
X194700227Y-132283340D01*
X194750814Y-132318118D01*
X194750858Y-132318140D01*
X194789537Y-132338234D01*
X194791060Y-132401734D01*
X194792582Y-132465234D01*
X194795036Y-132402718D01*
X194797490Y-132340203D01*
X194849470Y-132345855D01*
X194864964Y-132346772D01*
X194893326Y-132347637D01*
X194933313Y-132348437D01*
X194983683Y-132349161D01*
X195043191Y-132349797D01*
X195110595Y-132350334D01*
X195184652Y-132350759D01*
X195264119Y-132351062D01*
X195347754Y-132351231D01*
X195427330Y-132351257D01*
X195953210Y-132351007D01*
X195955800Y-132395420D01*
X195958390Y-132439834D01*
X195961000Y-132350934D01*
X196008625Y-132350840D01*
X196037885Y-132349997D01*
X196065549Y-132347900D01*
X196082382Y-132345563D01*
X196108514Y-132340378D01*
X196110966Y-132402806D01*
X196113419Y-132465234D01*
X196114821Y-132404855D01*
X196116223Y-132344477D01*
X196149039Y-132334561D01*
X196183503Y-132321633D01*
X196212648Y-132303950D01*
X196241590Y-132277963D01*
X196260912Y-132256995D01*
X196295874Y-132208398D01*
X196320584Y-132152701D01*
X196335679Y-132087830D01*
X196341796Y-132011713D01*
X196342000Y-131993038D01*
X196342000Y-131911512D01*
X196382570Y-131908457D01*
X196423139Y-131905402D01*
X196382570Y-131903801D01*
X196342000Y-131902200D01*
X196341007Y-131464017D01*
X196201173Y-131464017D01*
X196201171Y-131581428D01*
X196201100Y-131684016D01*
X196200903Y-131772835D01*
X196200521Y-131848942D01*
X196199897Y-131913390D01*
X196198974Y-131967235D01*
X196197694Y-132011531D01*
X196195998Y-132047335D01*
X196193831Y-132075700D01*
X196191133Y-132097681D01*
X196187847Y-132114335D01*
X196183915Y-132126715D01*
X196179281Y-132135877D01*
X196173885Y-132142875D01*
X196167672Y-132148765D01*
X196160581Y-132154602D01*
X196155922Y-132158484D01*
X196150489Y-132162912D01*
X196144604Y-132166606D01*
X196136985Y-132169651D01*
X196126346Y-132172134D01*
X196111404Y-132174139D01*
X196090876Y-132175753D01*
X196063478Y-132177060D01*
X196027926Y-132178147D01*
X195982936Y-132179099D01*
X195927224Y-132180002D01*
X195859507Y-132180941D01*
X195809306Y-132181600D01*
X195714657Y-132182675D01*
X195619155Y-132183457D01*
X195523919Y-132183957D01*
X195430065Y-132184184D01*
X195338711Y-132184149D01*
X195250974Y-132183860D01*
X195167973Y-132183328D01*
X195090825Y-132182563D01*
X195020647Y-132181574D01*
X194958557Y-132180372D01*
X194905672Y-132178965D01*
X194863110Y-132177365D01*
X194831988Y-132175580D01*
X194813425Y-132173621D01*
X194809835Y-132172814D01*
X194787333Y-132160004D01*
X194765474Y-132138844D01*
X194762067Y-132134439D01*
X194740103Y-132104419D01*
X194742010Y-131327717D01*
X194742349Y-131195044D01*
X194742685Y-131078260D01*
X194743038Y-130976318D01*
X194743426Y-130888172D01*
X194743869Y-130812778D01*
X194744384Y-130749089D01*
X194744990Y-130696061D01*
X194745707Y-130652647D01*
X194746554Y-130617803D01*
X194747548Y-130590482D01*
X194748708Y-130569639D01*
X194750054Y-130554229D01*
X194751605Y-130543206D01*
X194753378Y-130535525D01*
X194755393Y-130530140D01*
X194756363Y-130528225D01*
X194771968Y-130506277D01*
X194787802Y-130490501D01*
X194791651Y-130487982D01*
X194796966Y-130485762D01*
X194804607Y-130483822D01*
X194815434Y-130482144D01*
X194830308Y-130480709D01*
X194850089Y-130479497D01*
X194875637Y-130478491D01*
X194907812Y-130477672D01*
X194947475Y-130477020D01*
X194995486Y-130476516D01*
X195052706Y-130476143D01*
X195119993Y-130475881D01*
X195198210Y-130475711D01*
X195288215Y-130475615D01*
X195390869Y-130475573D01*
X195470639Y-130475567D01*
X195584948Y-130475530D01*
X195685989Y-130475474D01*
X195774602Y-130475478D01*
X195851632Y-130475622D01*
X195917919Y-130475986D01*
X195974307Y-130476650D01*
X196021637Y-130477693D01*
X196060752Y-130479195D01*
X196092493Y-130481236D01*
X196117703Y-130483896D01*
X196137225Y-130487256D01*
X196151900Y-130491393D01*
X196162570Y-130496389D01*
X196170079Y-130502324D01*
X196175267Y-130509276D01*
X196178977Y-130517327D01*
X196182052Y-130526555D01*
X196185334Y-130537040D01*
X196187587Y-130543522D01*
X196189943Y-130550425D01*
X196192010Y-130558263D01*
X196193807Y-130568126D01*
X196195353Y-130581103D01*
X196196667Y-130598285D01*
X196197767Y-130620762D01*
X196198673Y-130649625D01*
X196199402Y-130685964D01*
X196199975Y-130730869D01*
X196200409Y-130785430D01*
X196200723Y-130850737D01*
X196200937Y-130927882D01*
X196201069Y-131017954D01*
X196201138Y-131122043D01*
X196201163Y-131241239D01*
X196201164Y-131330727D01*
X196201173Y-131464017D01*
X196341007Y-131464017D01*
X196340526Y-131252384D01*
X196340279Y-131148238D01*
X196340022Y-131048477D01*
X196339759Y-130954476D01*
X196339496Y-130867610D01*
X196339237Y-130789254D01*
X196338987Y-130720782D01*
X196338750Y-130663570D01*
X196338532Y-130618992D01*
X196338337Y-130588424D01*
X196338171Y-130573240D01*
X196338152Y-130572485D01*
X196332705Y-130538092D01*
X196319619Y-130497324D01*
X196301147Y-130455878D01*
X196279542Y-130419457D01*
X196275411Y-130413763D01*
X196248699Y-130383287D01*
X196217619Y-130355442D01*
X196186675Y-130333852D01*
X196162084Y-130322596D01*
X196145392Y-130317232D01*
X196135543Y-130312969D01*
X196127649Y-130312282D01*
X196106981Y-130311661D01*
X196074875Y-130311116D01*
X196032667Y-130310657D01*
X195981693Y-130310297D01*
X195923291Y-130310045D01*
X195858796Y-130309912D01*
X195789545Y-130309909D01*
X195763700Y-130309943D01*
X195397231Y-130310540D01*
X195392219Y-130204634D01*
X195390860Y-130257772D01*
G36*
X205347234Y-130674559D02*
X205272241Y-130674710D01*
X205208891Y-130675096D01*
X205155948Y-130675826D01*
X205112179Y-130677011D01*
X205076350Y-130678760D01*
X205047225Y-130681183D01*
X205023570Y-130684390D01*
X205004152Y-130688491D01*
X204987735Y-130693595D01*
X204973086Y-130699812D01*
X204958970Y-130707253D01*
X204944152Y-130716027D01*
X204939957Y-130718586D01*
X204905241Y-130745964D01*
X204870578Y-130783776D01*
X204840575Y-130826432D01*
X204822865Y-130860663D01*
X204803248Y-130907367D01*
X204800512Y-131193054D01*
X204797777Y-131478741D01*
X205238903Y-131480921D01*
X205680028Y-131483100D01*
X205680028Y-131635500D01*
X204893334Y-131639876D01*
X204893334Y-131978400D01*
X205152625Y-131976673D01*
X205222519Y-131976102D01*
X205297310Y-131975307D01*
X205373514Y-131974335D01*
X205447646Y-131973238D01*
X205516221Y-131972065D01*
X205575755Y-131970864D01*
X205598889Y-131970323D01*
X205785862Y-131965700D01*
X205832715Y-131938193D01*
X205881292Y-131903697D01*
X205923408Y-131862032D01*
X205955965Y-131816502D01*
X205966917Y-131795083D01*
X205985164Y-131754033D01*
X205989152Y-131398433D01*
X205990237Y-131288074D01*
X205990792Y-131193251D01*
X205990758Y-131112577D01*
X205990702Y-131106941D01*
X205684061Y-131106941D01*
X205683009Y-131116780D01*
X205678989Y-131124474D01*
X205670755Y-131130286D01*
X205657062Y-131134476D01*
X205636666Y-131137306D01*
X205608322Y-131139037D01*
X205570785Y-131139930D01*
X205522810Y-131140248D01*
X205463153Y-131140251D01*
X205394500Y-131140200D01*
X205112056Y-131140200D01*
X205112056Y-131038408D01*
X205680028Y-131042834D01*
X205682237Y-131079785D01*
X205683389Y-131094697D01*
X205684061Y-131106941D01*
X205990702Y-131106941D01*
X205990073Y-131044664D01*
X205988679Y-130988124D01*
X205986515Y-130941569D01*
X205983522Y-130903612D01*
X205979639Y-130872866D01*
X205974806Y-130847942D01*
X205968965Y-130827453D01*
X205963915Y-130814234D01*
X205934533Y-130761461D01*
X205895419Y-130719560D01*
X205862448Y-130696287D01*
X205826146Y-130674534D01*
X205435104Y-130674534D01*
X205347234Y-130674559D01*
X205347234Y-130674559D01*
G37*
X205347234Y-130674559D02*
X205272241Y-130674710D01*
X205208891Y-130675096D01*
X205155948Y-130675826D01*
X205112179Y-130677011D01*
X205076350Y-130678760D01*
X205047225Y-130681183D01*
X205023570Y-130684390D01*
X205004152Y-130688491D01*
X204987735Y-130693595D01*
X204973086Y-130699812D01*
X204958970Y-130707253D01*
X204944152Y-130716027D01*
X204939957Y-130718586D01*
X204905241Y-130745964D01*
X204870578Y-130783776D01*
X204840575Y-130826432D01*
X204822865Y-130860663D01*
X204803248Y-130907367D01*
X204800512Y-131193054D01*
X204797777Y-131478741D01*
X205238903Y-131480921D01*
X205680028Y-131483100D01*
X205680028Y-131635500D01*
X204893334Y-131639876D01*
X204893334Y-131978400D01*
X205152625Y-131976673D01*
X205222519Y-131976102D01*
X205297310Y-131975307D01*
X205373514Y-131974335D01*
X205447646Y-131973238D01*
X205516221Y-131972065D01*
X205575755Y-131970864D01*
X205598889Y-131970323D01*
X205785862Y-131965700D01*
X205832715Y-131938193D01*
X205881292Y-131903697D01*
X205923408Y-131862032D01*
X205955965Y-131816502D01*
X205966917Y-131795083D01*
X205985164Y-131754033D01*
X205989152Y-131398433D01*
X205990237Y-131288074D01*
X205990792Y-131193251D01*
X205990758Y-131112577D01*
X205990702Y-131106941D01*
X205684061Y-131106941D01*
X205683009Y-131116780D01*
X205678989Y-131124474D01*
X205670755Y-131130286D01*
X205657062Y-131134476D01*
X205636666Y-131137306D01*
X205608322Y-131139037D01*
X205570785Y-131139930D01*
X205522810Y-131140248D01*
X205463153Y-131140251D01*
X205394500Y-131140200D01*
X205112056Y-131140200D01*
X205112056Y-131038408D01*
X205680028Y-131042834D01*
X205682237Y-131079785D01*
X205683389Y-131094697D01*
X205684061Y-131106941D01*
X205990702Y-131106941D01*
X205990073Y-131044664D01*
X205988679Y-130988124D01*
X205986515Y-130941569D01*
X205983522Y-130903612D01*
X205979639Y-130872866D01*
X205974806Y-130847942D01*
X205968965Y-130827453D01*
X205963915Y-130814234D01*
X205934533Y-130761461D01*
X205895419Y-130719560D01*
X205862448Y-130696287D01*
X205826146Y-130674534D01*
X205435104Y-130674534D01*
X205347234Y-130674559D01*
G36*
X203736223Y-131978400D02*
X204046667Y-131978400D01*
X204046667Y-130395134D01*
X203736223Y-130395134D01*
X203736223Y-131978400D01*
X203736223Y-131978400D01*
G37*
X203736223Y-131978400D02*
X204046667Y-131978400D01*
X204046667Y-130395134D01*
X203736223Y-130395134D01*
X203736223Y-131978400D01*
G36*
X202144496Y-130676361D02*
X202084540Y-130677253D01*
X202038040Y-130678597D01*
X202004832Y-130680396D01*
X201984753Y-130682651D01*
X201981842Y-130683268D01*
X201925816Y-130704821D01*
X201874061Y-130739321D01*
X201829191Y-130784346D01*
X201793822Y-130837474D01*
X201778464Y-130871654D01*
X201773970Y-130884232D01*
X201770351Y-130896660D01*
X201767488Y-130910910D01*
X201765264Y-130928956D01*
X201763563Y-130952772D01*
X201762265Y-130984331D01*
X201761254Y-131025608D01*
X201760412Y-131078575D01*
X201759621Y-131145206D01*
X201759074Y-131197287D01*
X201756180Y-131478741D01*
X202197632Y-131480920D01*
X202639084Y-131483100D01*
X202639084Y-131635500D01*
X202245737Y-131637688D01*
X201852389Y-131639876D01*
X201852389Y-131978400D01*
X202111681Y-131976727D01*
X202181574Y-131976168D01*
X202256365Y-131975379D01*
X202332569Y-131974411D01*
X202406701Y-131973313D01*
X202475277Y-131972134D01*
X202534810Y-131970924D01*
X202557945Y-131970377D01*
X202744917Y-131965700D01*
X202792602Y-131938595D01*
X202837273Y-131907445D01*
X202877508Y-131868480D01*
X202910152Y-131825258D01*
X202932052Y-131781337D01*
X202932088Y-131781235D01*
X202938753Y-131757755D01*
X202944261Y-131727016D01*
X202948656Y-131687839D01*
X202951980Y-131639046D01*
X202954276Y-131579457D01*
X202955587Y-131507894D01*
X202955955Y-131423179D01*
X202955425Y-131324131D01*
X202954037Y-131209573D01*
X202953693Y-131186767D01*
X202952415Y-131106941D01*
X202643117Y-131106941D01*
X202642065Y-131116780D01*
X202638044Y-131124474D01*
X202629810Y-131130286D01*
X202616117Y-131134476D01*
X202595721Y-131137306D01*
X202567377Y-131139037D01*
X202529840Y-131139930D01*
X202481866Y-131140248D01*
X202422209Y-131140251D01*
X202353555Y-131140200D01*
X202071112Y-131140200D01*
X202071112Y-131038408D01*
X202639084Y-131042834D01*
X202641293Y-131079785D01*
X202642444Y-131094697D01*
X202643117Y-131106941D01*
X202952415Y-131106941D01*
X202952385Y-131105078D01*
X202951180Y-131038503D01*
X202949976Y-130985221D01*
X202948673Y-130943415D01*
X202947168Y-130911266D01*
X202945362Y-130886956D01*
X202943153Y-130868665D01*
X202940440Y-130854575D01*
X202937122Y-130842868D01*
X202934103Y-130834364D01*
X202907728Y-130782217D01*
X202871601Y-130736069D01*
X202830032Y-130701392D01*
X202794306Y-130678767D01*
X202406724Y-130676371D01*
X202305425Y-130675923D01*
X202218070Y-130675919D01*
X202144496Y-130676361D01*
X202144496Y-130676361D01*
G37*
X202144496Y-130676361D02*
X202084540Y-130677253D01*
X202038040Y-130678597D01*
X202004832Y-130680396D01*
X201984753Y-130682651D01*
X201981842Y-130683268D01*
X201925816Y-130704821D01*
X201874061Y-130739321D01*
X201829191Y-130784346D01*
X201793822Y-130837474D01*
X201778464Y-130871654D01*
X201773970Y-130884232D01*
X201770351Y-130896660D01*
X201767488Y-130910910D01*
X201765264Y-130928956D01*
X201763563Y-130952772D01*
X201762265Y-130984331D01*
X201761254Y-131025608D01*
X201760412Y-131078575D01*
X201759621Y-131145206D01*
X201759074Y-131197287D01*
X201756180Y-131478741D01*
X202197632Y-131480920D01*
X202639084Y-131483100D01*
X202639084Y-131635500D01*
X202245737Y-131637688D01*
X201852389Y-131639876D01*
X201852389Y-131978400D01*
X202111681Y-131976727D01*
X202181574Y-131976168D01*
X202256365Y-131975379D01*
X202332569Y-131974411D01*
X202406701Y-131973313D01*
X202475277Y-131972134D01*
X202534810Y-131970924D01*
X202557945Y-131970377D01*
X202744917Y-131965700D01*
X202792602Y-131938595D01*
X202837273Y-131907445D01*
X202877508Y-131868480D01*
X202910152Y-131825258D01*
X202932052Y-131781337D01*
X202932088Y-131781235D01*
X202938753Y-131757755D01*
X202944261Y-131727016D01*
X202948656Y-131687839D01*
X202951980Y-131639046D01*
X202954276Y-131579457D01*
X202955587Y-131507894D01*
X202955955Y-131423179D01*
X202955425Y-131324131D01*
X202954037Y-131209573D01*
X202953693Y-131186767D01*
X202952415Y-131106941D01*
X202643117Y-131106941D01*
X202642065Y-131116780D01*
X202638044Y-131124474D01*
X202629810Y-131130286D01*
X202616117Y-131134476D01*
X202595721Y-131137306D01*
X202567377Y-131139037D01*
X202529840Y-131139930D01*
X202481866Y-131140248D01*
X202422209Y-131140251D01*
X202353555Y-131140200D01*
X202071112Y-131140200D01*
X202071112Y-131038408D01*
X202639084Y-131042834D01*
X202641293Y-131079785D01*
X202642444Y-131094697D01*
X202643117Y-131106941D01*
X202952415Y-131106941D01*
X202952385Y-131105078D01*
X202951180Y-131038503D01*
X202949976Y-130985221D01*
X202948673Y-130943415D01*
X202947168Y-130911266D01*
X202945362Y-130886956D01*
X202943153Y-130868665D01*
X202940440Y-130854575D01*
X202937122Y-130842868D01*
X202934103Y-130834364D01*
X202907728Y-130782217D01*
X202871601Y-130736069D01*
X202830032Y-130701392D01*
X202794306Y-130678767D01*
X202406724Y-130676371D01*
X202305425Y-130675923D01*
X202218070Y-130675919D01*
X202144496Y-130676361D01*
G36*
X199883889Y-131038458D02*
X200277237Y-131040646D01*
X200670584Y-131042834D01*
X200670584Y-131635500D01*
X200231375Y-131637681D01*
X199792167Y-131639862D01*
X199792167Y-131978400D01*
X200079681Y-131976696D01*
X200152946Y-131976165D01*
X200231136Y-131975428D01*
X200310972Y-131974527D01*
X200389174Y-131973504D01*
X200462464Y-131972402D01*
X200527563Y-131971262D01*
X200571806Y-131970346D01*
X200776417Y-131965700D01*
X200824102Y-131938595D01*
X200868831Y-131907391D01*
X200909130Y-131868331D01*
X200941834Y-131824985D01*
X200963697Y-131781142D01*
X200970710Y-131756635D01*
X200976479Y-131724790D01*
X200981051Y-131684419D01*
X200984468Y-131634334D01*
X200986776Y-131573344D01*
X200988019Y-131500262D01*
X200988240Y-131413900D01*
X200987485Y-131313067D01*
X200985797Y-131196577D01*
X200985701Y-131191000D01*
X200984228Y-131108654D01*
X200982886Y-131041436D01*
X200981573Y-130987543D01*
X200980186Y-130945172D01*
X200978623Y-130912520D01*
X200976783Y-130887784D01*
X200974564Y-130869161D01*
X200971863Y-130854847D01*
X200968579Y-130843041D01*
X200965528Y-130834364D01*
X200939251Y-130782273D01*
X200903156Y-130736125D01*
X200861532Y-130701392D01*
X200825806Y-130678767D01*
X200354848Y-130676419D01*
X199883889Y-130674072D01*
X199883889Y-131038458D01*
X199883889Y-131038458D01*
G37*
X199883889Y-131038458D02*
X200277237Y-131040646D01*
X200670584Y-131042834D01*
X200670584Y-131635500D01*
X200231375Y-131637681D01*
X199792167Y-131639862D01*
X199792167Y-131978400D01*
X200079681Y-131976696D01*
X200152946Y-131976165D01*
X200231136Y-131975428D01*
X200310972Y-131974527D01*
X200389174Y-131973504D01*
X200462464Y-131972402D01*
X200527563Y-131971262D01*
X200571806Y-131970346D01*
X200776417Y-131965700D01*
X200824102Y-131938595D01*
X200868831Y-131907391D01*
X200909130Y-131868331D01*
X200941834Y-131824985D01*
X200963697Y-131781142D01*
X200970710Y-131756635D01*
X200976479Y-131724790D01*
X200981051Y-131684419D01*
X200984468Y-131634334D01*
X200986776Y-131573344D01*
X200988019Y-131500262D01*
X200988240Y-131413900D01*
X200987485Y-131313067D01*
X200985797Y-131196577D01*
X200985701Y-131191000D01*
X200984228Y-131108654D01*
X200982886Y-131041436D01*
X200981573Y-130987543D01*
X200980186Y-130945172D01*
X200978623Y-130912520D01*
X200976783Y-130887784D01*
X200974564Y-130869161D01*
X200971863Y-130854847D01*
X200968579Y-130843041D01*
X200965528Y-130834364D01*
X200939251Y-130782273D01*
X200903156Y-130736125D01*
X200861532Y-130701392D01*
X200825806Y-130678767D01*
X200354848Y-130676419D01*
X199883889Y-130674072D01*
X199883889Y-131038458D01*
G36*
X198758528Y-130670300D02*
X198604369Y-130672584D01*
X198553655Y-130673451D01*
X198515419Y-130674459D01*
X198488029Y-130675777D01*
X198469853Y-130677575D01*
X198459256Y-130680021D01*
X198454607Y-130683284D01*
X198454273Y-130687533D01*
X198454438Y-130688093D01*
X198455757Y-130700396D01*
X198456907Y-130726766D01*
X198457822Y-130764337D01*
X198458431Y-130810243D01*
X198458666Y-130861618D01*
X198458667Y-130864719D01*
X198458667Y-131028120D01*
X198608598Y-131035477D01*
X198758528Y-131042834D01*
X198758528Y-131635500D01*
X198608598Y-131637785D01*
X198458667Y-131640070D01*
X198458667Y-131978400D01*
X198598014Y-131976848D01*
X198649440Y-131976059D01*
X198703959Y-131974852D01*
X198756991Y-131973354D01*
X198803954Y-131971690D01*
X198832612Y-131970401D01*
X198873827Y-131967865D01*
X198903889Y-131964799D01*
X198925753Y-131960650D01*
X198942377Y-131954864D01*
X198956084Y-131947300D01*
X198999209Y-131910567D01*
X199033164Y-131863004D01*
X199048209Y-131830233D01*
X199064040Y-131787900D01*
X199073784Y-130395134D01*
X198762406Y-130395134D01*
X198758528Y-130670300D01*
X198758528Y-130670300D01*
G37*
X198758528Y-130670300D02*
X198604369Y-130672584D01*
X198553655Y-130673451D01*
X198515419Y-130674459D01*
X198488029Y-130675777D01*
X198469853Y-130677575D01*
X198459256Y-130680021D01*
X198454607Y-130683284D01*
X198454273Y-130687533D01*
X198454438Y-130688093D01*
X198455757Y-130700396D01*
X198456907Y-130726766D01*
X198457822Y-130764337D01*
X198458431Y-130810243D01*
X198458666Y-130861618D01*
X198458667Y-130864719D01*
X198458667Y-131028120D01*
X198608598Y-131035477D01*
X198758528Y-131042834D01*
X198758528Y-131635500D01*
X198608598Y-131637785D01*
X198458667Y-131640070D01*
X198458667Y-131978400D01*
X198598014Y-131976848D01*
X198649440Y-131976059D01*
X198703959Y-131974852D01*
X198756991Y-131973354D01*
X198803954Y-131971690D01*
X198832612Y-131970401D01*
X198873827Y-131967865D01*
X198903889Y-131964799D01*
X198925753Y-131960650D01*
X198942377Y-131954864D01*
X198956084Y-131947300D01*
X198999209Y-131910567D01*
X199033164Y-131863004D01*
X199048209Y-131830233D01*
X199064040Y-131787900D01*
X199073784Y-130395134D01*
X198762406Y-130395134D01*
X198758528Y-130670300D01*
G36*
X197102654Y-130849310D02*
X197103367Y-130901974D01*
X197104113Y-130948499D01*
X197104842Y-130986373D01*
X197105504Y-131013081D01*
X197106050Y-131026113D01*
X197106182Y-131026978D01*
X197113303Y-131027678D01*
X197132492Y-131028810D01*
X197161713Y-131030276D01*
X197198932Y-131031974D01*
X197242112Y-131033806D01*
X197262750Y-131034640D01*
X197321001Y-131037388D01*
X197366550Y-131040477D01*
X197399018Y-131043870D01*
X197418027Y-131047529D01*
X197423156Y-131050291D01*
X197424140Y-131060333D01*
X197425067Y-131085718D01*
X197425918Y-131124858D01*
X197426677Y-131176163D01*
X197427323Y-131238045D01*
X197427841Y-131308913D01*
X197428210Y-131387178D01*
X197428414Y-131471252D01*
X197428448Y-131514850D01*
X197428556Y-131969933D01*
X197473309Y-131969933D01*
X197499124Y-131970235D01*
X197533977Y-131971050D01*
X197572805Y-131972246D01*
X197602073Y-131973335D01*
X197637941Y-131974368D01*
X197671207Y-131974577D01*
X197697863Y-131973981D01*
X197712542Y-131972824D01*
X197739000Y-131968911D01*
X197739000Y-130674534D01*
X197428556Y-130674534D01*
X197428448Y-130693584D01*
X197425440Y-130714819D01*
X197421638Y-130725334D01*
X197415455Y-130732861D01*
X197406540Y-130730792D01*
X197395288Y-130722755D01*
X197374024Y-130707012D01*
X197354875Y-130695514D01*
X197334927Y-130687513D01*
X197311260Y-130682264D01*
X197280960Y-130679019D01*
X197241108Y-130677032D01*
X197213362Y-130676186D01*
X197100473Y-130673130D01*
X197102654Y-130849310D01*
X197102654Y-130849310D01*
G37*
X197102654Y-130849310D02*
X197103367Y-130901974D01*
X197104113Y-130948499D01*
X197104842Y-130986373D01*
X197105504Y-131013081D01*
X197106050Y-131026113D01*
X197106182Y-131026978D01*
X197113303Y-131027678D01*
X197132492Y-131028810D01*
X197161713Y-131030276D01*
X197198932Y-131031974D01*
X197242112Y-131033806D01*
X197262750Y-131034640D01*
X197321001Y-131037388D01*
X197366550Y-131040477D01*
X197399018Y-131043870D01*
X197418027Y-131047529D01*
X197423156Y-131050291D01*
X197424140Y-131060333D01*
X197425067Y-131085718D01*
X197425918Y-131124858D01*
X197426677Y-131176163D01*
X197427323Y-131238045D01*
X197427841Y-131308913D01*
X197428210Y-131387178D01*
X197428414Y-131471252D01*
X197428448Y-131514850D01*
X197428556Y-131969933D01*
X197473309Y-131969933D01*
X197499124Y-131970235D01*
X197533977Y-131971050D01*
X197572805Y-131972246D01*
X197602073Y-131973335D01*
X197637941Y-131974368D01*
X197671207Y-131974577D01*
X197697863Y-131973981D01*
X197712542Y-131972824D01*
X197739000Y-131968911D01*
X197739000Y-130674534D01*
X197428556Y-130674534D01*
X197428448Y-130693584D01*
X197425440Y-130714819D01*
X197421638Y-130725334D01*
X197415455Y-130732861D01*
X197406540Y-130730792D01*
X197395288Y-130722755D01*
X197374024Y-130707012D01*
X197354875Y-130695514D01*
X197334927Y-130687513D01*
X197311260Y-130682264D01*
X197280960Y-130679019D01*
X197241108Y-130677032D01*
X197213362Y-130676186D01*
X197100473Y-130673130D01*
X197102654Y-130849310D01*
G36*
X193246375Y-130676292D02*
X192726028Y-130678767D01*
X192684981Y-130702953D01*
X192643906Y-130735780D01*
X192611465Y-130781114D01*
X192587094Y-130839808D01*
X192581422Y-130859575D01*
X192578543Y-130871140D01*
X192576083Y-130883157D01*
X192574009Y-130896990D01*
X192572288Y-130914001D01*
X192570888Y-130935552D01*
X192569776Y-130963007D01*
X192568918Y-130997728D01*
X192568282Y-131041078D01*
X192567835Y-131094419D01*
X192567544Y-131159114D01*
X192567376Y-131236526D01*
X192567298Y-131328017D01*
X192567278Y-131434950D01*
X192567278Y-131978400D01*
X192877723Y-131978400D01*
X192877723Y-131038410D01*
X193165237Y-131040622D01*
X193452750Y-131042834D01*
X193456398Y-131978400D01*
X193766723Y-131978400D01*
X193766723Y-130673818D01*
X193246375Y-130676292D01*
X193246375Y-130676292D01*
G37*
X193246375Y-130676292D02*
X192726028Y-130678767D01*
X192684981Y-130702953D01*
X192643906Y-130735780D01*
X192611465Y-130781114D01*
X192587094Y-130839808D01*
X192581422Y-130859575D01*
X192578543Y-130871140D01*
X192576083Y-130883157D01*
X192574009Y-130896990D01*
X192572288Y-130914001D01*
X192570888Y-130935552D01*
X192569776Y-130963007D01*
X192568918Y-130997728D01*
X192568282Y-131041078D01*
X192567835Y-131094419D01*
X192567544Y-131159114D01*
X192567376Y-131236526D01*
X192567298Y-131328017D01*
X192567278Y-131434950D01*
X192567278Y-131978400D01*
X192877723Y-131978400D01*
X192877723Y-131038410D01*
X193165237Y-131040622D01*
X193452750Y-131042834D01*
X193456398Y-131978400D01*
X193766723Y-131978400D01*
X193766723Y-130673818D01*
X193246375Y-130676292D01*
G36*
X191537071Y-131129617D02*
X191536975Y-131216365D01*
X191536735Y-131298397D01*
X191536367Y-131374079D01*
X191535884Y-131441778D01*
X191535302Y-131499859D01*
X191534636Y-131546690D01*
X191533901Y-131580637D01*
X191533113Y-131600066D01*
X191532720Y-131603750D01*
X191528466Y-131622800D01*
X190965667Y-131622800D01*
X190965667Y-130674534D01*
X190655223Y-130674534D01*
X190655223Y-131978400D01*
X190964894Y-131978400D01*
X190967044Y-131940780D01*
X190969195Y-131903160D01*
X191011528Y-131934430D01*
X191053862Y-131965700D01*
X191366744Y-131968229D01*
X191447298Y-131968833D01*
X191515053Y-131969106D01*
X191571323Y-131968850D01*
X191617420Y-131967871D01*
X191654658Y-131965973D01*
X191684348Y-131962961D01*
X191707804Y-131958640D01*
X191726337Y-131952815D01*
X191741262Y-131945290D01*
X191753889Y-131935870D01*
X191765533Y-131924359D01*
X191777506Y-131910563D01*
X191780790Y-131906632D01*
X191799053Y-131882875D01*
X191813479Y-131858823D01*
X191824568Y-131832050D01*
X191832821Y-131800128D01*
X191838739Y-131760632D01*
X191842824Y-131711134D01*
X191845575Y-131649208D01*
X191847246Y-131584700D01*
X191848058Y-131533772D01*
X191848692Y-131469062D01*
X191849137Y-131393720D01*
X191849386Y-131310896D01*
X191849430Y-131223741D01*
X191849260Y-131135405D01*
X191848866Y-131049037D01*
X191848788Y-131036484D01*
X191846436Y-130674534D01*
X191537167Y-130674534D01*
X191537071Y-131129617D01*
X191537071Y-131129617D01*
G37*
X191537071Y-131129617D02*
X191536975Y-131216365D01*
X191536735Y-131298397D01*
X191536367Y-131374079D01*
X191535884Y-131441778D01*
X191535302Y-131499859D01*
X191534636Y-131546690D01*
X191533901Y-131580637D01*
X191533113Y-131600066D01*
X191532720Y-131603750D01*
X191528466Y-131622800D01*
X190965667Y-131622800D01*
X190965667Y-130674534D01*
X190655223Y-130674534D01*
X190655223Y-131978400D01*
X190964894Y-131978400D01*
X190967044Y-131940780D01*
X190969195Y-131903160D01*
X191011528Y-131934430D01*
X191053862Y-131965700D01*
X191366744Y-131968229D01*
X191447298Y-131968833D01*
X191515053Y-131969106D01*
X191571323Y-131968850D01*
X191617420Y-131967871D01*
X191654658Y-131965973D01*
X191684348Y-131962961D01*
X191707804Y-131958640D01*
X191726337Y-131952815D01*
X191741262Y-131945290D01*
X191753889Y-131935870D01*
X191765533Y-131924359D01*
X191777506Y-131910563D01*
X191780790Y-131906632D01*
X191799053Y-131882875D01*
X191813479Y-131858823D01*
X191824568Y-131832050D01*
X191832821Y-131800128D01*
X191838739Y-131760632D01*
X191842824Y-131711134D01*
X191845575Y-131649208D01*
X191847246Y-131584700D01*
X191848058Y-131533772D01*
X191848692Y-131469062D01*
X191849137Y-131393720D01*
X191849386Y-131310896D01*
X191849430Y-131223741D01*
X191849260Y-131135405D01*
X191848866Y-131049037D01*
X191848788Y-131036484D01*
X191846436Y-130674534D01*
X191537167Y-130674534D01*
X191537071Y-131129617D01*
G36*
X189623522Y-130532717D02*
X189621584Y-130670300D01*
X189467424Y-130672584D01*
X189416710Y-130673451D01*
X189378475Y-130674459D01*
X189351085Y-130675777D01*
X189332908Y-130677575D01*
X189322312Y-130680021D01*
X189317663Y-130683284D01*
X189317329Y-130687533D01*
X189317494Y-130688093D01*
X189318812Y-130700396D01*
X189319963Y-130726766D01*
X189320877Y-130764337D01*
X189321486Y-130810243D01*
X189321722Y-130861618D01*
X189321723Y-130864719D01*
X189321723Y-131028120D01*
X189471653Y-131035477D01*
X189621584Y-131042834D01*
X189621584Y-131635500D01*
X189471653Y-131637785D01*
X189321723Y-131640070D01*
X189321723Y-131978400D01*
X189461070Y-131976848D01*
X189512495Y-131976059D01*
X189567015Y-131974852D01*
X189620047Y-131973354D01*
X189667010Y-131971690D01*
X189695667Y-131970401D01*
X189736883Y-131967865D01*
X189766945Y-131964799D01*
X189788809Y-131960650D01*
X189805432Y-131954864D01*
X189819139Y-131947300D01*
X189862264Y-131910567D01*
X189896220Y-131863004D01*
X189911264Y-131830233D01*
X189927095Y-131787900D01*
X189936839Y-130395134D01*
X189625461Y-130395134D01*
X189623522Y-130532717D01*
X189623522Y-130532717D01*
G37*
X189623522Y-130532717D02*
X189621584Y-130670300D01*
X189467424Y-130672584D01*
X189416710Y-130673451D01*
X189378475Y-130674459D01*
X189351085Y-130675777D01*
X189332908Y-130677575D01*
X189322312Y-130680021D01*
X189317663Y-130683284D01*
X189317329Y-130687533D01*
X189317494Y-130688093D01*
X189318812Y-130700396D01*
X189319963Y-130726766D01*
X189320877Y-130764337D01*
X189321486Y-130810243D01*
X189321722Y-130861618D01*
X189321723Y-130864719D01*
X189321723Y-131028120D01*
X189471653Y-131035477D01*
X189621584Y-131042834D01*
X189621584Y-131635500D01*
X189471653Y-131637785D01*
X189321723Y-131640070D01*
X189321723Y-131978400D01*
X189461070Y-131976848D01*
X189512495Y-131976059D01*
X189567015Y-131974852D01*
X189620047Y-131973354D01*
X189667010Y-131971690D01*
X189695667Y-131970401D01*
X189736883Y-131967865D01*
X189766945Y-131964799D01*
X189788809Y-131960650D01*
X189805432Y-131954864D01*
X189819139Y-131947300D01*
X189862264Y-131910567D01*
X189896220Y-131863004D01*
X189911264Y-131830233D01*
X189927095Y-131787900D01*
X189936839Y-130395134D01*
X189625461Y-130395134D01*
X189623522Y-130532717D01*
G36*
X196567778Y-131398433D02*
X196571306Y-131402667D01*
X196574834Y-131398433D01*
X196571306Y-131394200D01*
X196567778Y-131398433D01*
X196567778Y-131398433D01*
G37*
X196567778Y-131398433D02*
X196571306Y-131402667D01*
X196574834Y-131398433D01*
X196571306Y-131394200D01*
X196567778Y-131398433D01*
G36*
X196567778Y-131229100D02*
X196571306Y-131233334D01*
X196574834Y-131229100D01*
X196571306Y-131224867D01*
X196567778Y-131229100D01*
X196567778Y-131229100D01*
G37*
X196567778Y-131229100D02*
X196571306Y-131233334D01*
X196574834Y-131229100D01*
X196571306Y-131224867D01*
X196567778Y-131229100D01*
G36*
X189457009Y-129587131D02*
X189432919Y-129588627D01*
X189414633Y-129592427D01*
X189398000Y-129599469D01*
X189378871Y-129610694D01*
X189374639Y-129613360D01*
X189323015Y-129655291D01*
X189280156Y-129709347D01*
X189253396Y-129760133D01*
X189244052Y-129783734D01*
X189238185Y-129804831D01*
X189235003Y-129828636D01*
X189233720Y-129860361D01*
X189233528Y-129891367D01*
X189233825Y-129931075D01*
X189235333Y-129959155D01*
X189238980Y-129980911D01*
X189245695Y-130001645D01*
X189256405Y-130026661D01*
X189257709Y-130029551D01*
X189293111Y-130090443D01*
X189338976Y-130140461D01*
X189380189Y-130170390D01*
X189399119Y-130180634D01*
X189417118Y-130187044D01*
X189438447Y-130190479D01*
X189467362Y-130191795D01*
X189487150Y-130191927D01*
X189521385Y-130191429D01*
X189546120Y-130189274D01*
X189565953Y-130184456D01*
X189585484Y-130175969D01*
X189602489Y-130166711D01*
X189648113Y-130133158D01*
X189688747Y-130088674D01*
X189720616Y-130037717D01*
X189730393Y-130015679D01*
X189747480Y-129971770D01*
X191694456Y-129973902D01*
X193641431Y-129976033D01*
X193822258Y-130345971D01*
X194003084Y-130715908D01*
X194191825Y-130718504D01*
X194380565Y-130721100D01*
X194380561Y-130638550D01*
X194380556Y-130556000D01*
X194080429Y-130556000D01*
X193897651Y-130183467D01*
X193762428Y-129907857D01*
X189617748Y-129907857D01*
X189606510Y-129952298D01*
X189582948Y-129992708D01*
X189551028Y-130024265D01*
X189528227Y-130034217D01*
X189497817Y-130037631D01*
X189465124Y-130034742D01*
X189435471Y-130025785D01*
X189422752Y-130018616D01*
X189393614Y-129989528D01*
X189375475Y-129950874D01*
X189367885Y-129901588D01*
X189367584Y-129887754D01*
X189368746Y-129852971D01*
X189373069Y-129828601D01*
X189381813Y-129808280D01*
X189384053Y-129804392D01*
X189411501Y-129771559D01*
X189445368Y-129751196D01*
X189482699Y-129743147D01*
X189520536Y-129747257D01*
X189555924Y-129763370D01*
X189585904Y-129791331D01*
X189601109Y-129815820D01*
X189616127Y-129861619D01*
X189617748Y-129907857D01*
X193762428Y-129907857D01*
X193714873Y-129810933D01*
X189752349Y-129810933D01*
X189733771Y-129766938D01*
X189713640Y-129728909D01*
X189685824Y-129689050D01*
X189654047Y-129651815D01*
X189622035Y-129621660D01*
X189598954Y-129605731D01*
X189579628Y-129596814D01*
X189558865Y-129591194D01*
X189532635Y-129588170D01*
X189496905Y-129587043D01*
X189491056Y-129586998D01*
X189457009Y-129587131D01*
X189457009Y-129587131D01*
G37*
X189457009Y-129587131D02*
X189432919Y-129588627D01*
X189414633Y-129592427D01*
X189398000Y-129599469D01*
X189378871Y-129610694D01*
X189374639Y-129613360D01*
X189323015Y-129655291D01*
X189280156Y-129709347D01*
X189253396Y-129760133D01*
X189244052Y-129783734D01*
X189238185Y-129804831D01*
X189235003Y-129828636D01*
X189233720Y-129860361D01*
X189233528Y-129891367D01*
X189233825Y-129931075D01*
X189235333Y-129959155D01*
X189238980Y-129980911D01*
X189245695Y-130001645D01*
X189256405Y-130026661D01*
X189257709Y-130029551D01*
X189293111Y-130090443D01*
X189338976Y-130140461D01*
X189380189Y-130170390D01*
X189399119Y-130180634D01*
X189417118Y-130187044D01*
X189438447Y-130190479D01*
X189467362Y-130191795D01*
X189487150Y-130191927D01*
X189521385Y-130191429D01*
X189546120Y-130189274D01*
X189565953Y-130184456D01*
X189585484Y-130175969D01*
X189602489Y-130166711D01*
X189648113Y-130133158D01*
X189688747Y-130088674D01*
X189720616Y-130037717D01*
X189730393Y-130015679D01*
X189747480Y-129971770D01*
X191694456Y-129973902D01*
X193641431Y-129976033D01*
X193822258Y-130345971D01*
X194003084Y-130715908D01*
X194191825Y-130718504D01*
X194380565Y-130721100D01*
X194380561Y-130638550D01*
X194380556Y-130556000D01*
X194080429Y-130556000D01*
X193897651Y-130183467D01*
X193762428Y-129907857D01*
X189617748Y-129907857D01*
X189606510Y-129952298D01*
X189582948Y-129992708D01*
X189551028Y-130024265D01*
X189528227Y-130034217D01*
X189497817Y-130037631D01*
X189465124Y-130034742D01*
X189435471Y-130025785D01*
X189422752Y-130018616D01*
X189393614Y-129989528D01*
X189375475Y-129950874D01*
X189367885Y-129901588D01*
X189367584Y-129887754D01*
X189368746Y-129852971D01*
X189373069Y-129828601D01*
X189381813Y-129808280D01*
X189384053Y-129804392D01*
X189411501Y-129771559D01*
X189445368Y-129751196D01*
X189482699Y-129743147D01*
X189520536Y-129747257D01*
X189555924Y-129763370D01*
X189585904Y-129791331D01*
X189601109Y-129815820D01*
X189616127Y-129861619D01*
X189617748Y-129907857D01*
X193762428Y-129907857D01*
X193714873Y-129810933D01*
X189752349Y-129810933D01*
X189733771Y-129766938D01*
X189713640Y-129728909D01*
X189685824Y-129689050D01*
X189654047Y-129651815D01*
X189622035Y-129621660D01*
X189598954Y-129605731D01*
X189579628Y-129596814D01*
X189558865Y-129591194D01*
X189532635Y-129588170D01*
X189496905Y-129587043D01*
X189491056Y-129586998D01*
X189457009Y-129587131D01*
G36*
X205710272Y-129600083D02*
X205692733Y-129600850D01*
X205654266Y-129603364D01*
X205626358Y-129607279D01*
X205605468Y-129613321D01*
X205588055Y-129622212D01*
X205587938Y-129622285D01*
X205551679Y-129650840D01*
X205515258Y-129689336D01*
X205483737Y-129731986D01*
X205468362Y-129759013D01*
X205447195Y-129802131D01*
X201337190Y-129802299D01*
X197227186Y-129802467D01*
X197049051Y-130164991D01*
X197013793Y-130236608D01*
X196980522Y-130303926D01*
X196949957Y-130365508D01*
X196922820Y-130419914D01*
X196899829Y-130465705D01*
X196881706Y-130501443D01*
X196869170Y-130525690D01*
X196862941Y-130537006D01*
X196862575Y-130537524D01*
X196854040Y-130541291D01*
X196834937Y-130544118D01*
X196804379Y-130546063D01*
X196761477Y-130547182D01*
X196706596Y-130547534D01*
X196558959Y-130547534D01*
X196563369Y-130573992D01*
X196565665Y-130596339D01*
X196567260Y-130628241D01*
X196567778Y-130658659D01*
X196568477Y-130687223D01*
X196570315Y-130707357D01*
X196572904Y-130714933D01*
X196573070Y-130714900D01*
X196581294Y-130714264D01*
X196601684Y-130713501D01*
X196632295Y-130712658D01*
X196671183Y-130711785D01*
X196716404Y-130710930D01*
X196758278Y-130710256D01*
X196938195Y-130707579D01*
X197121676Y-130333340D01*
X197305157Y-129959100D01*
X201371057Y-129956976D01*
X205436956Y-129954852D01*
X205444283Y-129978143D01*
X205473220Y-130049243D01*
X205511467Y-130109739D01*
X205557708Y-130157807D01*
X205591027Y-130181290D01*
X205611314Y-130192327D01*
X205629606Y-130199242D01*
X205650318Y-130202969D01*
X205677864Y-130204442D01*
X205701343Y-130204634D01*
X205735008Y-130204203D01*
X205759175Y-130202190D01*
X205778452Y-130197514D01*
X205797448Y-130189093D01*
X205818625Y-130177117D01*
X205870085Y-130137516D01*
X205912262Y-130085514D01*
X205943369Y-130024083D01*
X205952916Y-129996703D01*
X205958597Y-129971159D01*
X205961348Y-129941249D01*
X205962101Y-129900775D01*
X205962103Y-129899833D01*
X205962048Y-129896420D01*
X205829761Y-129896420D01*
X205825335Y-129942153D01*
X205809572Y-129983260D01*
X205783844Y-130016887D01*
X205749524Y-130040175D01*
X205725889Y-130047890D01*
X205693457Y-130049157D01*
X205659631Y-130041614D01*
X205631257Y-130026930D01*
X205627548Y-130023914D01*
X205601457Y-129994477D01*
X205585997Y-129959268D01*
X205579160Y-129913705D01*
X205579141Y-129913397D01*
X205578530Y-129879460D01*
X205582401Y-129854117D01*
X205591407Y-129830588D01*
X205616189Y-129792795D01*
X205647460Y-129767566D01*
X205682634Y-129754695D01*
X205719127Y-129753977D01*
X205754351Y-129765206D01*
X205785723Y-129788175D01*
X205810656Y-129822679D01*
X205821478Y-129848919D01*
X205829761Y-129896420D01*
X205962048Y-129896420D01*
X205961438Y-129858851D01*
X205958815Y-129829073D01*
X205953431Y-129804828D01*
X205945586Y-129783110D01*
X205917818Y-129730321D01*
X205880671Y-129681189D01*
X205838395Y-129640854D01*
X205813889Y-129623920D01*
X205793307Y-129612177D01*
X205776696Y-129604692D01*
X205760016Y-129600694D01*
X205739222Y-129599414D01*
X205710272Y-129600083D01*
X205710272Y-129600083D01*
G37*
X205710272Y-129600083D02*
X205692733Y-129600850D01*
X205654266Y-129603364D01*
X205626358Y-129607279D01*
X205605468Y-129613321D01*
X205588055Y-129622212D01*
X205587938Y-129622285D01*
X205551679Y-129650840D01*
X205515258Y-129689336D01*
X205483737Y-129731986D01*
X205468362Y-129759013D01*
X205447195Y-129802131D01*
X201337190Y-129802299D01*
X197227186Y-129802467D01*
X197049051Y-130164991D01*
X197013793Y-130236608D01*
X196980522Y-130303926D01*
X196949957Y-130365508D01*
X196922820Y-130419914D01*
X196899829Y-130465705D01*
X196881706Y-130501443D01*
X196869170Y-130525690D01*
X196862941Y-130537006D01*
X196862575Y-130537524D01*
X196854040Y-130541291D01*
X196834937Y-130544118D01*
X196804379Y-130546063D01*
X196761477Y-130547182D01*
X196706596Y-130547534D01*
X196558959Y-130547534D01*
X196563369Y-130573992D01*
X196565665Y-130596339D01*
X196567260Y-130628241D01*
X196567778Y-130658659D01*
X196568477Y-130687223D01*
X196570315Y-130707357D01*
X196572904Y-130714933D01*
X196573070Y-130714900D01*
X196581294Y-130714264D01*
X196601684Y-130713501D01*
X196632295Y-130712658D01*
X196671183Y-130711785D01*
X196716404Y-130710930D01*
X196758278Y-130710256D01*
X196938195Y-130707579D01*
X197121676Y-130333340D01*
X197305157Y-129959100D01*
X201371057Y-129956976D01*
X205436956Y-129954852D01*
X205444283Y-129978143D01*
X205473220Y-130049243D01*
X205511467Y-130109739D01*
X205557708Y-130157807D01*
X205591027Y-130181290D01*
X205611314Y-130192327D01*
X205629606Y-130199242D01*
X205650318Y-130202969D01*
X205677864Y-130204442D01*
X205701343Y-130204634D01*
X205735008Y-130204203D01*
X205759175Y-130202190D01*
X205778452Y-130197514D01*
X205797448Y-130189093D01*
X205818625Y-130177117D01*
X205870085Y-130137516D01*
X205912262Y-130085514D01*
X205943369Y-130024083D01*
X205952916Y-129996703D01*
X205958597Y-129971159D01*
X205961348Y-129941249D01*
X205962101Y-129900775D01*
X205962103Y-129899833D01*
X205962048Y-129896420D01*
X205829761Y-129896420D01*
X205825335Y-129942153D01*
X205809572Y-129983260D01*
X205783844Y-130016887D01*
X205749524Y-130040175D01*
X205725889Y-130047890D01*
X205693457Y-130049157D01*
X205659631Y-130041614D01*
X205631257Y-130026930D01*
X205627548Y-130023914D01*
X205601457Y-129994477D01*
X205585997Y-129959268D01*
X205579160Y-129913705D01*
X205579141Y-129913397D01*
X205578530Y-129879460D01*
X205582401Y-129854117D01*
X205591407Y-129830588D01*
X205616189Y-129792795D01*
X205647460Y-129767566D01*
X205682634Y-129754695D01*
X205719127Y-129753977D01*
X205754351Y-129765206D01*
X205785723Y-129788175D01*
X205810656Y-129822679D01*
X205821478Y-129848919D01*
X205829761Y-129896420D01*
X205962048Y-129896420D01*
X205961438Y-129858851D01*
X205958815Y-129829073D01*
X205953431Y-129804828D01*
X205945586Y-129783110D01*
X205917818Y-129730321D01*
X205880671Y-129681189D01*
X205838395Y-129640854D01*
X205813889Y-129623920D01*
X205793307Y-129612177D01*
X205776696Y-129604692D01*
X205760016Y-129600694D01*
X205739222Y-129599414D01*
X205710272Y-129600083D01*
G36*
X196627750Y-128017599D02*
X196593183Y-128019724D01*
X196568376Y-128023169D01*
X196548984Y-128029050D01*
X196530657Y-128038482D01*
X196519983Y-128045240D01*
X196477065Y-128081419D01*
X196438040Y-128129202D01*
X196407036Y-128183262D01*
X196399715Y-128200421D01*
X196389713Y-128229087D01*
X196383932Y-128255727D01*
X196381321Y-128287048D01*
X196380806Y-128320800D01*
X196381609Y-128360926D01*
X196384720Y-128390891D01*
X196391193Y-128417401D01*
X196399715Y-128441180D01*
X196430071Y-128500932D01*
X196470208Y-128552526D01*
X196517075Y-128592234D01*
X196529847Y-128600073D01*
X196574834Y-128625579D01*
X196574834Y-128959601D01*
X196368459Y-129200782D01*
X196319310Y-129258267D01*
X196269573Y-129316527D01*
X196221017Y-129373485D01*
X196175409Y-129427062D01*
X196134517Y-129475183D01*
X196100110Y-129515770D01*
X196073956Y-129546745D01*
X196072789Y-129548132D01*
X195983495Y-129654300D01*
X195978810Y-129846917D01*
X195974125Y-130039533D01*
X196116223Y-130039533D01*
X196116223Y-129719290D01*
X196412461Y-129373528D01*
X196708699Y-129027767D01*
X196708794Y-128823600D01*
X196708889Y-128619434D01*
X196740770Y-128604823D01*
X196786804Y-128575393D01*
X196828398Y-128532990D01*
X196863033Y-128481255D01*
X196888193Y-128423831D01*
X196900094Y-128374337D01*
X196903558Y-128304232D01*
X196903200Y-128301887D01*
X196766299Y-128301887D01*
X196765271Y-128346550D01*
X196754318Y-128388024D01*
X196745751Y-128404812D01*
X196717422Y-128439348D01*
X196683479Y-128458942D01*
X196644805Y-128464733D01*
X196619199Y-128463445D01*
X196597120Y-128460133D01*
X196587481Y-128457208D01*
X196560384Y-128436668D01*
X196537458Y-128404292D01*
X196520912Y-128365011D01*
X196512957Y-128323760D01*
X196514118Y-128293510D01*
X196527678Y-128251363D01*
X196551621Y-128214801D01*
X196582789Y-128186990D01*
X196618018Y-128171098D01*
X196638798Y-128168586D01*
X196670579Y-128175221D01*
X196704044Y-128192371D01*
X196732919Y-128216569D01*
X196739331Y-128224140D01*
X196757589Y-128259321D01*
X196766299Y-128301887D01*
X196903200Y-128301887D01*
X196893255Y-128236774D01*
X196869454Y-128172907D01*
X196832429Y-128113576D01*
X196821005Y-128099404D01*
X196786371Y-128063122D01*
X196752092Y-128038384D01*
X196714581Y-128023674D01*
X196670248Y-128017470D01*
X196627750Y-128017599D01*
X196627750Y-128017599D01*
G37*
X196627750Y-128017599D02*
X196593183Y-128019724D01*
X196568376Y-128023169D01*
X196548984Y-128029050D01*
X196530657Y-128038482D01*
X196519983Y-128045240D01*
X196477065Y-128081419D01*
X196438040Y-128129202D01*
X196407036Y-128183262D01*
X196399715Y-128200421D01*
X196389713Y-128229087D01*
X196383932Y-128255727D01*
X196381321Y-128287048D01*
X196380806Y-128320800D01*
X196381609Y-128360926D01*
X196384720Y-128390891D01*
X196391193Y-128417401D01*
X196399715Y-128441180D01*
X196430071Y-128500932D01*
X196470208Y-128552526D01*
X196517075Y-128592234D01*
X196529847Y-128600073D01*
X196574834Y-128625579D01*
X196574834Y-128959601D01*
X196368459Y-129200782D01*
X196319310Y-129258267D01*
X196269573Y-129316527D01*
X196221017Y-129373485D01*
X196175409Y-129427062D01*
X196134517Y-129475183D01*
X196100110Y-129515770D01*
X196073956Y-129546745D01*
X196072789Y-129548132D01*
X195983495Y-129654300D01*
X195978810Y-129846917D01*
X195974125Y-130039533D01*
X196116223Y-130039533D01*
X196116223Y-129719290D01*
X196412461Y-129373528D01*
X196708699Y-129027767D01*
X196708794Y-128823600D01*
X196708889Y-128619434D01*
X196740770Y-128604823D01*
X196786804Y-128575393D01*
X196828398Y-128532990D01*
X196863033Y-128481255D01*
X196888193Y-128423831D01*
X196900094Y-128374337D01*
X196903558Y-128304232D01*
X196903200Y-128301887D01*
X196766299Y-128301887D01*
X196765271Y-128346550D01*
X196754318Y-128388024D01*
X196745751Y-128404812D01*
X196717422Y-128439348D01*
X196683479Y-128458942D01*
X196644805Y-128464733D01*
X196619199Y-128463445D01*
X196597120Y-128460133D01*
X196587481Y-128457208D01*
X196560384Y-128436668D01*
X196537458Y-128404292D01*
X196520912Y-128365011D01*
X196512957Y-128323760D01*
X196514118Y-128293510D01*
X196527678Y-128251363D01*
X196551621Y-128214801D01*
X196582789Y-128186990D01*
X196618018Y-128171098D01*
X196638798Y-128168586D01*
X196670579Y-128175221D01*
X196704044Y-128192371D01*
X196732919Y-128216569D01*
X196739331Y-128224140D01*
X196757589Y-128259321D01*
X196766299Y-128301887D01*
X196903200Y-128301887D01*
X196893255Y-128236774D01*
X196869454Y-128172907D01*
X196832429Y-128113576D01*
X196821005Y-128099404D01*
X196786371Y-128063122D01*
X196752092Y-128038384D01*
X196714581Y-128023674D01*
X196670248Y-128017470D01*
X196627750Y-128017599D01*
G36*
X195453000Y-128017842D02*
X195402190Y-128023915D01*
X195360421Y-128037801D01*
X195323418Y-128061709D01*
X195286904Y-128097849D01*
X195277957Y-128108326D01*
X195249060Y-128146528D01*
X195229297Y-128182756D01*
X195217146Y-128221739D01*
X195211087Y-128268201D01*
X195209584Y-128320800D01*
X195210026Y-128363567D01*
X195211767Y-128394223D01*
X195215428Y-128417573D01*
X195221629Y-128438420D01*
X195226364Y-128450599D01*
X195252088Y-128498057D01*
X195288526Y-128543913D01*
X195332402Y-128584346D01*
X195354722Y-128600428D01*
X195400084Y-128630288D01*
X195397373Y-129334911D01*
X195394662Y-130039533D01*
X195467928Y-130039535D01*
X195541195Y-130039536D01*
X195539313Y-129329539D01*
X195537432Y-128619542D01*
X195569688Y-128604759D01*
X195600809Y-128584638D01*
X195634101Y-128553552D01*
X195665750Y-128515873D01*
X195691943Y-128475971D01*
X195704521Y-128450220D01*
X195716214Y-128416216D01*
X195723082Y-128380730D01*
X195726562Y-128336247D01*
X195726641Y-128334417D01*
X195726164Y-128297025D01*
X195591610Y-128297025D01*
X195591330Y-128342106D01*
X195580317Y-128384706D01*
X195559866Y-128421554D01*
X195531271Y-128449374D01*
X195495951Y-128464866D01*
X195458581Y-128467356D01*
X195422088Y-128460171D01*
X195403612Y-128451644D01*
X195373355Y-128424626D01*
X195352552Y-128388282D01*
X195341534Y-128346200D01*
X195340629Y-128301973D01*
X195350168Y-128259190D01*
X195370481Y-128221442D01*
X195381306Y-128208949D01*
X195416550Y-128183159D01*
X195454718Y-128171774D01*
X195493084Y-128174191D01*
X195528919Y-128189810D01*
X195559496Y-128218028D01*
X195579861Y-128252739D01*
X195591610Y-128297025D01*
X195726164Y-128297025D01*
X195725875Y-128274378D01*
X195717033Y-128223411D01*
X195698655Y-128177134D01*
X195669276Y-128131165D01*
X195651201Y-128108359D01*
X195614029Y-128068161D01*
X195578631Y-128040835D01*
X195541125Y-128024607D01*
X195497624Y-128017703D01*
X195453000Y-128017842D01*
X195453000Y-128017842D01*
G37*
X195453000Y-128017842D02*
X195402190Y-128023915D01*
X195360421Y-128037801D01*
X195323418Y-128061709D01*
X195286904Y-128097849D01*
X195277957Y-128108326D01*
X195249060Y-128146528D01*
X195229297Y-128182756D01*
X195217146Y-128221739D01*
X195211087Y-128268201D01*
X195209584Y-128320800D01*
X195210026Y-128363567D01*
X195211767Y-128394223D01*
X195215428Y-128417573D01*
X195221629Y-128438420D01*
X195226364Y-128450599D01*
X195252088Y-128498057D01*
X195288526Y-128543913D01*
X195332402Y-128584346D01*
X195354722Y-128600428D01*
X195400084Y-128630288D01*
X195397373Y-129334911D01*
X195394662Y-130039533D01*
X195467928Y-130039535D01*
X195541195Y-130039536D01*
X195539313Y-129329539D01*
X195537432Y-128619542D01*
X195569688Y-128604759D01*
X195600809Y-128584638D01*
X195634101Y-128553552D01*
X195665750Y-128515873D01*
X195691943Y-128475971D01*
X195704521Y-128450220D01*
X195716214Y-128416216D01*
X195723082Y-128380730D01*
X195726562Y-128336247D01*
X195726641Y-128334417D01*
X195726164Y-128297025D01*
X195591610Y-128297025D01*
X195591330Y-128342106D01*
X195580317Y-128384706D01*
X195559866Y-128421554D01*
X195531271Y-128449374D01*
X195495951Y-128464866D01*
X195458581Y-128467356D01*
X195422088Y-128460171D01*
X195403612Y-128451644D01*
X195373355Y-128424626D01*
X195352552Y-128388282D01*
X195341534Y-128346200D01*
X195340629Y-128301973D01*
X195350168Y-128259190D01*
X195370481Y-128221442D01*
X195381306Y-128208949D01*
X195416550Y-128183159D01*
X195454718Y-128171774D01*
X195493084Y-128174191D01*
X195528919Y-128189810D01*
X195559496Y-128218028D01*
X195579861Y-128252739D01*
X195591610Y-128297025D01*
X195726164Y-128297025D01*
X195725875Y-128274378D01*
X195717033Y-128223411D01*
X195698655Y-128177134D01*
X195669276Y-128131165D01*
X195651201Y-128108359D01*
X195614029Y-128068161D01*
X195578631Y-128040835D01*
X195541125Y-128024607D01*
X195497624Y-128017703D01*
X195453000Y-128017842D01*
G36*
X194285980Y-128017166D02*
X194279747Y-128017451D01*
X194242847Y-128019932D01*
X194215811Y-128023996D01*
X194194400Y-128030602D01*
X194174375Y-128040712D01*
X194172737Y-128041683D01*
X194137104Y-128069119D01*
X194101361Y-128107104D01*
X194070049Y-128150198D01*
X194048945Y-128189950D01*
X194040749Y-128211476D01*
X194035540Y-128232153D01*
X194032667Y-128256799D01*
X194031481Y-128290233D01*
X194031306Y-128320800D01*
X194031714Y-128363081D01*
X194033341Y-128393054D01*
X194036796Y-128415329D01*
X194042686Y-128434513D01*
X194047960Y-128447179D01*
X194075891Y-128496946D01*
X194112725Y-128543832D01*
X194153989Y-128582655D01*
X194180717Y-128600913D01*
X194225334Y-128626465D01*
X194226540Y-129036233D01*
X194520507Y-129378981D01*
X194574297Y-129441823D01*
X194625123Y-129501443D01*
X194672066Y-129556748D01*
X194714210Y-129606646D01*
X194750636Y-129650045D01*
X194780428Y-129685851D01*
X194802666Y-129712973D01*
X194816434Y-129730317D01*
X194820765Y-129736489D01*
X194822674Y-129750264D01*
X194823494Y-129778396D01*
X194823226Y-129818360D01*
X194821870Y-129867629D01*
X194820765Y-129895406D01*
X194814473Y-130039563D01*
X194886792Y-130039548D01*
X194959112Y-130039533D01*
X194959112Y-129668224D01*
X194359996Y-128968500D01*
X194359693Y-128793967D01*
X194359389Y-128619434D01*
X194391757Y-128604600D01*
X194421760Y-128585215D01*
X194454375Y-128555123D01*
X194485807Y-128518702D01*
X194512263Y-128480331D01*
X194529467Y-128445691D01*
X194537924Y-128419638D01*
X194543028Y-128393336D01*
X194545538Y-128361113D01*
X194545940Y-128337097D01*
X194414435Y-128337097D01*
X194405214Y-128380197D01*
X194385014Y-128418981D01*
X194360002Y-128445433D01*
X194332490Y-128459383D01*
X194298027Y-128465228D01*
X194262115Y-128462818D01*
X194230260Y-128452007D01*
X194225224Y-128449057D01*
X194195804Y-128421446D01*
X194175322Y-128384178D01*
X194164421Y-128341183D01*
X194163750Y-128296392D01*
X194173954Y-128253734D01*
X194188598Y-128226259D01*
X194219264Y-128194478D01*
X194255912Y-128175433D01*
X194295144Y-128170017D01*
X194333561Y-128179117D01*
X194345151Y-128185255D01*
X194378033Y-128213762D01*
X194400662Y-128250694D01*
X194412857Y-128292868D01*
X194414435Y-128337097D01*
X194545940Y-128337097D01*
X194546214Y-128320800D01*
X194545800Y-128280571D01*
X194543808Y-128251593D01*
X194539374Y-128228207D01*
X194531634Y-128204752D01*
X194526552Y-128191958D01*
X194493841Y-128130637D01*
X194450796Y-128079442D01*
X194399616Y-128040966D01*
X194397749Y-128039907D01*
X194375898Y-128028154D01*
X194358172Y-128020836D01*
X194340195Y-128017121D01*
X194317590Y-128016175D01*
X194285980Y-128017166D01*
X194285980Y-128017166D01*
G37*
X194285980Y-128017166D02*
X194279747Y-128017451D01*
X194242847Y-128019932D01*
X194215811Y-128023996D01*
X194194400Y-128030602D01*
X194174375Y-128040712D01*
X194172737Y-128041683D01*
X194137104Y-128069119D01*
X194101361Y-128107104D01*
X194070049Y-128150198D01*
X194048945Y-128189950D01*
X194040749Y-128211476D01*
X194035540Y-128232153D01*
X194032667Y-128256799D01*
X194031481Y-128290233D01*
X194031306Y-128320800D01*
X194031714Y-128363081D01*
X194033341Y-128393054D01*
X194036796Y-128415329D01*
X194042686Y-128434513D01*
X194047960Y-128447179D01*
X194075891Y-128496946D01*
X194112725Y-128543832D01*
X194153989Y-128582655D01*
X194180717Y-128600913D01*
X194225334Y-128626465D01*
X194226540Y-129036233D01*
X194520507Y-129378981D01*
X194574297Y-129441823D01*
X194625123Y-129501443D01*
X194672066Y-129556748D01*
X194714210Y-129606646D01*
X194750636Y-129650045D01*
X194780428Y-129685851D01*
X194802666Y-129712973D01*
X194816434Y-129730317D01*
X194820765Y-129736489D01*
X194822674Y-129750264D01*
X194823494Y-129778396D01*
X194823226Y-129818360D01*
X194821870Y-129867629D01*
X194820765Y-129895406D01*
X194814473Y-130039563D01*
X194886792Y-130039548D01*
X194959112Y-130039533D01*
X194959112Y-129668224D01*
X194359996Y-128968500D01*
X194359693Y-128793967D01*
X194359389Y-128619434D01*
X194391757Y-128604600D01*
X194421760Y-128585215D01*
X194454375Y-128555123D01*
X194485807Y-128518702D01*
X194512263Y-128480331D01*
X194529467Y-128445691D01*
X194537924Y-128419638D01*
X194543028Y-128393336D01*
X194545538Y-128361113D01*
X194545940Y-128337097D01*
X194414435Y-128337097D01*
X194405214Y-128380197D01*
X194385014Y-128418981D01*
X194360002Y-128445433D01*
X194332490Y-128459383D01*
X194298027Y-128465228D01*
X194262115Y-128462818D01*
X194230260Y-128452007D01*
X194225224Y-128449057D01*
X194195804Y-128421446D01*
X194175322Y-128384178D01*
X194164421Y-128341183D01*
X194163750Y-128296392D01*
X194173954Y-128253734D01*
X194188598Y-128226259D01*
X194219264Y-128194478D01*
X194255912Y-128175433D01*
X194295144Y-128170017D01*
X194333561Y-128179117D01*
X194345151Y-128185255D01*
X194378033Y-128213762D01*
X194400662Y-128250694D01*
X194412857Y-128292868D01*
X194414435Y-128337097D01*
X194545940Y-128337097D01*
X194546214Y-128320800D01*
X194545800Y-128280571D01*
X194543808Y-128251593D01*
X194539374Y-128228207D01*
X194531634Y-128204752D01*
X194526552Y-128191958D01*
X194493841Y-128130637D01*
X194450796Y-128079442D01*
X194399616Y-128040966D01*
X194397749Y-128039907D01*
X194375898Y-128028154D01*
X194358172Y-128020836D01*
X194340195Y-128017121D01*
X194317590Y-128016175D01*
X194285980Y-128017166D01*
G36*
X192071548Y-133856977D02*
X192065254Y-133863407D01*
X192053938Y-133872652D01*
X192042479Y-133871036D01*
X192033806Y-133865967D01*
X192019885Y-133858843D01*
X192011481Y-133861941D01*
X192006638Y-133868814D01*
X191991905Y-133882024D01*
X191975606Y-133879369D01*
X191968967Y-133873240D01*
X191958145Y-133867400D01*
X191950183Y-133873833D01*
X191948014Y-133887881D01*
X191951858Y-133900430D01*
X191960041Y-133924506D01*
X191957828Y-133941403D01*
X191946834Y-133948356D01*
X191928672Y-133942602D01*
X191927619Y-133941940D01*
X191914071Y-133935177D01*
X191906513Y-133938598D01*
X191903954Y-133942865D01*
X191902935Y-133959327D01*
X191907941Y-133968540D01*
X191917356Y-133987407D01*
X191913518Y-134003434D01*
X191908035Y-134009951D01*
X191895886Y-134015745D01*
X191882889Y-134010400D01*
X191868012Y-134005108D01*
X191857566Y-134011027D01*
X191851126Y-134020563D01*
X191854935Y-134031214D01*
X191858873Y-134036699D01*
X191867776Y-134055784D01*
X191864278Y-134069735D01*
X191849957Y-134075760D01*
X191837504Y-134074566D01*
X191817301Y-134073232D01*
X191808584Y-134081453D01*
X191810819Y-134099913D01*
X191812970Y-134106061D01*
X191817101Y-134129807D01*
X191813395Y-134143487D01*
X191810022Y-134160998D01*
X191817283Y-134179599D01*
X191824527Y-134197753D01*
X191821164Y-134213324D01*
X191820791Y-134214053D01*
X191816941Y-134228971D01*
X191823365Y-134239447D01*
X191833442Y-134244838D01*
X191844771Y-134237719D01*
X191847964Y-134234385D01*
X191859110Y-134224131D01*
X191867103Y-134225697D01*
X191874152Y-134233353D01*
X191882064Y-134247546D01*
X191878562Y-134262275D01*
X191877858Y-134263657D01*
X191873586Y-134278332D01*
X191880516Y-134291396D01*
X191882416Y-134293519D01*
X191892432Y-134302612D01*
X191897530Y-134299557D01*
X191899435Y-134294399D01*
X191909014Y-134283706D01*
X191923212Y-134282238D01*
X191934891Y-134290044D01*
X191936817Y-134294141D01*
X191936212Y-134310842D01*
X191932204Y-134319541D01*
X191927092Y-134333030D01*
X191932410Y-134345024D01*
X191940233Y-134353092D01*
X191949484Y-134350941D01*
X191958784Y-134344188D01*
X191972031Y-134335365D01*
X191980652Y-134336810D01*
X191987636Y-134344134D01*
X191995097Y-134358186D01*
X191990850Y-134373526D01*
X191990747Y-134373724D01*
X191986475Y-134388398D01*
X191993405Y-134401463D01*
X191995305Y-134403586D01*
X192005321Y-134412679D01*
X192010419Y-134409624D01*
X192012324Y-134404466D01*
X192022312Y-134392932D01*
X192039051Y-134394146D01*
X192051924Y-134401608D01*
X192064603Y-134407128D01*
X192076562Y-134399769D01*
X192078901Y-134397310D01*
X192095934Y-134387051D01*
X192114573Y-134388161D01*
X192131214Y-134389378D01*
X192136811Y-134381358D01*
X192131999Y-134362701D01*
X192129145Y-134355989D01*
X192126550Y-134338853D01*
X192131661Y-134324289D01*
X192141273Y-134317003D01*
X192152181Y-134321699D01*
X192152361Y-134321913D01*
X192166091Y-134330853D01*
X192177387Y-134327020D01*
X192183183Y-134314556D01*
X192180410Y-134297603D01*
X192175922Y-134290101D01*
X192168978Y-134276859D01*
X192172761Y-134263698D01*
X192174979Y-134259910D01*
X192184344Y-134249249D01*
X192196063Y-134250401D01*
X192202608Y-134253677D01*
X192217460Y-134259103D01*
X192227087Y-134253695D01*
X192229050Y-134251067D01*
X192233617Y-134238567D01*
X192227097Y-134224757D01*
X192226114Y-134223433D01*
X192218598Y-134209428D01*
X192221919Y-134196352D01*
X192223895Y-134192953D01*
X192232614Y-134182822D01*
X192242821Y-134185218D01*
X192248356Y-134189099D01*
X192264477Y-134195639D01*
X192273750Y-134189449D01*
X192273694Y-134173905D01*
X192268376Y-134161874D01*
X192261075Y-134146647D01*
X192262838Y-134135806D01*
X192268342Y-134127707D01*
X192275141Y-134116160D01*
X192273674Y-134105273D01*
X192264970Y-134090559D01*
X192255582Y-134072829D01*
X192255679Y-134059262D01*
X192258719Y-134052258D01*
X192262496Y-134035821D01*
X192258253Y-134023542D01*
X192249076Y-134020140D01*
X192241312Y-134025640D01*
X192227920Y-134033969D01*
X192212072Y-134035030D01*
X192200301Y-134028887D01*
X192198403Y-134025217D01*
X192198738Y-134009445D01*
X192201832Y-133999276D01*
X192203830Y-133979869D01*
X192199867Y-133971545D01*
X192192013Y-133963955D01*
X192183129Y-133968371D01*
X192177798Y-133973847D01*
X192164859Y-133983442D01*
X192152929Y-133979532D01*
X192152351Y-133979082D01*
X192143687Y-133966443D01*
X192143041Y-133958271D01*
X192147273Y-133940106D01*
X192149133Y-133932186D01*
X192147234Y-133919574D01*
X192138805Y-133910827D01*
X192129199Y-133909499D01*
X192124377Y-133915744D01*
X192115968Y-133923717D01*
X192101839Y-133925273D01*
X192089291Y-133920521D01*
X192085677Y-133915150D01*
X192086534Y-133899638D01*
X192089956Y-133890438D01*
X192092967Y-133873584D01*
X192087828Y-133862707D01*
X192079681Y-133853813D01*
X192071548Y-133856977D01*
X192071548Y-133856977D01*
G37*
X192071548Y-133856977D02*
X192065254Y-133863407D01*
X192053938Y-133872652D01*
X192042479Y-133871036D01*
X192033806Y-133865967D01*
X192019885Y-133858843D01*
X192011481Y-133861941D01*
X192006638Y-133868814D01*
X191991905Y-133882024D01*
X191975606Y-133879369D01*
X191968967Y-133873240D01*
X191958145Y-133867400D01*
X191950183Y-133873833D01*
X191948014Y-133887881D01*
X191951858Y-133900430D01*
X191960041Y-133924506D01*
X191957828Y-133941403D01*
X191946834Y-133948356D01*
X191928672Y-133942602D01*
X191927619Y-133941940D01*
X191914071Y-133935177D01*
X191906513Y-133938598D01*
X191903954Y-133942865D01*
X191902935Y-133959327D01*
X191907941Y-133968540D01*
X191917356Y-133987407D01*
X191913518Y-134003434D01*
X191908035Y-134009951D01*
X191895886Y-134015745D01*
X191882889Y-134010400D01*
X191868012Y-134005108D01*
X191857566Y-134011027D01*
X191851126Y-134020563D01*
X191854935Y-134031214D01*
X191858873Y-134036699D01*
X191867776Y-134055784D01*
X191864278Y-134069735D01*
X191849957Y-134075760D01*
X191837504Y-134074566D01*
X191817301Y-134073232D01*
X191808584Y-134081453D01*
X191810819Y-134099913D01*
X191812970Y-134106061D01*
X191817101Y-134129807D01*
X191813395Y-134143487D01*
X191810022Y-134160998D01*
X191817283Y-134179599D01*
X191824527Y-134197753D01*
X191821164Y-134213324D01*
X191820791Y-134214053D01*
X191816941Y-134228971D01*
X191823365Y-134239447D01*
X191833442Y-134244838D01*
X191844771Y-134237719D01*
X191847964Y-134234385D01*
X191859110Y-134224131D01*
X191867103Y-134225697D01*
X191874152Y-134233353D01*
X191882064Y-134247546D01*
X191878562Y-134262275D01*
X191877858Y-134263657D01*
X191873586Y-134278332D01*
X191880516Y-134291396D01*
X191882416Y-134293519D01*
X191892432Y-134302612D01*
X191897530Y-134299557D01*
X191899435Y-134294399D01*
X191909014Y-134283706D01*
X191923212Y-134282238D01*
X191934891Y-134290044D01*
X191936817Y-134294141D01*
X191936212Y-134310842D01*
X191932204Y-134319541D01*
X191927092Y-134333030D01*
X191932410Y-134345024D01*
X191940233Y-134353092D01*
X191949484Y-134350941D01*
X191958784Y-134344188D01*
X191972031Y-134335365D01*
X191980652Y-134336810D01*
X191987636Y-134344134D01*
X191995097Y-134358186D01*
X191990850Y-134373526D01*
X191990747Y-134373724D01*
X191986475Y-134388398D01*
X191993405Y-134401463D01*
X191995305Y-134403586D01*
X192005321Y-134412679D01*
X192010419Y-134409624D01*
X192012324Y-134404466D01*
X192022312Y-134392932D01*
X192039051Y-134394146D01*
X192051924Y-134401608D01*
X192064603Y-134407128D01*
X192076562Y-134399769D01*
X192078901Y-134397310D01*
X192095934Y-134387051D01*
X192114573Y-134388161D01*
X192131214Y-134389378D01*
X192136811Y-134381358D01*
X192131999Y-134362701D01*
X192129145Y-134355989D01*
X192126550Y-134338853D01*
X192131661Y-134324289D01*
X192141273Y-134317003D01*
X192152181Y-134321699D01*
X192152361Y-134321913D01*
X192166091Y-134330853D01*
X192177387Y-134327020D01*
X192183183Y-134314556D01*
X192180410Y-134297603D01*
X192175922Y-134290101D01*
X192168978Y-134276859D01*
X192172761Y-134263698D01*
X192174979Y-134259910D01*
X192184344Y-134249249D01*
X192196063Y-134250401D01*
X192202608Y-134253677D01*
X192217460Y-134259103D01*
X192227087Y-134253695D01*
X192229050Y-134251067D01*
X192233617Y-134238567D01*
X192227097Y-134224757D01*
X192226114Y-134223433D01*
X192218598Y-134209428D01*
X192221919Y-134196352D01*
X192223895Y-134192953D01*
X192232614Y-134182822D01*
X192242821Y-134185218D01*
X192248356Y-134189099D01*
X192264477Y-134195639D01*
X192273750Y-134189449D01*
X192273694Y-134173905D01*
X192268376Y-134161874D01*
X192261075Y-134146647D01*
X192262838Y-134135806D01*
X192268342Y-134127707D01*
X192275141Y-134116160D01*
X192273674Y-134105273D01*
X192264970Y-134090559D01*
X192255582Y-134072829D01*
X192255679Y-134059262D01*
X192258719Y-134052258D01*
X192262496Y-134035821D01*
X192258253Y-134023542D01*
X192249076Y-134020140D01*
X192241312Y-134025640D01*
X192227920Y-134033969D01*
X192212072Y-134035030D01*
X192200301Y-134028887D01*
X192198403Y-134025217D01*
X192198738Y-134009445D01*
X192201832Y-133999276D01*
X192203830Y-133979869D01*
X192199867Y-133971545D01*
X192192013Y-133963955D01*
X192183129Y-133968371D01*
X192177798Y-133973847D01*
X192164859Y-133983442D01*
X192152929Y-133979532D01*
X192152351Y-133979082D01*
X192143687Y-133966443D01*
X192143041Y-133958271D01*
X192147273Y-133940106D01*
X192149133Y-133932186D01*
X192147234Y-133919574D01*
X192138805Y-133910827D01*
X192129199Y-133909499D01*
X192124377Y-133915744D01*
X192115968Y-133923717D01*
X192101839Y-133925273D01*
X192089291Y-133920521D01*
X192085677Y-133915150D01*
X192086534Y-133899638D01*
X192089956Y-133890438D01*
X192092967Y-133873584D01*
X192087828Y-133862707D01*
X192079681Y-133853813D01*
X192071548Y-133856977D01*
G36*
X194993761Y-130701019D02*
X194958102Y-130728860D01*
X194930291Y-130763307D01*
X194906939Y-130808863D01*
X194900455Y-130824958D01*
X194897051Y-130834127D01*
X194894189Y-130843446D01*
X194891821Y-130854386D01*
X194889901Y-130868421D01*
X194888382Y-130887025D01*
X194887217Y-130911669D01*
X194886358Y-130943828D01*
X194885760Y-130984973D01*
X194885375Y-131036579D01*
X194885156Y-131100118D01*
X194885056Y-131177063D01*
X194885029Y-131268887D01*
X194885028Y-131309533D01*
X194885028Y-131754033D01*
X194903837Y-131792425D01*
X194938799Y-131848221D01*
X194984013Y-131896394D01*
X195036200Y-131934132D01*
X195092083Y-131958623D01*
X195100223Y-131960889D01*
X195118373Y-131963695D01*
X195148936Y-131966237D01*
X195190212Y-131968487D01*
X195240505Y-131970422D01*
X195298115Y-131972015D01*
X195361346Y-131973241D01*
X195428498Y-131974075D01*
X195497876Y-131974491D01*
X195567779Y-131974464D01*
X195636511Y-131973969D01*
X195702374Y-131972980D01*
X195763670Y-131971471D01*
X195777556Y-131971027D01*
X195834716Y-131968864D01*
X195879824Y-131966222D01*
X195914941Y-131962443D01*
X195942125Y-131956869D01*
X195963435Y-131948842D01*
X195980930Y-131937703D01*
X195996670Y-131922795D01*
X196012714Y-131903459D01*
X196020376Y-131893412D01*
X196031041Y-131879347D01*
X196040070Y-131866801D01*
X196047605Y-131854297D01*
X196053790Y-131840358D01*
X196058766Y-131823509D01*
X196062677Y-131802272D01*
X196065664Y-131775172D01*
X196067871Y-131740732D01*
X196069439Y-131697476D01*
X196070512Y-131643927D01*
X196071231Y-131578610D01*
X196071740Y-131500047D01*
X196071918Y-131462375D01*
X195769304Y-131462375D01*
X195769226Y-131518394D01*
X195768954Y-131565128D01*
X195768497Y-131600534D01*
X195767867Y-131622574D01*
X195767290Y-131629094D01*
X195763448Y-131631861D01*
X195753149Y-131634139D01*
X195735335Y-131635968D01*
X195708950Y-131637385D01*
X195672933Y-131638431D01*
X195626228Y-131639145D01*
X195567776Y-131639564D01*
X195496519Y-131639728D01*
X195477916Y-131639733D01*
X195191945Y-131639733D01*
X195191945Y-131038410D01*
X195766973Y-131042834D01*
X195768833Y-131330644D01*
X195769176Y-131399112D01*
X195769304Y-131462375D01*
X196071918Y-131462375D01*
X196072182Y-131406763D01*
X196072420Y-131354400D01*
X196074478Y-130912432D01*
X196055951Y-130868559D01*
X196029488Y-130818517D01*
X195995199Y-130772088D01*
X195957326Y-130734661D01*
X195941239Y-130722835D01*
X195925789Y-130712955D01*
X195911219Y-130704522D01*
X195896315Y-130697423D01*
X195879862Y-130691542D01*
X195860644Y-130686766D01*
X195837448Y-130682978D01*
X195809059Y-130680066D01*
X195774261Y-130677913D01*
X195731840Y-130676406D01*
X195680581Y-130675429D01*
X195619269Y-130674869D01*
X195546690Y-130674609D01*
X195461628Y-130674536D01*
X195429575Y-130674534D01*
X195035170Y-130674534D01*
X194993761Y-130701019D01*
X194993761Y-130701019D01*
G37*
X194993761Y-130701019D02*
X194958102Y-130728860D01*
X194930291Y-130763307D01*
X194906939Y-130808863D01*
X194900455Y-130824958D01*
X194897051Y-130834127D01*
X194894189Y-130843446D01*
X194891821Y-130854386D01*
X194889901Y-130868421D01*
X194888382Y-130887025D01*
X194887217Y-130911669D01*
X194886358Y-130943828D01*
X194885760Y-130984973D01*
X194885375Y-131036579D01*
X194885156Y-131100118D01*
X194885056Y-131177063D01*
X194885029Y-131268887D01*
X194885028Y-131309533D01*
X194885028Y-131754033D01*
X194903837Y-131792425D01*
X194938799Y-131848221D01*
X194984013Y-131896394D01*
X195036200Y-131934132D01*
X195092083Y-131958623D01*
X195100223Y-131960889D01*
X195118373Y-131963695D01*
X195148936Y-131966237D01*
X195190212Y-131968487D01*
X195240505Y-131970422D01*
X195298115Y-131972015D01*
X195361346Y-131973241D01*
X195428498Y-131974075D01*
X195497876Y-131974491D01*
X195567779Y-131974464D01*
X195636511Y-131973969D01*
X195702374Y-131972980D01*
X195763670Y-131971471D01*
X195777556Y-131971027D01*
X195834716Y-131968864D01*
X195879824Y-131966222D01*
X195914941Y-131962443D01*
X195942125Y-131956869D01*
X195963435Y-131948842D01*
X195980930Y-131937703D01*
X195996670Y-131922795D01*
X196012714Y-131903459D01*
X196020376Y-131893412D01*
X196031041Y-131879347D01*
X196040070Y-131866801D01*
X196047605Y-131854297D01*
X196053790Y-131840358D01*
X196058766Y-131823509D01*
X196062677Y-131802272D01*
X196065664Y-131775172D01*
X196067871Y-131740732D01*
X196069439Y-131697476D01*
X196070512Y-131643927D01*
X196071231Y-131578610D01*
X196071740Y-131500047D01*
X196071918Y-131462375D01*
X195769304Y-131462375D01*
X195769226Y-131518394D01*
X195768954Y-131565128D01*
X195768497Y-131600534D01*
X195767867Y-131622574D01*
X195767290Y-131629094D01*
X195763448Y-131631861D01*
X195753149Y-131634139D01*
X195735335Y-131635968D01*
X195708950Y-131637385D01*
X195672933Y-131638431D01*
X195626228Y-131639145D01*
X195567776Y-131639564D01*
X195496519Y-131639728D01*
X195477916Y-131639733D01*
X195191945Y-131639733D01*
X195191945Y-131038410D01*
X195766973Y-131042834D01*
X195768833Y-131330644D01*
X195769176Y-131399112D01*
X195769304Y-131462375D01*
X196071918Y-131462375D01*
X196072182Y-131406763D01*
X196072420Y-131354400D01*
X196074478Y-130912432D01*
X196055951Y-130868559D01*
X196029488Y-130818517D01*
X195995199Y-130772088D01*
X195957326Y-130734661D01*
X195941239Y-130722835D01*
X195925789Y-130712955D01*
X195911219Y-130704522D01*
X195896315Y-130697423D01*
X195879862Y-130691542D01*
X195860644Y-130686766D01*
X195837448Y-130682978D01*
X195809059Y-130680066D01*
X195774261Y-130677913D01*
X195731840Y-130676406D01*
X195680581Y-130675429D01*
X195619269Y-130674869D01*
X195546690Y-130674609D01*
X195461628Y-130674536D01*
X195429575Y-130674534D01*
X195035170Y-130674534D01*
X194993761Y-130701019D01*
D11*
X211316047Y-128623190D02*
X211316047Y-128123190D01*
X211125571Y-128123190D01*
X211077952Y-128147000D01*
X211054143Y-128170810D01*
X211030333Y-128218429D01*
X211030333Y-128289857D01*
X211054143Y-128337476D01*
X211077952Y-128361286D01*
X211125571Y-128385095D01*
X211316047Y-128385095D01*
X210839857Y-128170810D02*
X210816047Y-128147000D01*
X210768428Y-128123190D01*
X210649381Y-128123190D01*
X210601762Y-128147000D01*
X210577952Y-128170810D01*
X210554143Y-128218429D01*
X210554143Y-128266048D01*
X210577952Y-128337476D01*
X210863666Y-128623190D01*
X210554143Y-128623190D01*
M02*
