G04 #@! TF.FileFunction,Copper,L2,Bot,Signal*
%FSLAX46Y46*%
G04 Gerber Fmt 4.6, Leading zero omitted, Abs format (unit mm)*
G04 Created by KiCad (PCBNEW 4.0.6) date 06/28/18 12:37:23*
%MOMM*%
%LPD*%
G01*
G04 APERTURE LIST*
%ADD10C,0.150000*%
%ADD11R,1.000000X1.000000*%
%ADD12O,1.000000X1.000000*%
%ADD13R,2.000000X1.200000*%
%ADD14C,1.524000*%
%ADD15O,3.000000X1.500000*%
%ADD16C,1.200000*%
%ADD17C,1.250000*%
%ADD18C,0.889000*%
%ADD19C,0.400000*%
%ADD20C,0.254000*%
G04 APERTURE END LIST*
D10*
D11*
X191516000Y-142113000D03*
D12*
X192786000Y-142113000D03*
X194056000Y-142113000D03*
X195326000Y-142113000D03*
D13*
X210947000Y-129675000D03*
X210947000Y-132215000D03*
X210947000Y-134755000D03*
X210947000Y-137295000D03*
X210947000Y-139835000D03*
D14*
X185650000Y-133875000D03*
X185650000Y-135875000D03*
X185650000Y-131375000D03*
X185650000Y-138375000D03*
X183550000Y-132625000D03*
X183550000Y-137125000D03*
D15*
X183550000Y-129175000D03*
X183550000Y-140575000D03*
D16*
X200152000Y-133985000D03*
X198882000Y-133985000D03*
X197612000Y-133985000D03*
D17*
X197612000Y-136398000D03*
D16*
X198882000Y-136398000D03*
X200152000Y-136398000D03*
X200152000Y-135128000D03*
X197612000Y-135128000D03*
X198882000Y-135128000D03*
D18*
X190737502Y-129222500D03*
X190373000Y-132207000D03*
X208026000Y-131191000D03*
X195326000Y-130429000D03*
X188087000Y-128841500D03*
X203454000Y-134366000D03*
X200850500Y-139509500D03*
X210629500Y-142875000D03*
X196950980Y-130717380D03*
X199961500Y-127381000D03*
X206888966Y-139827980D03*
X203256502Y-136779000D03*
X192883502Y-138303000D03*
X196913500Y-140081000D03*
X187833000Y-130429000D03*
X187900000Y-139700000D03*
X194500500Y-139573000D03*
X206375000Y-135576498D03*
X204787500Y-134493000D03*
X201676000Y-140398500D03*
X186690000Y-132588000D03*
X191579500Y-137258498D03*
X204470000Y-130429000D03*
X201930000Y-130302000D03*
X211201000Y-135979502D03*
X199654141Y-130267684D03*
X188724510Y-136366987D03*
X188976000Y-138684000D03*
X198374000Y-128651000D03*
X194183000Y-131318000D03*
X188724510Y-133950834D03*
X193802000Y-132588000D03*
X190754000Y-136525000D03*
X192944945Y-136252736D03*
D19*
X190436500Y-129523502D02*
X190436500Y-132016500D01*
X190436500Y-129523502D02*
X190737502Y-129222500D01*
X190373000Y-132080000D02*
X190373000Y-132207000D01*
X190436500Y-132016500D02*
X190373000Y-132080000D01*
X210947000Y-139835000D02*
X210947000Y-142557500D01*
X210947000Y-142557500D02*
X210629500Y-142875000D01*
X197450620Y-130717380D02*
X198818500Y-129349500D01*
X198818500Y-129349500D02*
X199644000Y-129349500D01*
X199644000Y-129349500D02*
X200215500Y-128778000D01*
X200215500Y-128778000D02*
X200215500Y-128143000D01*
X196950980Y-130717380D02*
X197450620Y-130717380D01*
X200215500Y-127635000D02*
X200215500Y-128143000D01*
X199961500Y-127381000D02*
X200215500Y-127635000D01*
X192883502Y-138303000D02*
X192883502Y-138464002D01*
X192883502Y-138464002D02*
X193103500Y-138684000D01*
X199009000Y-141224000D02*
X200850500Y-141224000D01*
X196469000Y-141224000D02*
X199009000Y-141224000D01*
X199009000Y-141224000D02*
X195135500Y-141224000D01*
X195135500Y-141224000D02*
X194500500Y-140589000D01*
X187900000Y-139700000D02*
X187900000Y-130496000D01*
X187900000Y-130496000D02*
X187833000Y-130429000D01*
X187725000Y-130537000D02*
X187833000Y-130429000D01*
X187900000Y-139700000D02*
X187725000Y-139525000D01*
X204787500Y-134493000D02*
X205291502Y-134493000D01*
X205291502Y-134493000D02*
X206375000Y-135576498D01*
X200850500Y-141224000D02*
X201676000Y-140398500D01*
X194500500Y-140589000D02*
X194056000Y-141033500D01*
X194056000Y-141033500D02*
X194056000Y-142113000D01*
X194500500Y-139573000D02*
X194500500Y-140589000D01*
X185650000Y-138375000D02*
X186450000Y-138375000D01*
X187075000Y-132973000D02*
X186690000Y-132588000D01*
X187075000Y-137750000D02*
X187075000Y-132973000D01*
X186450000Y-138375000D02*
X187075000Y-137750000D01*
X186662000Y-132616000D02*
X186690000Y-132588000D01*
D20*
X191579500Y-137258498D02*
X191579500Y-142049500D01*
X191579500Y-142049500D02*
X191516000Y-142113000D01*
X205616063Y-129675000D02*
X210947000Y-129675000D01*
X204470000Y-130429000D02*
X205224000Y-129675000D01*
X205224000Y-129675000D02*
X205616063Y-129675000D01*
X203843000Y-132215000D02*
X204208000Y-132215000D01*
X201930000Y-130302000D02*
X203843000Y-132215000D01*
X210947000Y-132215000D02*
X204216000Y-132215000D01*
X204216000Y-132215000D02*
X203906500Y-132215000D01*
X210947000Y-134755000D02*
X210947000Y-135725502D01*
X210947000Y-135725502D02*
X211201000Y-135979502D01*
X199654141Y-130267684D02*
X202565000Y-133178543D01*
X202565000Y-133178543D02*
X205576543Y-133178543D01*
X205576543Y-133178543D02*
X209693000Y-137295000D01*
X209693000Y-137295000D02*
X210947000Y-137295000D01*
X188976000Y-136618477D02*
X188724510Y-136366987D01*
X188976000Y-138684000D02*
X188976000Y-136618477D01*
X194183000Y-129667000D02*
X194183000Y-129286000D01*
X194183000Y-129286000D02*
X194310000Y-129159000D01*
X194818000Y-128651000D02*
X198374000Y-128651000D01*
X194818000Y-128651000D02*
X194310000Y-129159000D01*
X194183000Y-129667000D02*
X194183000Y-129667000D01*
X194183000Y-131318000D02*
X194183000Y-129667000D01*
X189353127Y-133950834D02*
X188724510Y-133950834D01*
X192439166Y-133950834D02*
X189353127Y-133950834D01*
X193802000Y-132588000D02*
X192439166Y-133950834D01*
X190754000Y-136525000D02*
X191198499Y-136080501D01*
X191198499Y-136080501D02*
X192772710Y-136080501D01*
X192772710Y-136080501D02*
X192944945Y-136252736D01*
G36*
X184262969Y-124366682D02*
X184904915Y-124572303D01*
X185470703Y-124821425D01*
X185476349Y-124822678D01*
X185481182Y-124825856D01*
X186073786Y-125066193D01*
X186083654Y-125068080D01*
X186092319Y-125073161D01*
X186405357Y-125181782D01*
X186405768Y-125181839D01*
X186406126Y-125182048D01*
X186618261Y-125255156D01*
X186618565Y-125255197D01*
X186618829Y-125255351D01*
X186687889Y-125279031D01*
X186688151Y-125279066D01*
X186688382Y-125279200D01*
X186750910Y-125300546D01*
X186751089Y-125300570D01*
X186751245Y-125300660D01*
X186784955Y-125312134D01*
X186784956Y-125312134D01*
X186817034Y-125323054D01*
X186817374Y-125323099D01*
X186817674Y-125323272D01*
X186851386Y-125334682D01*
X186883454Y-125345541D01*
X186883993Y-125345612D01*
X186884467Y-125345883D01*
X187030149Y-125394765D01*
X187031026Y-125394877D01*
X187031795Y-125395313D01*
X187149419Y-125434193D01*
X187151932Y-125434503D01*
X187154154Y-125435725D01*
X187477110Y-125537876D01*
X187482301Y-125538449D01*
X187486947Y-125540845D01*
X187694882Y-125600576D01*
X187703467Y-125601293D01*
X187711289Y-125604901D01*
X187963953Y-125665599D01*
X187974144Y-125666001D01*
X187983615Y-125669784D01*
X188274840Y-125723886D01*
X188284922Y-125723758D01*
X188294464Y-125727011D01*
X188851729Y-125801109D01*
X188862283Y-125800431D01*
X188872463Y-125803298D01*
X189438625Y-125847645D01*
X189449103Y-125846401D01*
X189459378Y-125848705D01*
X190254666Y-125867998D01*
X190265158Y-125866174D01*
X190275665Y-125867937D01*
X191063668Y-125844167D01*
X191075880Y-125841352D01*
X191088346Y-125842630D01*
X192005146Y-125755990D01*
X192021663Y-125751051D01*
X192038898Y-125751289D01*
X192685670Y-125631901D01*
X192702839Y-125625066D01*
X192721259Y-125623572D01*
X193213636Y-125483444D01*
X193223799Y-125478235D01*
X193235108Y-125476650D01*
X194611872Y-124996411D01*
X194611874Y-124996410D01*
X195975333Y-124520915D01*
X196318400Y-124428201D01*
X196875948Y-124351602D01*
X197782074Y-124333904D01*
X198274927Y-124366239D01*
X198650517Y-124424787D01*
X198994675Y-124511671D01*
X199499989Y-124679185D01*
X200551769Y-125061315D01*
X200552824Y-125061477D01*
X200553738Y-125062024D01*
X201035008Y-125233929D01*
X201041520Y-125234891D01*
X201047278Y-125238081D01*
X202107131Y-125577002D01*
X202125137Y-125579048D01*
X202141735Y-125586321D01*
X202653916Y-125699042D01*
X202674332Y-125699456D01*
X202693790Y-125705651D01*
X203570525Y-125804143D01*
X203585483Y-125802876D01*
X203600095Y-125806319D01*
X204651647Y-125843178D01*
X204668748Y-125840395D01*
X204685900Y-125842858D01*
X205715646Y-125787474D01*
X205740121Y-125781222D01*
X205765378Y-125781545D01*
X206754421Y-125597915D01*
X206770841Y-125591358D01*
X206788472Y-125589983D01*
X207284895Y-125450356D01*
X207299938Y-125442704D01*
X207316585Y-125439945D01*
X208535614Y-124980233D01*
X209335476Y-124680284D01*
X209339103Y-124678035D01*
X209343300Y-124677253D01*
X209818974Y-124486983D01*
X210119199Y-124411927D01*
X210730711Y-124502519D01*
X211356670Y-124838775D01*
X211847974Y-125203000D01*
X212236835Y-125670683D01*
X212486811Y-126179535D01*
X212595801Y-126482753D01*
X212593908Y-143634346D01*
X212359576Y-144136915D01*
X211973264Y-144601530D01*
X211494683Y-144956321D01*
X210974268Y-145183494D01*
X210266614Y-145344213D01*
X209362425Y-145190140D01*
X208573214Y-144853402D01*
X208570668Y-144852867D01*
X208568501Y-144851428D01*
X207895603Y-144574789D01*
X207874681Y-144570685D01*
X207855739Y-144560896D01*
X206916151Y-144290074D01*
X206904958Y-144289128D01*
X206894696Y-144284551D01*
X206447017Y-144182924D01*
X206443317Y-144182825D01*
X206439912Y-144181382D01*
X205819006Y-144052678D01*
X205817009Y-144052662D01*
X205815161Y-144051901D01*
X205512028Y-143992273D01*
X205511420Y-143992274D01*
X205510858Y-143992045D01*
X204738511Y-143842595D01*
X204694804Y-143842823D01*
X204651659Y-143835802D01*
X203600108Y-143872660D01*
X203585496Y-143876103D01*
X203570538Y-143874836D01*
X202693791Y-143973328D01*
X202674335Y-143979522D01*
X202653919Y-143979936D01*
X202141738Y-144092654D01*
X202125139Y-144099927D01*
X202107129Y-144101974D01*
X201047285Y-144440899D01*
X201041530Y-144444087D01*
X201035018Y-144445049D01*
X200553740Y-144616954D01*
X200552822Y-144617503D01*
X200551768Y-144617665D01*
X199499968Y-144999803D01*
X198994662Y-145167312D01*
X198650533Y-145254192D01*
X198274932Y-145312739D01*
X197774548Y-145345570D01*
X197575826Y-145349463D01*
X197403261Y-145350200D01*
X197202454Y-145347246D01*
X197036639Y-145340907D01*
X196649211Y-145306808D01*
X196323929Y-145252278D01*
X195975323Y-145158062D01*
X194611877Y-144682569D01*
X194611875Y-144682568D01*
X193235111Y-144202330D01*
X193223802Y-144200745D01*
X193213639Y-144195536D01*
X192721263Y-144055407D01*
X192702841Y-144053913D01*
X192685673Y-144047078D01*
X192038905Y-143927690D01*
X192021669Y-143927928D01*
X192005153Y-143922989D01*
X191088350Y-143836347D01*
X191078472Y-143837359D01*
X191068830Y-143835001D01*
X190679627Y-143818048D01*
X190674344Y-143818862D01*
X190669117Y-143817733D01*
X190266777Y-143811177D01*
X190261586Y-143812122D01*
X190256404Y-143811148D01*
X189855929Y-143815385D01*
X189850702Y-143816482D01*
X189845428Y-143815639D01*
X189454157Y-143830434D01*
X189446477Y-143832266D01*
X189438630Y-143831334D01*
X188872465Y-143875679D01*
X188862284Y-143878546D01*
X188851727Y-143877868D01*
X188294466Y-143951968D01*
X188284922Y-143955222D01*
X188274837Y-143955094D01*
X187983610Y-144009201D01*
X187974145Y-144012982D01*
X187963966Y-144013383D01*
X187711303Y-144074073D01*
X187703467Y-144077687D01*
X187694865Y-144078406D01*
X187486928Y-144138150D01*
X187482296Y-144140539D01*
X187477122Y-144141110D01*
X187154166Y-144243253D01*
X187151311Y-144244823D01*
X187148079Y-144245234D01*
X186816687Y-144356124D01*
X186815141Y-144357008D01*
X186813373Y-144357249D01*
X186093059Y-144605563D01*
X186076927Y-144614979D01*
X186058746Y-144619262D01*
X185925686Y-144679920D01*
X185925648Y-144679947D01*
X185925602Y-144679958D01*
X185792560Y-144740646D01*
X185635743Y-144811840D01*
X185529527Y-144859653D01*
X185219749Y-144995433D01*
X185013784Y-145080988D01*
X184321472Y-145308906D01*
X183995221Y-145350870D01*
X183753380Y-145343676D01*
X183449568Y-145281771D01*
X183188155Y-145189354D01*
X182933340Y-145063130D01*
X182447183Y-144702721D01*
X182050742Y-144225920D01*
X181915064Y-143987552D01*
X181792427Y-143704037D01*
X181715213Y-143461470D01*
X181686010Y-142741415D01*
X181686002Y-140845740D01*
X181718241Y-141007815D01*
X181963411Y-141374738D01*
X182330334Y-141619908D01*
X182763149Y-141706000D01*
X184336851Y-141706000D01*
X184769666Y-141619908D01*
X185136589Y-141374738D01*
X185381759Y-141007815D01*
X185467851Y-140575000D01*
X185381759Y-140142185D01*
X185136589Y-139775262D01*
X184769666Y-139530092D01*
X184336851Y-139444000D01*
X182763149Y-139444000D01*
X182330334Y-139530092D01*
X181963411Y-139775262D01*
X181718241Y-140142185D01*
X181686000Y-140304270D01*
X181685989Y-137351359D01*
X182406802Y-137351359D01*
X182580446Y-137771612D01*
X182901697Y-138093423D01*
X183321646Y-138267801D01*
X183776359Y-138268198D01*
X184196612Y-138094554D01*
X184518423Y-137773303D01*
X184692801Y-137353354D01*
X184693198Y-136898641D01*
X184519554Y-136478388D01*
X184198303Y-136156577D01*
X183778354Y-135982199D01*
X183323641Y-135981802D01*
X182903388Y-136155446D01*
X182581577Y-136476697D01*
X182407199Y-136896646D01*
X182406802Y-137351359D01*
X181685989Y-137351359D01*
X181685971Y-132851359D01*
X182406802Y-132851359D01*
X182580446Y-133271612D01*
X182901697Y-133593423D01*
X183321646Y-133767801D01*
X183776359Y-133768198D01*
X184196612Y-133594554D01*
X184518423Y-133273303D01*
X184692801Y-132853354D01*
X184693171Y-132429015D01*
X184734382Y-132470226D01*
X184849393Y-132355215D01*
X184918857Y-132597397D01*
X185364307Y-132756318D01*
X185003388Y-132905446D01*
X184681577Y-133226697D01*
X184507199Y-133646646D01*
X184506802Y-134101359D01*
X184680446Y-134521612D01*
X185001697Y-134843423D01*
X185077409Y-134874861D01*
X185003388Y-134905446D01*
X184681577Y-135226697D01*
X184507199Y-135646646D01*
X184506802Y-136101359D01*
X184680446Y-136521612D01*
X185001697Y-136843423D01*
X185421646Y-137017801D01*
X185876359Y-137018198D01*
X186296612Y-136844554D01*
X186494000Y-136647509D01*
X186494000Y-137509342D01*
X186447404Y-137555938D01*
X186298303Y-137406577D01*
X185878354Y-137232199D01*
X185423641Y-137231802D01*
X185003388Y-137405446D01*
X184681577Y-137726697D01*
X184507199Y-138146646D01*
X184506802Y-138601359D01*
X184680446Y-139021612D01*
X185001697Y-139343423D01*
X185421646Y-139517801D01*
X185876359Y-139518198D01*
X186296612Y-139344554D01*
X186618423Y-139023303D01*
X186664049Y-138913423D01*
X186672339Y-138911774D01*
X186860829Y-138785829D01*
X187319000Y-138327658D01*
X187319000Y-139110944D01*
X187314171Y-139114171D01*
X187305703Y-139126844D01*
X187200583Y-139231781D01*
X187074643Y-139535077D01*
X187074357Y-139863482D01*
X187199767Y-140166998D01*
X187431781Y-140399417D01*
X187735077Y-140525357D01*
X188063482Y-140525643D01*
X188366998Y-140400233D01*
X188599417Y-140168219D01*
X188725357Y-139864923D01*
X188725643Y-139536518D01*
X188694402Y-139460909D01*
X188811077Y-139509357D01*
X189139482Y-139509643D01*
X189442998Y-139384233D01*
X189675417Y-139152219D01*
X189801357Y-138848923D01*
X189801643Y-138520518D01*
X189676233Y-138217002D01*
X189484000Y-138024433D01*
X189484000Y-136690535D01*
X189484852Y-136688482D01*
X189928357Y-136688482D01*
X190053767Y-136991998D01*
X190285781Y-137224417D01*
X190589077Y-137350357D01*
X190753919Y-137350501D01*
X190753857Y-137421980D01*
X190879267Y-137725496D01*
X191071500Y-137918065D01*
X191071500Y-141224536D01*
X191016000Y-141224536D01*
X190874810Y-141251103D01*
X190745135Y-141334546D01*
X190658141Y-141461866D01*
X190627536Y-141613000D01*
X190627536Y-142613000D01*
X190654103Y-142754190D01*
X190737546Y-142883865D01*
X190864866Y-142970859D01*
X191016000Y-143001464D01*
X192016000Y-143001464D01*
X192157190Y-142974897D01*
X192286865Y-142891454D01*
X192312898Y-142853354D01*
X192448856Y-142944198D01*
X192786000Y-143011260D01*
X193123144Y-142944198D01*
X193408961Y-142753221D01*
X193421000Y-142735203D01*
X193433039Y-142753221D01*
X193718856Y-142944198D01*
X194056000Y-143011260D01*
X194393144Y-142944198D01*
X194501503Y-142871795D01*
X194765791Y-143100127D01*
X195024126Y-143207119D01*
X195199000Y-143080954D01*
X195199000Y-142240000D01*
X195453000Y-142240000D01*
X195453000Y-143080954D01*
X195627874Y-143207119D01*
X195886209Y-143100127D01*
X196221323Y-142810604D01*
X196420132Y-142414877D01*
X196295135Y-142240000D01*
X195453000Y-142240000D01*
X195199000Y-142240000D01*
X195179000Y-142240000D01*
X195179000Y-141986000D01*
X195199000Y-141986000D01*
X195199000Y-141966000D01*
X195453000Y-141966000D01*
X195453000Y-141986000D01*
X196295135Y-141986000D01*
X196420132Y-141811123D01*
X196417056Y-141805000D01*
X200850500Y-141805000D01*
X201072839Y-141760774D01*
X201261329Y-141634829D01*
X201672161Y-141223997D01*
X201839482Y-141224143D01*
X202142998Y-141098733D01*
X202375417Y-140866719D01*
X202501357Y-140563423D01*
X202501643Y-140235018D01*
X202454429Y-140120750D01*
X209312000Y-140120750D01*
X209312000Y-140561310D01*
X209408673Y-140794699D01*
X209587302Y-140973327D01*
X209820691Y-141070000D01*
X210661250Y-141070000D01*
X210820000Y-140911250D01*
X210820000Y-139962000D01*
X211074000Y-139962000D01*
X211074000Y-140911250D01*
X211232750Y-141070000D01*
X212073309Y-141070000D01*
X212306698Y-140973327D01*
X212485327Y-140794699D01*
X212582000Y-140561310D01*
X212582000Y-140120750D01*
X212423250Y-139962000D01*
X211074000Y-139962000D01*
X210820000Y-139962000D01*
X209470750Y-139962000D01*
X209312000Y-140120750D01*
X202454429Y-140120750D01*
X202376233Y-139931502D01*
X202144219Y-139699083D01*
X201840923Y-139573143D01*
X201512518Y-139572857D01*
X201209002Y-139698267D01*
X200976583Y-139930281D01*
X200850643Y-140233577D01*
X200850496Y-140402346D01*
X200609842Y-140643000D01*
X195376158Y-140643000D01*
X195081500Y-140348342D01*
X195081500Y-140159430D01*
X195199917Y-140041219D01*
X195325857Y-139737923D01*
X195326143Y-139409518D01*
X195201844Y-139108690D01*
X209312000Y-139108690D01*
X209312000Y-139549250D01*
X209470750Y-139708000D01*
X210820000Y-139708000D01*
X210820000Y-138758750D01*
X211074000Y-138758750D01*
X211074000Y-139708000D01*
X212423250Y-139708000D01*
X212582000Y-139549250D01*
X212582000Y-139108690D01*
X212485327Y-138875301D01*
X212306698Y-138696673D01*
X212073309Y-138600000D01*
X211232750Y-138600000D01*
X211074000Y-138758750D01*
X210820000Y-138758750D01*
X210661250Y-138600000D01*
X209820691Y-138600000D01*
X209587302Y-138696673D01*
X209408673Y-138875301D01*
X209312000Y-139108690D01*
X195201844Y-139108690D01*
X195200733Y-139106002D01*
X194968719Y-138873583D01*
X194665423Y-138747643D01*
X194337018Y-138747357D01*
X194033502Y-138872767D01*
X193801083Y-139104781D01*
X193675143Y-139408077D01*
X193674857Y-139736482D01*
X193800267Y-140039998D01*
X193919500Y-140159439D01*
X193919500Y-140348342D01*
X193645171Y-140622671D01*
X193519226Y-140811161D01*
X193475000Y-141033500D01*
X193475000Y-141444742D01*
X193433039Y-141472779D01*
X193421000Y-141490797D01*
X193408961Y-141472779D01*
X193123144Y-141281802D01*
X192786000Y-141214740D01*
X192448856Y-141281802D01*
X192313730Y-141372091D01*
X192294454Y-141342135D01*
X192167134Y-141255141D01*
X192087500Y-141239015D01*
X192087500Y-137917800D01*
X192278917Y-137726717D01*
X192404857Y-137423421D01*
X192405143Y-137095016D01*
X192279733Y-136791500D01*
X192077088Y-136588501D01*
X192190488Y-136588501D01*
X192244712Y-136719734D01*
X192476726Y-136952153D01*
X192780022Y-137078093D01*
X193108427Y-137078379D01*
X193411943Y-136952969D01*
X193644362Y-136720955D01*
X193695738Y-136597228D01*
X196605825Y-136597228D01*
X196758657Y-136967109D01*
X197041403Y-137250348D01*
X197411016Y-137403825D01*
X197811228Y-137404175D01*
X198181109Y-137251343D01*
X198264560Y-137168037D01*
X198325583Y-137229166D01*
X198686011Y-137378829D01*
X199076277Y-137379170D01*
X199436966Y-137230136D01*
X199516898Y-137150343D01*
X199595583Y-137229166D01*
X199956011Y-137378829D01*
X200346277Y-137379170D01*
X200706966Y-137230136D01*
X200983166Y-136954417D01*
X201132829Y-136593989D01*
X201133170Y-136203723D01*
X200984136Y-135843034D01*
X200904343Y-135763102D01*
X200983166Y-135684417D01*
X201132829Y-135323989D01*
X201133170Y-134933723D01*
X200984136Y-134573034D01*
X200967843Y-134556713D01*
X200983166Y-134541417D01*
X201132829Y-134180989D01*
X201133170Y-133790723D01*
X200984136Y-133430034D01*
X200708417Y-133153834D01*
X200347989Y-133004171D01*
X199957723Y-133003830D01*
X199597034Y-133152864D01*
X199517102Y-133232657D01*
X199438417Y-133153834D01*
X199077989Y-133004171D01*
X198687723Y-133003830D01*
X198327034Y-133152864D01*
X198247102Y-133232657D01*
X198168417Y-133153834D01*
X197807989Y-133004171D01*
X197417723Y-133003830D01*
X197057034Y-133152864D01*
X196780834Y-133428583D01*
X196631171Y-133789011D01*
X196630830Y-134179277D01*
X196779864Y-134539966D01*
X196796157Y-134556287D01*
X196780834Y-134571583D01*
X196631171Y-134932011D01*
X196630830Y-135322277D01*
X196779864Y-135682966D01*
X196841994Y-135745204D01*
X196759652Y-135827403D01*
X196606175Y-136197016D01*
X196605825Y-136597228D01*
X193695738Y-136597228D01*
X193770302Y-136417659D01*
X193770588Y-136089254D01*
X193645178Y-135785738D01*
X193413164Y-135553319D01*
X193109868Y-135427379D01*
X192781463Y-135427093D01*
X192477947Y-135552503D01*
X192457914Y-135572501D01*
X191198499Y-135572501D01*
X191004096Y-135611170D01*
X190871748Y-135699602D01*
X190590518Y-135699357D01*
X190287002Y-135824767D01*
X190054583Y-136056781D01*
X189928643Y-136360077D01*
X189928357Y-136688482D01*
X189484852Y-136688482D01*
X189549867Y-136531910D01*
X189550153Y-136203505D01*
X189424743Y-135899989D01*
X189192729Y-135667570D01*
X188889433Y-135541630D01*
X188561028Y-135541344D01*
X188481000Y-135574411D01*
X188481000Y-134743559D01*
X188559587Y-134776191D01*
X188887992Y-134776477D01*
X189191508Y-134651067D01*
X189384077Y-134458834D01*
X192439166Y-134458834D01*
X192633569Y-134420165D01*
X192798376Y-134310044D01*
X193695013Y-133413407D01*
X193965482Y-133413643D01*
X194268998Y-133288233D01*
X194501417Y-133056219D01*
X194627357Y-132752923D01*
X194627643Y-132424518D01*
X194502233Y-132121002D01*
X194472752Y-132091469D01*
X194649998Y-132018233D01*
X194882417Y-131786219D01*
X195008357Y-131482923D01*
X195008643Y-131154518D01*
X194883233Y-130851002D01*
X194691000Y-130658433D01*
X194691000Y-130431166D01*
X198828498Y-130431166D01*
X198953908Y-130734682D01*
X199185922Y-130967101D01*
X199489218Y-131093041D01*
X199761315Y-131093278D01*
X202205790Y-133537753D01*
X202370596Y-133647874D01*
X202402850Y-133654289D01*
X202565000Y-133686543D01*
X204577584Y-133686543D01*
X204320502Y-133792767D01*
X204088083Y-134024781D01*
X203962143Y-134328077D01*
X203961857Y-134656482D01*
X204087267Y-134959998D01*
X204319281Y-135192417D01*
X204622577Y-135318357D01*
X204950982Y-135318643D01*
X205194760Y-135217916D01*
X205549503Y-135572659D01*
X205549357Y-135739980D01*
X205674767Y-136043496D01*
X205906781Y-136275915D01*
X206210077Y-136401855D01*
X206538482Y-136402141D01*
X206841998Y-136276731D01*
X207074417Y-136044717D01*
X207200357Y-135741421D01*
X207200549Y-135520969D01*
X209333790Y-137654210D01*
X209498596Y-137764331D01*
X209530850Y-137770746D01*
X209558536Y-137776254D01*
X209558536Y-137895000D01*
X209585103Y-138036190D01*
X209668546Y-138165865D01*
X209795866Y-138252859D01*
X209947000Y-138283464D01*
X211947000Y-138283464D01*
X212088190Y-138256897D01*
X212217865Y-138173454D01*
X212304859Y-138046134D01*
X212335464Y-137895000D01*
X212335464Y-136695000D01*
X212308897Y-136553810D01*
X212225454Y-136424135D01*
X212098134Y-136337141D01*
X211958108Y-136308785D01*
X212026357Y-136144425D01*
X212026643Y-135816020D01*
X211993081Y-135734793D01*
X212088190Y-135716897D01*
X212217865Y-135633454D01*
X212304859Y-135506134D01*
X212335464Y-135355000D01*
X212335464Y-134155000D01*
X212308897Y-134013810D01*
X212225454Y-133884135D01*
X212098134Y-133797141D01*
X211947000Y-133766536D01*
X209947000Y-133766536D01*
X209805810Y-133793103D01*
X209676135Y-133876546D01*
X209589141Y-134003866D01*
X209558536Y-134155000D01*
X209558536Y-135355000D01*
X209585103Y-135496190D01*
X209668546Y-135625865D01*
X209795866Y-135712859D01*
X209947000Y-135743464D01*
X210405173Y-135743464D01*
X210375643Y-135814579D01*
X210375357Y-136142984D01*
X210442935Y-136306536D01*
X209947000Y-136306536D01*
X209805810Y-136333103D01*
X209676135Y-136416546D01*
X209618020Y-136501600D01*
X205935753Y-132819333D01*
X205791581Y-132723000D01*
X209558536Y-132723000D01*
X209558536Y-132815000D01*
X209585103Y-132956190D01*
X209668546Y-133085865D01*
X209795866Y-133172859D01*
X209947000Y-133203464D01*
X211947000Y-133203464D01*
X212088190Y-133176897D01*
X212217865Y-133093454D01*
X212304859Y-132966134D01*
X212335464Y-132815000D01*
X212335464Y-131615000D01*
X212308897Y-131473810D01*
X212225454Y-131344135D01*
X212098134Y-131257141D01*
X211947000Y-131226536D01*
X209947000Y-131226536D01*
X209805810Y-131253103D01*
X209676135Y-131336546D01*
X209589141Y-131463866D01*
X209558536Y-131615000D01*
X209558536Y-131707000D01*
X204053421Y-131707000D01*
X202938903Y-130592482D01*
X203644357Y-130592482D01*
X203769767Y-130895998D01*
X204001781Y-131128417D01*
X204305077Y-131254357D01*
X204633482Y-131254643D01*
X204936998Y-131129233D01*
X205169417Y-130897219D01*
X205295357Y-130593923D01*
X205295594Y-130321826D01*
X205434420Y-130183000D01*
X209558536Y-130183000D01*
X209558536Y-130275000D01*
X209585103Y-130416190D01*
X209668546Y-130545865D01*
X209795866Y-130632859D01*
X209947000Y-130663464D01*
X211947000Y-130663464D01*
X212088190Y-130636897D01*
X212217865Y-130553454D01*
X212304859Y-130426134D01*
X212335464Y-130275000D01*
X212335464Y-129075000D01*
X212308897Y-128933810D01*
X212225454Y-128804135D01*
X212098134Y-128717141D01*
X211947000Y-128686536D01*
X209947000Y-128686536D01*
X209805810Y-128713103D01*
X209676135Y-128796546D01*
X209589141Y-128923866D01*
X209558536Y-129075000D01*
X209558536Y-129167000D01*
X205224000Y-129167000D01*
X205029597Y-129205669D01*
X204864790Y-129315790D01*
X204576987Y-129603593D01*
X204306518Y-129603357D01*
X204003002Y-129728767D01*
X203770583Y-129960781D01*
X203644643Y-130264077D01*
X203644357Y-130592482D01*
X202938903Y-130592482D01*
X202755407Y-130408987D01*
X202755643Y-130138518D01*
X202630233Y-129835002D01*
X202398219Y-129602583D01*
X202094923Y-129476643D01*
X201766518Y-129476357D01*
X201463002Y-129601767D01*
X201230583Y-129833781D01*
X201104643Y-130137077D01*
X201104357Y-130465482D01*
X201229767Y-130768998D01*
X201461781Y-131001417D01*
X201765077Y-131127357D01*
X202037174Y-131127594D01*
X203483790Y-132574211D01*
X203613680Y-132661000D01*
X203627962Y-132670543D01*
X202775420Y-132670543D01*
X200479548Y-130374671D01*
X200479784Y-130104202D01*
X200354374Y-129800686D01*
X200122360Y-129568267D01*
X199819064Y-129442327D01*
X199490659Y-129442041D01*
X199187143Y-129567451D01*
X198954724Y-129799465D01*
X198828784Y-130102761D01*
X198828498Y-130431166D01*
X194691000Y-130431166D01*
X194691000Y-129496420D01*
X195028421Y-129159000D01*
X197714698Y-129159000D01*
X197905781Y-129350417D01*
X198209077Y-129476357D01*
X198537482Y-129476643D01*
X198840998Y-129351233D01*
X199073417Y-129119219D01*
X199199357Y-128815923D01*
X199199643Y-128487518D01*
X199074233Y-128184002D01*
X198842219Y-127951583D01*
X198538923Y-127825643D01*
X198210518Y-127825357D01*
X197907002Y-127950767D01*
X197714433Y-128143000D01*
X194818000Y-128143000D01*
X194623597Y-128181669D01*
X194568910Y-128218210D01*
X194458789Y-128291790D01*
X193950790Y-128799790D01*
X193823790Y-128926790D01*
X193713669Y-129091597D01*
X193675000Y-129286000D01*
X193675000Y-130658698D01*
X193483583Y-130849781D01*
X193357643Y-131153077D01*
X193357357Y-131481482D01*
X193482767Y-131784998D01*
X193512248Y-131814531D01*
X193335002Y-131887767D01*
X193102583Y-132119781D01*
X192976643Y-132423077D01*
X192976406Y-132695174D01*
X192228746Y-133442834D01*
X189383812Y-133442834D01*
X189192729Y-133251417D01*
X188889433Y-133125477D01*
X188561028Y-133125191D01*
X188481000Y-133158258D01*
X188481000Y-132370482D01*
X189547357Y-132370482D01*
X189672767Y-132673998D01*
X189904781Y-132906417D01*
X190208077Y-133032357D01*
X190536482Y-133032643D01*
X190839998Y-132907233D01*
X191072417Y-132675219D01*
X191198357Y-132371923D01*
X191198643Y-132043518D01*
X191073233Y-131740002D01*
X191017500Y-131684172D01*
X191017500Y-130000000D01*
X191204500Y-129922733D01*
X191436919Y-129690719D01*
X191562859Y-129387423D01*
X191563145Y-129059018D01*
X191437735Y-128755502D01*
X191205721Y-128523083D01*
X190902425Y-128397143D01*
X190574020Y-128396857D01*
X190270504Y-128522267D01*
X190038085Y-128754281D01*
X189912145Y-129057577D01*
X189911949Y-129282870D01*
X189899726Y-129301163D01*
X189855500Y-129523502D01*
X189855500Y-131557181D01*
X189673583Y-131738781D01*
X189547643Y-132042077D01*
X189547357Y-132370482D01*
X188481000Y-132370482D01*
X188481000Y-130948546D01*
X188532417Y-130897219D01*
X188658357Y-130593923D01*
X188658643Y-130265518D01*
X188533233Y-129962002D01*
X188301219Y-129729583D01*
X187997923Y-129603643D01*
X187669518Y-129603357D01*
X187366002Y-129728767D01*
X187133583Y-129960781D01*
X187007643Y-130264077D01*
X187007357Y-130592482D01*
X187132767Y-130895998D01*
X187319000Y-131082556D01*
X187319000Y-132049645D01*
X187158219Y-131888583D01*
X186976879Y-131813284D01*
X187059144Y-131582698D01*
X187031362Y-131027632D01*
X186872397Y-130643857D01*
X186630213Y-130574392D01*
X185829605Y-131375000D01*
X185843748Y-131389143D01*
X185664143Y-131568748D01*
X185650000Y-131554605D01*
X185635858Y-131568748D01*
X185456253Y-131389143D01*
X185470395Y-131375000D01*
X184669787Y-130574392D01*
X184427603Y-130643857D01*
X184240856Y-131167302D01*
X184268638Y-131722368D01*
X184271942Y-131730344D01*
X184198303Y-131656577D01*
X183778354Y-131482199D01*
X183323641Y-131481802D01*
X182903388Y-131655446D01*
X182581577Y-131976697D01*
X182407199Y-132396646D01*
X182406802Y-132851359D01*
X181685971Y-132851359D01*
X181685961Y-130394787D01*
X184849392Y-130394787D01*
X185650000Y-131195395D01*
X186450608Y-130394787D01*
X186381143Y-130152603D01*
X185857698Y-129965856D01*
X185302632Y-129993638D01*
X184918857Y-130152603D01*
X184849392Y-130394787D01*
X181685961Y-130394787D01*
X181685957Y-129445513D01*
X181718241Y-129607815D01*
X181963411Y-129974738D01*
X182330334Y-130219908D01*
X182763149Y-130306000D01*
X184336851Y-130306000D01*
X184769666Y-130219908D01*
X185136589Y-129974738D01*
X185381759Y-129607815D01*
X185467851Y-129175000D01*
X185381759Y-128742185D01*
X185136589Y-128375262D01*
X184769666Y-128130092D01*
X184336851Y-128044000D01*
X182763149Y-128044000D01*
X182330334Y-128130092D01*
X181963411Y-128375262D01*
X181718241Y-128742185D01*
X181685955Y-128904498D01*
X181685943Y-125970715D01*
X182045830Y-125457508D01*
X182233644Y-125201437D01*
X182437155Y-124983429D01*
X182671872Y-124785459D01*
X182925594Y-124619352D01*
X183137153Y-124510623D01*
X183371907Y-124414439D01*
X183691105Y-124320557D01*
X183791758Y-124311256D01*
X184262969Y-124366682D01*
X184262969Y-124366682D01*
G37*
X184262969Y-124366682D02*
X184904915Y-124572303D01*
X185470703Y-124821425D01*
X185476349Y-124822678D01*
X185481182Y-124825856D01*
X186073786Y-125066193D01*
X186083654Y-125068080D01*
X186092319Y-125073161D01*
X186405357Y-125181782D01*
X186405768Y-125181839D01*
X186406126Y-125182048D01*
X186618261Y-125255156D01*
X186618565Y-125255197D01*
X186618829Y-125255351D01*
X186687889Y-125279031D01*
X186688151Y-125279066D01*
X186688382Y-125279200D01*
X186750910Y-125300546D01*
X186751089Y-125300570D01*
X186751245Y-125300660D01*
X186784955Y-125312134D01*
X186784956Y-125312134D01*
X186817034Y-125323054D01*
X186817374Y-125323099D01*
X186817674Y-125323272D01*
X186851386Y-125334682D01*
X186883454Y-125345541D01*
X186883993Y-125345612D01*
X186884467Y-125345883D01*
X187030149Y-125394765D01*
X187031026Y-125394877D01*
X187031795Y-125395313D01*
X187149419Y-125434193D01*
X187151932Y-125434503D01*
X187154154Y-125435725D01*
X187477110Y-125537876D01*
X187482301Y-125538449D01*
X187486947Y-125540845D01*
X187694882Y-125600576D01*
X187703467Y-125601293D01*
X187711289Y-125604901D01*
X187963953Y-125665599D01*
X187974144Y-125666001D01*
X187983615Y-125669784D01*
X188274840Y-125723886D01*
X188284922Y-125723758D01*
X188294464Y-125727011D01*
X188851729Y-125801109D01*
X188862283Y-125800431D01*
X188872463Y-125803298D01*
X189438625Y-125847645D01*
X189449103Y-125846401D01*
X189459378Y-125848705D01*
X190254666Y-125867998D01*
X190265158Y-125866174D01*
X190275665Y-125867937D01*
X191063668Y-125844167D01*
X191075880Y-125841352D01*
X191088346Y-125842630D01*
X192005146Y-125755990D01*
X192021663Y-125751051D01*
X192038898Y-125751289D01*
X192685670Y-125631901D01*
X192702839Y-125625066D01*
X192721259Y-125623572D01*
X193213636Y-125483444D01*
X193223799Y-125478235D01*
X193235108Y-125476650D01*
X194611872Y-124996411D01*
X194611874Y-124996410D01*
X195975333Y-124520915D01*
X196318400Y-124428201D01*
X196875948Y-124351602D01*
X197782074Y-124333904D01*
X198274927Y-124366239D01*
X198650517Y-124424787D01*
X198994675Y-124511671D01*
X199499989Y-124679185D01*
X200551769Y-125061315D01*
X200552824Y-125061477D01*
X200553738Y-125062024D01*
X201035008Y-125233929D01*
X201041520Y-125234891D01*
X201047278Y-125238081D01*
X202107131Y-125577002D01*
X202125137Y-125579048D01*
X202141735Y-125586321D01*
X202653916Y-125699042D01*
X202674332Y-125699456D01*
X202693790Y-125705651D01*
X203570525Y-125804143D01*
X203585483Y-125802876D01*
X203600095Y-125806319D01*
X204651647Y-125843178D01*
X204668748Y-125840395D01*
X204685900Y-125842858D01*
X205715646Y-125787474D01*
X205740121Y-125781222D01*
X205765378Y-125781545D01*
X206754421Y-125597915D01*
X206770841Y-125591358D01*
X206788472Y-125589983D01*
X207284895Y-125450356D01*
X207299938Y-125442704D01*
X207316585Y-125439945D01*
X208535614Y-124980233D01*
X209335476Y-124680284D01*
X209339103Y-124678035D01*
X209343300Y-124677253D01*
X209818974Y-124486983D01*
X210119199Y-124411927D01*
X210730711Y-124502519D01*
X211356670Y-124838775D01*
X211847974Y-125203000D01*
X212236835Y-125670683D01*
X212486811Y-126179535D01*
X212595801Y-126482753D01*
X212593908Y-143634346D01*
X212359576Y-144136915D01*
X211973264Y-144601530D01*
X211494683Y-144956321D01*
X210974268Y-145183494D01*
X210266614Y-145344213D01*
X209362425Y-145190140D01*
X208573214Y-144853402D01*
X208570668Y-144852867D01*
X208568501Y-144851428D01*
X207895603Y-144574789D01*
X207874681Y-144570685D01*
X207855739Y-144560896D01*
X206916151Y-144290074D01*
X206904958Y-144289128D01*
X206894696Y-144284551D01*
X206447017Y-144182924D01*
X206443317Y-144182825D01*
X206439912Y-144181382D01*
X205819006Y-144052678D01*
X205817009Y-144052662D01*
X205815161Y-144051901D01*
X205512028Y-143992273D01*
X205511420Y-143992274D01*
X205510858Y-143992045D01*
X204738511Y-143842595D01*
X204694804Y-143842823D01*
X204651659Y-143835802D01*
X203600108Y-143872660D01*
X203585496Y-143876103D01*
X203570538Y-143874836D01*
X202693791Y-143973328D01*
X202674335Y-143979522D01*
X202653919Y-143979936D01*
X202141738Y-144092654D01*
X202125139Y-144099927D01*
X202107129Y-144101974D01*
X201047285Y-144440899D01*
X201041530Y-144444087D01*
X201035018Y-144445049D01*
X200553740Y-144616954D01*
X200552822Y-144617503D01*
X200551768Y-144617665D01*
X199499968Y-144999803D01*
X198994662Y-145167312D01*
X198650533Y-145254192D01*
X198274932Y-145312739D01*
X197774548Y-145345570D01*
X197575826Y-145349463D01*
X197403261Y-145350200D01*
X197202454Y-145347246D01*
X197036639Y-145340907D01*
X196649211Y-145306808D01*
X196323929Y-145252278D01*
X195975323Y-145158062D01*
X194611877Y-144682569D01*
X194611875Y-144682568D01*
X193235111Y-144202330D01*
X193223802Y-144200745D01*
X193213639Y-144195536D01*
X192721263Y-144055407D01*
X192702841Y-144053913D01*
X192685673Y-144047078D01*
X192038905Y-143927690D01*
X192021669Y-143927928D01*
X192005153Y-143922989D01*
X191088350Y-143836347D01*
X191078472Y-143837359D01*
X191068830Y-143835001D01*
X190679627Y-143818048D01*
X190674344Y-143818862D01*
X190669117Y-143817733D01*
X190266777Y-143811177D01*
X190261586Y-143812122D01*
X190256404Y-143811148D01*
X189855929Y-143815385D01*
X189850702Y-143816482D01*
X189845428Y-143815639D01*
X189454157Y-143830434D01*
X189446477Y-143832266D01*
X189438630Y-143831334D01*
X188872465Y-143875679D01*
X188862284Y-143878546D01*
X188851727Y-143877868D01*
X188294466Y-143951968D01*
X188284922Y-143955222D01*
X188274837Y-143955094D01*
X187983610Y-144009201D01*
X187974145Y-144012982D01*
X187963966Y-144013383D01*
X187711303Y-144074073D01*
X187703467Y-144077687D01*
X187694865Y-144078406D01*
X187486928Y-144138150D01*
X187482296Y-144140539D01*
X187477122Y-144141110D01*
X187154166Y-144243253D01*
X187151311Y-144244823D01*
X187148079Y-144245234D01*
X186816687Y-144356124D01*
X186815141Y-144357008D01*
X186813373Y-144357249D01*
X186093059Y-144605563D01*
X186076927Y-144614979D01*
X186058746Y-144619262D01*
X185925686Y-144679920D01*
X185925648Y-144679947D01*
X185925602Y-144679958D01*
X185792560Y-144740646D01*
X185635743Y-144811840D01*
X185529527Y-144859653D01*
X185219749Y-144995433D01*
X185013784Y-145080988D01*
X184321472Y-145308906D01*
X183995221Y-145350870D01*
X183753380Y-145343676D01*
X183449568Y-145281771D01*
X183188155Y-145189354D01*
X182933340Y-145063130D01*
X182447183Y-144702721D01*
X182050742Y-144225920D01*
X181915064Y-143987552D01*
X181792427Y-143704037D01*
X181715213Y-143461470D01*
X181686010Y-142741415D01*
X181686002Y-140845740D01*
X181718241Y-141007815D01*
X181963411Y-141374738D01*
X182330334Y-141619908D01*
X182763149Y-141706000D01*
X184336851Y-141706000D01*
X184769666Y-141619908D01*
X185136589Y-141374738D01*
X185381759Y-141007815D01*
X185467851Y-140575000D01*
X185381759Y-140142185D01*
X185136589Y-139775262D01*
X184769666Y-139530092D01*
X184336851Y-139444000D01*
X182763149Y-139444000D01*
X182330334Y-139530092D01*
X181963411Y-139775262D01*
X181718241Y-140142185D01*
X181686000Y-140304270D01*
X181685989Y-137351359D01*
X182406802Y-137351359D01*
X182580446Y-137771612D01*
X182901697Y-138093423D01*
X183321646Y-138267801D01*
X183776359Y-138268198D01*
X184196612Y-138094554D01*
X184518423Y-137773303D01*
X184692801Y-137353354D01*
X184693198Y-136898641D01*
X184519554Y-136478388D01*
X184198303Y-136156577D01*
X183778354Y-135982199D01*
X183323641Y-135981802D01*
X182903388Y-136155446D01*
X182581577Y-136476697D01*
X182407199Y-136896646D01*
X182406802Y-137351359D01*
X181685989Y-137351359D01*
X181685971Y-132851359D01*
X182406802Y-132851359D01*
X182580446Y-133271612D01*
X182901697Y-133593423D01*
X183321646Y-133767801D01*
X183776359Y-133768198D01*
X184196612Y-133594554D01*
X184518423Y-133273303D01*
X184692801Y-132853354D01*
X184693171Y-132429015D01*
X184734382Y-132470226D01*
X184849393Y-132355215D01*
X184918857Y-132597397D01*
X185364307Y-132756318D01*
X185003388Y-132905446D01*
X184681577Y-133226697D01*
X184507199Y-133646646D01*
X184506802Y-134101359D01*
X184680446Y-134521612D01*
X185001697Y-134843423D01*
X185077409Y-134874861D01*
X185003388Y-134905446D01*
X184681577Y-135226697D01*
X184507199Y-135646646D01*
X184506802Y-136101359D01*
X184680446Y-136521612D01*
X185001697Y-136843423D01*
X185421646Y-137017801D01*
X185876359Y-137018198D01*
X186296612Y-136844554D01*
X186494000Y-136647509D01*
X186494000Y-137509342D01*
X186447404Y-137555938D01*
X186298303Y-137406577D01*
X185878354Y-137232199D01*
X185423641Y-137231802D01*
X185003388Y-137405446D01*
X184681577Y-137726697D01*
X184507199Y-138146646D01*
X184506802Y-138601359D01*
X184680446Y-139021612D01*
X185001697Y-139343423D01*
X185421646Y-139517801D01*
X185876359Y-139518198D01*
X186296612Y-139344554D01*
X186618423Y-139023303D01*
X186664049Y-138913423D01*
X186672339Y-138911774D01*
X186860829Y-138785829D01*
X187319000Y-138327658D01*
X187319000Y-139110944D01*
X187314171Y-139114171D01*
X187305703Y-139126844D01*
X187200583Y-139231781D01*
X187074643Y-139535077D01*
X187074357Y-139863482D01*
X187199767Y-140166998D01*
X187431781Y-140399417D01*
X187735077Y-140525357D01*
X188063482Y-140525643D01*
X188366998Y-140400233D01*
X188599417Y-140168219D01*
X188725357Y-139864923D01*
X188725643Y-139536518D01*
X188694402Y-139460909D01*
X188811077Y-139509357D01*
X189139482Y-139509643D01*
X189442998Y-139384233D01*
X189675417Y-139152219D01*
X189801357Y-138848923D01*
X189801643Y-138520518D01*
X189676233Y-138217002D01*
X189484000Y-138024433D01*
X189484000Y-136690535D01*
X189484852Y-136688482D01*
X189928357Y-136688482D01*
X190053767Y-136991998D01*
X190285781Y-137224417D01*
X190589077Y-137350357D01*
X190753919Y-137350501D01*
X190753857Y-137421980D01*
X190879267Y-137725496D01*
X191071500Y-137918065D01*
X191071500Y-141224536D01*
X191016000Y-141224536D01*
X190874810Y-141251103D01*
X190745135Y-141334546D01*
X190658141Y-141461866D01*
X190627536Y-141613000D01*
X190627536Y-142613000D01*
X190654103Y-142754190D01*
X190737546Y-142883865D01*
X190864866Y-142970859D01*
X191016000Y-143001464D01*
X192016000Y-143001464D01*
X192157190Y-142974897D01*
X192286865Y-142891454D01*
X192312898Y-142853354D01*
X192448856Y-142944198D01*
X192786000Y-143011260D01*
X193123144Y-142944198D01*
X193408961Y-142753221D01*
X193421000Y-142735203D01*
X193433039Y-142753221D01*
X193718856Y-142944198D01*
X194056000Y-143011260D01*
X194393144Y-142944198D01*
X194501503Y-142871795D01*
X194765791Y-143100127D01*
X195024126Y-143207119D01*
X195199000Y-143080954D01*
X195199000Y-142240000D01*
X195453000Y-142240000D01*
X195453000Y-143080954D01*
X195627874Y-143207119D01*
X195886209Y-143100127D01*
X196221323Y-142810604D01*
X196420132Y-142414877D01*
X196295135Y-142240000D01*
X195453000Y-142240000D01*
X195199000Y-142240000D01*
X195179000Y-142240000D01*
X195179000Y-141986000D01*
X195199000Y-141986000D01*
X195199000Y-141966000D01*
X195453000Y-141966000D01*
X195453000Y-141986000D01*
X196295135Y-141986000D01*
X196420132Y-141811123D01*
X196417056Y-141805000D01*
X200850500Y-141805000D01*
X201072839Y-141760774D01*
X201261329Y-141634829D01*
X201672161Y-141223997D01*
X201839482Y-141224143D01*
X202142998Y-141098733D01*
X202375417Y-140866719D01*
X202501357Y-140563423D01*
X202501643Y-140235018D01*
X202454429Y-140120750D01*
X209312000Y-140120750D01*
X209312000Y-140561310D01*
X209408673Y-140794699D01*
X209587302Y-140973327D01*
X209820691Y-141070000D01*
X210661250Y-141070000D01*
X210820000Y-140911250D01*
X210820000Y-139962000D01*
X211074000Y-139962000D01*
X211074000Y-140911250D01*
X211232750Y-141070000D01*
X212073309Y-141070000D01*
X212306698Y-140973327D01*
X212485327Y-140794699D01*
X212582000Y-140561310D01*
X212582000Y-140120750D01*
X212423250Y-139962000D01*
X211074000Y-139962000D01*
X210820000Y-139962000D01*
X209470750Y-139962000D01*
X209312000Y-140120750D01*
X202454429Y-140120750D01*
X202376233Y-139931502D01*
X202144219Y-139699083D01*
X201840923Y-139573143D01*
X201512518Y-139572857D01*
X201209002Y-139698267D01*
X200976583Y-139930281D01*
X200850643Y-140233577D01*
X200850496Y-140402346D01*
X200609842Y-140643000D01*
X195376158Y-140643000D01*
X195081500Y-140348342D01*
X195081500Y-140159430D01*
X195199917Y-140041219D01*
X195325857Y-139737923D01*
X195326143Y-139409518D01*
X195201844Y-139108690D01*
X209312000Y-139108690D01*
X209312000Y-139549250D01*
X209470750Y-139708000D01*
X210820000Y-139708000D01*
X210820000Y-138758750D01*
X211074000Y-138758750D01*
X211074000Y-139708000D01*
X212423250Y-139708000D01*
X212582000Y-139549250D01*
X212582000Y-139108690D01*
X212485327Y-138875301D01*
X212306698Y-138696673D01*
X212073309Y-138600000D01*
X211232750Y-138600000D01*
X211074000Y-138758750D01*
X210820000Y-138758750D01*
X210661250Y-138600000D01*
X209820691Y-138600000D01*
X209587302Y-138696673D01*
X209408673Y-138875301D01*
X209312000Y-139108690D01*
X195201844Y-139108690D01*
X195200733Y-139106002D01*
X194968719Y-138873583D01*
X194665423Y-138747643D01*
X194337018Y-138747357D01*
X194033502Y-138872767D01*
X193801083Y-139104781D01*
X193675143Y-139408077D01*
X193674857Y-139736482D01*
X193800267Y-140039998D01*
X193919500Y-140159439D01*
X193919500Y-140348342D01*
X193645171Y-140622671D01*
X193519226Y-140811161D01*
X193475000Y-141033500D01*
X193475000Y-141444742D01*
X193433039Y-141472779D01*
X193421000Y-141490797D01*
X193408961Y-141472779D01*
X193123144Y-141281802D01*
X192786000Y-141214740D01*
X192448856Y-141281802D01*
X192313730Y-141372091D01*
X192294454Y-141342135D01*
X192167134Y-141255141D01*
X192087500Y-141239015D01*
X192087500Y-137917800D01*
X192278917Y-137726717D01*
X192404857Y-137423421D01*
X192405143Y-137095016D01*
X192279733Y-136791500D01*
X192077088Y-136588501D01*
X192190488Y-136588501D01*
X192244712Y-136719734D01*
X192476726Y-136952153D01*
X192780022Y-137078093D01*
X193108427Y-137078379D01*
X193411943Y-136952969D01*
X193644362Y-136720955D01*
X193695738Y-136597228D01*
X196605825Y-136597228D01*
X196758657Y-136967109D01*
X197041403Y-137250348D01*
X197411016Y-137403825D01*
X197811228Y-137404175D01*
X198181109Y-137251343D01*
X198264560Y-137168037D01*
X198325583Y-137229166D01*
X198686011Y-137378829D01*
X199076277Y-137379170D01*
X199436966Y-137230136D01*
X199516898Y-137150343D01*
X199595583Y-137229166D01*
X199956011Y-137378829D01*
X200346277Y-137379170D01*
X200706966Y-137230136D01*
X200983166Y-136954417D01*
X201132829Y-136593989D01*
X201133170Y-136203723D01*
X200984136Y-135843034D01*
X200904343Y-135763102D01*
X200983166Y-135684417D01*
X201132829Y-135323989D01*
X201133170Y-134933723D01*
X200984136Y-134573034D01*
X200967843Y-134556713D01*
X200983166Y-134541417D01*
X201132829Y-134180989D01*
X201133170Y-133790723D01*
X200984136Y-133430034D01*
X200708417Y-133153834D01*
X200347989Y-133004171D01*
X199957723Y-133003830D01*
X199597034Y-133152864D01*
X199517102Y-133232657D01*
X199438417Y-133153834D01*
X199077989Y-133004171D01*
X198687723Y-133003830D01*
X198327034Y-133152864D01*
X198247102Y-133232657D01*
X198168417Y-133153834D01*
X197807989Y-133004171D01*
X197417723Y-133003830D01*
X197057034Y-133152864D01*
X196780834Y-133428583D01*
X196631171Y-133789011D01*
X196630830Y-134179277D01*
X196779864Y-134539966D01*
X196796157Y-134556287D01*
X196780834Y-134571583D01*
X196631171Y-134932011D01*
X196630830Y-135322277D01*
X196779864Y-135682966D01*
X196841994Y-135745204D01*
X196759652Y-135827403D01*
X196606175Y-136197016D01*
X196605825Y-136597228D01*
X193695738Y-136597228D01*
X193770302Y-136417659D01*
X193770588Y-136089254D01*
X193645178Y-135785738D01*
X193413164Y-135553319D01*
X193109868Y-135427379D01*
X192781463Y-135427093D01*
X192477947Y-135552503D01*
X192457914Y-135572501D01*
X191198499Y-135572501D01*
X191004096Y-135611170D01*
X190871748Y-135699602D01*
X190590518Y-135699357D01*
X190287002Y-135824767D01*
X190054583Y-136056781D01*
X189928643Y-136360077D01*
X189928357Y-136688482D01*
X189484852Y-136688482D01*
X189549867Y-136531910D01*
X189550153Y-136203505D01*
X189424743Y-135899989D01*
X189192729Y-135667570D01*
X188889433Y-135541630D01*
X188561028Y-135541344D01*
X188481000Y-135574411D01*
X188481000Y-134743559D01*
X188559587Y-134776191D01*
X188887992Y-134776477D01*
X189191508Y-134651067D01*
X189384077Y-134458834D01*
X192439166Y-134458834D01*
X192633569Y-134420165D01*
X192798376Y-134310044D01*
X193695013Y-133413407D01*
X193965482Y-133413643D01*
X194268998Y-133288233D01*
X194501417Y-133056219D01*
X194627357Y-132752923D01*
X194627643Y-132424518D01*
X194502233Y-132121002D01*
X194472752Y-132091469D01*
X194649998Y-132018233D01*
X194882417Y-131786219D01*
X195008357Y-131482923D01*
X195008643Y-131154518D01*
X194883233Y-130851002D01*
X194691000Y-130658433D01*
X194691000Y-130431166D01*
X198828498Y-130431166D01*
X198953908Y-130734682D01*
X199185922Y-130967101D01*
X199489218Y-131093041D01*
X199761315Y-131093278D01*
X202205790Y-133537753D01*
X202370596Y-133647874D01*
X202402850Y-133654289D01*
X202565000Y-133686543D01*
X204577584Y-133686543D01*
X204320502Y-133792767D01*
X204088083Y-134024781D01*
X203962143Y-134328077D01*
X203961857Y-134656482D01*
X204087267Y-134959998D01*
X204319281Y-135192417D01*
X204622577Y-135318357D01*
X204950982Y-135318643D01*
X205194760Y-135217916D01*
X205549503Y-135572659D01*
X205549357Y-135739980D01*
X205674767Y-136043496D01*
X205906781Y-136275915D01*
X206210077Y-136401855D01*
X206538482Y-136402141D01*
X206841998Y-136276731D01*
X207074417Y-136044717D01*
X207200357Y-135741421D01*
X207200549Y-135520969D01*
X209333790Y-137654210D01*
X209498596Y-137764331D01*
X209530850Y-137770746D01*
X209558536Y-137776254D01*
X209558536Y-137895000D01*
X209585103Y-138036190D01*
X209668546Y-138165865D01*
X209795866Y-138252859D01*
X209947000Y-138283464D01*
X211947000Y-138283464D01*
X212088190Y-138256897D01*
X212217865Y-138173454D01*
X212304859Y-138046134D01*
X212335464Y-137895000D01*
X212335464Y-136695000D01*
X212308897Y-136553810D01*
X212225454Y-136424135D01*
X212098134Y-136337141D01*
X211958108Y-136308785D01*
X212026357Y-136144425D01*
X212026643Y-135816020D01*
X211993081Y-135734793D01*
X212088190Y-135716897D01*
X212217865Y-135633454D01*
X212304859Y-135506134D01*
X212335464Y-135355000D01*
X212335464Y-134155000D01*
X212308897Y-134013810D01*
X212225454Y-133884135D01*
X212098134Y-133797141D01*
X211947000Y-133766536D01*
X209947000Y-133766536D01*
X209805810Y-133793103D01*
X209676135Y-133876546D01*
X209589141Y-134003866D01*
X209558536Y-134155000D01*
X209558536Y-135355000D01*
X209585103Y-135496190D01*
X209668546Y-135625865D01*
X209795866Y-135712859D01*
X209947000Y-135743464D01*
X210405173Y-135743464D01*
X210375643Y-135814579D01*
X210375357Y-136142984D01*
X210442935Y-136306536D01*
X209947000Y-136306536D01*
X209805810Y-136333103D01*
X209676135Y-136416546D01*
X209618020Y-136501600D01*
X205935753Y-132819333D01*
X205791581Y-132723000D01*
X209558536Y-132723000D01*
X209558536Y-132815000D01*
X209585103Y-132956190D01*
X209668546Y-133085865D01*
X209795866Y-133172859D01*
X209947000Y-133203464D01*
X211947000Y-133203464D01*
X212088190Y-133176897D01*
X212217865Y-133093454D01*
X212304859Y-132966134D01*
X212335464Y-132815000D01*
X212335464Y-131615000D01*
X212308897Y-131473810D01*
X212225454Y-131344135D01*
X212098134Y-131257141D01*
X211947000Y-131226536D01*
X209947000Y-131226536D01*
X209805810Y-131253103D01*
X209676135Y-131336546D01*
X209589141Y-131463866D01*
X209558536Y-131615000D01*
X209558536Y-131707000D01*
X204053421Y-131707000D01*
X202938903Y-130592482D01*
X203644357Y-130592482D01*
X203769767Y-130895998D01*
X204001781Y-131128417D01*
X204305077Y-131254357D01*
X204633482Y-131254643D01*
X204936998Y-131129233D01*
X205169417Y-130897219D01*
X205295357Y-130593923D01*
X205295594Y-130321826D01*
X205434420Y-130183000D01*
X209558536Y-130183000D01*
X209558536Y-130275000D01*
X209585103Y-130416190D01*
X209668546Y-130545865D01*
X209795866Y-130632859D01*
X209947000Y-130663464D01*
X211947000Y-130663464D01*
X212088190Y-130636897D01*
X212217865Y-130553454D01*
X212304859Y-130426134D01*
X212335464Y-130275000D01*
X212335464Y-129075000D01*
X212308897Y-128933810D01*
X212225454Y-128804135D01*
X212098134Y-128717141D01*
X211947000Y-128686536D01*
X209947000Y-128686536D01*
X209805810Y-128713103D01*
X209676135Y-128796546D01*
X209589141Y-128923866D01*
X209558536Y-129075000D01*
X209558536Y-129167000D01*
X205224000Y-129167000D01*
X205029597Y-129205669D01*
X204864790Y-129315790D01*
X204576987Y-129603593D01*
X204306518Y-129603357D01*
X204003002Y-129728767D01*
X203770583Y-129960781D01*
X203644643Y-130264077D01*
X203644357Y-130592482D01*
X202938903Y-130592482D01*
X202755407Y-130408987D01*
X202755643Y-130138518D01*
X202630233Y-129835002D01*
X202398219Y-129602583D01*
X202094923Y-129476643D01*
X201766518Y-129476357D01*
X201463002Y-129601767D01*
X201230583Y-129833781D01*
X201104643Y-130137077D01*
X201104357Y-130465482D01*
X201229767Y-130768998D01*
X201461781Y-131001417D01*
X201765077Y-131127357D01*
X202037174Y-131127594D01*
X203483790Y-132574211D01*
X203613680Y-132661000D01*
X203627962Y-132670543D01*
X202775420Y-132670543D01*
X200479548Y-130374671D01*
X200479784Y-130104202D01*
X200354374Y-129800686D01*
X200122360Y-129568267D01*
X199819064Y-129442327D01*
X199490659Y-129442041D01*
X199187143Y-129567451D01*
X198954724Y-129799465D01*
X198828784Y-130102761D01*
X198828498Y-130431166D01*
X194691000Y-130431166D01*
X194691000Y-129496420D01*
X195028421Y-129159000D01*
X197714698Y-129159000D01*
X197905781Y-129350417D01*
X198209077Y-129476357D01*
X198537482Y-129476643D01*
X198840998Y-129351233D01*
X199073417Y-129119219D01*
X199199357Y-128815923D01*
X199199643Y-128487518D01*
X199074233Y-128184002D01*
X198842219Y-127951583D01*
X198538923Y-127825643D01*
X198210518Y-127825357D01*
X197907002Y-127950767D01*
X197714433Y-128143000D01*
X194818000Y-128143000D01*
X194623597Y-128181669D01*
X194568910Y-128218210D01*
X194458789Y-128291790D01*
X193950790Y-128799790D01*
X193823790Y-128926790D01*
X193713669Y-129091597D01*
X193675000Y-129286000D01*
X193675000Y-130658698D01*
X193483583Y-130849781D01*
X193357643Y-131153077D01*
X193357357Y-131481482D01*
X193482767Y-131784998D01*
X193512248Y-131814531D01*
X193335002Y-131887767D01*
X193102583Y-132119781D01*
X192976643Y-132423077D01*
X192976406Y-132695174D01*
X192228746Y-133442834D01*
X189383812Y-133442834D01*
X189192729Y-133251417D01*
X188889433Y-133125477D01*
X188561028Y-133125191D01*
X188481000Y-133158258D01*
X188481000Y-132370482D01*
X189547357Y-132370482D01*
X189672767Y-132673998D01*
X189904781Y-132906417D01*
X190208077Y-133032357D01*
X190536482Y-133032643D01*
X190839998Y-132907233D01*
X191072417Y-132675219D01*
X191198357Y-132371923D01*
X191198643Y-132043518D01*
X191073233Y-131740002D01*
X191017500Y-131684172D01*
X191017500Y-130000000D01*
X191204500Y-129922733D01*
X191436919Y-129690719D01*
X191562859Y-129387423D01*
X191563145Y-129059018D01*
X191437735Y-128755502D01*
X191205721Y-128523083D01*
X190902425Y-128397143D01*
X190574020Y-128396857D01*
X190270504Y-128522267D01*
X190038085Y-128754281D01*
X189912145Y-129057577D01*
X189911949Y-129282870D01*
X189899726Y-129301163D01*
X189855500Y-129523502D01*
X189855500Y-131557181D01*
X189673583Y-131738781D01*
X189547643Y-132042077D01*
X189547357Y-132370482D01*
X188481000Y-132370482D01*
X188481000Y-130948546D01*
X188532417Y-130897219D01*
X188658357Y-130593923D01*
X188658643Y-130265518D01*
X188533233Y-129962002D01*
X188301219Y-129729583D01*
X187997923Y-129603643D01*
X187669518Y-129603357D01*
X187366002Y-129728767D01*
X187133583Y-129960781D01*
X187007643Y-130264077D01*
X187007357Y-130592482D01*
X187132767Y-130895998D01*
X187319000Y-131082556D01*
X187319000Y-132049645D01*
X187158219Y-131888583D01*
X186976879Y-131813284D01*
X187059144Y-131582698D01*
X187031362Y-131027632D01*
X186872397Y-130643857D01*
X186630213Y-130574392D01*
X185829605Y-131375000D01*
X185843748Y-131389143D01*
X185664143Y-131568748D01*
X185650000Y-131554605D01*
X185635858Y-131568748D01*
X185456253Y-131389143D01*
X185470395Y-131375000D01*
X184669787Y-130574392D01*
X184427603Y-130643857D01*
X184240856Y-131167302D01*
X184268638Y-131722368D01*
X184271942Y-131730344D01*
X184198303Y-131656577D01*
X183778354Y-131482199D01*
X183323641Y-131481802D01*
X182903388Y-131655446D01*
X182581577Y-131976697D01*
X182407199Y-132396646D01*
X182406802Y-132851359D01*
X181685971Y-132851359D01*
X181685961Y-130394787D01*
X184849392Y-130394787D01*
X185650000Y-131195395D01*
X186450608Y-130394787D01*
X186381143Y-130152603D01*
X185857698Y-129965856D01*
X185302632Y-129993638D01*
X184918857Y-130152603D01*
X184849392Y-130394787D01*
X181685961Y-130394787D01*
X181685957Y-129445513D01*
X181718241Y-129607815D01*
X181963411Y-129974738D01*
X182330334Y-130219908D01*
X182763149Y-130306000D01*
X184336851Y-130306000D01*
X184769666Y-130219908D01*
X185136589Y-129974738D01*
X185381759Y-129607815D01*
X185467851Y-129175000D01*
X185381759Y-128742185D01*
X185136589Y-128375262D01*
X184769666Y-128130092D01*
X184336851Y-128044000D01*
X182763149Y-128044000D01*
X182330334Y-128130092D01*
X181963411Y-128375262D01*
X181718241Y-128742185D01*
X181685955Y-128904498D01*
X181685943Y-125970715D01*
X182045830Y-125457508D01*
X182233644Y-125201437D01*
X182437155Y-124983429D01*
X182671872Y-124785459D01*
X182925594Y-124619352D01*
X183137153Y-124510623D01*
X183371907Y-124414439D01*
X183691105Y-124320557D01*
X183791758Y-124311256D01*
X184262969Y-124366682D01*
M02*
