G04 #@! TF.FileFunction,Copper,L1,Top,Signal*
%FSLAX46Y46*%
G04 Gerber Fmt 4.6, Leading zero omitted, Abs format (unit mm)*
G04 Created by KiCad (PCBNEW 4.0.6) date 06/28/18 12:37:23*
%MOMM*%
%LPD*%
G01*
G04 APERTURE LIST*
%ADD10C,0.150000*%
%ADD11R,0.750000X0.800000*%
%ADD12R,0.800000X0.750000*%
%ADD13R,0.800000X0.800000*%
%ADD14R,1.050000X1.600000*%
%ADD15R,1.000000X1.000000*%
%ADD16O,1.000000X1.000000*%
%ADD17R,2.000000X1.200000*%
%ADD18R,0.500000X0.900000*%
%ADD19R,1.060000X0.650000*%
%ADD20R,2.600000X1.900000*%
%ADD21C,1.524000*%
%ADD22O,3.000000X1.500000*%
%ADD23C,1.200000*%
%ADD24C,1.250000*%
%ADD25R,0.700000X0.250000*%
%ADD26R,0.250000X0.700000*%
%ADD27R,5.100000X5.100000*%
%ADD28C,0.889000*%
%ADD29C,0.400000*%
%ADD30C,0.200000*%
%ADD31C,0.254000*%
G04 APERTURE END LIST*
D10*
D11*
X189738000Y-127393000D03*
X189738000Y-128893000D03*
D12*
X195719000Y-127381000D03*
X197219000Y-127381000D03*
X205879000Y-139319000D03*
X207379000Y-139319000D03*
X205879000Y-130683000D03*
X207379000Y-130683000D03*
D11*
X203962000Y-131838000D03*
X203962000Y-133338000D03*
X203962000Y-136791000D03*
X203962000Y-138291000D03*
D13*
X191859000Y-138303000D03*
X193459000Y-138303000D03*
X193586000Y-135255000D03*
X191986000Y-135255000D03*
D14*
X189198000Y-131572000D03*
X191548000Y-131572000D03*
D15*
X191516000Y-142113000D03*
D16*
X192786000Y-142113000D03*
X194056000Y-142113000D03*
X195326000Y-142113000D03*
D17*
X210947000Y-129675000D03*
X210947000Y-132215000D03*
X210947000Y-134755000D03*
X210947000Y-137295000D03*
X210947000Y-139835000D03*
D18*
X193536000Y-133604000D03*
X192036000Y-133604000D03*
X192036000Y-139827000D03*
X193536000Y-139827000D03*
X199251000Y-140081000D03*
X197751000Y-140081000D03*
X197219000Y-129159000D03*
X195719000Y-129159000D03*
X190615000Y-137541000D03*
X189115000Y-137541000D03*
X190615000Y-135255000D03*
X189115000Y-135255000D03*
X190615000Y-139827000D03*
X189115000Y-139827000D03*
D19*
X191559000Y-127320000D03*
X191559000Y-128270000D03*
X191559000Y-129220000D03*
X193759000Y-129220000D03*
X193759000Y-127320000D03*
D20*
X206629000Y-132851000D03*
X206629000Y-137151000D03*
D21*
X185650000Y-133875000D03*
X185650000Y-135875000D03*
X185650000Y-131375000D03*
X185650000Y-138375000D03*
X183550000Y-132625000D03*
X183550000Y-137125000D03*
D22*
X183550000Y-129175000D03*
X183550000Y-140575000D03*
D23*
X200152000Y-133985000D03*
X198882000Y-133985000D03*
X197612000Y-133985000D03*
D24*
X197612000Y-136398000D03*
D23*
X198882000Y-136398000D03*
X200152000Y-136398000D03*
X200152000Y-135128000D03*
X197612000Y-135128000D03*
D25*
X202282000Y-137878000D03*
X202282000Y-137378000D03*
X202282000Y-136878000D03*
X202282000Y-136378000D03*
X202282000Y-135878000D03*
X202282000Y-135378000D03*
X202282000Y-134878000D03*
X202282000Y-134378000D03*
X202282000Y-133878000D03*
X202282000Y-133378000D03*
X202282000Y-132878000D03*
X202282000Y-132378000D03*
D26*
X201632000Y-131728000D03*
X201132000Y-131728000D03*
X200632000Y-131728000D03*
X200132000Y-131728000D03*
X199632000Y-131728000D03*
X199132000Y-131728000D03*
X198632000Y-131728000D03*
X198132000Y-131728000D03*
X197632000Y-131728000D03*
X197132000Y-131728000D03*
X196632000Y-131728000D03*
X196132000Y-131728000D03*
D25*
X195482000Y-132378000D03*
X195482000Y-132878000D03*
X195482000Y-133378000D03*
X195482000Y-133878000D03*
X195482000Y-134378000D03*
X195482000Y-134878000D03*
X195482000Y-135378000D03*
X195482000Y-135878000D03*
X195482000Y-136378000D03*
X195482000Y-136878000D03*
X195482000Y-137378000D03*
X195482000Y-137878000D03*
D26*
X196132000Y-138528000D03*
X196632000Y-138528000D03*
X197132000Y-138528000D03*
X197632000Y-138528000D03*
X198132000Y-138528000D03*
X198632000Y-138528000D03*
X199132000Y-138528000D03*
X199632000Y-138528000D03*
X200132000Y-138528000D03*
X200632000Y-138528000D03*
X201132000Y-138528000D03*
X201632000Y-138528000D03*
D27*
X198882000Y-135128000D03*
D23*
X198882000Y-135128000D03*
D28*
X190737502Y-129222500D03*
X190373000Y-132207000D03*
X208026000Y-131191000D03*
X195326000Y-130429000D03*
X188087000Y-128841500D03*
X203454000Y-134366000D03*
X200850500Y-139509500D03*
X210629500Y-142875000D03*
X196950980Y-130717380D03*
X199961500Y-127381000D03*
X206888966Y-139827980D03*
X203256502Y-136779000D03*
X192883502Y-138303000D03*
X196913500Y-140081000D03*
X187833000Y-130429000D03*
X187900000Y-139700000D03*
X194500500Y-139573000D03*
X206375000Y-135576498D03*
X204787500Y-134493000D03*
X201676000Y-140398500D03*
X186690000Y-132588000D03*
X191579500Y-137258498D03*
X204470000Y-130429000D03*
X201930000Y-130302000D03*
X211201000Y-135979502D03*
X199654141Y-130267684D03*
X188724510Y-136366987D03*
X188976000Y-138684000D03*
X198374000Y-128651000D03*
X194183000Y-131318000D03*
X188724510Y-133950834D03*
X193802000Y-132588000D03*
X190754000Y-136525000D03*
X192944945Y-136252736D03*
D29*
X212534500Y-126555500D02*
X212534500Y-136842500D01*
X190740002Y-129220000D02*
X190737502Y-129222500D01*
X191559000Y-129220000D02*
X190740002Y-129220000D01*
X191008000Y-131572000D02*
X191548000Y-131572000D01*
X190373000Y-132207000D02*
X191008000Y-131572000D01*
X210947000Y-137295000D02*
X212082000Y-137295000D01*
X212153500Y-126174500D02*
X212534500Y-126555500D01*
X191979500Y-126174500D02*
X212153500Y-126174500D01*
X191559000Y-126595000D02*
X191979500Y-126174500D01*
X191559000Y-126595000D02*
X191559000Y-127320000D01*
X212082000Y-137295000D02*
X212534500Y-136842500D01*
X191559000Y-127320000D02*
X192344000Y-127320000D01*
X192471000Y-129220000D02*
X191559000Y-129220000D01*
X192659000Y-129032000D02*
X192471000Y-129220000D01*
X192659000Y-127635000D02*
X192659000Y-129032000D01*
X192344000Y-127320000D02*
X192659000Y-127635000D01*
X189738000Y-127393000D02*
X191486000Y-127393000D01*
X191486000Y-127393000D02*
X191559000Y-127320000D01*
X207379000Y-130683000D02*
X207518000Y-130683000D01*
X207518000Y-130683000D02*
X208026000Y-131191000D01*
X195719000Y-129159000D02*
X195719000Y-130036000D01*
X195719000Y-130036000D02*
X195326000Y-130429000D01*
X188138500Y-128893000D02*
X188087000Y-128841500D01*
X188138500Y-128893000D02*
X189738000Y-128893000D01*
D30*
X202282000Y-134378000D02*
X203442000Y-134378000D01*
X203442000Y-134378000D02*
X203454000Y-134366000D01*
X201132000Y-138528000D02*
X201132000Y-139228000D01*
X201132000Y-139228000D02*
X200850500Y-139509500D01*
X195482000Y-137378000D02*
X194932000Y-137378000D01*
X193871300Y-138303000D02*
X193459000Y-138303000D01*
X193871300Y-138303000D02*
X194796300Y-137378000D01*
X194796300Y-137378000D02*
X194932000Y-137378000D01*
D29*
X197219000Y-127381000D02*
X199961500Y-127381000D01*
D30*
X196632000Y-131036360D02*
X196632000Y-131728000D01*
X196632000Y-131036360D02*
X196950980Y-130717380D01*
D29*
X189738000Y-128460500D02*
X189928500Y-128270000D01*
X189928500Y-128270000D02*
X190500000Y-128270000D01*
X189738000Y-128893000D02*
X189738000Y-128460500D01*
D30*
X207379000Y-130683000D02*
X207593850Y-130683000D01*
D29*
X207333465Y-139383481D02*
X206888966Y-139827980D01*
X207379000Y-139337946D02*
X207333465Y-139383481D01*
X207379000Y-139319000D02*
X207379000Y-139337946D01*
D30*
X205198999Y-131224001D02*
X204585000Y-131838000D01*
X204585000Y-131838000D02*
X203962000Y-131838000D01*
X205422500Y-129857500D02*
X205198999Y-130081001D01*
X205198999Y-130081001D02*
X205198999Y-131224001D01*
X207128500Y-129857500D02*
X205422500Y-129857500D01*
X207379000Y-130108000D02*
X207128500Y-129857500D01*
X207379000Y-130683000D02*
X207379000Y-130108000D01*
X197219000Y-127381000D02*
X197358000Y-127381000D01*
X203962000Y-131863000D02*
X203962000Y-131838000D01*
D29*
X203962000Y-136791000D02*
X203268502Y-136791000D01*
X203268502Y-136791000D02*
X203256502Y-136779000D01*
X193459000Y-138303000D02*
X192883502Y-138303000D01*
X197751000Y-140081000D02*
X196913500Y-140081000D01*
X190500000Y-128270000D02*
X191559000Y-128270000D01*
X207264000Y-140970000D02*
X202247500Y-140970000D01*
X202247500Y-140970000D02*
X201676000Y-140398500D01*
X208407000Y-139827000D02*
X207264000Y-140970000D01*
X208407000Y-135895000D02*
X208407000Y-139827000D01*
X208407000Y-135895000D02*
X208088498Y-135576498D01*
X208088498Y-135576498D02*
X207818104Y-135576498D01*
X206375000Y-135576498D02*
X207988500Y-135576498D01*
X210947000Y-134755000D02*
X209547000Y-134755000D01*
X209547000Y-134755000D02*
X208407000Y-135895000D01*
X207391000Y-135576498D02*
X207818104Y-135576498D01*
D30*
X196319000Y-130215168D02*
X196319000Y-128374998D01*
D29*
X195744000Y-127381000D02*
X196319000Y-127956000D01*
X196319000Y-127956000D02*
X196319000Y-128374998D01*
X194503000Y-127320000D02*
X194881500Y-127698500D01*
X194881500Y-127698500D02*
X194881500Y-129667000D01*
X194881500Y-129667000D02*
X194246500Y-130302000D01*
X194246500Y-130302000D02*
X193357500Y-130302000D01*
X193357500Y-130302000D02*
X192786000Y-130873500D01*
X193759000Y-127320000D02*
X194503000Y-127320000D01*
X195199000Y-127381000D02*
X194881500Y-127698500D01*
X195719000Y-127381000D02*
X195199000Y-127381000D01*
X187896500Y-130365500D02*
X188087000Y-130365500D01*
X187833000Y-130429000D02*
X187896500Y-130365500D01*
X188087000Y-130365500D02*
X189801500Y-130365500D01*
X189484000Y-140779500D02*
X188404500Y-140779500D01*
X189992000Y-141287500D02*
X189484000Y-140779500D01*
X189992000Y-141300000D02*
X189992000Y-141287500D01*
X187900000Y-140275000D02*
X187900000Y-139700000D01*
X188404500Y-140779500D02*
X187900000Y-140275000D01*
D30*
X202282000Y-133878000D02*
X202832000Y-133878000D01*
X203387000Y-133338000D02*
X203962000Y-133338000D01*
X203372000Y-133338000D02*
X203387000Y-133338000D01*
X202832000Y-133878000D02*
X203372000Y-133338000D01*
X196132000Y-131728000D02*
X196132000Y-130402168D01*
X196132000Y-130402168D02*
X196319000Y-130215168D01*
X195482000Y-137878000D02*
X194862000Y-137878000D01*
X194862000Y-137878000D02*
X194500500Y-138239500D01*
X194500500Y-138239500D02*
X194500500Y-139573000D01*
X203962000Y-133338000D02*
X204537000Y-133338000D01*
X204787500Y-133588500D02*
X204787500Y-134493000D01*
D29*
X206375000Y-135576498D02*
X207391000Y-135576498D01*
D30*
X204537000Y-133338000D02*
X204787500Y-133588500D01*
X201632000Y-138528000D02*
X201632000Y-138830500D01*
X201632000Y-138830500D02*
X202057000Y-139255500D01*
D29*
X202057000Y-139255500D02*
X202565000Y-139255500D01*
X201676000Y-139636500D02*
X202057000Y-139255500D01*
X201676000Y-140398500D02*
X201676000Y-139636500D01*
X189801500Y-130365500D02*
X192341500Y-130365500D01*
X192786000Y-130810000D02*
X192786000Y-130873500D01*
X192341500Y-130365500D02*
X192786000Y-130810000D01*
X192786000Y-134455000D02*
X192786000Y-131732002D01*
X192786000Y-134455000D02*
X193586000Y-135255000D01*
X192786000Y-130873500D02*
X192786000Y-131732002D01*
X207391000Y-135576498D02*
X207260002Y-135576498D01*
X210685000Y-134493000D02*
X210947000Y-134755000D01*
X203708000Y-139255500D02*
X202565000Y-139255500D01*
X203962000Y-139001500D02*
X203962000Y-138291000D01*
X203708000Y-139255500D02*
X203962000Y-139001500D01*
X189992000Y-141300000D02*
X189992000Y-142621000D01*
X189992000Y-142621000D02*
X190754000Y-143383000D01*
X193493106Y-143383000D02*
X194056000Y-142820106D01*
X190754000Y-143383000D02*
X193493106Y-143383000D01*
D30*
X195744000Y-127381000D02*
X195719000Y-127381000D01*
X202282000Y-137878000D02*
X203549000Y-137878000D01*
X203549000Y-137878000D02*
X203962000Y-138291000D01*
D29*
X190615000Y-139827000D02*
X190615000Y-140677000D01*
X190615000Y-140677000D02*
X189992000Y-141300000D01*
X194056000Y-142820106D02*
X194056000Y-142113000D01*
X188395498Y-130365500D02*
X189801500Y-130365500D01*
D31*
X202282000Y-135878000D02*
X205006000Y-135878000D01*
X205006000Y-135878000D02*
X206279000Y-137151000D01*
X206279000Y-137151000D02*
X206629000Y-137151000D01*
X206629000Y-137151000D02*
X206629000Y-138569000D01*
X206629000Y-138569000D02*
X205879000Y-139319000D01*
X206629000Y-132851000D02*
X206629000Y-131433000D01*
X206629000Y-131433000D02*
X205879000Y-130683000D01*
X202282000Y-135378000D02*
X205306000Y-135378000D01*
X205306000Y-135378000D02*
X206629000Y-134055000D01*
X206629000Y-134055000D02*
X206629000Y-132851000D01*
X191859000Y-138303000D02*
X191859000Y-138957000D01*
X191859000Y-138957000D02*
X191967000Y-139065000D01*
X191967000Y-139065000D02*
X193282000Y-139065000D01*
X193282000Y-139065000D02*
X193536000Y-139319000D01*
X193536000Y-139319000D02*
X193536000Y-139827000D01*
X192081000Y-138303000D02*
X191859000Y-138303000D01*
X191986000Y-135255000D02*
X191986000Y-134404000D01*
X192036000Y-134354000D02*
X192036000Y-133604000D01*
X191986000Y-134404000D02*
X192036000Y-134354000D01*
D29*
X189198000Y-131572000D02*
X187706000Y-131572000D01*
X187706000Y-131572000D02*
X186690000Y-132588000D01*
D31*
X195482000Y-136878000D02*
X194692416Y-136878000D01*
X194692416Y-136878000D02*
X194029416Y-137541000D01*
X194029416Y-137541000D02*
X191862002Y-137541000D01*
X191862002Y-137541000D02*
X191579500Y-137258498D01*
X196132000Y-138528000D02*
X196132000Y-139402000D01*
X196132000Y-139402000D02*
X194427498Y-141106502D01*
X194427498Y-141106502D02*
X193220998Y-141106502D01*
X192786000Y-141541500D02*
X193220998Y-141106502D01*
X192786000Y-141541500D02*
X192786000Y-142113000D01*
X203100000Y-131572000D02*
X203100000Y-130783000D01*
X203454000Y-130429000D02*
X204470000Y-130429000D01*
X203100000Y-130783000D02*
X203454000Y-130429000D01*
X202282000Y-132378000D02*
X202872000Y-132378000D01*
X202872000Y-132378000D02*
X203100000Y-132150000D01*
X203100000Y-132150000D02*
X203100000Y-131572000D01*
X201632000Y-130766000D02*
X201632000Y-130600000D01*
X201632000Y-130766000D02*
X201632000Y-131171500D01*
X201632000Y-131728000D02*
X201632000Y-131171500D01*
X201632000Y-130600000D02*
X201930000Y-130302000D01*
X199132000Y-138528000D02*
X199132000Y-139055602D01*
X199132000Y-139055602D02*
X198501000Y-139686602D01*
X207409533Y-141859000D02*
X209296000Y-139972533D01*
X198501000Y-139686602D02*
X198501000Y-140779500D01*
X198501000Y-140779500D02*
X199580500Y-141859000D01*
X199580500Y-141859000D02*
X207409533Y-141859000D01*
X209296000Y-139972533D02*
X209296000Y-136779000D01*
X209296000Y-136779000D02*
X210095498Y-135979502D01*
X210095498Y-135979502D02*
X211201000Y-135979502D01*
X199132000Y-131728000D02*
X199132000Y-130789825D01*
X199132000Y-130789825D02*
X199654141Y-130267684D01*
X189115000Y-135976497D02*
X188724510Y-136366987D01*
X189115000Y-135255000D02*
X189115000Y-135976497D01*
X189115000Y-135255000D02*
X188080000Y-135255000D01*
X186700000Y-133875000D02*
X185650000Y-133875000D01*
X188080000Y-135255000D02*
X186700000Y-133875000D01*
X189115000Y-139827000D02*
X189115000Y-138823000D01*
X189115000Y-138823000D02*
X188976000Y-138684000D01*
X189115000Y-137541000D02*
X188116000Y-137541000D01*
X186450000Y-135875000D02*
X185650000Y-135875000D01*
X188116000Y-137541000D02*
X186450000Y-135875000D01*
X198374000Y-128651000D02*
X208669000Y-128651000D01*
X208669000Y-128651000D02*
X209693000Y-129675000D01*
X209693000Y-129675000D02*
X210947000Y-129675000D01*
X194754499Y-133254499D02*
X194754499Y-131889499D01*
X194754499Y-131889499D02*
X194691000Y-131826000D01*
X194691000Y-131826000D02*
X194183000Y-131318000D01*
X195482000Y-133378000D02*
X194878000Y-133378000D01*
X194754499Y-133254499D02*
X194878000Y-133378000D01*
X198564500Y-128460500D02*
X198374000Y-128651000D01*
X200632000Y-131728000D02*
X200632000Y-129949000D01*
X200632000Y-129949000D02*
X201295000Y-129286000D01*
X201295000Y-129286000D02*
X207618000Y-129286000D01*
X207618000Y-129286000D02*
X210547000Y-132215000D01*
X210547000Y-132215000D02*
X210947000Y-132215000D01*
X210947000Y-132215000D02*
X210245177Y-132215000D01*
X189865000Y-134747000D02*
X189865000Y-138557000D01*
X190119000Y-138811000D02*
X190851602Y-138811000D01*
X190851602Y-138811000D02*
X191359602Y-139319000D01*
X191532000Y-139827000D02*
X192036000Y-139827000D01*
X189865000Y-138557000D02*
X190119000Y-138811000D01*
X191359602Y-139319000D02*
X191359602Y-139654602D01*
X191359602Y-139654602D02*
X191532000Y-139827000D01*
X188724510Y-133950834D02*
X189353127Y-133950834D01*
X189353127Y-133950834D02*
X189865000Y-134462707D01*
X189865000Y-134462707D02*
X189865000Y-134747000D01*
X193536000Y-132854000D02*
X193802000Y-132588000D01*
X193536000Y-132854000D02*
X193536000Y-133604000D01*
X195482000Y-134878000D02*
X194949000Y-134878000D01*
X194949000Y-134878000D02*
X193675000Y-133604000D01*
X189865000Y-134747000D02*
X189865000Y-134716398D01*
X193675000Y-133604000D02*
X193536000Y-133604000D01*
X199632000Y-138528000D02*
X199632000Y-139700000D01*
X199632000Y-139700000D02*
X199251000Y-140081000D01*
X198132000Y-130504500D02*
X198132000Y-130457000D01*
X198132000Y-130457000D02*
X197219000Y-129544000D01*
X197219000Y-129544000D02*
X197219000Y-129159000D01*
X198132000Y-131728000D02*
X198132000Y-130504500D01*
D30*
X198132000Y-130504500D02*
X198132000Y-130695000D01*
D31*
X195482000Y-135878000D02*
X194307864Y-135878000D01*
X190754000Y-136525000D02*
X190754000Y-137402000D01*
X194307864Y-135878000D02*
X193933128Y-136252736D01*
X193573562Y-136252736D02*
X192944945Y-136252736D01*
X193933128Y-136252736D02*
X193573562Y-136252736D01*
X190754000Y-137402000D02*
X190615000Y-137541000D01*
X195482000Y-136378000D02*
X194449932Y-136378000D01*
X194449932Y-136378000D02*
X193740943Y-137086989D01*
X193740943Y-137086989D02*
X192549815Y-137086989D01*
X192549815Y-137086989D02*
X190717826Y-135255000D01*
X190717826Y-135255000D02*
X190615000Y-135255000D01*
G36*
X184262969Y-124366682D02*
X184904915Y-124572303D01*
X185470703Y-124821425D01*
X185476349Y-124822678D01*
X185481182Y-124825856D01*
X186073786Y-125066193D01*
X186083654Y-125068080D01*
X186092319Y-125073161D01*
X186405357Y-125181782D01*
X186405768Y-125181839D01*
X186406126Y-125182048D01*
X186618261Y-125255156D01*
X186618565Y-125255197D01*
X186618829Y-125255351D01*
X186687889Y-125279031D01*
X186688151Y-125279066D01*
X186688382Y-125279200D01*
X186750910Y-125300546D01*
X186751089Y-125300570D01*
X186751245Y-125300660D01*
X186784955Y-125312134D01*
X186784956Y-125312134D01*
X186817034Y-125323054D01*
X186817374Y-125323099D01*
X186817674Y-125323272D01*
X186851386Y-125334682D01*
X186883454Y-125345541D01*
X186883993Y-125345612D01*
X186884467Y-125345883D01*
X187030149Y-125394765D01*
X187031026Y-125394877D01*
X187031795Y-125395313D01*
X187149419Y-125434193D01*
X187151932Y-125434503D01*
X187154154Y-125435725D01*
X187477110Y-125537876D01*
X187482301Y-125538449D01*
X187486947Y-125540845D01*
X187694882Y-125600576D01*
X187703467Y-125601293D01*
X187711289Y-125604901D01*
X187963953Y-125665599D01*
X187974144Y-125666001D01*
X187983615Y-125669784D01*
X188274840Y-125723886D01*
X188284922Y-125723758D01*
X188294464Y-125727011D01*
X188851729Y-125801109D01*
X188862283Y-125800431D01*
X188872463Y-125803298D01*
X189438625Y-125847645D01*
X189449103Y-125846401D01*
X189459378Y-125848705D01*
X190254666Y-125867998D01*
X190265158Y-125866174D01*
X190275665Y-125867937D01*
X191063668Y-125844167D01*
X191075880Y-125841352D01*
X191088346Y-125842630D01*
X191531601Y-125800741D01*
X191148171Y-126184171D01*
X191022226Y-126372661D01*
X190978000Y-126595000D01*
X190978000Y-126616132D01*
X190887810Y-126633103D01*
X190758135Y-126716546D01*
X190692914Y-126812000D01*
X190449280Y-126812000D01*
X190391454Y-126722135D01*
X190264134Y-126635141D01*
X190113000Y-126604536D01*
X189363000Y-126604536D01*
X189221810Y-126631103D01*
X189092135Y-126714546D01*
X189005141Y-126841866D01*
X188974536Y-126993000D01*
X188974536Y-127793000D01*
X189001103Y-127934190D01*
X189011972Y-127951081D01*
X189003301Y-127954673D01*
X188824673Y-128133302D01*
X188728000Y-128366691D01*
X188728000Y-128607250D01*
X188886750Y-128766000D01*
X189611000Y-128766000D01*
X189611000Y-128746000D01*
X189865000Y-128746000D01*
X189865000Y-128766000D01*
X189885000Y-128766000D01*
X189885000Y-129020000D01*
X189865000Y-129020000D01*
X189865000Y-129040000D01*
X189611000Y-129040000D01*
X189611000Y-129020000D01*
X188886750Y-129020000D01*
X188728000Y-129178750D01*
X188728000Y-129419309D01*
X188824673Y-129652698D01*
X188956474Y-129784500D01*
X188356040Y-129784500D01*
X188301219Y-129729583D01*
X187997923Y-129603643D01*
X187669518Y-129603357D01*
X187366002Y-129728767D01*
X187133583Y-129960781D01*
X187007643Y-130264077D01*
X187007357Y-130592482D01*
X187132767Y-130895998D01*
X187356542Y-131120164D01*
X187295171Y-131161171D01*
X187050302Y-131406040D01*
X187031362Y-131027632D01*
X186872397Y-130643857D01*
X186630213Y-130574392D01*
X185829605Y-131375000D01*
X185843748Y-131389143D01*
X185664143Y-131568748D01*
X185650000Y-131554605D01*
X185635858Y-131568748D01*
X185456253Y-131389143D01*
X185470395Y-131375000D01*
X184669787Y-130574392D01*
X184427603Y-130643857D01*
X184240856Y-131167302D01*
X184268638Y-131722368D01*
X184271942Y-131730344D01*
X184198303Y-131656577D01*
X183778354Y-131482199D01*
X183323641Y-131481802D01*
X182903388Y-131655446D01*
X182581577Y-131976697D01*
X182407199Y-132396646D01*
X182406802Y-132851359D01*
X182580446Y-133271612D01*
X182901697Y-133593423D01*
X183321646Y-133767801D01*
X183776359Y-133768198D01*
X184196612Y-133594554D01*
X184518423Y-133273303D01*
X184692801Y-132853354D01*
X184693171Y-132429015D01*
X184734382Y-132470226D01*
X184849393Y-132355215D01*
X184918857Y-132597397D01*
X185364307Y-132756318D01*
X185003388Y-132905446D01*
X184681577Y-133226697D01*
X184507199Y-133646646D01*
X184506802Y-134101359D01*
X184680446Y-134521612D01*
X185001697Y-134843423D01*
X185077409Y-134874861D01*
X185003388Y-134905446D01*
X184681577Y-135226697D01*
X184507199Y-135646646D01*
X184506802Y-136101359D01*
X184680446Y-136521612D01*
X185001697Y-136843423D01*
X185421646Y-137017801D01*
X185876359Y-137018198D01*
X186296612Y-136844554D01*
X186499049Y-136642469D01*
X187756790Y-137900210D01*
X187921597Y-138010331D01*
X188116000Y-138049000D01*
X188443655Y-138049000D01*
X188276583Y-138215781D01*
X188150643Y-138519077D01*
X188150357Y-138847482D01*
X188181598Y-138923091D01*
X188064923Y-138874643D01*
X187736518Y-138874357D01*
X187433002Y-138999767D01*
X187200583Y-139231781D01*
X187074643Y-139535077D01*
X187074357Y-139863482D01*
X187199767Y-140166998D01*
X187321842Y-140289286D01*
X187363226Y-140497339D01*
X187489171Y-140685829D01*
X187993671Y-141190329D01*
X188182161Y-141316274D01*
X188404500Y-141360500D01*
X189243342Y-141360500D01*
X189411000Y-141528158D01*
X189411000Y-142621000D01*
X189455226Y-142843339D01*
X189581171Y-143031829D01*
X190343171Y-143793829D01*
X190371693Y-143812887D01*
X190266777Y-143811177D01*
X190261586Y-143812122D01*
X190256404Y-143811148D01*
X189855929Y-143815385D01*
X189850702Y-143816482D01*
X189845428Y-143815639D01*
X189454157Y-143830434D01*
X189446477Y-143832266D01*
X189438630Y-143831334D01*
X188872465Y-143875679D01*
X188862284Y-143878546D01*
X188851727Y-143877868D01*
X188294466Y-143951968D01*
X188284922Y-143955222D01*
X188274837Y-143955094D01*
X187983610Y-144009201D01*
X187974145Y-144012982D01*
X187963966Y-144013383D01*
X187711303Y-144074073D01*
X187703467Y-144077687D01*
X187694865Y-144078406D01*
X187486928Y-144138150D01*
X187482296Y-144140539D01*
X187477122Y-144141110D01*
X187154166Y-144243253D01*
X187151311Y-144244823D01*
X187148079Y-144245234D01*
X186816687Y-144356124D01*
X186815141Y-144357008D01*
X186813373Y-144357249D01*
X186093059Y-144605563D01*
X186076927Y-144614979D01*
X186058746Y-144619262D01*
X185925686Y-144679920D01*
X185925648Y-144679947D01*
X185925602Y-144679958D01*
X185792560Y-144740646D01*
X185635743Y-144811840D01*
X185529527Y-144859653D01*
X185219749Y-144995433D01*
X185013784Y-145080988D01*
X184321472Y-145308906D01*
X183995221Y-145350870D01*
X183753380Y-145343676D01*
X183449568Y-145281771D01*
X183188155Y-145189354D01*
X182933340Y-145063130D01*
X182447183Y-144702721D01*
X182050742Y-144225920D01*
X181915064Y-143987552D01*
X181792427Y-143704037D01*
X181715213Y-143461470D01*
X181686010Y-142741415D01*
X181686002Y-140845740D01*
X181718241Y-141007815D01*
X181963411Y-141374738D01*
X182330334Y-141619908D01*
X182763149Y-141706000D01*
X184336851Y-141706000D01*
X184769666Y-141619908D01*
X185136589Y-141374738D01*
X185381759Y-141007815D01*
X185467851Y-140575000D01*
X185381759Y-140142185D01*
X185136589Y-139775262D01*
X184769666Y-139530092D01*
X184336851Y-139444000D01*
X182763149Y-139444000D01*
X182330334Y-139530092D01*
X181963411Y-139775262D01*
X181718241Y-140142185D01*
X181686000Y-140304270D01*
X181685994Y-138601359D01*
X184506802Y-138601359D01*
X184680446Y-139021612D01*
X185001697Y-139343423D01*
X185421646Y-139517801D01*
X185876359Y-139518198D01*
X186296612Y-139344554D01*
X186618423Y-139023303D01*
X186792801Y-138603354D01*
X186793198Y-138148641D01*
X186619554Y-137728388D01*
X186298303Y-137406577D01*
X185878354Y-137232199D01*
X185423641Y-137231802D01*
X185003388Y-137405446D01*
X184681577Y-137726697D01*
X184507199Y-138146646D01*
X184506802Y-138601359D01*
X181685994Y-138601359D01*
X181685989Y-137351359D01*
X182406802Y-137351359D01*
X182580446Y-137771612D01*
X182901697Y-138093423D01*
X183321646Y-138267801D01*
X183776359Y-138268198D01*
X184196612Y-138094554D01*
X184518423Y-137773303D01*
X184692801Y-137353354D01*
X184693198Y-136898641D01*
X184519554Y-136478388D01*
X184198303Y-136156577D01*
X183778354Y-135982199D01*
X183323641Y-135981802D01*
X182903388Y-136155446D01*
X182581577Y-136476697D01*
X182407199Y-136896646D01*
X182406802Y-137351359D01*
X181685989Y-137351359D01*
X181685961Y-130394787D01*
X184849392Y-130394787D01*
X185650000Y-131195395D01*
X186450608Y-130394787D01*
X186381143Y-130152603D01*
X185857698Y-129965856D01*
X185302632Y-129993638D01*
X184918857Y-130152603D01*
X184849392Y-130394787D01*
X181685961Y-130394787D01*
X181685957Y-129445513D01*
X181718241Y-129607815D01*
X181963411Y-129974738D01*
X182330334Y-130219908D01*
X182763149Y-130306000D01*
X184336851Y-130306000D01*
X184769666Y-130219908D01*
X185136589Y-129974738D01*
X185381759Y-129607815D01*
X185467851Y-129175000D01*
X185381759Y-128742185D01*
X185136589Y-128375262D01*
X184769666Y-128130092D01*
X184336851Y-128044000D01*
X182763149Y-128044000D01*
X182330334Y-128130092D01*
X181963411Y-128375262D01*
X181718241Y-128742185D01*
X181685955Y-128904498D01*
X181685943Y-125970715D01*
X182045830Y-125457508D01*
X182233644Y-125201437D01*
X182437155Y-124983429D01*
X182671872Y-124785459D01*
X182925594Y-124619352D01*
X183137153Y-124510623D01*
X183371907Y-124414439D01*
X183691105Y-124320557D01*
X183791758Y-124311256D01*
X184262969Y-124366682D01*
X184262969Y-124366682D01*
G37*
X184262969Y-124366682D02*
X184904915Y-124572303D01*
X185470703Y-124821425D01*
X185476349Y-124822678D01*
X185481182Y-124825856D01*
X186073786Y-125066193D01*
X186083654Y-125068080D01*
X186092319Y-125073161D01*
X186405357Y-125181782D01*
X186405768Y-125181839D01*
X186406126Y-125182048D01*
X186618261Y-125255156D01*
X186618565Y-125255197D01*
X186618829Y-125255351D01*
X186687889Y-125279031D01*
X186688151Y-125279066D01*
X186688382Y-125279200D01*
X186750910Y-125300546D01*
X186751089Y-125300570D01*
X186751245Y-125300660D01*
X186784955Y-125312134D01*
X186784956Y-125312134D01*
X186817034Y-125323054D01*
X186817374Y-125323099D01*
X186817674Y-125323272D01*
X186851386Y-125334682D01*
X186883454Y-125345541D01*
X186883993Y-125345612D01*
X186884467Y-125345883D01*
X187030149Y-125394765D01*
X187031026Y-125394877D01*
X187031795Y-125395313D01*
X187149419Y-125434193D01*
X187151932Y-125434503D01*
X187154154Y-125435725D01*
X187477110Y-125537876D01*
X187482301Y-125538449D01*
X187486947Y-125540845D01*
X187694882Y-125600576D01*
X187703467Y-125601293D01*
X187711289Y-125604901D01*
X187963953Y-125665599D01*
X187974144Y-125666001D01*
X187983615Y-125669784D01*
X188274840Y-125723886D01*
X188284922Y-125723758D01*
X188294464Y-125727011D01*
X188851729Y-125801109D01*
X188862283Y-125800431D01*
X188872463Y-125803298D01*
X189438625Y-125847645D01*
X189449103Y-125846401D01*
X189459378Y-125848705D01*
X190254666Y-125867998D01*
X190265158Y-125866174D01*
X190275665Y-125867937D01*
X191063668Y-125844167D01*
X191075880Y-125841352D01*
X191088346Y-125842630D01*
X191531601Y-125800741D01*
X191148171Y-126184171D01*
X191022226Y-126372661D01*
X190978000Y-126595000D01*
X190978000Y-126616132D01*
X190887810Y-126633103D01*
X190758135Y-126716546D01*
X190692914Y-126812000D01*
X190449280Y-126812000D01*
X190391454Y-126722135D01*
X190264134Y-126635141D01*
X190113000Y-126604536D01*
X189363000Y-126604536D01*
X189221810Y-126631103D01*
X189092135Y-126714546D01*
X189005141Y-126841866D01*
X188974536Y-126993000D01*
X188974536Y-127793000D01*
X189001103Y-127934190D01*
X189011972Y-127951081D01*
X189003301Y-127954673D01*
X188824673Y-128133302D01*
X188728000Y-128366691D01*
X188728000Y-128607250D01*
X188886750Y-128766000D01*
X189611000Y-128766000D01*
X189611000Y-128746000D01*
X189865000Y-128746000D01*
X189865000Y-128766000D01*
X189885000Y-128766000D01*
X189885000Y-129020000D01*
X189865000Y-129020000D01*
X189865000Y-129040000D01*
X189611000Y-129040000D01*
X189611000Y-129020000D01*
X188886750Y-129020000D01*
X188728000Y-129178750D01*
X188728000Y-129419309D01*
X188824673Y-129652698D01*
X188956474Y-129784500D01*
X188356040Y-129784500D01*
X188301219Y-129729583D01*
X187997923Y-129603643D01*
X187669518Y-129603357D01*
X187366002Y-129728767D01*
X187133583Y-129960781D01*
X187007643Y-130264077D01*
X187007357Y-130592482D01*
X187132767Y-130895998D01*
X187356542Y-131120164D01*
X187295171Y-131161171D01*
X187050302Y-131406040D01*
X187031362Y-131027632D01*
X186872397Y-130643857D01*
X186630213Y-130574392D01*
X185829605Y-131375000D01*
X185843748Y-131389143D01*
X185664143Y-131568748D01*
X185650000Y-131554605D01*
X185635858Y-131568748D01*
X185456253Y-131389143D01*
X185470395Y-131375000D01*
X184669787Y-130574392D01*
X184427603Y-130643857D01*
X184240856Y-131167302D01*
X184268638Y-131722368D01*
X184271942Y-131730344D01*
X184198303Y-131656577D01*
X183778354Y-131482199D01*
X183323641Y-131481802D01*
X182903388Y-131655446D01*
X182581577Y-131976697D01*
X182407199Y-132396646D01*
X182406802Y-132851359D01*
X182580446Y-133271612D01*
X182901697Y-133593423D01*
X183321646Y-133767801D01*
X183776359Y-133768198D01*
X184196612Y-133594554D01*
X184518423Y-133273303D01*
X184692801Y-132853354D01*
X184693171Y-132429015D01*
X184734382Y-132470226D01*
X184849393Y-132355215D01*
X184918857Y-132597397D01*
X185364307Y-132756318D01*
X185003388Y-132905446D01*
X184681577Y-133226697D01*
X184507199Y-133646646D01*
X184506802Y-134101359D01*
X184680446Y-134521612D01*
X185001697Y-134843423D01*
X185077409Y-134874861D01*
X185003388Y-134905446D01*
X184681577Y-135226697D01*
X184507199Y-135646646D01*
X184506802Y-136101359D01*
X184680446Y-136521612D01*
X185001697Y-136843423D01*
X185421646Y-137017801D01*
X185876359Y-137018198D01*
X186296612Y-136844554D01*
X186499049Y-136642469D01*
X187756790Y-137900210D01*
X187921597Y-138010331D01*
X188116000Y-138049000D01*
X188443655Y-138049000D01*
X188276583Y-138215781D01*
X188150643Y-138519077D01*
X188150357Y-138847482D01*
X188181598Y-138923091D01*
X188064923Y-138874643D01*
X187736518Y-138874357D01*
X187433002Y-138999767D01*
X187200583Y-139231781D01*
X187074643Y-139535077D01*
X187074357Y-139863482D01*
X187199767Y-140166998D01*
X187321842Y-140289286D01*
X187363226Y-140497339D01*
X187489171Y-140685829D01*
X187993671Y-141190329D01*
X188182161Y-141316274D01*
X188404500Y-141360500D01*
X189243342Y-141360500D01*
X189411000Y-141528158D01*
X189411000Y-142621000D01*
X189455226Y-142843339D01*
X189581171Y-143031829D01*
X190343171Y-143793829D01*
X190371693Y-143812887D01*
X190266777Y-143811177D01*
X190261586Y-143812122D01*
X190256404Y-143811148D01*
X189855929Y-143815385D01*
X189850702Y-143816482D01*
X189845428Y-143815639D01*
X189454157Y-143830434D01*
X189446477Y-143832266D01*
X189438630Y-143831334D01*
X188872465Y-143875679D01*
X188862284Y-143878546D01*
X188851727Y-143877868D01*
X188294466Y-143951968D01*
X188284922Y-143955222D01*
X188274837Y-143955094D01*
X187983610Y-144009201D01*
X187974145Y-144012982D01*
X187963966Y-144013383D01*
X187711303Y-144074073D01*
X187703467Y-144077687D01*
X187694865Y-144078406D01*
X187486928Y-144138150D01*
X187482296Y-144140539D01*
X187477122Y-144141110D01*
X187154166Y-144243253D01*
X187151311Y-144244823D01*
X187148079Y-144245234D01*
X186816687Y-144356124D01*
X186815141Y-144357008D01*
X186813373Y-144357249D01*
X186093059Y-144605563D01*
X186076927Y-144614979D01*
X186058746Y-144619262D01*
X185925686Y-144679920D01*
X185925648Y-144679947D01*
X185925602Y-144679958D01*
X185792560Y-144740646D01*
X185635743Y-144811840D01*
X185529527Y-144859653D01*
X185219749Y-144995433D01*
X185013784Y-145080988D01*
X184321472Y-145308906D01*
X183995221Y-145350870D01*
X183753380Y-145343676D01*
X183449568Y-145281771D01*
X183188155Y-145189354D01*
X182933340Y-145063130D01*
X182447183Y-144702721D01*
X182050742Y-144225920D01*
X181915064Y-143987552D01*
X181792427Y-143704037D01*
X181715213Y-143461470D01*
X181686010Y-142741415D01*
X181686002Y-140845740D01*
X181718241Y-141007815D01*
X181963411Y-141374738D01*
X182330334Y-141619908D01*
X182763149Y-141706000D01*
X184336851Y-141706000D01*
X184769666Y-141619908D01*
X185136589Y-141374738D01*
X185381759Y-141007815D01*
X185467851Y-140575000D01*
X185381759Y-140142185D01*
X185136589Y-139775262D01*
X184769666Y-139530092D01*
X184336851Y-139444000D01*
X182763149Y-139444000D01*
X182330334Y-139530092D01*
X181963411Y-139775262D01*
X181718241Y-140142185D01*
X181686000Y-140304270D01*
X181685994Y-138601359D01*
X184506802Y-138601359D01*
X184680446Y-139021612D01*
X185001697Y-139343423D01*
X185421646Y-139517801D01*
X185876359Y-139518198D01*
X186296612Y-139344554D01*
X186618423Y-139023303D01*
X186792801Y-138603354D01*
X186793198Y-138148641D01*
X186619554Y-137728388D01*
X186298303Y-137406577D01*
X185878354Y-137232199D01*
X185423641Y-137231802D01*
X185003388Y-137405446D01*
X184681577Y-137726697D01*
X184507199Y-138146646D01*
X184506802Y-138601359D01*
X181685994Y-138601359D01*
X181685989Y-137351359D01*
X182406802Y-137351359D01*
X182580446Y-137771612D01*
X182901697Y-138093423D01*
X183321646Y-138267801D01*
X183776359Y-138268198D01*
X184196612Y-138094554D01*
X184518423Y-137773303D01*
X184692801Y-137353354D01*
X184693198Y-136898641D01*
X184519554Y-136478388D01*
X184198303Y-136156577D01*
X183778354Y-135982199D01*
X183323641Y-135981802D01*
X182903388Y-136155446D01*
X182581577Y-136476697D01*
X182407199Y-136896646D01*
X182406802Y-137351359D01*
X181685989Y-137351359D01*
X181685961Y-130394787D01*
X184849392Y-130394787D01*
X185650000Y-131195395D01*
X186450608Y-130394787D01*
X186381143Y-130152603D01*
X185857698Y-129965856D01*
X185302632Y-129993638D01*
X184918857Y-130152603D01*
X184849392Y-130394787D01*
X181685961Y-130394787D01*
X181685957Y-129445513D01*
X181718241Y-129607815D01*
X181963411Y-129974738D01*
X182330334Y-130219908D01*
X182763149Y-130306000D01*
X184336851Y-130306000D01*
X184769666Y-130219908D01*
X185136589Y-129974738D01*
X185381759Y-129607815D01*
X185467851Y-129175000D01*
X185381759Y-128742185D01*
X185136589Y-128375262D01*
X184769666Y-128130092D01*
X184336851Y-128044000D01*
X182763149Y-128044000D01*
X182330334Y-128130092D01*
X181963411Y-128375262D01*
X181718241Y-128742185D01*
X181685955Y-128904498D01*
X181685943Y-125970715D01*
X182045830Y-125457508D01*
X182233644Y-125201437D01*
X182437155Y-124983429D01*
X182671872Y-124785459D01*
X182925594Y-124619352D01*
X183137153Y-124510623D01*
X183371907Y-124414439D01*
X183691105Y-124320557D01*
X183791758Y-124311256D01*
X184262969Y-124366682D01*
G36*
X212593908Y-143634346D02*
X212359576Y-144136915D01*
X211973264Y-144601530D01*
X211494683Y-144956321D01*
X210974268Y-145183494D01*
X210266614Y-145344213D01*
X209362425Y-145190140D01*
X208573214Y-144853402D01*
X208570668Y-144852867D01*
X208568501Y-144851428D01*
X207895603Y-144574789D01*
X207874681Y-144570685D01*
X207855739Y-144560896D01*
X206916151Y-144290074D01*
X206904958Y-144289128D01*
X206894696Y-144284551D01*
X206447017Y-144182924D01*
X206443317Y-144182825D01*
X206439912Y-144181382D01*
X205819006Y-144052678D01*
X205817009Y-144052662D01*
X205815161Y-144051901D01*
X205512028Y-143992273D01*
X205511420Y-143992274D01*
X205510858Y-143992045D01*
X204738511Y-143842595D01*
X204694804Y-143842823D01*
X204651659Y-143835802D01*
X203600108Y-143872660D01*
X203585496Y-143876103D01*
X203570538Y-143874836D01*
X202693791Y-143973328D01*
X202674335Y-143979522D01*
X202653919Y-143979936D01*
X202141738Y-144092654D01*
X202125139Y-144099927D01*
X202107129Y-144101974D01*
X201047285Y-144440899D01*
X201041530Y-144444087D01*
X201035018Y-144445049D01*
X200553740Y-144616954D01*
X200552822Y-144617503D01*
X200551768Y-144617665D01*
X199499968Y-144999803D01*
X198994662Y-145167312D01*
X198650533Y-145254192D01*
X198274932Y-145312739D01*
X197774548Y-145345570D01*
X197575826Y-145349463D01*
X197403261Y-145350200D01*
X197202454Y-145347246D01*
X197036639Y-145340907D01*
X196649211Y-145306808D01*
X196323929Y-145252278D01*
X195975323Y-145158062D01*
X194611877Y-144682569D01*
X194611875Y-144682568D01*
X193235111Y-144202330D01*
X193223802Y-144200745D01*
X193213639Y-144195536D01*
X192721263Y-144055407D01*
X192702841Y-144053913D01*
X192685673Y-144047078D01*
X192235609Y-143964000D01*
X193493106Y-143964000D01*
X193715445Y-143919774D01*
X193903935Y-143793829D01*
X194466829Y-143230935D01*
X194592774Y-143042445D01*
X194608356Y-142964110D01*
X194765791Y-143100127D01*
X195024126Y-143207119D01*
X195199000Y-143080954D01*
X195199000Y-142240000D01*
X195453000Y-142240000D01*
X195453000Y-143080954D01*
X195627874Y-143207119D01*
X195886209Y-143100127D01*
X196221323Y-142810604D01*
X196420132Y-142414877D01*
X196295135Y-142240000D01*
X195453000Y-142240000D01*
X195199000Y-142240000D01*
X195179000Y-142240000D01*
X195179000Y-141986000D01*
X195199000Y-141986000D01*
X195199000Y-141145046D01*
X195453000Y-141145046D01*
X195453000Y-141986000D01*
X196295135Y-141986000D01*
X196420132Y-141811123D01*
X196221323Y-141415396D01*
X195886209Y-141125873D01*
X195627874Y-141018881D01*
X195453000Y-141145046D01*
X195199000Y-141145046D01*
X195145774Y-141106646D01*
X195885670Y-140366750D01*
X196866000Y-140366750D01*
X196866000Y-140657310D01*
X196962673Y-140890699D01*
X197141302Y-141069327D01*
X197374691Y-141166000D01*
X197467250Y-141166000D01*
X197626000Y-141007250D01*
X197626000Y-140208000D01*
X197024750Y-140208000D01*
X196866000Y-140366750D01*
X195885670Y-140366750D01*
X196491210Y-139761210D01*
X196601331Y-139596403D01*
X196640000Y-139402000D01*
X196640000Y-139266464D01*
X196757000Y-139266464D01*
X196886588Y-139242080D01*
X196974160Y-139259814D01*
X196962673Y-139271301D01*
X196866000Y-139504690D01*
X196866000Y-139795250D01*
X197024750Y-139954000D01*
X197626000Y-139954000D01*
X197626000Y-139934000D01*
X197876000Y-139934000D01*
X197876000Y-139954000D01*
X197898000Y-139954000D01*
X197898000Y-140208000D01*
X197876000Y-140208000D01*
X197876000Y-141007250D01*
X198034750Y-141166000D01*
X198127309Y-141166000D01*
X198156846Y-141153766D01*
X199221290Y-142218211D01*
X199386097Y-142328331D01*
X199580500Y-142367000D01*
X207409533Y-142367000D01*
X207603936Y-142328331D01*
X207768743Y-142218210D01*
X209345285Y-140641668D01*
X209408673Y-140794699D01*
X209587302Y-140973327D01*
X209820691Y-141070000D01*
X210661250Y-141070000D01*
X210820000Y-140911250D01*
X210820000Y-139962000D01*
X211074000Y-139962000D01*
X211074000Y-140911250D01*
X211232750Y-141070000D01*
X212073309Y-141070000D01*
X212306698Y-140973327D01*
X212485327Y-140794699D01*
X212582000Y-140561310D01*
X212582000Y-140120750D01*
X212423250Y-139962000D01*
X211074000Y-139962000D01*
X210820000Y-139962000D01*
X210800000Y-139962000D01*
X210800000Y-139708000D01*
X210820000Y-139708000D01*
X210820000Y-138758750D01*
X211074000Y-138758750D01*
X211074000Y-139708000D01*
X212423250Y-139708000D01*
X212582000Y-139549250D01*
X212582000Y-139108690D01*
X212485327Y-138875301D01*
X212306698Y-138696673D01*
X212073309Y-138600000D01*
X211232750Y-138600000D01*
X211074000Y-138758750D01*
X210820000Y-138758750D01*
X210661250Y-138600000D01*
X209820691Y-138600000D01*
X209804000Y-138606914D01*
X209804000Y-138254506D01*
X209947000Y-138283464D01*
X211947000Y-138283464D01*
X212088190Y-138256897D01*
X212217865Y-138173454D01*
X212304859Y-138046134D01*
X212335464Y-137895000D01*
X212335464Y-137810977D01*
X212492829Y-137705829D01*
X212594574Y-137604084D01*
X212593908Y-143634346D01*
X212593908Y-143634346D01*
G37*
X212593908Y-143634346D02*
X212359576Y-144136915D01*
X211973264Y-144601530D01*
X211494683Y-144956321D01*
X210974268Y-145183494D01*
X210266614Y-145344213D01*
X209362425Y-145190140D01*
X208573214Y-144853402D01*
X208570668Y-144852867D01*
X208568501Y-144851428D01*
X207895603Y-144574789D01*
X207874681Y-144570685D01*
X207855739Y-144560896D01*
X206916151Y-144290074D01*
X206904958Y-144289128D01*
X206894696Y-144284551D01*
X206447017Y-144182924D01*
X206443317Y-144182825D01*
X206439912Y-144181382D01*
X205819006Y-144052678D01*
X205817009Y-144052662D01*
X205815161Y-144051901D01*
X205512028Y-143992273D01*
X205511420Y-143992274D01*
X205510858Y-143992045D01*
X204738511Y-143842595D01*
X204694804Y-143842823D01*
X204651659Y-143835802D01*
X203600108Y-143872660D01*
X203585496Y-143876103D01*
X203570538Y-143874836D01*
X202693791Y-143973328D01*
X202674335Y-143979522D01*
X202653919Y-143979936D01*
X202141738Y-144092654D01*
X202125139Y-144099927D01*
X202107129Y-144101974D01*
X201047285Y-144440899D01*
X201041530Y-144444087D01*
X201035018Y-144445049D01*
X200553740Y-144616954D01*
X200552822Y-144617503D01*
X200551768Y-144617665D01*
X199499968Y-144999803D01*
X198994662Y-145167312D01*
X198650533Y-145254192D01*
X198274932Y-145312739D01*
X197774548Y-145345570D01*
X197575826Y-145349463D01*
X197403261Y-145350200D01*
X197202454Y-145347246D01*
X197036639Y-145340907D01*
X196649211Y-145306808D01*
X196323929Y-145252278D01*
X195975323Y-145158062D01*
X194611877Y-144682569D01*
X194611875Y-144682568D01*
X193235111Y-144202330D01*
X193223802Y-144200745D01*
X193213639Y-144195536D01*
X192721263Y-144055407D01*
X192702841Y-144053913D01*
X192685673Y-144047078D01*
X192235609Y-143964000D01*
X193493106Y-143964000D01*
X193715445Y-143919774D01*
X193903935Y-143793829D01*
X194466829Y-143230935D01*
X194592774Y-143042445D01*
X194608356Y-142964110D01*
X194765791Y-143100127D01*
X195024126Y-143207119D01*
X195199000Y-143080954D01*
X195199000Y-142240000D01*
X195453000Y-142240000D01*
X195453000Y-143080954D01*
X195627874Y-143207119D01*
X195886209Y-143100127D01*
X196221323Y-142810604D01*
X196420132Y-142414877D01*
X196295135Y-142240000D01*
X195453000Y-142240000D01*
X195199000Y-142240000D01*
X195179000Y-142240000D01*
X195179000Y-141986000D01*
X195199000Y-141986000D01*
X195199000Y-141145046D01*
X195453000Y-141145046D01*
X195453000Y-141986000D01*
X196295135Y-141986000D01*
X196420132Y-141811123D01*
X196221323Y-141415396D01*
X195886209Y-141125873D01*
X195627874Y-141018881D01*
X195453000Y-141145046D01*
X195199000Y-141145046D01*
X195145774Y-141106646D01*
X195885670Y-140366750D01*
X196866000Y-140366750D01*
X196866000Y-140657310D01*
X196962673Y-140890699D01*
X197141302Y-141069327D01*
X197374691Y-141166000D01*
X197467250Y-141166000D01*
X197626000Y-141007250D01*
X197626000Y-140208000D01*
X197024750Y-140208000D01*
X196866000Y-140366750D01*
X195885670Y-140366750D01*
X196491210Y-139761210D01*
X196601331Y-139596403D01*
X196640000Y-139402000D01*
X196640000Y-139266464D01*
X196757000Y-139266464D01*
X196886588Y-139242080D01*
X196974160Y-139259814D01*
X196962673Y-139271301D01*
X196866000Y-139504690D01*
X196866000Y-139795250D01*
X197024750Y-139954000D01*
X197626000Y-139954000D01*
X197626000Y-139934000D01*
X197876000Y-139934000D01*
X197876000Y-139954000D01*
X197898000Y-139954000D01*
X197898000Y-140208000D01*
X197876000Y-140208000D01*
X197876000Y-141007250D01*
X198034750Y-141166000D01*
X198127309Y-141166000D01*
X198156846Y-141153766D01*
X199221290Y-142218211D01*
X199386097Y-142328331D01*
X199580500Y-142367000D01*
X207409533Y-142367000D01*
X207603936Y-142328331D01*
X207768743Y-142218210D01*
X209345285Y-140641668D01*
X209408673Y-140794699D01*
X209587302Y-140973327D01*
X209820691Y-141070000D01*
X210661250Y-141070000D01*
X210820000Y-140911250D01*
X210820000Y-139962000D01*
X211074000Y-139962000D01*
X211074000Y-140911250D01*
X211232750Y-141070000D01*
X212073309Y-141070000D01*
X212306698Y-140973327D01*
X212485327Y-140794699D01*
X212582000Y-140561310D01*
X212582000Y-140120750D01*
X212423250Y-139962000D01*
X211074000Y-139962000D01*
X210820000Y-139962000D01*
X210800000Y-139962000D01*
X210800000Y-139708000D01*
X210820000Y-139708000D01*
X210820000Y-138758750D01*
X211074000Y-138758750D01*
X211074000Y-139708000D01*
X212423250Y-139708000D01*
X212582000Y-139549250D01*
X212582000Y-139108690D01*
X212485327Y-138875301D01*
X212306698Y-138696673D01*
X212073309Y-138600000D01*
X211232750Y-138600000D01*
X211074000Y-138758750D01*
X210820000Y-138758750D01*
X210661250Y-138600000D01*
X209820691Y-138600000D01*
X209804000Y-138606914D01*
X209804000Y-138254506D01*
X209947000Y-138283464D01*
X211947000Y-138283464D01*
X212088190Y-138256897D01*
X212217865Y-138173454D01*
X212304859Y-138046134D01*
X212335464Y-137895000D01*
X212335464Y-137810977D01*
X212492829Y-137705829D01*
X212594574Y-137604084D01*
X212593908Y-143634346D01*
G36*
X200495011Y-139264036D02*
X200647301Y-139416327D01*
X200880690Y-139513000D01*
X200910750Y-139513000D01*
X201004998Y-139418752D01*
X201004998Y-139513000D01*
X201119566Y-139513000D01*
X201095000Y-139636500D01*
X201095000Y-139812070D01*
X200976583Y-139930281D01*
X200850643Y-140233577D01*
X200850357Y-140561982D01*
X200975767Y-140865498D01*
X201207781Y-141097917D01*
X201511077Y-141223857D01*
X201679846Y-141224004D01*
X201806842Y-141351000D01*
X199790921Y-141351000D01*
X199359384Y-140919464D01*
X199501000Y-140919464D01*
X199642190Y-140892897D01*
X199771865Y-140809454D01*
X199858859Y-140682134D01*
X199889464Y-140531000D01*
X199889464Y-140160957D01*
X199991210Y-140059211D01*
X200101331Y-139894404D01*
X200111131Y-139845134D01*
X200140000Y-139700000D01*
X200140000Y-139266464D01*
X200257000Y-139266464D01*
X200386588Y-139242080D01*
X200495011Y-139264036D01*
X200495011Y-139264036D01*
G37*
X200495011Y-139264036D02*
X200647301Y-139416327D01*
X200880690Y-139513000D01*
X200910750Y-139513000D01*
X201004998Y-139418752D01*
X201004998Y-139513000D01*
X201119566Y-139513000D01*
X201095000Y-139636500D01*
X201095000Y-139812070D01*
X200976583Y-139930281D01*
X200850643Y-140233577D01*
X200850357Y-140561982D01*
X200975767Y-140865498D01*
X201207781Y-141097917D01*
X201511077Y-141223857D01*
X201679846Y-141224004D01*
X201806842Y-141351000D01*
X199790921Y-141351000D01*
X199359384Y-140919464D01*
X199501000Y-140919464D01*
X199642190Y-140892897D01*
X199771865Y-140809454D01*
X199858859Y-140682134D01*
X199889464Y-140531000D01*
X199889464Y-140160957D01*
X199991210Y-140059211D01*
X200101331Y-139894404D01*
X200111131Y-139845134D01*
X200140000Y-139700000D01*
X200140000Y-139266464D01*
X200257000Y-139266464D01*
X200386588Y-139242080D01*
X200495011Y-139264036D01*
G36*
X207506000Y-139192000D02*
X207526000Y-139192000D01*
X207526000Y-139446000D01*
X207506000Y-139446000D01*
X207506000Y-139466000D01*
X207252000Y-139466000D01*
X207252000Y-139446000D01*
X207232000Y-139446000D01*
X207232000Y-139192000D01*
X207252000Y-139192000D01*
X207252000Y-139172000D01*
X207506000Y-139172000D01*
X207506000Y-139192000D01*
X207506000Y-139192000D01*
G37*
X207506000Y-139192000D02*
X207526000Y-139192000D01*
X207526000Y-139446000D01*
X207506000Y-139446000D01*
X207506000Y-139466000D01*
X207252000Y-139466000D01*
X207252000Y-139446000D01*
X207232000Y-139446000D01*
X207232000Y-139192000D01*
X207252000Y-139192000D01*
X207252000Y-139172000D01*
X207506000Y-139172000D01*
X207506000Y-139192000D01*
G36*
X193586000Y-138176000D02*
X193606000Y-138176000D01*
X193606000Y-138430000D01*
X193586000Y-138430000D01*
X193586000Y-138450000D01*
X193332000Y-138450000D01*
X193332000Y-138430000D01*
X193312000Y-138430000D01*
X193312000Y-138176000D01*
X193332000Y-138176000D01*
X193332000Y-138156000D01*
X193586000Y-138156000D01*
X193586000Y-138176000D01*
X193586000Y-138176000D01*
G37*
X193586000Y-138176000D02*
X193606000Y-138176000D01*
X193606000Y-138430000D01*
X193586000Y-138430000D01*
X193586000Y-138450000D01*
X193332000Y-138450000D01*
X193332000Y-138430000D01*
X193312000Y-138430000D01*
X193312000Y-138176000D01*
X193332000Y-138176000D01*
X193332000Y-138156000D01*
X193586000Y-138156000D01*
X193586000Y-138176000D01*
G36*
X204089000Y-136664000D02*
X204109000Y-136664000D01*
X204109000Y-136918000D01*
X204089000Y-136918000D01*
X204089000Y-136938000D01*
X203835000Y-136938000D01*
X203835000Y-136918000D01*
X203815000Y-136918000D01*
X203815000Y-136664000D01*
X203835000Y-136664000D01*
X203835000Y-136644000D01*
X204089000Y-136644000D01*
X204089000Y-136664000D01*
X204089000Y-136664000D01*
G37*
X204089000Y-136664000D02*
X204109000Y-136664000D01*
X204109000Y-136918000D01*
X204089000Y-136918000D01*
X204089000Y-136938000D01*
X203835000Y-136938000D01*
X203835000Y-136918000D01*
X203815000Y-136918000D01*
X203815000Y-136664000D01*
X203835000Y-136664000D01*
X203835000Y-136644000D01*
X204089000Y-136644000D01*
X204089000Y-136664000D01*
G36*
X203435866Y-134095859D02*
X203587000Y-134126464D01*
X204045860Y-134126464D01*
X203962143Y-134328077D01*
X203961857Y-134656482D01*
X204050081Y-134870000D01*
X203163026Y-134870000D01*
X203170327Y-134862699D01*
X203267000Y-134629310D01*
X203267000Y-134599250D01*
X203108250Y-134440500D01*
X202849519Y-134440500D01*
X202783134Y-134395141D01*
X202700928Y-134378494D01*
X202773190Y-134364897D01*
X202782354Y-134359000D01*
X202832000Y-134359000D01*
X203016071Y-134322386D01*
X203026377Y-134315500D01*
X203108250Y-134315500D01*
X203267000Y-134156750D01*
X203267000Y-134126690D01*
X203265988Y-134124248D01*
X203351810Y-134038426D01*
X203435866Y-134095859D01*
X203435866Y-134095859D01*
G37*
X203435866Y-134095859D02*
X203587000Y-134126464D01*
X204045860Y-134126464D01*
X203962143Y-134328077D01*
X203961857Y-134656482D01*
X204050081Y-134870000D01*
X203163026Y-134870000D01*
X203170327Y-134862699D01*
X203267000Y-134629310D01*
X203267000Y-134599250D01*
X203108250Y-134440500D01*
X202849519Y-134440500D01*
X202783134Y-134395141D01*
X202700928Y-134378494D01*
X202773190Y-134364897D01*
X202782354Y-134359000D01*
X202832000Y-134359000D01*
X203016071Y-134322386D01*
X203026377Y-134315500D01*
X203108250Y-134315500D01*
X203267000Y-134156750D01*
X203267000Y-134126690D01*
X203265988Y-134124248D01*
X203351810Y-134038426D01*
X203435866Y-134095859D01*
G36*
X204089000Y-131711000D02*
X204109000Y-131711000D01*
X204109000Y-131965000D01*
X204089000Y-131965000D01*
X204089000Y-131985000D01*
X203835000Y-131985000D01*
X203835000Y-131965000D01*
X203815000Y-131965000D01*
X203815000Y-131711000D01*
X203835000Y-131711000D01*
X203835000Y-131691000D01*
X204089000Y-131691000D01*
X204089000Y-131711000D01*
X204089000Y-131711000D01*
G37*
X204089000Y-131711000D02*
X204109000Y-131711000D01*
X204109000Y-131965000D01*
X204089000Y-131965000D01*
X204089000Y-131985000D01*
X203835000Y-131985000D01*
X203835000Y-131965000D01*
X203815000Y-131965000D01*
X203815000Y-131711000D01*
X203835000Y-131711000D01*
X203835000Y-131691000D01*
X204089000Y-131691000D01*
X204089000Y-131711000D01*
G36*
X195591998Y-130244000D02*
X195682462Y-130244000D01*
X195651000Y-130402168D01*
X195651000Y-131224145D01*
X195649141Y-131226866D01*
X195618536Y-131378000D01*
X195618536Y-131864536D01*
X195257534Y-131864536D01*
X195242865Y-131790790D01*
X195223830Y-131695095D01*
X195113709Y-131530289D01*
X195050212Y-131466792D01*
X195050210Y-131466789D01*
X195008407Y-131424987D01*
X195008643Y-131154518D01*
X194883233Y-130851002D01*
X194701353Y-130668805D01*
X195189579Y-130180579D01*
X195342691Y-130244000D01*
X195435250Y-130244000D01*
X195591998Y-130087252D01*
X195591998Y-130244000D01*
X195591998Y-130244000D01*
G37*
X195591998Y-130244000D02*
X195682462Y-130244000D01*
X195651000Y-130402168D01*
X195651000Y-131224145D01*
X195649141Y-131226866D01*
X195618536Y-131378000D01*
X195618536Y-131864536D01*
X195257534Y-131864536D01*
X195242865Y-131790790D01*
X195223830Y-131695095D01*
X195113709Y-131530289D01*
X195050212Y-131466792D01*
X195050210Y-131466789D01*
X195008407Y-131424987D01*
X195008643Y-131154518D01*
X194883233Y-130851002D01*
X194701353Y-130668805D01*
X195189579Y-130180579D01*
X195342691Y-130244000D01*
X195435250Y-130244000D01*
X195591998Y-130087252D01*
X195591998Y-130244000D01*
G36*
X196817866Y-129966859D02*
X196950246Y-129993666D01*
X197624000Y-130667420D01*
X197624000Y-130989536D01*
X197507000Y-130989536D01*
X197377412Y-131013920D01*
X197268989Y-130991964D01*
X197116699Y-130839673D01*
X196883310Y-130743000D01*
X196853250Y-130743000D01*
X196694500Y-130901750D01*
X196694500Y-131160481D01*
X196649141Y-131226866D01*
X196632494Y-131309072D01*
X196618897Y-131236810D01*
X196613000Y-131227646D01*
X196613000Y-130601404D01*
X196659118Y-130555286D01*
X196695301Y-130501135D01*
X196763386Y-130399239D01*
X196800000Y-130215168D01*
X196800000Y-129954652D01*
X196817866Y-129966859D01*
X196817866Y-129966859D01*
G37*
X196817866Y-129966859D02*
X196950246Y-129993666D01*
X197624000Y-130667420D01*
X197624000Y-130989536D01*
X197507000Y-130989536D01*
X197377412Y-131013920D01*
X197268989Y-130991964D01*
X197116699Y-130839673D01*
X196883310Y-130743000D01*
X196853250Y-130743000D01*
X196694500Y-130901750D01*
X196694500Y-131160481D01*
X196649141Y-131226866D01*
X196632494Y-131309072D01*
X196618897Y-131236810D01*
X196613000Y-131227646D01*
X196613000Y-130601404D01*
X196659118Y-130555286D01*
X196695301Y-130501135D01*
X196763386Y-130399239D01*
X196800000Y-130215168D01*
X196800000Y-129954652D01*
X196817866Y-129966859D01*
G36*
X207506000Y-130556000D02*
X207526000Y-130556000D01*
X207526000Y-130810000D01*
X207506000Y-130810000D01*
X207506000Y-130830000D01*
X207252000Y-130830000D01*
X207252000Y-130810000D01*
X207232000Y-130810000D01*
X207232000Y-130556000D01*
X207252000Y-130556000D01*
X207252000Y-130536000D01*
X207506000Y-130536000D01*
X207506000Y-130556000D01*
X207506000Y-130556000D01*
G37*
X207506000Y-130556000D02*
X207526000Y-130556000D01*
X207526000Y-130810000D01*
X207506000Y-130810000D01*
X207506000Y-130830000D01*
X207252000Y-130830000D01*
X207252000Y-130810000D01*
X207232000Y-130810000D01*
X207232000Y-130556000D01*
X207252000Y-130556000D01*
X207252000Y-130536000D01*
X207506000Y-130536000D01*
X207506000Y-130556000D01*
G36*
X206440673Y-129948301D02*
X206437754Y-129955348D01*
X206430134Y-129950141D01*
X206279000Y-129919536D01*
X205479000Y-129919536D01*
X205337810Y-129946103D01*
X205208135Y-130029546D01*
X205201907Y-130038660D01*
X205170233Y-129962002D01*
X205002524Y-129794000D01*
X206594975Y-129794000D01*
X206440673Y-129948301D01*
X206440673Y-129948301D01*
G37*
X206440673Y-129948301D02*
X206437754Y-129955348D01*
X206430134Y-129950141D01*
X206279000Y-129919536D01*
X205479000Y-129919536D01*
X205337810Y-129946103D01*
X205208135Y-130029546D01*
X205201907Y-130038660D01*
X205170233Y-129962002D01*
X205002524Y-129794000D01*
X206594975Y-129794000D01*
X206440673Y-129948301D01*
G36*
X195838000Y-129306000D02*
X195594000Y-129306000D01*
X195594000Y-129286000D01*
X195572000Y-129286000D01*
X195572000Y-129032000D01*
X195594000Y-129032000D01*
X195594000Y-129012000D01*
X195838000Y-129012000D01*
X195838000Y-129306000D01*
X195838000Y-129306000D01*
G37*
X195838000Y-129306000D02*
X195594000Y-129306000D01*
X195594000Y-129286000D01*
X195572000Y-129286000D01*
X195572000Y-129032000D01*
X195594000Y-129032000D01*
X195594000Y-129012000D01*
X195838000Y-129012000D01*
X195838000Y-129306000D01*
G36*
X211953500Y-126796158D02*
X211953500Y-128687852D01*
X211947000Y-128686536D01*
X209947000Y-128686536D01*
X209805810Y-128713103D01*
X209676135Y-128796546D01*
X209618020Y-128881600D01*
X209028210Y-128291790D01*
X208863403Y-128181669D01*
X208669000Y-128143000D01*
X199033302Y-128143000D01*
X198842219Y-127951583D01*
X198538923Y-127825643D01*
X198254000Y-127825395D01*
X198254000Y-127666750D01*
X198095250Y-127508000D01*
X197346000Y-127508000D01*
X197346000Y-127528000D01*
X197092000Y-127528000D01*
X197092000Y-127508000D01*
X197072000Y-127508000D01*
X197072000Y-127254000D01*
X197092000Y-127254000D01*
X197092000Y-127234000D01*
X197346000Y-127234000D01*
X197346000Y-127254000D01*
X198095250Y-127254000D01*
X198254000Y-127095250D01*
X198254000Y-126879690D01*
X198202559Y-126755500D01*
X211912842Y-126755500D01*
X211953500Y-126796158D01*
X211953500Y-126796158D01*
G37*
X211953500Y-126796158D02*
X211953500Y-128687852D01*
X211947000Y-128686536D01*
X209947000Y-128686536D01*
X209805810Y-128713103D01*
X209676135Y-128796546D01*
X209618020Y-128881600D01*
X209028210Y-128291790D01*
X208863403Y-128181669D01*
X208669000Y-128143000D01*
X199033302Y-128143000D01*
X198842219Y-127951583D01*
X198538923Y-127825643D01*
X198254000Y-127825395D01*
X198254000Y-127666750D01*
X198095250Y-127508000D01*
X197346000Y-127508000D01*
X197346000Y-127528000D01*
X197092000Y-127528000D01*
X197092000Y-127508000D01*
X197072000Y-127508000D01*
X197072000Y-127254000D01*
X197092000Y-127254000D01*
X197092000Y-127234000D01*
X197346000Y-127234000D01*
X197346000Y-127254000D01*
X198095250Y-127254000D01*
X198254000Y-127095250D01*
X198254000Y-126879690D01*
X198202559Y-126755500D01*
X211912842Y-126755500D01*
X211953500Y-126796158D01*
G36*
X191686000Y-128143000D02*
X191706000Y-128143000D01*
X191706000Y-128397000D01*
X191686000Y-128397000D01*
X191686000Y-128417000D01*
X191432000Y-128417000D01*
X191432000Y-128397000D01*
X191412000Y-128397000D01*
X191412000Y-128143000D01*
X191432000Y-128143000D01*
X191432000Y-128123000D01*
X191686000Y-128123000D01*
X191686000Y-128143000D01*
X191686000Y-128143000D01*
G37*
X191686000Y-128143000D02*
X191706000Y-128143000D01*
X191706000Y-128397000D01*
X191686000Y-128397000D01*
X191686000Y-128417000D01*
X191432000Y-128417000D01*
X191432000Y-128397000D01*
X191412000Y-128397000D01*
X191412000Y-128143000D01*
X191432000Y-128143000D01*
X191432000Y-128123000D01*
X191686000Y-128123000D01*
X191686000Y-128143000D01*
M02*
