M48
;DRILL file {KiCad 4.0.2-stable} date 6/30/2017 10:51:38 AM
;FORMAT={-:-/ absolute / metric / decimal}
FMAT,2
METRIC,TZ
T1C0.635
T2C0.650
T3C0.920
T4C0.920
T5C1.000
T6C1.100
%
G90
G05
M71
T1
X186.69Y-132.588
X187.833Y-130.429
X187.9Y-139.7
X188.087Y-128.841
X188.595Y-133.985
X188.595Y-136.398
X188.976Y-138.684
X190.373Y-132.207
X190.738Y-129.222
X190.754Y-136.525
X191.579Y-137.258
X192.884Y-138.303
X192.945Y-136.253
X193.802Y-132.588
X194.183Y-131.318
X194.5Y-139.573
X195.326Y-130.429
X196.913Y-140.081
X196.951Y-130.717
X198.374Y-128.651
X199.654Y-130.268
X199.962Y-127.381
X200.85Y-139.51
X201.422Y-130.556
X201.676Y-140.398
X203.257Y-136.779
X203.454Y-134.366
X204.47Y-130.429
X204.787Y-134.493
X206.375Y-135.576
X206.889Y-139.828
X208.216Y-130.874
X208.28Y-134.747
X210.629Y-142.875
T2
X191.516Y-142.113
X192.786Y-142.113
X194.056Y-142.113
X195.326Y-142.113
X197.612Y-133.985
X197.612Y-135.128
X197.612Y-136.398
X198.882Y-133.985
X198.882Y-135.128
X198.882Y-136.398
X200.152Y-133.985
X200.152Y-135.128
X200.152Y-136.398
T3
X185.65Y-131.375
X185.65Y-133.875
X185.65Y-135.875
X185.65Y-138.375
T4
X183.55Y-137.125
T6
X183.55Y-132.625
T5
X184.3Y-129.175G85X182.8Y-129.175
G05
X184.3Y-140.575G85X182.8Y-140.575
G05
T0
M30
