M48
;DRILL file {KiCad 4.0.2-stable} date 6/19/2017 9:33:47 AM
;FORMAT={-:-/ absolute / metric / decimal}
FMAT,2
METRIC,TZ
T1C0.635
T2C0.650
T3C0.920
T4C0.920
T5C1.000
T6C1.100
%
G90
G05
M71
T1
X186.69Y-132.588
X187.325Y-138.557
X187.833Y-130.429
X188.087Y-128.841
X188.595Y-136.398
X188.976Y-138.684
X190.436Y-131.572
X190.436Y-131.572
X190.738Y-129.222
X190.754Y-136.525
X191.008Y-133.985
X191.579Y-137.258
X192.884Y-138.303
X192.945Y-136.253
X193.802Y-132.588
X194.31Y-131.381
X194.5Y-139.573
X195.326Y-130.429
X196.913Y-140.081
X196.951Y-130.717
X198.374Y-128.651
X199.654Y-130.268
X199.962Y-127.381
X200.85Y-139.51
X201.676Y-140.398
X202.248Y-130.556
X203.257Y-136.779
X203.454Y-134.366
X204.464Y-130.827
X204.787Y-134.493
X206.375Y-135.576
X206.889Y-139.828
X208.216Y-130.874
X208.28Y-134.747
X209.931Y-142.43
T2
X191.516Y-142.113
X192.786Y-142.113
X194.056Y-142.113
X195.326Y-142.113
T3
X185.166Y-131.374
X185.166Y-133.874
X185.166Y-135.874
X185.166Y-138.374
T4
X183.066Y-137.124
T6
X183.066Y-132.624
T5
X183.816Y-129.174G85X182.316Y-129.174
G05
X183.816Y-140.574G85X182.316Y-140.574
G05
T0
M30
