G04 #@! TF.FileFunction,Soldermask,Top*
%FSLAX46Y46*%
G04 Gerber Fmt 4.6, Leading zero omitted, Abs format (unit mm)*
G04 Created by KiCad (PCBNEW 4.0.2-stable) date 6/19/2017 9:33:45 AM*
%MOMM*%
G01*
G04 APERTURE LIST*
%ADD10C,0.150000*%
%ADD11R,0.750000X0.800000*%
%ADD12R,0.800000X0.750000*%
%ADD13R,0.800000X0.800000*%
%ADD14R,1.050000X1.600000*%
%ADD15R,1.000000X1.000000*%
%ADD16O,1.000000X1.000000*%
%ADD17R,2.000000X1.200000*%
%ADD18R,0.500000X0.900000*%
%ADD19R,1.060000X0.650000*%
%ADD20R,0.700000X0.250000*%
%ADD21R,0.250000X0.700000*%
%ADD22R,1.287500X1.287500*%
%ADD23R,2.600000X1.900000*%
%ADD24C,1.524000*%
%ADD25O,3.000000X1.500000*%
G04 APERTURE END LIST*
D10*
D11*
X189738000Y-127393000D03*
X189738000Y-128893000D03*
D12*
X195719000Y-127381000D03*
X197219000Y-127381000D03*
X205879000Y-139319000D03*
X207379000Y-139319000D03*
X205879000Y-130683000D03*
X207379000Y-130683000D03*
D11*
X203962000Y-131838000D03*
X203962000Y-133338000D03*
X203962000Y-136791000D03*
X203962000Y-138291000D03*
D13*
X191859000Y-138303000D03*
X193459000Y-138303000D03*
X193586000Y-135255000D03*
X191986000Y-135255000D03*
D14*
X189198000Y-131572000D03*
X191548000Y-131572000D03*
D15*
X191516000Y-142113000D03*
D16*
X192786000Y-142113000D03*
X194056000Y-142113000D03*
X195326000Y-142113000D03*
D17*
X210947000Y-129675000D03*
X210947000Y-132215000D03*
X210947000Y-134755000D03*
X210947000Y-137295000D03*
X210947000Y-139835000D03*
D18*
X193536000Y-133604000D03*
X192036000Y-133604000D03*
X192036000Y-139827000D03*
X193536000Y-139827000D03*
X199251000Y-140081000D03*
X197751000Y-140081000D03*
X197219000Y-129159000D03*
X195719000Y-129159000D03*
X190615000Y-137541000D03*
X189115000Y-137541000D03*
X190615000Y-135255000D03*
X189115000Y-135255000D03*
X190615000Y-139827000D03*
X189115000Y-139827000D03*
D19*
X191559000Y-127320000D03*
X191559000Y-128270000D03*
X191559000Y-129220000D03*
X193759000Y-129220000D03*
X193759000Y-127320000D03*
D20*
X202282000Y-137878000D03*
X202282000Y-137378000D03*
X202282000Y-136878000D03*
X202282000Y-136378000D03*
X202282000Y-135878000D03*
X202282000Y-135378000D03*
X202282000Y-134878000D03*
X202282000Y-134378000D03*
X202282000Y-133878000D03*
X202282000Y-133378000D03*
X202282000Y-132878000D03*
X202282000Y-132378000D03*
D21*
X201632000Y-131728000D03*
X201132000Y-131728000D03*
X200632000Y-131728000D03*
X200132000Y-131728000D03*
X199632000Y-131728000D03*
X199132000Y-131728000D03*
X198632000Y-131728000D03*
X198132000Y-131728000D03*
X197632000Y-131728000D03*
X197132000Y-131728000D03*
X196632000Y-131728000D03*
X196132000Y-131728000D03*
D20*
X195482000Y-132378000D03*
X195482000Y-132878000D03*
X195482000Y-133378000D03*
X195482000Y-133878000D03*
X195482000Y-134378000D03*
X195482000Y-134878000D03*
X195482000Y-135378000D03*
X195482000Y-135878000D03*
X195482000Y-136378000D03*
X195482000Y-136878000D03*
X195482000Y-137378000D03*
X195482000Y-137878000D03*
D21*
X196132000Y-138528000D03*
X196632000Y-138528000D03*
X197132000Y-138528000D03*
X197632000Y-138528000D03*
X198132000Y-138528000D03*
X198632000Y-138528000D03*
X199132000Y-138528000D03*
X199632000Y-138528000D03*
X200132000Y-138528000D03*
X200632000Y-138528000D03*
X201132000Y-138528000D03*
X201632000Y-138528000D03*
D22*
X196950750Y-133196750D03*
X196950750Y-134484250D03*
X196950750Y-135771750D03*
X196950750Y-137059250D03*
X198238250Y-133196750D03*
X198238250Y-134484250D03*
X198238250Y-135771750D03*
X198238250Y-137059250D03*
X199525750Y-133196750D03*
X199525750Y-134484250D03*
X199525750Y-135771750D03*
X199525750Y-137059250D03*
X200813250Y-133196750D03*
X200813250Y-134484250D03*
X200813250Y-135771750D03*
X200813250Y-137059250D03*
D23*
X206629000Y-132851000D03*
X206629000Y-137151000D03*
D24*
X185166000Y-133874000D03*
X185166000Y-135874000D03*
X185166000Y-131374000D03*
X185166000Y-138374000D03*
X183066000Y-132624000D03*
X183066000Y-137124000D03*
D25*
X183066000Y-129174000D03*
X183066000Y-140574000D03*
M02*
