G04 #@! TF.FileFunction,Copper,L1,Top,Signal*
%FSLAX46Y46*%
G04 Gerber Fmt 4.6, Leading zero omitted, Abs format (unit mm)*
G04 Created by KiCad (PCBNEW 4.0.2-stable) date 6/19/2017 9:33:45 AM*
%MOMM*%
G01*
G04 APERTURE LIST*
%ADD10C,0.150000*%
%ADD11R,0.750000X0.800000*%
%ADD12R,0.800000X0.750000*%
%ADD13R,0.800000X0.800000*%
%ADD14R,1.050000X1.600000*%
%ADD15R,1.000000X1.000000*%
%ADD16O,1.000000X1.000000*%
%ADD17R,2.000000X1.200000*%
%ADD18R,0.500000X0.900000*%
%ADD19R,1.060000X0.650000*%
%ADD20R,0.700000X0.250000*%
%ADD21R,0.250000X0.700000*%
%ADD22R,1.287500X1.287500*%
%ADD23R,2.600000X1.900000*%
%ADD24C,1.524000*%
%ADD25O,3.000000X1.500000*%
%ADD26C,0.889000*%
%ADD27C,0.400000*%
%ADD28C,0.200000*%
%ADD29C,0.254000*%
G04 APERTURE END LIST*
D10*
D11*
X189738000Y-127393000D03*
X189738000Y-128893000D03*
D12*
X195719000Y-127381000D03*
X197219000Y-127381000D03*
X205879000Y-139319000D03*
X207379000Y-139319000D03*
X205879000Y-130683000D03*
X207379000Y-130683000D03*
D11*
X203962000Y-131838000D03*
X203962000Y-133338000D03*
X203962000Y-136791000D03*
X203962000Y-138291000D03*
D13*
X191859000Y-138303000D03*
X193459000Y-138303000D03*
X193586000Y-135255000D03*
X191986000Y-135255000D03*
D14*
X189198000Y-131572000D03*
X191548000Y-131572000D03*
D15*
X191516000Y-142113000D03*
D16*
X192786000Y-142113000D03*
X194056000Y-142113000D03*
X195326000Y-142113000D03*
D17*
X210947000Y-129675000D03*
X210947000Y-132215000D03*
X210947000Y-134755000D03*
X210947000Y-137295000D03*
X210947000Y-139835000D03*
D18*
X193536000Y-133604000D03*
X192036000Y-133604000D03*
X192036000Y-139827000D03*
X193536000Y-139827000D03*
X199251000Y-140081000D03*
X197751000Y-140081000D03*
X197219000Y-129159000D03*
X195719000Y-129159000D03*
X190615000Y-137541000D03*
X189115000Y-137541000D03*
X190615000Y-135255000D03*
X189115000Y-135255000D03*
X190615000Y-139827000D03*
X189115000Y-139827000D03*
D19*
X191559000Y-127320000D03*
X191559000Y-128270000D03*
X191559000Y-129220000D03*
X193759000Y-129220000D03*
X193759000Y-127320000D03*
D20*
X202282000Y-137878000D03*
X202282000Y-137378000D03*
X202282000Y-136878000D03*
X202282000Y-136378000D03*
X202282000Y-135878000D03*
X202282000Y-135378000D03*
X202282000Y-134878000D03*
X202282000Y-134378000D03*
X202282000Y-133878000D03*
X202282000Y-133378000D03*
X202282000Y-132878000D03*
X202282000Y-132378000D03*
D21*
X201632000Y-131728000D03*
X201132000Y-131728000D03*
X200632000Y-131728000D03*
X200132000Y-131728000D03*
X199632000Y-131728000D03*
X199132000Y-131728000D03*
X198632000Y-131728000D03*
X198132000Y-131728000D03*
X197632000Y-131728000D03*
X197132000Y-131728000D03*
X196632000Y-131728000D03*
X196132000Y-131728000D03*
D20*
X195482000Y-132378000D03*
X195482000Y-132878000D03*
X195482000Y-133378000D03*
X195482000Y-133878000D03*
X195482000Y-134378000D03*
X195482000Y-134878000D03*
X195482000Y-135378000D03*
X195482000Y-135878000D03*
X195482000Y-136378000D03*
X195482000Y-136878000D03*
X195482000Y-137378000D03*
X195482000Y-137878000D03*
D21*
X196132000Y-138528000D03*
X196632000Y-138528000D03*
X197132000Y-138528000D03*
X197632000Y-138528000D03*
X198132000Y-138528000D03*
X198632000Y-138528000D03*
X199132000Y-138528000D03*
X199632000Y-138528000D03*
X200132000Y-138528000D03*
X200632000Y-138528000D03*
X201132000Y-138528000D03*
X201632000Y-138528000D03*
D22*
X196950750Y-133196750D03*
X196950750Y-134484250D03*
X196950750Y-135771750D03*
X196950750Y-137059250D03*
X198238250Y-133196750D03*
X198238250Y-134484250D03*
X198238250Y-135771750D03*
X198238250Y-137059250D03*
X199525750Y-133196750D03*
X199525750Y-134484250D03*
X199525750Y-135771750D03*
X199525750Y-137059250D03*
X200813250Y-133196750D03*
X200813250Y-134484250D03*
X200813250Y-135771750D03*
X200813250Y-137059250D03*
D23*
X206629000Y-132851000D03*
X206629000Y-137151000D03*
D24*
X185166000Y-133874000D03*
X185166000Y-135874000D03*
X185166000Y-131374000D03*
X185166000Y-138374000D03*
X183066000Y-132624000D03*
X183066000Y-137124000D03*
D25*
X183066000Y-129174000D03*
X183066000Y-140574000D03*
D26*
X190737502Y-129222500D03*
X190436500Y-131572000D03*
X190436500Y-131572000D03*
X196950980Y-130717380D03*
X199961500Y-127381000D03*
X208216500Y-130873500D03*
X195326000Y-130429000D03*
X209931000Y-142430500D03*
X188087000Y-128841500D03*
X206888966Y-139827980D03*
X203454000Y-134366000D03*
X200850500Y-139509500D03*
X203256502Y-136779000D03*
X192883502Y-138303000D03*
X196913500Y-140081000D03*
X187325000Y-138557000D03*
X187833000Y-130429000D03*
X206375000Y-135576498D03*
X204787500Y-134493000D03*
X201676000Y-140398500D03*
X194500500Y-139573000D03*
X186690000Y-132588000D03*
X191579500Y-137258498D03*
X204464435Y-130826628D03*
X202247500Y-130556000D03*
X208280000Y-134747000D03*
X199654141Y-130267684D03*
X188595000Y-136398000D03*
X188976000Y-138684000D03*
X198374000Y-128651000D03*
X194310000Y-131381500D03*
X193802000Y-132588000D03*
X191008000Y-133985000D03*
X192944945Y-136252736D03*
X190754000Y-136525000D03*
D27*
X210947000Y-137295000D02*
X212082000Y-137295000D01*
X212534500Y-126555500D02*
X212534500Y-136842500D01*
X212153500Y-126174500D02*
X212534500Y-126555500D01*
X191979500Y-126174500D02*
X212153500Y-126174500D01*
X191559000Y-126595000D02*
X191979500Y-126174500D01*
X191559000Y-126595000D02*
X191559000Y-127320000D01*
X212082000Y-137295000D02*
X212534500Y-136842500D01*
X191559000Y-129220000D02*
X190740002Y-129220000D01*
X190740002Y-129220000D02*
X190737502Y-129222500D01*
X191548000Y-131572000D02*
X190436500Y-131572000D01*
X191559000Y-127320000D02*
X192344000Y-127320000D01*
X192471000Y-129220000D02*
X191559000Y-129220000D01*
X192659000Y-129032000D02*
X192471000Y-129220000D01*
X192659000Y-127635000D02*
X192659000Y-129032000D01*
X192344000Y-127320000D02*
X192659000Y-127635000D01*
X189738000Y-127393000D02*
X191486000Y-127393000D01*
X191486000Y-127393000D02*
X191559000Y-127320000D01*
X197219000Y-127381000D02*
X199961500Y-127381000D01*
D28*
X196632000Y-131036360D02*
X196632000Y-131728000D01*
X196632000Y-131036360D02*
X196950980Y-130717380D01*
D27*
X207379000Y-130683000D02*
X208026000Y-130683000D01*
X208026000Y-130683000D02*
X208216500Y-130873500D01*
D28*
X195719000Y-129159000D02*
X195719000Y-130036000D01*
X195719000Y-130036000D02*
X195326000Y-130429000D01*
D27*
X189738000Y-128893000D02*
X188138500Y-128893000D01*
X188138500Y-128893000D02*
X188087000Y-128841500D01*
X189738000Y-128460500D02*
X189928500Y-128270000D01*
X189928500Y-128270000D02*
X190500000Y-128270000D01*
X189738000Y-128893000D02*
X189738000Y-128460500D01*
D28*
X207379000Y-130683000D02*
X207593850Y-130683000D01*
D27*
X207333465Y-139383481D02*
X206888966Y-139827980D01*
X207379000Y-139337946D02*
X207333465Y-139383481D01*
X207379000Y-139319000D02*
X207379000Y-139337946D01*
D28*
X205198999Y-131224001D02*
X204585000Y-131838000D01*
X204585000Y-131838000D02*
X203962000Y-131838000D01*
X205422500Y-129857500D02*
X205198999Y-130081001D01*
X205198999Y-130081001D02*
X205198999Y-131224001D01*
X207128500Y-129857500D02*
X205422500Y-129857500D01*
X207379000Y-130108000D02*
X207128500Y-129857500D01*
X207379000Y-130683000D02*
X207379000Y-130108000D01*
X197219000Y-127381000D02*
X197358000Y-127381000D01*
X203962000Y-131863000D02*
X203962000Y-131838000D01*
X202282000Y-134378000D02*
X203442000Y-134378000D01*
X203442000Y-134378000D02*
X203454000Y-134366000D01*
X201132000Y-138528000D02*
X201132000Y-139228000D01*
X201132000Y-139228000D02*
X200850500Y-139509500D01*
D27*
X203962000Y-136791000D02*
X203268502Y-136791000D01*
X203268502Y-136791000D02*
X203256502Y-136779000D01*
X193459000Y-138303000D02*
X192883502Y-138303000D01*
X197751000Y-140081000D02*
X196913500Y-140081000D01*
D28*
X194932000Y-137378000D02*
X195482000Y-137378000D01*
X194796300Y-137378000D02*
X194932000Y-137378000D01*
X193871300Y-138303000D02*
X194796300Y-137378000D01*
X193459000Y-138303000D02*
X193871300Y-138303000D01*
D27*
X190500000Y-128270000D02*
X191559000Y-128270000D01*
X189801500Y-130365500D02*
X188087000Y-130365500D01*
X189992000Y-141287500D02*
X189992000Y-141300000D01*
X189992000Y-141287500D02*
X189484000Y-140779500D01*
X189484000Y-140779500D02*
X188468000Y-140779500D01*
X188468000Y-140779500D02*
X188404500Y-140779500D01*
X187325000Y-139700000D02*
X188404500Y-140779500D01*
X187325000Y-138557000D02*
X187325000Y-139700000D01*
X187896500Y-130365500D02*
X188087000Y-130365500D01*
X187833000Y-130429000D02*
X187896500Y-130365500D01*
X210947000Y-134755000D02*
X210145000Y-134755000D01*
X210145000Y-134755000D02*
X209188011Y-135711989D01*
X206212936Y-143772606D02*
X209188011Y-140797531D01*
X195008500Y-143772606D02*
X206212936Y-143772606D01*
X209188011Y-140797531D02*
X209188011Y-137541000D01*
X194056000Y-142820106D02*
X195008500Y-143772606D01*
X209188011Y-137541000D02*
X209188011Y-137036610D01*
X209188011Y-135711989D02*
X209188011Y-137036610D01*
D28*
X203962000Y-133338000D02*
X204537000Y-133338000D01*
X204787500Y-133588500D02*
X204787500Y-134493000D01*
D27*
X206375000Y-135576498D02*
X207391000Y-135576498D01*
D28*
X204537000Y-133338000D02*
X204787500Y-133588500D01*
X201632000Y-138528000D02*
X201632000Y-138830500D01*
X201632000Y-138830500D02*
X202057000Y-139255500D01*
D27*
X202057000Y-139255500D02*
X202565000Y-139255500D01*
X201676000Y-139636500D02*
X202057000Y-139255500D01*
X201676000Y-140398500D02*
X201676000Y-139636500D01*
D28*
X208216500Y-136088496D02*
X208216500Y-135826500D01*
X208216500Y-135826500D02*
X207962500Y-135572500D01*
X207962500Y-135572500D02*
X207391000Y-135572500D01*
X207391000Y-135572500D02*
X207391000Y-135576498D01*
X203962000Y-138291000D02*
X204394500Y-138291000D01*
X208216500Y-140271500D02*
X208216500Y-136088496D01*
X207708500Y-140779500D02*
X208216500Y-140271500D01*
X205232000Y-140779500D02*
X207708500Y-140779500D01*
X204787500Y-140335000D02*
X205232000Y-140779500D01*
X204787500Y-138684000D02*
X204787500Y-140335000D01*
X204394500Y-138291000D02*
X204787500Y-138684000D01*
D27*
X193759000Y-127320000D02*
X193759000Y-127401500D01*
X193759000Y-127401500D02*
X194881500Y-128524000D01*
X193357500Y-130302000D02*
X192786000Y-130873500D01*
X194246500Y-130302000D02*
X193357500Y-130302000D01*
X194881500Y-129667000D02*
X194246500Y-130302000D01*
X194881500Y-128524000D02*
X194881500Y-129667000D01*
X189801500Y-130365500D02*
X192341500Y-130365500D01*
X192341500Y-130365500D02*
X192786000Y-130810000D01*
X192786000Y-130810000D02*
X192786000Y-130873500D01*
X192786000Y-134455000D02*
X192786000Y-131732002D01*
X192786000Y-134455000D02*
X193586000Y-135255000D01*
X192786000Y-130873500D02*
X192786000Y-131732002D01*
X207391000Y-135576498D02*
X207260002Y-135576498D01*
X210685000Y-134493000D02*
X210947000Y-134755000D01*
X203708000Y-139255500D02*
X202565000Y-139255500D01*
X203962000Y-139001500D02*
X203962000Y-138291000D01*
X203708000Y-139255500D02*
X203962000Y-139001500D01*
X189992000Y-141300000D02*
X189992000Y-142621000D01*
X189992000Y-142621000D02*
X190754000Y-143383000D01*
X193493106Y-143383000D02*
X194056000Y-142820106D01*
X190754000Y-143383000D02*
X193493106Y-143383000D01*
D28*
X196132000Y-131728000D02*
X196132000Y-130402168D01*
X196319000Y-127956000D02*
X195744000Y-127381000D01*
X196132000Y-130402168D02*
X196319000Y-130215168D01*
X195744000Y-127381000D02*
X195719000Y-127381000D01*
X196319000Y-130215168D02*
X196319000Y-127956000D01*
X202282000Y-133878000D02*
X202832000Y-133878000D01*
X202832000Y-133878000D02*
X203372000Y-133338000D01*
X203372000Y-133338000D02*
X203387000Y-133338000D01*
X203387000Y-133338000D02*
X203962000Y-133338000D01*
X202282000Y-137878000D02*
X203549000Y-137878000D01*
X203549000Y-137878000D02*
X203962000Y-138291000D01*
X194500500Y-138239500D02*
X194500500Y-139573000D01*
X194862000Y-137878000D02*
X194500500Y-138239500D01*
X195482000Y-137878000D02*
X194862000Y-137878000D01*
D27*
X190615000Y-139827000D02*
X190615000Y-140677000D01*
X190615000Y-140677000D02*
X189992000Y-141300000D01*
X194056000Y-142820106D02*
X194056000Y-142113000D01*
X193759000Y-127320000D02*
X195658000Y-127320000D01*
X195658000Y-127320000D02*
X195719000Y-127381000D01*
X188395498Y-130365500D02*
X189801500Y-130365500D01*
D29*
X202282000Y-135878000D02*
X205006000Y-135878000D01*
X205006000Y-135878000D02*
X206279000Y-137151000D01*
X206279000Y-137151000D02*
X206629000Y-137151000D01*
X206629000Y-137151000D02*
X206629000Y-138569000D01*
X206629000Y-138569000D02*
X205879000Y-139319000D01*
X206629000Y-132851000D02*
X206629000Y-131433000D01*
X206629000Y-131433000D02*
X205879000Y-130683000D01*
X202282000Y-135378000D02*
X205306000Y-135378000D01*
X205306000Y-135378000D02*
X206629000Y-134055000D01*
X206629000Y-134055000D02*
X206629000Y-132851000D01*
X193536000Y-139627000D02*
X193536000Y-139827000D01*
X193032000Y-139123000D02*
X193536000Y-139627000D01*
X192591278Y-139123000D02*
X193032000Y-139123000D01*
X191859000Y-138390722D02*
X192591278Y-139123000D01*
X191859000Y-138303000D02*
X191859000Y-138390722D01*
X192081000Y-138303000D02*
X191859000Y-138303000D01*
X191986000Y-135255000D02*
X191986000Y-134404000D01*
X192036000Y-134354000D02*
X192036000Y-133604000D01*
X191986000Y-134404000D02*
X192036000Y-134354000D01*
D27*
X189198000Y-131572000D02*
X187706000Y-131572000D01*
X187706000Y-131572000D02*
X186690000Y-132588000D01*
D29*
X191862002Y-137541000D02*
X191579500Y-137258498D01*
X194029416Y-137541000D02*
X191862002Y-137541000D01*
X194692416Y-136878000D02*
X194029416Y-137541000D01*
X195482000Y-136878000D02*
X194692416Y-136878000D01*
X192786000Y-142113000D02*
X192786000Y-141541500D01*
X192786000Y-141541500D02*
X193220998Y-141106502D01*
X196132000Y-138528000D02*
X196132000Y-139402000D01*
X194427498Y-141106502D02*
X193220998Y-141106502D01*
X196132000Y-139402000D02*
X194427498Y-141106502D01*
X202282000Y-132378000D02*
X202872000Y-132378000D01*
X203100000Y-132150000D02*
X203100000Y-131181000D01*
X202872000Y-132378000D02*
X203100000Y-132150000D01*
X203835818Y-130826628D02*
X204464435Y-130826628D01*
X203454372Y-130826628D02*
X203835818Y-130826628D01*
X203100000Y-131181000D02*
X203454372Y-130826628D01*
X201632000Y-131728000D02*
X201632000Y-131171500D01*
X201632000Y-131171500D02*
X202247500Y-130556000D01*
X208661000Y-136823980D02*
X208661000Y-135128000D01*
X208661000Y-135128000D02*
X208280000Y-134747000D01*
X198501000Y-139890500D02*
X198501000Y-139446000D01*
X198501000Y-139446000D02*
X198628000Y-139319000D01*
X199132000Y-138528000D02*
X199132000Y-139069000D01*
X207728016Y-141540517D02*
X207728016Y-141540511D01*
X207409533Y-141859000D02*
X207728016Y-141540517D01*
X199580500Y-141859000D02*
X207409533Y-141859000D01*
X198501000Y-140779500D02*
X199580500Y-141859000D01*
X198501000Y-139890500D02*
X198501000Y-140779500D01*
X198628000Y-139319000D02*
X198501000Y-139446000D01*
X198882000Y-139319000D02*
X198628000Y-139319000D01*
X199132000Y-139069000D02*
X198882000Y-139319000D01*
X207728016Y-141540511D02*
X207728010Y-141540511D01*
X207728010Y-141540511D02*
X208661000Y-140607521D01*
X208661000Y-140607521D02*
X208661000Y-136823980D01*
X199132000Y-130789825D02*
X199209642Y-130712183D01*
X199209642Y-130712183D02*
X199654141Y-130267684D01*
X199132000Y-130789825D02*
X199132000Y-131728000D01*
X185166000Y-133874000D02*
X186579000Y-133874000D01*
X186579000Y-133874000D02*
X187960000Y-135255000D01*
X187960000Y-135255000D02*
X189115000Y-135255000D01*
X189115000Y-135255000D02*
X189115000Y-135878000D01*
X189115000Y-135878000D02*
X188595000Y-136398000D01*
X189115000Y-139827000D02*
X189115000Y-138823000D01*
X189115000Y-138823000D02*
X188976000Y-138684000D01*
X185166000Y-135874000D02*
X186420000Y-135874000D01*
X186420000Y-135874000D02*
X188087000Y-137541000D01*
X188087000Y-137541000D02*
X189115000Y-137541000D01*
X194878000Y-133378000D02*
X195482000Y-133378000D01*
X194754499Y-133254499D02*
X194878000Y-133378000D01*
X194754499Y-131825999D02*
X194754499Y-133254499D01*
X194310000Y-131381500D02*
X194754499Y-131825999D01*
X198374000Y-128651000D02*
X208280000Y-128651000D01*
X209304000Y-129675000D02*
X208470500Y-128841500D01*
X209304000Y-129675000D02*
X210947000Y-129675000D01*
X208280000Y-128651000D02*
X208470500Y-128841500D01*
X198564500Y-128460500D02*
X198374000Y-128651000D01*
X210947000Y-132215000D02*
X210701000Y-132215000D01*
X210701000Y-132215000D02*
X207772000Y-129286000D01*
X200632000Y-129949000D02*
X200632000Y-131728000D01*
X201295000Y-129286000D02*
X200632000Y-129949000D01*
X207772000Y-129286000D02*
X201295000Y-129286000D01*
X210947000Y-132215000D02*
X210245177Y-132215000D01*
X190817500Y-138811000D02*
X191020000Y-138811000D01*
X193536000Y-133604000D02*
X193536000Y-132854000D01*
X193536000Y-132854000D02*
X193802000Y-132588000D01*
X189865000Y-138079602D02*
X189865000Y-134716398D01*
X189865000Y-134716398D02*
X190596398Y-133985000D01*
X190596398Y-133985000D02*
X191008000Y-133985000D01*
X190596398Y-138811000D02*
X189865000Y-138079602D01*
X190817500Y-138811000D02*
X190596398Y-138811000D01*
X191020000Y-138811000D02*
X192036000Y-139827000D01*
X195482000Y-134878000D02*
X194949000Y-134878000D01*
X194949000Y-134878000D02*
X193675000Y-133604000D01*
X193675000Y-133604000D02*
X193536000Y-133604000D01*
X199251000Y-140081000D02*
X199632000Y-139700000D01*
X199632000Y-139700000D02*
X199632000Y-138528000D01*
X199632000Y-138528000D02*
X199632000Y-139132000D01*
D28*
X197219000Y-129591500D02*
X198132000Y-130504500D01*
X198132000Y-130504500D02*
X198132000Y-130695000D01*
X197219000Y-129159000D02*
X197219000Y-129591500D01*
X198132000Y-130695000D02*
X198132000Y-131728000D01*
D29*
X195482000Y-135878000D02*
X194307864Y-135878000D01*
X193933128Y-136252736D02*
X193573562Y-136252736D01*
X193573562Y-136252736D02*
X192944945Y-136252736D01*
X194307864Y-135878000D02*
X193933128Y-136252736D01*
X190754000Y-136525000D02*
X190754000Y-137402000D01*
X190754000Y-137402000D02*
X190615000Y-137541000D01*
X190717826Y-135255000D02*
X190615000Y-135255000D01*
X192549815Y-137086989D02*
X190717826Y-135255000D01*
X193740943Y-137086989D02*
X192549815Y-137086989D01*
X194449932Y-136378000D02*
X193740943Y-137086989D01*
X195482000Y-136378000D02*
X194449932Y-136378000D01*
G36*
X212340449Y-138730424D02*
X212306698Y-138696673D01*
X212073309Y-138600000D01*
X211232750Y-138600000D01*
X211074000Y-138758750D01*
X211074000Y-139708000D01*
X211094000Y-139708000D01*
X211094000Y-139962000D01*
X211074000Y-139962000D01*
X211074000Y-140911250D01*
X211232750Y-141070000D01*
X212073309Y-141070000D01*
X212306698Y-140973327D01*
X212340206Y-140939819D01*
X212339915Y-143578028D01*
X212143258Y-143999794D01*
X211797474Y-144415665D01*
X211366609Y-144735083D01*
X210894630Y-144941112D01*
X210259553Y-145085349D01*
X209434588Y-144944775D01*
X208672896Y-144619779D01*
X208668673Y-144618892D01*
X208665081Y-144616506D01*
X207992183Y-144339867D01*
X207957494Y-144333062D01*
X207926087Y-144316832D01*
X207090440Y-144075970D01*
X209778445Y-141387965D01*
X209823734Y-141320185D01*
X209959450Y-141117072D01*
X209968813Y-141070000D01*
X210661250Y-141070000D01*
X210820000Y-140911250D01*
X210820000Y-139962000D01*
X210800000Y-139962000D01*
X210800000Y-139708000D01*
X210820000Y-139708000D01*
X210820000Y-138758750D01*
X210661250Y-138600000D01*
X210023011Y-138600000D01*
X210023011Y-138542440D01*
X211947000Y-138542440D01*
X212182317Y-138498162D01*
X212340486Y-138396383D01*
X212340449Y-138730424D01*
X212340449Y-138730424D01*
G37*
X212340449Y-138730424D02*
X212306698Y-138696673D01*
X212073309Y-138600000D01*
X211232750Y-138600000D01*
X211074000Y-138758750D01*
X211074000Y-139708000D01*
X211094000Y-139708000D01*
X211094000Y-139962000D01*
X211074000Y-139962000D01*
X211074000Y-140911250D01*
X211232750Y-141070000D01*
X212073309Y-141070000D01*
X212306698Y-140973327D01*
X212340206Y-140939819D01*
X212339915Y-143578028D01*
X212143258Y-143999794D01*
X211797474Y-144415665D01*
X211366609Y-144735083D01*
X210894630Y-144941112D01*
X210259553Y-145085349D01*
X209434588Y-144944775D01*
X208672896Y-144619779D01*
X208668673Y-144618892D01*
X208665081Y-144616506D01*
X207992183Y-144339867D01*
X207957494Y-144333062D01*
X207926087Y-144316832D01*
X207090440Y-144075970D01*
X209778445Y-141387965D01*
X209823734Y-141320185D01*
X209959450Y-141117072D01*
X209968813Y-141070000D01*
X210661250Y-141070000D01*
X210820000Y-140911250D01*
X210820000Y-139962000D01*
X210800000Y-139962000D01*
X210800000Y-139708000D01*
X210820000Y-139708000D01*
X210820000Y-138758750D01*
X210661250Y-138600000D01*
X210023011Y-138600000D01*
X210023011Y-138542440D01*
X211947000Y-138542440D01*
X212182317Y-138498162D01*
X212340486Y-138396383D01*
X212340449Y-138730424D01*
G36*
X196866000Y-139795250D02*
X197024750Y-139954000D01*
X197626000Y-139954000D01*
X197626000Y-139934000D01*
X197739000Y-139934000D01*
X197739000Y-140779500D01*
X197797004Y-141071105D01*
X197905513Y-141233500D01*
X197962185Y-141318315D01*
X199041685Y-142397816D01*
X199288896Y-142562997D01*
X199580500Y-142621000D01*
X206183674Y-142621000D01*
X205867068Y-142937606D01*
X196074322Y-142937606D01*
X196221323Y-142810604D01*
X196420132Y-142414877D01*
X196295135Y-142240000D01*
X195453000Y-142240000D01*
X195453000Y-142260000D01*
X195199000Y-142260000D01*
X195199000Y-142240000D01*
X195179000Y-142240000D01*
X195179000Y-142195564D01*
X195191000Y-142135236D01*
X195191000Y-142090764D01*
X195179000Y-142030436D01*
X195179000Y-141986000D01*
X195199000Y-141986000D01*
X195199000Y-141966000D01*
X195453000Y-141966000D01*
X195453000Y-141986000D01*
X196295135Y-141986000D01*
X196420132Y-141811123D01*
X196221323Y-141415396D01*
X195886209Y-141125873D01*
X195627874Y-141018881D01*
X195501769Y-141109861D01*
X196244880Y-140366750D01*
X196866000Y-140366750D01*
X196866000Y-140657310D01*
X196962673Y-140890699D01*
X197141302Y-141069327D01*
X197374691Y-141166000D01*
X197467250Y-141166000D01*
X197626000Y-141007250D01*
X197626000Y-140208000D01*
X197024750Y-140208000D01*
X196866000Y-140366750D01*
X196244880Y-140366750D01*
X196670815Y-139940815D01*
X196702096Y-139894000D01*
X196835996Y-139693605D01*
X196866000Y-139542765D01*
X196866000Y-139795250D01*
X196866000Y-139795250D01*
G37*
X196866000Y-139795250D02*
X197024750Y-139954000D01*
X197626000Y-139954000D01*
X197626000Y-139934000D01*
X197739000Y-139934000D01*
X197739000Y-140779500D01*
X197797004Y-141071105D01*
X197905513Y-141233500D01*
X197962185Y-141318315D01*
X199041685Y-142397816D01*
X199288896Y-142562997D01*
X199580500Y-142621000D01*
X206183674Y-142621000D01*
X205867068Y-142937606D01*
X196074322Y-142937606D01*
X196221323Y-142810604D01*
X196420132Y-142414877D01*
X196295135Y-142240000D01*
X195453000Y-142240000D01*
X195453000Y-142260000D01*
X195199000Y-142260000D01*
X195199000Y-142240000D01*
X195179000Y-142240000D01*
X195179000Y-142195564D01*
X195191000Y-142135236D01*
X195191000Y-142090764D01*
X195179000Y-142030436D01*
X195179000Y-141986000D01*
X195199000Y-141986000D01*
X195199000Y-141966000D01*
X195453000Y-141966000D01*
X195453000Y-141986000D01*
X196295135Y-141986000D01*
X196420132Y-141811123D01*
X196221323Y-141415396D01*
X195886209Y-141125873D01*
X195627874Y-141018881D01*
X195501769Y-141109861D01*
X196244880Y-140366750D01*
X196866000Y-140366750D01*
X196866000Y-140657310D01*
X196962673Y-140890699D01*
X197141302Y-141069327D01*
X197374691Y-141166000D01*
X197467250Y-141166000D01*
X197626000Y-141007250D01*
X197626000Y-140208000D01*
X197024750Y-140208000D01*
X196866000Y-140366750D01*
X196244880Y-140366750D01*
X196670815Y-139940815D01*
X196702096Y-139894000D01*
X196835996Y-139693605D01*
X196866000Y-139542765D01*
X196866000Y-139795250D01*
G36*
X200507000Y-139525440D02*
X200757000Y-139525440D01*
X200862705Y-139505550D01*
X200866717Y-139507212D01*
X200841000Y-139636500D01*
X200841000Y-139706731D01*
X200761378Y-139786214D01*
X200596687Y-140182832D01*
X200596313Y-140612284D01*
X200760311Y-141009189D01*
X200847969Y-141097000D01*
X199896131Y-141097000D01*
X199856170Y-141057039D01*
X199952441Y-140995090D01*
X200097431Y-140782890D01*
X200148440Y-140531000D01*
X200148440Y-140261191D01*
X200170815Y-140238816D01*
X200335996Y-139991605D01*
X200348386Y-139929317D01*
X200394000Y-139700000D01*
X200394000Y-139502557D01*
X200507000Y-139525440D01*
X200507000Y-139525440D01*
G37*
X200507000Y-139525440D02*
X200757000Y-139525440D01*
X200862705Y-139505550D01*
X200866717Y-139507212D01*
X200841000Y-139636500D01*
X200841000Y-139706731D01*
X200761378Y-139786214D01*
X200596687Y-140182832D01*
X200596313Y-140612284D01*
X200760311Y-141009189D01*
X200847969Y-141097000D01*
X199896131Y-141097000D01*
X199856170Y-141057039D01*
X199952441Y-140995090D01*
X200097431Y-140782890D01*
X200148440Y-140531000D01*
X200148440Y-140261191D01*
X200170815Y-140238816D01*
X200335996Y-139991605D01*
X200348386Y-139929317D01*
X200394000Y-139700000D01*
X200394000Y-139502557D01*
X200507000Y-139525440D01*
G36*
X207481500Y-139466000D02*
X207252000Y-139466000D01*
X207252000Y-139446000D01*
X207232000Y-139446000D01*
X207232000Y-139192000D01*
X207252000Y-139192000D01*
X207252000Y-139172000D01*
X207481500Y-139172000D01*
X207481500Y-139466000D01*
X207481500Y-139466000D01*
G37*
X207481500Y-139466000D02*
X207252000Y-139466000D01*
X207252000Y-139446000D01*
X207232000Y-139446000D01*
X207232000Y-139192000D01*
X207252000Y-139192000D01*
X207252000Y-139172000D01*
X207481500Y-139172000D01*
X207481500Y-139466000D01*
G36*
X193606000Y-138430000D02*
X193586000Y-138430000D01*
X193586000Y-138450000D01*
X193369994Y-138450000D01*
X193323605Y-138419004D01*
X193312000Y-138416696D01*
X193312000Y-138303000D01*
X193606000Y-138303000D01*
X193606000Y-138430000D01*
X193606000Y-138430000D01*
G37*
X193606000Y-138430000D02*
X193586000Y-138430000D01*
X193586000Y-138450000D01*
X193369994Y-138450000D01*
X193323605Y-138419004D01*
X193312000Y-138416696D01*
X193312000Y-138303000D01*
X193606000Y-138303000D01*
X193606000Y-138430000D01*
G36*
X204089000Y-136664000D02*
X204109000Y-136664000D01*
X204109000Y-136918000D01*
X204089000Y-136918000D01*
X204089000Y-136938000D01*
X203835000Y-136938000D01*
X203835000Y-136918000D01*
X203815000Y-136918000D01*
X203815000Y-136664000D01*
X203835000Y-136664000D01*
X203835000Y-136644000D01*
X204089000Y-136644000D01*
X204089000Y-136664000D01*
X204089000Y-136664000D01*
G37*
X204089000Y-136664000D02*
X204109000Y-136664000D01*
X204109000Y-136918000D01*
X204089000Y-136918000D01*
X204089000Y-136938000D01*
X203835000Y-136938000D01*
X203835000Y-136918000D01*
X203815000Y-136918000D01*
X203815000Y-136664000D01*
X203835000Y-136664000D01*
X203835000Y-136644000D01*
X204089000Y-136644000D01*
X204089000Y-136664000D01*
G36*
X203587000Y-134385440D02*
X203708093Y-134385440D01*
X203707892Y-134616000D01*
X203267000Y-134616000D01*
X203267000Y-134599250D01*
X203246688Y-134578938D01*
X203235162Y-134517683D01*
X203227002Y-134505002D01*
X203267000Y-134505002D01*
X203267000Y-134454333D01*
X203351723Y-134397723D01*
X203401559Y-134347887D01*
X203587000Y-134385440D01*
X203587000Y-134385440D01*
G37*
X203587000Y-134385440D02*
X203708093Y-134385440D01*
X203707892Y-134616000D01*
X203267000Y-134616000D01*
X203267000Y-134599250D01*
X203246688Y-134578938D01*
X203235162Y-134517683D01*
X203227002Y-134505002D01*
X203267000Y-134505002D01*
X203267000Y-134454333D01*
X203351723Y-134397723D01*
X203401559Y-134347887D01*
X203587000Y-134385440D01*
G36*
X204109000Y-131847905D02*
X204109000Y-131965000D01*
X204089000Y-131965000D01*
X204089000Y-131985000D01*
X203862000Y-131985000D01*
X203862000Y-131745341D01*
X204109000Y-131847905D01*
X204109000Y-131847905D01*
G37*
X204109000Y-131847905D02*
X204109000Y-131965000D01*
X204089000Y-131965000D01*
X204089000Y-131985000D01*
X203862000Y-131985000D01*
X203862000Y-131745341D01*
X204109000Y-131847905D01*
G36*
X184208892Y-124616073D02*
X184814743Y-124810132D01*
X185368348Y-125053889D01*
X185377710Y-125055967D01*
X185385722Y-125061235D01*
X185978325Y-125301572D01*
X185994685Y-125304700D01*
X186009054Y-125313126D01*
X186322092Y-125421747D01*
X186322773Y-125421841D01*
X186323367Y-125422188D01*
X186535502Y-125495296D01*
X186536007Y-125495365D01*
X186536444Y-125495619D01*
X186605503Y-125519299D01*
X186605939Y-125519358D01*
X186606321Y-125519579D01*
X186668848Y-125540925D01*
X186669146Y-125540965D01*
X186669404Y-125541114D01*
X186703099Y-125552582D01*
X186703100Y-125552583D01*
X186735177Y-125563503D01*
X186735745Y-125563578D01*
X186736239Y-125563863D01*
X186769998Y-125575290D01*
X186769999Y-125575290D01*
X186801987Y-125586122D01*
X186802881Y-125586239D01*
X186803667Y-125586689D01*
X186949349Y-125635571D01*
X186950804Y-125635757D01*
X186952079Y-125636480D01*
X187069703Y-125675360D01*
X187073873Y-125675875D01*
X187077554Y-125677899D01*
X187400509Y-125780051D01*
X187409121Y-125781002D01*
X187416820Y-125784972D01*
X187624755Y-125844703D01*
X187638988Y-125845892D01*
X187651958Y-125851874D01*
X187904622Y-125912572D01*
X187921519Y-125913238D01*
X187937222Y-125919511D01*
X188228447Y-125973613D01*
X188245163Y-125973401D01*
X188260985Y-125978795D01*
X188818250Y-126052893D01*
X188835747Y-126051769D01*
X188852628Y-126056523D01*
X189418790Y-126100870D01*
X189436166Y-126098807D01*
X189453218Y-126102631D01*
X190248506Y-126121924D01*
X190265907Y-126118899D01*
X190283324Y-126121821D01*
X190902703Y-126103138D01*
X190787561Y-126275459D01*
X190760115Y-126413438D01*
X190577559Y-126530910D01*
X190572449Y-126538388D01*
X190364890Y-126396569D01*
X190113000Y-126345560D01*
X189363000Y-126345560D01*
X189127683Y-126389838D01*
X188911559Y-126528910D01*
X188766569Y-126741110D01*
X188715560Y-126993000D01*
X188715560Y-127793000D01*
X188759838Y-128028317D01*
X188826329Y-128131646D01*
X188824673Y-128133302D01*
X188728000Y-128366691D01*
X188728000Y-128607250D01*
X188886750Y-128766000D01*
X189611000Y-128766000D01*
X189611000Y-128746000D01*
X189766496Y-128746000D01*
X189658189Y-129006832D01*
X189658160Y-129040000D01*
X189611000Y-129040000D01*
X189611000Y-129020000D01*
X188886750Y-129020000D01*
X188728000Y-129178750D01*
X188728000Y-129419309D01*
X188774057Y-129530500D01*
X188461380Y-129530500D01*
X188445286Y-129514378D01*
X188048668Y-129349687D01*
X187619216Y-129349313D01*
X187222311Y-129513311D01*
X186918378Y-129816714D01*
X186753687Y-130213332D01*
X186753313Y-130642784D01*
X186917311Y-131039689D01*
X186987316Y-131109816D01*
X186588721Y-131508411D01*
X186571475Y-131508396D01*
X186547362Y-131026632D01*
X186388397Y-130642857D01*
X186146213Y-130573392D01*
X185345605Y-131374000D01*
X185359748Y-131388143D01*
X185180143Y-131567748D01*
X185166000Y-131553605D01*
X185151858Y-131567748D01*
X184972253Y-131388143D01*
X184986395Y-131374000D01*
X184972253Y-131359858D01*
X185151858Y-131180253D01*
X185166000Y-131194395D01*
X185966608Y-130393787D01*
X185897143Y-130151603D01*
X185373698Y-129964856D01*
X184948906Y-129986118D01*
X185137400Y-129704017D01*
X185242827Y-129174000D01*
X185137400Y-128643983D01*
X184837170Y-128194657D01*
X184387844Y-127894427D01*
X183857827Y-127789000D01*
X182274173Y-127789000D01*
X181939951Y-127855481D01*
X181939944Y-126050897D01*
X182252232Y-125605566D01*
X182429567Y-125363782D01*
X182612494Y-125167825D01*
X182823873Y-124989538D01*
X183053566Y-124839164D01*
X183243563Y-124741517D01*
X183456113Y-124654430D01*
X183739075Y-124571206D01*
X183788569Y-124566632D01*
X184208892Y-124616073D01*
X184208892Y-124616073D01*
G37*
X184208892Y-124616073D02*
X184814743Y-124810132D01*
X185368348Y-125053889D01*
X185377710Y-125055967D01*
X185385722Y-125061235D01*
X185978325Y-125301572D01*
X185994685Y-125304700D01*
X186009054Y-125313126D01*
X186322092Y-125421747D01*
X186322773Y-125421841D01*
X186323367Y-125422188D01*
X186535502Y-125495296D01*
X186536007Y-125495365D01*
X186536444Y-125495619D01*
X186605503Y-125519299D01*
X186605939Y-125519358D01*
X186606321Y-125519579D01*
X186668848Y-125540925D01*
X186669146Y-125540965D01*
X186669404Y-125541114D01*
X186703099Y-125552582D01*
X186703100Y-125552583D01*
X186735177Y-125563503D01*
X186735745Y-125563578D01*
X186736239Y-125563863D01*
X186769998Y-125575290D01*
X186769999Y-125575290D01*
X186801987Y-125586122D01*
X186802881Y-125586239D01*
X186803667Y-125586689D01*
X186949349Y-125635571D01*
X186950804Y-125635757D01*
X186952079Y-125636480D01*
X187069703Y-125675360D01*
X187073873Y-125675875D01*
X187077554Y-125677899D01*
X187400509Y-125780051D01*
X187409121Y-125781002D01*
X187416820Y-125784972D01*
X187624755Y-125844703D01*
X187638988Y-125845892D01*
X187651958Y-125851874D01*
X187904622Y-125912572D01*
X187921519Y-125913238D01*
X187937222Y-125919511D01*
X188228447Y-125973613D01*
X188245163Y-125973401D01*
X188260985Y-125978795D01*
X188818250Y-126052893D01*
X188835747Y-126051769D01*
X188852628Y-126056523D01*
X189418790Y-126100870D01*
X189436166Y-126098807D01*
X189453218Y-126102631D01*
X190248506Y-126121924D01*
X190265907Y-126118899D01*
X190283324Y-126121821D01*
X190902703Y-126103138D01*
X190787561Y-126275459D01*
X190760115Y-126413438D01*
X190577559Y-126530910D01*
X190572449Y-126538388D01*
X190364890Y-126396569D01*
X190113000Y-126345560D01*
X189363000Y-126345560D01*
X189127683Y-126389838D01*
X188911559Y-126528910D01*
X188766569Y-126741110D01*
X188715560Y-126993000D01*
X188715560Y-127793000D01*
X188759838Y-128028317D01*
X188826329Y-128131646D01*
X188824673Y-128133302D01*
X188728000Y-128366691D01*
X188728000Y-128607250D01*
X188886750Y-128766000D01*
X189611000Y-128766000D01*
X189611000Y-128746000D01*
X189766496Y-128746000D01*
X189658189Y-129006832D01*
X189658160Y-129040000D01*
X189611000Y-129040000D01*
X189611000Y-129020000D01*
X188886750Y-129020000D01*
X188728000Y-129178750D01*
X188728000Y-129419309D01*
X188774057Y-129530500D01*
X188461380Y-129530500D01*
X188445286Y-129514378D01*
X188048668Y-129349687D01*
X187619216Y-129349313D01*
X187222311Y-129513311D01*
X186918378Y-129816714D01*
X186753687Y-130213332D01*
X186753313Y-130642784D01*
X186917311Y-131039689D01*
X186987316Y-131109816D01*
X186588721Y-131508411D01*
X186571475Y-131508396D01*
X186547362Y-131026632D01*
X186388397Y-130642857D01*
X186146213Y-130573392D01*
X185345605Y-131374000D01*
X185359748Y-131388143D01*
X185180143Y-131567748D01*
X185166000Y-131553605D01*
X185151858Y-131567748D01*
X184972253Y-131388143D01*
X184986395Y-131374000D01*
X184972253Y-131359858D01*
X185151858Y-131180253D01*
X185166000Y-131194395D01*
X185966608Y-130393787D01*
X185897143Y-130151603D01*
X185373698Y-129964856D01*
X184948906Y-129986118D01*
X185137400Y-129704017D01*
X185242827Y-129174000D01*
X185137400Y-128643983D01*
X184837170Y-128194657D01*
X184387844Y-127894427D01*
X183857827Y-127789000D01*
X182274173Y-127789000D01*
X181939951Y-127855481D01*
X181939944Y-126050897D01*
X182252232Y-125605566D01*
X182429567Y-125363782D01*
X182612494Y-125167825D01*
X182823873Y-124989538D01*
X183053566Y-124839164D01*
X183243563Y-124741517D01*
X183456113Y-124654430D01*
X183739075Y-124571206D01*
X183788569Y-124566632D01*
X184208892Y-124616073D01*
G36*
X195397000Y-130402168D02*
X195397000Y-131193116D01*
X195389633Y-131229494D01*
X195389687Y-131167716D01*
X195225689Y-130770811D01*
X195092240Y-130637128D01*
X195414332Y-130315036D01*
X195397000Y-130402168D01*
X195397000Y-130402168D01*
G37*
X195397000Y-130402168D02*
X195397000Y-131193116D01*
X195389633Y-131229494D01*
X195389687Y-131167716D01*
X195225689Y-130770811D01*
X195092240Y-130637128D01*
X195414332Y-130315036D01*
X195397000Y-130402168D01*
G36*
X207506000Y-130556000D02*
X207526000Y-130556000D01*
X207526000Y-130810000D01*
X207506000Y-130810000D01*
X207506000Y-130830000D01*
X207252000Y-130830000D01*
X207252000Y-130810000D01*
X207232000Y-130810000D01*
X207232000Y-130556000D01*
X207252000Y-130556000D01*
X207252000Y-130536000D01*
X207506000Y-130536000D01*
X207506000Y-130556000D01*
X207506000Y-130556000D01*
G37*
X207506000Y-130556000D02*
X207526000Y-130556000D01*
X207526000Y-130810000D01*
X207506000Y-130810000D01*
X207506000Y-130830000D01*
X207252000Y-130830000D01*
X207252000Y-130810000D01*
X207232000Y-130810000D01*
X207232000Y-130556000D01*
X207252000Y-130556000D01*
X207252000Y-130536000D01*
X207506000Y-130536000D01*
X207506000Y-130556000D01*
G36*
X197334259Y-130746205D02*
X197257000Y-130730560D01*
X197007000Y-130730560D01*
X196901295Y-130750450D01*
X196883310Y-130743000D01*
X196867000Y-130743000D01*
X196867000Y-130692573D01*
X196998051Y-130496440D01*
X196998872Y-130492313D01*
X197012393Y-130424339D01*
X197334259Y-130746205D01*
X197334259Y-130746205D01*
G37*
X197334259Y-130746205D02*
X197257000Y-130730560D01*
X197007000Y-130730560D01*
X196901295Y-130750450D01*
X196883310Y-130743000D01*
X196867000Y-130743000D01*
X196867000Y-130692573D01*
X196998051Y-130496440D01*
X196998872Y-130492313D01*
X197012393Y-130424339D01*
X197334259Y-130746205D01*
G36*
X211699500Y-128427560D02*
X209947000Y-128427560D01*
X209711683Y-128471838D01*
X209495559Y-128610910D01*
X209423298Y-128716668D01*
X209009318Y-128302688D01*
X209009316Y-128302685D01*
X208818815Y-128112185D01*
X208809316Y-128105838D01*
X208571605Y-127947004D01*
X208280000Y-127889000D01*
X199138642Y-127889000D01*
X198986286Y-127736378D01*
X198589668Y-127571687D01*
X198160216Y-127571313D01*
X198159046Y-127571796D01*
X198095250Y-127508000D01*
X197346000Y-127508000D01*
X197346000Y-127528000D01*
X197092000Y-127528000D01*
X197092000Y-127508000D01*
X197072000Y-127508000D01*
X197072000Y-127254000D01*
X197092000Y-127254000D01*
X197092000Y-127234000D01*
X197346000Y-127234000D01*
X197346000Y-127254000D01*
X198095250Y-127254000D01*
X198254000Y-127095250D01*
X198254000Y-127009500D01*
X211699500Y-127009500D01*
X211699500Y-128427560D01*
X211699500Y-128427560D01*
G37*
X211699500Y-128427560D02*
X209947000Y-128427560D01*
X209711683Y-128471838D01*
X209495559Y-128610910D01*
X209423298Y-128716668D01*
X209009318Y-128302688D01*
X209009316Y-128302685D01*
X208818815Y-128112185D01*
X208809316Y-128105838D01*
X208571605Y-127947004D01*
X208280000Y-127889000D01*
X199138642Y-127889000D01*
X198986286Y-127736378D01*
X198589668Y-127571687D01*
X198160216Y-127571313D01*
X198159046Y-127571796D01*
X198095250Y-127508000D01*
X197346000Y-127508000D01*
X197346000Y-127528000D01*
X197092000Y-127528000D01*
X197092000Y-127508000D01*
X197072000Y-127508000D01*
X197072000Y-127254000D01*
X197092000Y-127254000D01*
X197092000Y-127234000D01*
X197346000Y-127234000D01*
X197346000Y-127254000D01*
X198095250Y-127254000D01*
X198254000Y-127095250D01*
X198254000Y-127009500D01*
X211699500Y-127009500D01*
X211699500Y-128427560D01*
M02*
