G04 #@! TF.FileFunction,Legend,Top*
%FSLAX46Y46*%
G04 Gerber Fmt 4.6, Leading zero omitted, Abs format (unit mm)*
G04 Created by KiCad (PCBNEW 4.0.2-stable) date 6/19/2017 9:33:45 AM*
%MOMM*%
G01*
G04 APERTURE LIST*
%ADD10C,0.150000*%
%ADD11C,0.050000*%
%ADD12C,0.200000*%
%ADD13C,0.120000*%
G04 APERTURE END LIST*
D10*
D11*
X195148238Y-143183000D02*
X195110143Y-143163952D01*
X195053000Y-143163952D01*
X194995857Y-143183000D01*
X194957762Y-143221095D01*
X194938714Y-143259190D01*
X194919666Y-143335381D01*
X194919666Y-143392524D01*
X194938714Y-143468714D01*
X194957762Y-143506810D01*
X194995857Y-143544905D01*
X195053000Y-143563952D01*
X195091095Y-143563952D01*
X195148238Y-143544905D01*
X195167286Y-143525857D01*
X195167286Y-143392524D01*
X195091095Y-143392524D01*
X195338714Y-143563952D02*
X195338714Y-143163952D01*
X195567286Y-143563952D01*
X195567286Y-143163952D01*
X195757762Y-143563952D02*
X195757762Y-143163952D01*
X195853000Y-143163952D01*
X195910143Y-143183000D01*
X195948238Y-143221095D01*
X195967286Y-143259190D01*
X195986334Y-143335381D01*
X195986334Y-143392524D01*
X195967286Y-143468714D01*
X195948238Y-143506810D01*
X195910143Y-143544905D01*
X195853000Y-143563952D01*
X195757762Y-143563952D01*
X193687763Y-143163952D02*
X193935382Y-143163952D01*
X193802049Y-143316333D01*
X193859191Y-143316333D01*
X193897287Y-143335381D01*
X193916334Y-143354429D01*
X193935382Y-143392524D01*
X193935382Y-143487762D01*
X193916334Y-143525857D01*
X193897287Y-143544905D01*
X193859191Y-143563952D01*
X193744906Y-143563952D01*
X193706810Y-143544905D01*
X193687763Y-143525857D01*
X194049667Y-143163952D02*
X194183001Y-143563952D01*
X194316334Y-143163952D01*
X194411572Y-143163952D02*
X194659191Y-143163952D01*
X194525858Y-143316333D01*
X194583000Y-143316333D01*
X194621096Y-143335381D01*
X194640143Y-143354429D01*
X194659191Y-143392524D01*
X194659191Y-143487762D01*
X194640143Y-143525857D01*
X194621096Y-143544905D01*
X194583000Y-143563952D01*
X194468715Y-143563952D01*
X194430619Y-143544905D01*
X194411572Y-143525857D01*
X192053333Y-143559952D02*
X192053333Y-143159952D01*
X192148571Y-143159952D01*
X192205714Y-143179000D01*
X192243809Y-143217095D01*
X192262857Y-143255190D01*
X192281905Y-143331381D01*
X192281905Y-143388524D01*
X192262857Y-143464714D01*
X192243809Y-143502810D01*
X192205714Y-143540905D01*
X192148571Y-143559952D01*
X192053333Y-143559952D01*
X192681905Y-143521857D02*
X192662857Y-143540905D01*
X192605714Y-143559952D01*
X192567619Y-143559952D01*
X192510476Y-143540905D01*
X192472381Y-143502810D01*
X192453333Y-143464714D01*
X192434285Y-143388524D01*
X192434285Y-143331381D01*
X192453333Y-143255190D01*
X192472381Y-143217095D01*
X192510476Y-143179000D01*
X192567619Y-143159952D01*
X192605714Y-143159952D01*
X192662857Y-143179000D01*
X192681905Y-143198048D01*
X193043809Y-143559952D02*
X192853333Y-143559952D01*
X192853333Y-143159952D01*
X193177143Y-143559952D02*
X193177143Y-143159952D01*
X193405715Y-143559952D02*
X193234286Y-143331381D01*
X193405715Y-143159952D02*
X193177143Y-143388524D01*
X190852476Y-143563952D02*
X190852476Y-143163952D01*
X190947714Y-143163952D01*
X191004857Y-143183000D01*
X191042952Y-143221095D01*
X191062000Y-143259190D01*
X191081048Y-143335381D01*
X191081048Y-143392524D01*
X191062000Y-143468714D01*
X191042952Y-143506810D01*
X191004857Y-143544905D01*
X190947714Y-143563952D01*
X190852476Y-143563952D01*
X191252476Y-143563952D02*
X191252476Y-143163952D01*
X191519143Y-143163952D02*
X191595333Y-143163952D01*
X191633428Y-143183000D01*
X191671524Y-143221095D01*
X191690571Y-143297286D01*
X191690571Y-143430619D01*
X191671524Y-143506810D01*
X191633428Y-143544905D01*
X191595333Y-143563952D01*
X191519143Y-143563952D01*
X191481047Y-143544905D01*
X191442952Y-143506810D01*
X191423904Y-143430619D01*
X191423904Y-143297286D01*
X191442952Y-143221095D01*
X191481047Y-143183000D01*
X191519143Y-143163952D01*
X208792000Y-140207953D02*
X208768190Y-140255572D01*
X208768190Y-140327000D01*
X208792000Y-140398429D01*
X208839619Y-140446048D01*
X208887238Y-140469857D01*
X208982476Y-140493667D01*
X209053905Y-140493667D01*
X209149143Y-140469857D01*
X209196762Y-140446048D01*
X209244381Y-140398429D01*
X209268190Y-140327000D01*
X209268190Y-140279381D01*
X209244381Y-140207953D01*
X209220571Y-140184143D01*
X209053905Y-140184143D01*
X209053905Y-140279381D01*
X209268190Y-139969857D02*
X208768190Y-139969857D01*
X209268190Y-139684143D01*
X208768190Y-139684143D01*
X209268190Y-139446047D02*
X208768190Y-139446047D01*
X208768190Y-139327000D01*
X208792000Y-139255571D01*
X208839619Y-139207952D01*
X208887238Y-139184143D01*
X208982476Y-139160333D01*
X209053905Y-139160333D01*
X209149143Y-139184143D01*
X209196762Y-139207952D01*
X209244381Y-139255571D01*
X209268190Y-139327000D01*
X209268190Y-139446047D01*
X209268190Y-137560809D02*
X209030095Y-137727476D01*
X209268190Y-137846523D02*
X208768190Y-137846523D01*
X208768190Y-137656047D01*
X208792000Y-137608428D01*
X208815810Y-137584619D01*
X208863429Y-137560809D01*
X208934857Y-137560809D01*
X208982476Y-137584619D01*
X209006286Y-137608428D01*
X209030095Y-137656047D01*
X209030095Y-137846523D01*
X209244381Y-137370333D02*
X209268190Y-137298904D01*
X209268190Y-137179857D01*
X209244381Y-137132238D01*
X209220571Y-137108428D01*
X209172952Y-137084619D01*
X209125333Y-137084619D01*
X209077714Y-137108428D01*
X209053905Y-137132238D01*
X209030095Y-137179857D01*
X209006286Y-137275095D01*
X208982476Y-137322714D01*
X208958667Y-137346523D01*
X208911048Y-137370333D01*
X208863429Y-137370333D01*
X208815810Y-137346523D01*
X208792000Y-137322714D01*
X208768190Y-137275095D01*
X208768190Y-137156047D01*
X208792000Y-137084619D01*
X208768190Y-136941762D02*
X208768190Y-136656048D01*
X209268190Y-136798905D02*
X208768190Y-136798905D01*
X209244381Y-135437476D02*
X209268190Y-135366047D01*
X209268190Y-135247000D01*
X209244381Y-135199381D01*
X209220571Y-135175571D01*
X209172952Y-135151762D01*
X209125333Y-135151762D01*
X209077714Y-135175571D01*
X209053905Y-135199381D01*
X209030095Y-135247000D01*
X209006286Y-135342238D01*
X208982476Y-135389857D01*
X208958667Y-135413666D01*
X208911048Y-135437476D01*
X208863429Y-135437476D01*
X208815810Y-135413666D01*
X208792000Y-135389857D01*
X208768190Y-135342238D01*
X208768190Y-135223190D01*
X208792000Y-135151762D01*
X208768190Y-134985095D02*
X209268190Y-134866048D01*
X208911048Y-134770810D01*
X209268190Y-134675572D01*
X208768190Y-134556524D01*
X208768190Y-134270809D02*
X208768190Y-134175571D01*
X208792000Y-134127952D01*
X208839619Y-134080333D01*
X208934857Y-134056524D01*
X209101524Y-134056524D01*
X209196762Y-134080333D01*
X209244381Y-134127952D01*
X209268190Y-134175571D01*
X209268190Y-134270809D01*
X209244381Y-134318428D01*
X209196762Y-134366047D01*
X209101524Y-134389857D01*
X208934857Y-134389857D01*
X208839619Y-134366047D01*
X208792000Y-134318428D01*
X208768190Y-134270809D01*
X209244381Y-133464952D02*
X209268190Y-133393523D01*
X209268190Y-133274476D01*
X209244381Y-133226857D01*
X209220571Y-133203047D01*
X209172952Y-133179238D01*
X209125333Y-133179238D01*
X209077714Y-133203047D01*
X209053905Y-133226857D01*
X209030095Y-133274476D01*
X209006286Y-133369714D01*
X208982476Y-133417333D01*
X208958667Y-133441142D01*
X208911048Y-133464952D01*
X208863429Y-133464952D01*
X208815810Y-133441142D01*
X208792000Y-133417333D01*
X208768190Y-133369714D01*
X208768190Y-133250666D01*
X208792000Y-133179238D01*
X208768190Y-133012571D02*
X209268190Y-132893524D01*
X208911048Y-132798286D01*
X209268190Y-132703048D01*
X208768190Y-132584000D01*
X209220571Y-132107809D02*
X209244381Y-132131619D01*
X209268190Y-132203047D01*
X209268190Y-132250666D01*
X209244381Y-132322095D01*
X209196762Y-132369714D01*
X209149143Y-132393523D01*
X209053905Y-132417333D01*
X208982476Y-132417333D01*
X208887238Y-132393523D01*
X208839619Y-132369714D01*
X208792000Y-132322095D01*
X208768190Y-132250666D01*
X208768190Y-132203047D01*
X208792000Y-132131619D01*
X208815810Y-132107809D01*
X209268190Y-131655428D02*
X209268190Y-131893523D01*
X208768190Y-131893523D01*
X209268190Y-131488761D02*
X208768190Y-131488761D01*
X209268190Y-131203047D02*
X208982476Y-131417333D01*
X208768190Y-131203047D02*
X209053905Y-131488761D01*
X209244381Y-130726524D02*
X209268190Y-130655095D01*
X209268190Y-130536048D01*
X209244381Y-130488429D01*
X209220571Y-130464619D01*
X209172952Y-130440810D01*
X209125333Y-130440810D01*
X209077714Y-130464619D01*
X209053905Y-130488429D01*
X209030095Y-130536048D01*
X209006286Y-130631286D01*
X208982476Y-130678905D01*
X208958667Y-130702714D01*
X208911048Y-130726524D01*
X208863429Y-130726524D01*
X208815810Y-130702714D01*
X208792000Y-130678905D01*
X208768190Y-130631286D01*
X208768190Y-130512238D01*
X208792000Y-130440810D01*
X208768190Y-130274143D02*
X209268190Y-130155096D01*
X208911048Y-130059858D01*
X209268190Y-129964620D01*
X208768190Y-129845572D01*
X209268190Y-129655095D02*
X208768190Y-129655095D01*
X208768190Y-129536048D01*
X208792000Y-129464619D01*
X208839619Y-129417000D01*
X208887238Y-129393191D01*
X208982476Y-129369381D01*
X209053905Y-129369381D01*
X209149143Y-129393191D01*
X209196762Y-129417000D01*
X209244381Y-129464619D01*
X209268190Y-129536048D01*
X209268190Y-129655095D01*
X209268190Y-129155095D02*
X208768190Y-129155095D01*
X208768190Y-128821762D02*
X208768190Y-128726524D01*
X208792000Y-128678905D01*
X208839619Y-128631286D01*
X208934857Y-128607477D01*
X209101524Y-128607477D01*
X209196762Y-128631286D01*
X209244381Y-128678905D01*
X209268190Y-128726524D01*
X209268190Y-128821762D01*
X209244381Y-128869381D01*
X209196762Y-128917000D01*
X209101524Y-128940810D01*
X208934857Y-128940810D01*
X208839619Y-128917000D01*
X208792000Y-128869381D01*
X208768190Y-128821762D01*
D10*
X201349334Y-143031333D02*
X201282668Y-143064667D01*
X201149334Y-143064667D01*
X201082668Y-143031333D01*
X201049334Y-142964667D01*
X201049334Y-142698000D01*
X201082668Y-142631333D01*
X201149334Y-142598000D01*
X201282668Y-142598000D01*
X201349334Y-142631333D01*
X201382668Y-142698000D01*
X201382668Y-142764667D01*
X201049334Y-142831333D01*
X201782668Y-143064667D02*
X201716001Y-143031333D01*
X201682668Y-142964667D01*
X201682668Y-142364667D01*
X202316001Y-143031333D02*
X202249335Y-143064667D01*
X202116001Y-143064667D01*
X202049335Y-143031333D01*
X202016001Y-142964667D01*
X202016001Y-142698000D01*
X202049335Y-142631333D01*
X202116001Y-142598000D01*
X202249335Y-142598000D01*
X202316001Y-142631333D01*
X202349335Y-142698000D01*
X202349335Y-142764667D01*
X202016001Y-142831333D01*
X202949335Y-143031333D02*
X202882668Y-143064667D01*
X202749335Y-143064667D01*
X202682668Y-143031333D01*
X202649335Y-142998000D01*
X202616001Y-142931333D01*
X202616001Y-142731333D01*
X202649335Y-142664667D01*
X202682668Y-142631333D01*
X202749335Y-142598000D01*
X202882668Y-142598000D01*
X202949335Y-142631333D01*
X203149335Y-142598000D02*
X203416001Y-142598000D01*
X203249335Y-142364667D02*
X203249335Y-142964667D01*
X203282668Y-143031333D01*
X203349335Y-143064667D01*
X203416001Y-143064667D01*
X203649335Y-143064667D02*
X203649335Y-142598000D01*
X203649335Y-142731333D02*
X203682668Y-142664667D01*
X203716001Y-142631333D01*
X203782668Y-142598000D01*
X203849335Y-142598000D01*
X204182668Y-143064667D02*
X204116001Y-143031333D01*
X204082668Y-142998000D01*
X204049334Y-142931333D01*
X204049334Y-142731333D01*
X204082668Y-142664667D01*
X204116001Y-142631333D01*
X204182668Y-142598000D01*
X204282668Y-142598000D01*
X204349334Y-142631333D01*
X204382668Y-142664667D01*
X204416001Y-142731333D01*
X204416001Y-142931333D01*
X204382668Y-142998000D01*
X204349334Y-143031333D01*
X204282668Y-143064667D01*
X204182668Y-143064667D01*
X204716001Y-142598000D02*
X204716001Y-143064667D01*
X204716001Y-142664667D02*
X204749334Y-142631333D01*
X204816001Y-142598000D01*
X204916001Y-142598000D01*
X204982667Y-142631333D01*
X205016001Y-142698000D01*
X205016001Y-143064667D01*
X205649334Y-142598000D02*
X205649334Y-143064667D01*
X205349334Y-142598000D02*
X205349334Y-142964667D01*
X205382667Y-143031333D01*
X205449334Y-143064667D01*
X205549334Y-143064667D01*
X205616000Y-143031333D01*
X205649334Y-142998000D01*
X205882667Y-142598000D02*
X206149333Y-142598000D01*
X205982667Y-142364667D02*
X205982667Y-142964667D01*
X206016000Y-143031333D01*
X206082667Y-143064667D01*
X206149333Y-143064667D01*
X206382667Y-142998000D02*
X206416000Y-143031333D01*
X206382667Y-143064667D01*
X206349333Y-143031333D01*
X206382667Y-142998000D01*
X206382667Y-143064667D01*
X206716000Y-143064667D02*
X206716000Y-142598000D01*
X206716000Y-142364667D02*
X206682666Y-142398000D01*
X206716000Y-142431333D01*
X206749333Y-142398000D01*
X206716000Y-142364667D01*
X206716000Y-142431333D01*
X207049333Y-142598000D02*
X207049333Y-143064667D01*
X207049333Y-142664667D02*
X207082666Y-142631333D01*
X207149333Y-142598000D01*
X207249333Y-142598000D01*
X207315999Y-142631333D01*
X207349333Y-142698000D01*
X207349333Y-143064667D01*
D12*
X200985905Y-127452381D02*
X200985905Y-126452381D01*
X200985905Y-126833333D02*
X201081143Y-126785714D01*
X201271620Y-126785714D01*
X201366858Y-126833333D01*
X201414477Y-126880952D01*
X201462096Y-126976190D01*
X201462096Y-127261905D01*
X201414477Y-127357143D01*
X201366858Y-127404762D01*
X201271620Y-127452381D01*
X201081143Y-127452381D01*
X200985905Y-127404762D01*
X202319239Y-126785714D02*
X202319239Y-127452381D01*
X201890667Y-126785714D02*
X201890667Y-127309524D01*
X201938286Y-127404762D01*
X202033524Y-127452381D01*
X202176382Y-127452381D01*
X202271620Y-127404762D01*
X202319239Y-127357143D01*
X202795429Y-127452381D02*
X202795429Y-126785714D01*
X202795429Y-126880952D02*
X202843048Y-126833333D01*
X202938286Y-126785714D01*
X203081144Y-126785714D01*
X203176382Y-126833333D01*
X203224001Y-126928571D01*
X203224001Y-127452381D01*
X203224001Y-126928571D02*
X203271620Y-126833333D01*
X203366858Y-126785714D01*
X203509715Y-126785714D01*
X203604953Y-126833333D01*
X203652572Y-126928571D01*
X203652572Y-127452381D01*
X204128762Y-126785714D02*
X204128762Y-127785714D01*
X204128762Y-126833333D02*
X204224000Y-126785714D01*
X204414477Y-126785714D01*
X204509715Y-126833333D01*
X204557334Y-126880952D01*
X204604953Y-126976190D01*
X204604953Y-127261905D01*
X204557334Y-127357143D01*
X204509715Y-127404762D01*
X204414477Y-127452381D01*
X204224000Y-127452381D01*
X204128762Y-127404762D01*
X204938286Y-126785714D02*
X205176381Y-127452381D01*
X205414477Y-126785714D02*
X205176381Y-127452381D01*
X205081143Y-127690476D01*
X205033524Y-127738095D01*
X204938286Y-127785714D01*
X206747810Y-126452381D02*
X206843049Y-126452381D01*
X206938287Y-126500000D01*
X206985906Y-126547619D01*
X207033525Y-126642857D01*
X207081144Y-126833333D01*
X207081144Y-127071429D01*
X207033525Y-127261905D01*
X206985906Y-127357143D01*
X206938287Y-127404762D01*
X206843049Y-127452381D01*
X206747810Y-127452381D01*
X206652572Y-127404762D01*
X206604953Y-127357143D01*
X206557334Y-127261905D01*
X206509715Y-127071429D01*
X206509715Y-126833333D01*
X206557334Y-126642857D01*
X206604953Y-126547619D01*
X206652572Y-126500000D01*
X206747810Y-126452381D01*
X207509715Y-127357143D02*
X207557334Y-127404762D01*
X207509715Y-127452381D01*
X207462096Y-127404762D01*
X207509715Y-127357143D01*
X207509715Y-127452381D01*
X208509715Y-127452381D02*
X207938286Y-127452381D01*
X208224000Y-127452381D02*
X208224000Y-126452381D01*
X208128762Y-126595238D01*
X208033524Y-126690476D01*
X207938286Y-126738095D01*
D13*
X190338000Y-127793000D02*
X190338000Y-128493000D01*
X189138000Y-128493000D02*
X189138000Y-127793000D01*
X196119000Y-126781000D02*
X196819000Y-126781000D01*
X196819000Y-127981000D02*
X196119000Y-127981000D01*
X206279000Y-138719000D02*
X206979000Y-138719000D01*
X206979000Y-139919000D02*
X206279000Y-139919000D01*
X206279000Y-130083000D02*
X206979000Y-130083000D01*
X206979000Y-131283000D02*
X206279000Y-131283000D01*
X204562000Y-132238000D02*
X204562000Y-132938000D01*
X203362000Y-132938000D02*
X203362000Y-132238000D01*
X204562000Y-137191000D02*
X204562000Y-137891000D01*
X203362000Y-137891000D02*
X203362000Y-137191000D01*
X193959000Y-138803000D02*
X193959000Y-137803000D01*
X193959000Y-137803000D02*
X191859000Y-137803000D01*
X193959000Y-138803000D02*
X191859000Y-138803000D01*
X191486000Y-134755000D02*
X191486000Y-135755000D01*
X191486000Y-135755000D02*
X193586000Y-135755000D01*
X191486000Y-134755000D02*
X193586000Y-134755000D01*
D10*
X188468000Y-130556000D02*
X192278000Y-130556000D01*
X192278000Y-130556000D02*
X192278000Y-132588000D01*
X192278000Y-132588000D02*
X188468000Y-132588000D01*
X188468000Y-132588000D02*
X188468000Y-130556000D01*
D13*
X192286000Y-132924000D02*
X193286000Y-132924000D01*
X193286000Y-134284000D02*
X192286000Y-134284000D01*
X193286000Y-140507000D02*
X192286000Y-140507000D01*
X192286000Y-139147000D02*
X193286000Y-139147000D01*
X198001000Y-139401000D02*
X199001000Y-139401000D01*
X199001000Y-140761000D02*
X198001000Y-140761000D01*
X195969000Y-128479000D02*
X196969000Y-128479000D01*
X196969000Y-129839000D02*
X195969000Y-129839000D01*
X189365000Y-136861000D02*
X190365000Y-136861000D01*
X190365000Y-138221000D02*
X189365000Y-138221000D01*
X189365000Y-134575000D02*
X190365000Y-134575000D01*
X190365000Y-135935000D02*
X189365000Y-135935000D01*
X189365000Y-139147000D02*
X190365000Y-139147000D01*
X190365000Y-140507000D02*
X189365000Y-140507000D01*
X191759000Y-129880000D02*
X193559000Y-129880000D01*
X193559000Y-126660000D02*
X191109000Y-126660000D01*
D10*
X195257000Y-138753000D02*
X195257000Y-138228000D01*
X202507000Y-131503000D02*
X202507000Y-132028000D01*
X195257000Y-131503000D02*
X195257000Y-132028000D01*
X202507000Y-138753000D02*
X201982000Y-138753000D01*
X202507000Y-131503000D02*
X201982000Y-131503000D01*
X195257000Y-131503000D02*
X195782000Y-131503000D01*
X195257000Y-138753000D02*
X195782000Y-138753000D01*
X208379000Y-132851000D02*
X208379000Y-137151000D01*
X204879000Y-137151000D02*
X204879000Y-132851000D01*
X182166000Y-128524000D02*
X182166000Y-141224000D01*
X167366000Y-128524000D02*
X167366000Y-141224000D01*
X167366000Y-141224000D02*
X186166000Y-141224000D01*
X186166000Y-141224000D02*
X186166000Y-128524000D01*
X186166000Y-128524000D02*
X167366000Y-128524000D01*
D11*
X189781667Y-126289571D02*
X189757857Y-126313381D01*
X189686429Y-126337190D01*
X189638810Y-126337190D01*
X189567381Y-126313381D01*
X189519762Y-126265762D01*
X189495953Y-126218143D01*
X189472143Y-126122905D01*
X189472143Y-126051476D01*
X189495953Y-125956238D01*
X189519762Y-125908619D01*
X189567381Y-125861000D01*
X189638810Y-125837190D01*
X189686429Y-125837190D01*
X189757857Y-125861000D01*
X189781667Y-125884810D01*
X190257857Y-126337190D02*
X189972143Y-126337190D01*
X190115000Y-126337190D02*
X190115000Y-125837190D01*
X190067381Y-125908619D01*
X190019762Y-125956238D01*
X189972143Y-125980048D01*
X198544667Y-127559571D02*
X198520857Y-127583381D01*
X198449429Y-127607190D01*
X198401810Y-127607190D01*
X198330381Y-127583381D01*
X198282762Y-127535762D01*
X198258953Y-127488143D01*
X198235143Y-127392905D01*
X198235143Y-127321476D01*
X198258953Y-127226238D01*
X198282762Y-127178619D01*
X198330381Y-127131000D01*
X198401810Y-127107190D01*
X198449429Y-127107190D01*
X198520857Y-127131000D01*
X198544667Y-127154810D01*
X198735143Y-127154810D02*
X198758953Y-127131000D01*
X198806572Y-127107190D01*
X198925619Y-127107190D01*
X198973238Y-127131000D01*
X198997048Y-127154810D01*
X199020857Y-127202429D01*
X199020857Y-127250048D01*
X198997048Y-127321476D01*
X198711334Y-127607190D01*
X199020857Y-127607190D01*
X206672667Y-140894571D02*
X206648857Y-140918381D01*
X206577429Y-140942190D01*
X206529810Y-140942190D01*
X206458381Y-140918381D01*
X206410762Y-140870762D01*
X206386953Y-140823143D01*
X206363143Y-140727905D01*
X206363143Y-140656476D01*
X206386953Y-140561238D01*
X206410762Y-140513619D01*
X206458381Y-140466000D01*
X206529810Y-140442190D01*
X206577429Y-140442190D01*
X206648857Y-140466000D01*
X206672667Y-140489810D01*
X206839334Y-140442190D02*
X207148857Y-140442190D01*
X206982191Y-140632667D01*
X207053619Y-140632667D01*
X207101238Y-140656476D01*
X207125048Y-140680286D01*
X207148857Y-140727905D01*
X207148857Y-140846952D01*
X207125048Y-140894571D01*
X207101238Y-140918381D01*
X207053619Y-140942190D01*
X206910762Y-140942190D01*
X206863143Y-140918381D01*
X206839334Y-140894571D01*
X206545667Y-129361571D02*
X206521857Y-129385381D01*
X206450429Y-129409190D01*
X206402810Y-129409190D01*
X206331381Y-129385381D01*
X206283762Y-129337762D01*
X206259953Y-129290143D01*
X206236143Y-129194905D01*
X206236143Y-129123476D01*
X206259953Y-129028238D01*
X206283762Y-128980619D01*
X206331381Y-128933000D01*
X206402810Y-128909190D01*
X206450429Y-128909190D01*
X206521857Y-128933000D01*
X206545667Y-128956810D01*
X206974238Y-129075857D02*
X206974238Y-129409190D01*
X206855191Y-128885381D02*
X206736143Y-129242524D01*
X207045667Y-129242524D01*
X203434167Y-130925071D02*
X203410357Y-130948881D01*
X203338929Y-130972690D01*
X203291310Y-130972690D01*
X203219881Y-130948881D01*
X203172262Y-130901262D01*
X203148453Y-130853643D01*
X203124643Y-130758405D01*
X203124643Y-130686976D01*
X203148453Y-130591738D01*
X203172262Y-130544119D01*
X203219881Y-130496500D01*
X203291310Y-130472690D01*
X203338929Y-130472690D01*
X203410357Y-130496500D01*
X203434167Y-130520310D01*
X203886548Y-130472690D02*
X203648453Y-130472690D01*
X203624643Y-130710786D01*
X203648453Y-130686976D01*
X203696072Y-130663167D01*
X203815119Y-130663167D01*
X203862738Y-130686976D01*
X203886548Y-130710786D01*
X203910357Y-130758405D01*
X203910357Y-130877452D01*
X203886548Y-130925071D01*
X203862738Y-130948881D01*
X203815119Y-130972690D01*
X203696072Y-130972690D01*
X203648453Y-130948881D01*
X203624643Y-130925071D01*
X203751667Y-139624571D02*
X203727857Y-139648381D01*
X203656429Y-139672190D01*
X203608810Y-139672190D01*
X203537381Y-139648381D01*
X203489762Y-139600762D01*
X203465953Y-139553143D01*
X203442143Y-139457905D01*
X203442143Y-139386476D01*
X203465953Y-139291238D01*
X203489762Y-139243619D01*
X203537381Y-139196000D01*
X203608810Y-139172190D01*
X203656429Y-139172190D01*
X203727857Y-139196000D01*
X203751667Y-139219810D01*
X204180238Y-139172190D02*
X204085000Y-139172190D01*
X204037381Y-139196000D01*
X204013572Y-139219810D01*
X203965953Y-139291238D01*
X203942143Y-139386476D01*
X203942143Y-139576952D01*
X203965953Y-139624571D01*
X203989762Y-139648381D01*
X204037381Y-139672190D01*
X204132619Y-139672190D01*
X204180238Y-139648381D01*
X204204048Y-139624571D01*
X204227857Y-139576952D01*
X204227857Y-139457905D01*
X204204048Y-139410286D01*
X204180238Y-139386476D01*
X204132619Y-139362667D01*
X204037381Y-139362667D01*
X203989762Y-139386476D01*
X203965953Y-139410286D01*
X203942143Y-139457905D01*
X192543953Y-137513190D02*
X192543953Y-137013190D01*
X192663000Y-137013190D01*
X192734429Y-137037000D01*
X192782048Y-137084619D01*
X192805857Y-137132238D01*
X192829667Y-137227476D01*
X192829667Y-137298905D01*
X192805857Y-137394143D01*
X192782048Y-137441762D01*
X192734429Y-137489381D01*
X192663000Y-137513190D01*
X192543953Y-137513190D01*
X193305857Y-137513190D02*
X193020143Y-137513190D01*
X193163000Y-137513190D02*
X193163000Y-137013190D01*
X193115381Y-137084619D01*
X193067762Y-137132238D01*
X193020143Y-137156048D01*
X191464453Y-136624190D02*
X191464453Y-136124190D01*
X191583500Y-136124190D01*
X191654929Y-136148000D01*
X191702548Y-136195619D01*
X191726357Y-136243238D01*
X191750167Y-136338476D01*
X191750167Y-136409905D01*
X191726357Y-136505143D01*
X191702548Y-136552762D01*
X191654929Y-136600381D01*
X191583500Y-136624190D01*
X191464453Y-136624190D01*
X191940643Y-136171810D02*
X191964453Y-136148000D01*
X192012072Y-136124190D01*
X192131119Y-136124190D01*
X192178738Y-136148000D01*
X192202548Y-136171810D01*
X192226357Y-136219429D01*
X192226357Y-136267048D01*
X192202548Y-136338476D01*
X191916834Y-136624190D01*
X192226357Y-136624190D01*
X192873334Y-131536286D02*
X192706668Y-131536286D01*
X192706668Y-131798190D02*
X192706668Y-131298190D01*
X192944763Y-131298190D01*
X193397143Y-131798190D02*
X193111429Y-131798190D01*
X193254286Y-131798190D02*
X193254286Y-131298190D01*
X193206667Y-131369619D01*
X193159048Y-131417238D01*
X193111429Y-131441048D01*
X189622953Y-142339190D02*
X189622953Y-141839190D01*
X189813429Y-141839190D01*
X189861048Y-141863000D01*
X189884857Y-141886810D01*
X189908667Y-141934429D01*
X189908667Y-142005857D01*
X189884857Y-142053476D01*
X189861048Y-142077286D01*
X189813429Y-142101095D01*
X189622953Y-142101095D01*
X190384857Y-142339190D02*
X190099143Y-142339190D01*
X190242000Y-142339190D02*
X190242000Y-141839190D01*
X190194381Y-141910619D01*
X190146762Y-141958238D01*
X190099143Y-141982048D01*
X210577953Y-127571190D02*
X210577953Y-127071190D01*
X210768429Y-127071190D01*
X210816048Y-127095000D01*
X210839857Y-127118810D01*
X210863667Y-127166429D01*
X210863667Y-127237857D01*
X210839857Y-127285476D01*
X210816048Y-127309286D01*
X210768429Y-127333095D01*
X210577953Y-127333095D01*
X211292238Y-127237857D02*
X211292238Y-127571190D01*
X211173191Y-127047381D02*
X211054143Y-127404524D01*
X211363667Y-127404524D01*
X190861167Y-133385690D02*
X190694500Y-133147595D01*
X190575453Y-133385690D02*
X190575453Y-132885690D01*
X190765929Y-132885690D01*
X190813548Y-132909500D01*
X190837357Y-132933310D01*
X190861167Y-132980929D01*
X190861167Y-133052357D01*
X190837357Y-133099976D01*
X190813548Y-133123786D01*
X190765929Y-133147595D01*
X190575453Y-133147595D01*
X191337357Y-133385690D02*
X191051643Y-133385690D01*
X191194500Y-133385690D02*
X191194500Y-132885690D01*
X191146881Y-132957119D01*
X191099262Y-133004738D01*
X191051643Y-133028548D01*
X192680667Y-141276190D02*
X192514000Y-141038095D01*
X192394953Y-141276190D02*
X192394953Y-140776190D01*
X192585429Y-140776190D01*
X192633048Y-140800000D01*
X192656857Y-140823810D01*
X192680667Y-140871429D01*
X192680667Y-140942857D01*
X192656857Y-140990476D01*
X192633048Y-141014286D01*
X192585429Y-141038095D01*
X192394953Y-141038095D01*
X192871143Y-140823810D02*
X192894953Y-140800000D01*
X192942572Y-140776190D01*
X193061619Y-140776190D01*
X193109238Y-140800000D01*
X193133048Y-140823810D01*
X193156857Y-140871429D01*
X193156857Y-140919048D01*
X193133048Y-140990476D01*
X192847334Y-141276190D01*
X193156857Y-141276190D01*
X198290667Y-141958190D02*
X198124000Y-141720095D01*
X198004953Y-141958190D02*
X198004953Y-141458190D01*
X198195429Y-141458190D01*
X198243048Y-141482000D01*
X198266857Y-141505810D01*
X198290667Y-141553429D01*
X198290667Y-141624857D01*
X198266857Y-141672476D01*
X198243048Y-141696286D01*
X198195429Y-141720095D01*
X198004953Y-141720095D01*
X198457334Y-141458190D02*
X198766857Y-141458190D01*
X198600191Y-141648667D01*
X198671619Y-141648667D01*
X198719238Y-141672476D01*
X198743048Y-141696286D01*
X198766857Y-141743905D01*
X198766857Y-141862952D01*
X198743048Y-141910571D01*
X198719238Y-141934381D01*
X198671619Y-141958190D01*
X198528762Y-141958190D01*
X198481143Y-141934381D01*
X198457334Y-141910571D01*
X198544667Y-129766190D02*
X198378000Y-129528095D01*
X198258953Y-129766190D02*
X198258953Y-129266190D01*
X198449429Y-129266190D01*
X198497048Y-129290000D01*
X198520857Y-129313810D01*
X198544667Y-129361429D01*
X198544667Y-129432857D01*
X198520857Y-129480476D01*
X198497048Y-129504286D01*
X198449429Y-129528095D01*
X198258953Y-129528095D01*
X198973238Y-129432857D02*
X198973238Y-129766190D01*
X198854191Y-129242381D02*
X198735143Y-129599524D01*
X199044667Y-129599524D01*
X189908667Y-138910190D02*
X189742000Y-138672095D01*
X189622953Y-138910190D02*
X189622953Y-138410190D01*
X189813429Y-138410190D01*
X189861048Y-138434000D01*
X189884857Y-138457810D01*
X189908667Y-138505429D01*
X189908667Y-138576857D01*
X189884857Y-138624476D01*
X189861048Y-138648286D01*
X189813429Y-138672095D01*
X189622953Y-138672095D01*
X190361048Y-138410190D02*
X190122953Y-138410190D01*
X190099143Y-138648286D01*
X190122953Y-138624476D01*
X190170572Y-138600667D01*
X190289619Y-138600667D01*
X190337238Y-138624476D01*
X190361048Y-138648286D01*
X190384857Y-138695905D01*
X190384857Y-138814952D01*
X190361048Y-138862571D01*
X190337238Y-138886381D01*
X190289619Y-138910190D01*
X190170572Y-138910190D01*
X190122953Y-138886381D01*
X190099143Y-138862571D01*
X189718167Y-136624190D02*
X189551500Y-136386095D01*
X189432453Y-136624190D02*
X189432453Y-136124190D01*
X189622929Y-136124190D01*
X189670548Y-136148000D01*
X189694357Y-136171810D01*
X189718167Y-136219429D01*
X189718167Y-136290857D01*
X189694357Y-136338476D01*
X189670548Y-136362286D01*
X189622929Y-136386095D01*
X189432453Y-136386095D01*
X190146738Y-136124190D02*
X190051500Y-136124190D01*
X190003881Y-136148000D01*
X189980072Y-136171810D01*
X189932453Y-136243238D01*
X189908643Y-136338476D01*
X189908643Y-136528952D01*
X189932453Y-136576571D01*
X189956262Y-136600381D01*
X190003881Y-136624190D01*
X190099119Y-136624190D01*
X190146738Y-136600381D01*
X190170548Y-136576571D01*
X190194357Y-136528952D01*
X190194357Y-136409905D01*
X190170548Y-136362286D01*
X190146738Y-136338476D01*
X190099119Y-136314667D01*
X190003881Y-136314667D01*
X189956262Y-136338476D01*
X189932453Y-136362286D01*
X189908643Y-136409905D01*
X189781667Y-141196190D02*
X189615000Y-140958095D01*
X189495953Y-141196190D02*
X189495953Y-140696190D01*
X189686429Y-140696190D01*
X189734048Y-140720000D01*
X189757857Y-140743810D01*
X189781667Y-140791429D01*
X189781667Y-140862857D01*
X189757857Y-140910476D01*
X189734048Y-140934286D01*
X189686429Y-140958095D01*
X189495953Y-140958095D01*
X189948334Y-140696190D02*
X190281667Y-140696190D01*
X190067381Y-141196190D01*
X192024048Y-125837190D02*
X192024048Y-126241952D01*
X192047857Y-126289571D01*
X192071667Y-126313381D01*
X192119286Y-126337190D01*
X192214524Y-126337190D01*
X192262143Y-126313381D01*
X192285952Y-126289571D01*
X192309762Y-126241952D01*
X192309762Y-125837190D01*
X192809762Y-126337190D02*
X192524048Y-126337190D01*
X192666905Y-126337190D02*
X192666905Y-125837190D01*
X192619286Y-125908619D01*
X192571667Y-125956238D01*
X192524048Y-125980048D01*
X197993048Y-130282190D02*
X197993048Y-130686952D01*
X198016857Y-130734571D01*
X198040667Y-130758381D01*
X198088286Y-130782190D01*
X198183524Y-130782190D01*
X198231143Y-130758381D01*
X198254952Y-130734571D01*
X198278762Y-130686952D01*
X198278762Y-130282190D01*
X198493048Y-130329810D02*
X198516858Y-130306000D01*
X198564477Y-130282190D01*
X198683524Y-130282190D01*
X198731143Y-130306000D01*
X198754953Y-130329810D01*
X198778762Y-130377429D01*
X198778762Y-130425048D01*
X198754953Y-130496476D01*
X198469239Y-130782190D01*
X198778762Y-130782190D01*
X203914406Y-135560595D02*
X203914406Y-135798690D01*
X203747739Y-135298690D02*
X203914406Y-135560595D01*
X204081072Y-135298690D01*
X204509643Y-135798690D02*
X204223929Y-135798690D01*
X204366786Y-135798690D02*
X204366786Y-135298690D01*
X204319167Y-135370119D01*
X204271548Y-135417738D01*
X204223929Y-135441548D01*
X183018953Y-127861190D02*
X183018953Y-127361190D01*
X183209429Y-127361190D01*
X183257048Y-127385000D01*
X183280857Y-127408810D01*
X183304667Y-127456429D01*
X183304667Y-127527857D01*
X183280857Y-127575476D01*
X183257048Y-127599286D01*
X183209429Y-127623095D01*
X183018953Y-127623095D01*
X183471334Y-127361190D02*
X183780857Y-127361190D01*
X183614191Y-127551667D01*
X183685619Y-127551667D01*
X183733238Y-127575476D01*
X183757048Y-127599286D01*
X183780857Y-127646905D01*
X183780857Y-127765952D01*
X183757048Y-127813571D01*
X183733238Y-127837381D01*
X183685619Y-127861190D01*
X183542762Y-127861190D01*
X183495143Y-127837381D01*
X183471334Y-127813571D01*
M02*
